G75*
G70*
%OFA0B0*%
%FSLAX24Y24*%
%IPPOS*%
%LPD*%
%AMOC8*
5,1,8,0,0,1.08239X$1,22.5*
%
%ADD10C,0.0000*%
D10*
X017579Y015172D02*
X017579Y020682D01*
X002719Y020682D01*
X002685Y020684D01*
X002652Y020690D01*
X002620Y020699D01*
X002589Y020712D01*
X002559Y020728D01*
X002532Y020747D01*
X002507Y020770D01*
X002484Y020795D01*
X002465Y020822D01*
X002449Y020852D01*
X002436Y020883D01*
X002427Y020915D01*
X002421Y020948D01*
X002419Y020982D01*
X002419Y022152D01*
X002421Y022186D01*
X002427Y022219D01*
X002436Y022251D01*
X002449Y022282D01*
X002465Y022312D01*
X002484Y022339D01*
X002507Y022364D01*
X002532Y022387D01*
X002559Y022406D01*
X002589Y022422D01*
X002620Y022435D01*
X002652Y022444D01*
X002685Y022450D01*
X002719Y022452D01*
X015619Y022452D01*
X027419Y032282D01*
X027419Y037242D01*
X027709Y037842D02*
X030549Y040182D01*
X031049Y040362D02*
X031279Y040362D01*
X031779Y040182D02*
X034619Y037842D01*
X034899Y037242D02*
X034899Y032282D01*
X046699Y022452D01*
X059599Y022452D01*
X059633Y022450D01*
X059666Y022444D01*
X059698Y022435D01*
X059729Y022422D01*
X059759Y022406D01*
X059786Y022387D01*
X059811Y022364D01*
X059834Y022339D01*
X059853Y022312D01*
X059869Y022282D01*
X059882Y022251D01*
X059891Y022219D01*
X059897Y022186D01*
X059899Y022152D01*
X059899Y020982D01*
X059897Y020948D01*
X059891Y020915D01*
X059882Y020883D01*
X059869Y020852D01*
X059853Y020822D01*
X059834Y020795D01*
X059811Y020770D01*
X059786Y020747D01*
X059759Y020728D01*
X059729Y020712D01*
X059698Y020699D01*
X059666Y020690D01*
X059633Y020684D01*
X059599Y020682D01*
X044749Y020682D01*
X044749Y015172D01*
X044747Y015118D01*
X044742Y015064D01*
X044732Y015011D01*
X044720Y014959D01*
X044703Y014907D01*
X044684Y014857D01*
X044660Y014809D01*
X044634Y014762D01*
X044604Y014716D01*
X044572Y014673D01*
X044536Y014633D01*
X044498Y014595D01*
X044458Y014559D01*
X044415Y014527D01*
X044369Y014497D01*
X044322Y014471D01*
X044274Y014447D01*
X044224Y014428D01*
X044172Y014411D01*
X044120Y014399D01*
X044067Y014389D01*
X044013Y014384D01*
X043959Y014382D01*
X018369Y014382D01*
X018315Y014384D01*
X018261Y014389D01*
X018208Y014399D01*
X018156Y014411D01*
X018104Y014428D01*
X018054Y014447D01*
X018006Y014471D01*
X017959Y014497D01*
X017913Y014527D01*
X017870Y014559D01*
X017830Y014595D01*
X017792Y014633D01*
X017756Y014673D01*
X017724Y014716D01*
X017694Y014762D01*
X017668Y014809D01*
X017644Y014857D01*
X017625Y014907D01*
X017608Y014959D01*
X017596Y015011D01*
X017586Y015064D01*
X017581Y015118D01*
X017579Y015172D01*
X030179Y024022D02*
X030179Y024222D01*
X030181Y024268D01*
X030186Y024314D01*
X030195Y024360D01*
X030208Y024404D01*
X030224Y024448D01*
X030243Y024490D01*
X030266Y024530D01*
X030292Y024569D01*
X030320Y024605D01*
X030352Y024639D01*
X030386Y024671D01*
X030422Y024699D01*
X030461Y024725D01*
X030501Y024748D01*
X030543Y024767D01*
X030587Y024783D01*
X030631Y024796D01*
X030677Y024805D01*
X030723Y024810D01*
X030769Y024812D01*
X031559Y024812D01*
X031605Y024810D01*
X031651Y024805D01*
X031697Y024796D01*
X031741Y024783D01*
X031785Y024767D01*
X031827Y024748D01*
X031867Y024725D01*
X031906Y024699D01*
X031942Y024671D01*
X031976Y024639D01*
X032008Y024605D01*
X032036Y024569D01*
X032062Y024530D01*
X032085Y024490D01*
X032104Y024448D01*
X032120Y024404D01*
X032133Y024360D01*
X032142Y024314D01*
X032147Y024268D01*
X032149Y024222D01*
X032149Y024022D01*
X032147Y023976D01*
X032142Y023930D01*
X032133Y023884D01*
X032120Y023840D01*
X032104Y023796D01*
X032085Y023754D01*
X032062Y023714D01*
X032036Y023675D01*
X032008Y023639D01*
X031976Y023605D01*
X031942Y023573D01*
X031906Y023545D01*
X031867Y023519D01*
X031827Y023496D01*
X031785Y023477D01*
X031741Y023461D01*
X031697Y023448D01*
X031651Y023439D01*
X031605Y023434D01*
X031559Y023432D01*
X030769Y023432D01*
X030723Y023434D01*
X030677Y023439D01*
X030631Y023448D01*
X030587Y023461D01*
X030543Y023477D01*
X030501Y023496D01*
X030461Y023519D01*
X030422Y023545D01*
X030386Y023573D01*
X030352Y023605D01*
X030320Y023639D01*
X030292Y023675D01*
X030266Y023714D01*
X030243Y023754D01*
X030224Y023796D01*
X030208Y023840D01*
X030195Y023884D01*
X030186Y023930D01*
X030181Y023976D01*
X030179Y024022D01*
X030569Y030132D02*
X031749Y030132D01*
X031759Y030132D02*
X031797Y030134D01*
X031835Y030139D01*
X031872Y030149D01*
X031908Y030162D01*
X031943Y030178D01*
X031976Y030198D01*
X032006Y030221D01*
X032035Y030246D01*
X032060Y030275D01*
X032083Y030305D01*
X032103Y030338D01*
X032119Y030373D01*
X032132Y030409D01*
X032142Y030446D01*
X032147Y030484D01*
X032149Y030522D01*
X032149Y031112D01*
X032148Y031151D01*
X032142Y031189D01*
X032133Y031227D01*
X032121Y031264D01*
X032105Y031299D01*
X032085Y031332D01*
X032062Y031364D01*
X032037Y031393D01*
X032008Y031419D01*
X031978Y031443D01*
X031945Y031463D01*
X031910Y031480D01*
X031873Y031494D01*
X031836Y031503D01*
X031798Y031510D01*
X031759Y031512D01*
X030569Y031512D01*
X030530Y031510D01*
X030492Y031503D01*
X030455Y031494D01*
X030418Y031480D01*
X030383Y031463D01*
X030350Y031443D01*
X030320Y031419D01*
X030291Y031393D01*
X030266Y031364D01*
X030243Y031332D01*
X030223Y031299D01*
X030207Y031264D01*
X030195Y031227D01*
X030186Y031189D01*
X030180Y031151D01*
X030179Y031112D01*
X030179Y031102D02*
X030179Y030512D01*
X030179Y030522D02*
X030181Y030484D01*
X030186Y030446D01*
X030196Y030409D01*
X030209Y030373D01*
X030225Y030338D01*
X030245Y030305D01*
X030268Y030275D01*
X030293Y030246D01*
X030322Y030221D01*
X030352Y030198D01*
X030385Y030178D01*
X030420Y030162D01*
X030456Y030149D01*
X030493Y030139D01*
X030531Y030134D01*
X030569Y030132D01*
X029969Y032102D02*
X032369Y032102D01*
X032369Y032103D02*
X032396Y032105D01*
X032422Y032110D01*
X032447Y032119D01*
X032471Y032132D01*
X032493Y032147D01*
X032512Y032165D01*
X032529Y032186D01*
X032543Y032209D01*
X032554Y032234D01*
X032561Y032260D01*
X032565Y032286D01*
X032565Y032313D01*
X032561Y032339D01*
X032554Y032365D01*
X032543Y032390D01*
X032529Y032413D01*
X032529Y032412D02*
X031719Y033592D01*
X031559Y033672D02*
X030779Y033672D01*
X030619Y033592D02*
X029809Y032412D01*
X029795Y032389D01*
X029785Y032365D01*
X029778Y032339D01*
X029774Y032312D01*
X029775Y032286D01*
X029778Y032259D01*
X029785Y032234D01*
X029796Y032209D01*
X029810Y032186D01*
X029827Y032166D01*
X029846Y032147D01*
X029868Y032132D01*
X029891Y032119D01*
X029916Y032110D01*
X029942Y032104D01*
X029969Y032102D01*
X029942Y032104D01*
X029916Y032110D01*
X029891Y032119D01*
X029868Y032132D01*
X029846Y032147D01*
X029827Y032166D01*
X029810Y032186D01*
X029796Y032209D01*
X029785Y032234D01*
X029778Y032259D01*
X029775Y032286D01*
X029774Y032312D01*
X029778Y032339D01*
X029785Y032365D01*
X029795Y032389D01*
X029809Y032412D01*
X030619Y033592D02*
X030636Y033612D01*
X030656Y033630D01*
X030678Y033645D01*
X030702Y033656D01*
X030727Y033665D01*
X030753Y033670D01*
X030779Y033672D01*
X030753Y033670D01*
X030727Y033665D01*
X030702Y033656D01*
X030678Y033645D01*
X030656Y033630D01*
X030636Y033612D01*
X030619Y033592D01*
X031559Y033673D02*
X031586Y033672D01*
X031612Y033667D01*
X031638Y033659D01*
X031661Y033647D01*
X031683Y033632D01*
X031703Y033614D01*
X031720Y033593D01*
X031703Y033614D01*
X031683Y033632D01*
X031661Y033647D01*
X031638Y033659D01*
X031612Y033667D01*
X031586Y033672D01*
X031559Y033673D01*
X032529Y032413D02*
X032543Y032390D01*
X032554Y032365D01*
X032561Y032339D01*
X032565Y032313D01*
X032565Y032286D01*
X032561Y032260D01*
X032554Y032234D01*
X032543Y032209D01*
X032529Y032186D01*
X032512Y032165D01*
X032493Y032147D01*
X032471Y032132D01*
X032447Y032119D01*
X032422Y032110D01*
X032396Y032105D01*
X032369Y032103D01*
X034899Y037242D02*
X034897Y037295D01*
X034892Y037347D01*
X034883Y037399D01*
X034871Y037450D01*
X034855Y037500D01*
X034836Y037549D01*
X034814Y037597D01*
X034789Y037643D01*
X034761Y037687D01*
X034729Y037730D01*
X034695Y037770D01*
X034659Y037807D01*
X034620Y037843D01*
X031779Y040182D02*
X031736Y040215D01*
X031691Y040245D01*
X031644Y040272D01*
X031595Y040296D01*
X031545Y040316D01*
X031493Y040332D01*
X031440Y040345D01*
X031387Y040355D01*
X031333Y040360D01*
X031279Y040362D01*
X031049Y040362D02*
X030995Y040360D01*
X030941Y040355D01*
X030887Y040345D01*
X030835Y040332D01*
X030783Y040316D01*
X030733Y040296D01*
X030684Y040272D01*
X030637Y040245D01*
X030592Y040215D01*
X030549Y040182D01*
X027709Y037842D02*
X027669Y037808D01*
X027631Y037771D01*
X027596Y037731D01*
X027563Y037689D01*
X027534Y037645D01*
X027507Y037599D01*
X027484Y037551D01*
X027464Y037502D01*
X027448Y037452D01*
X027435Y037400D01*
X027426Y037348D01*
X027421Y037295D01*
X027419Y037242D01*
M02*
