G75*
G70*
%OFA0B0*%
%FSLAX24Y24*%
%IPPOS*%
%LPD*%
%AMOC8*
5,1,8,0,0,1.08239X$1,22.5*
%
%ADD10R,0.0008X0.0008*%
%ADD11R,0.0040X0.0008*%
%ADD12R,0.0024X0.0008*%
%ADD13R,0.0016X0.0008*%
%ADD14R,0.0016X0.0008*%
%ADD15R,0.0032X0.0008*%
%ADD16R,0.0024X0.0008*%
%ADD17R,0.0144X0.0008*%
%ADD18R,0.0056X0.0008*%
%ADD19R,0.0264X0.0008*%
%ADD20R,0.0064X0.0008*%
%ADD21R,0.0096X0.0008*%
%ADD22R,0.0080X0.0008*%
%ADD23R,0.0064X0.0008*%
%ADD24R,0.0304X0.0008*%
%ADD25R,0.0088X0.0008*%
%ADD26R,0.0280X0.0008*%
%ADD27R,0.0112X0.0008*%
%ADD28R,0.0088X0.0008*%
%ADD29R,0.0056X0.0008*%
%ADD30R,0.0032X0.0008*%
%ADD31R,0.0208X0.0008*%
%ADD32R,0.0088X0.0008*%
%ADD33R,0.0264X0.0008*%
%ADD34R,0.0096X0.0008*%
%ADD35R,0.0104X0.0008*%
%ADD36R,0.0088X0.0008*%
%ADD37R,0.0304X0.0008*%
%ADD38R,0.0128X0.0008*%
%ADD39R,0.0280X0.0008*%
%ADD40R,0.0152X0.0008*%
%ADD41R,0.0344X0.0008*%
%ADD42R,0.0104X0.0008*%
%ADD43R,0.0176X0.0008*%
%ADD44R,0.0176X0.0008*%
%ADD45R,0.0104X0.0008*%
%ADD46R,0.0296X0.0008*%
%ADD47R,0.0160X0.0008*%
%ADD48R,0.0048X0.0008*%
%ADD49R,0.0072X0.0008*%
%ADD50R,0.0096X0.0008*%
%ADD51R,0.0152X0.0008*%
%ADD52R,0.0152X0.0008*%
%ADD53R,0.0128X0.0008*%
%ADD54R,0.0120X0.0008*%
%ADD55R,0.0136X0.0008*%
%ADD56R,0.0048X0.0008*%
%ADD57R,0.0072X0.0008*%
%ADD58R,0.0136X0.0008*%
%ADD59R,0.0296X0.0008*%
%ADD60R,0.0144X0.0008*%
%ADD61R,0.0288X0.0008*%
%ADD62R,0.0288X0.0008*%
%ADD63R,0.0112X0.0008*%
%ADD64R,0.0096X0.0008*%
%ADD65R,0.0136X0.0008*%
%ADD66R,0.0128X0.0008*%
%ADD67R,0.0016X0.0008*%
%ADD68R,0.0104X0.0008*%
%ADD69R,0.0008X0.0008*%
%ADD70R,0.0048X0.0008*%
%ADD71R,0.0072X0.0008*%
%ADD72R,0.0056X0.0008*%
%ADD73R,0.0136X0.0008*%
%ADD74R,0.0128X0.0008*%
%ADD75R,0.0008X0.0008*%
%ADD76R,0.0272X0.0008*%
%ADD77R,0.0256X0.0008*%
%ADD78R,0.0256X0.0008*%
%ADD79R,0.0248X0.0008*%
%ADD80R,0.0064X0.0008*%
%ADD81R,0.0080X0.0008*%
%ADD82R,0.0064X0.0008*%
%ADD83R,0.0240X0.0008*%
%ADD84R,0.0112X0.0008*%
%ADD85R,0.0032X0.0008*%
%ADD86R,0.0040X0.0008*%
%ADD87R,0.0120X0.0008*%
%ADD88R,0.0016X0.0008*%
%ADD89R,0.0336X0.0008*%
%ADD90R,0.0336X0.0008*%
%ADD91R,0.0336X0.0008*%
%ADD92R,0.0328X0.0008*%
%ADD93R,0.0144X0.0008*%
%ADD94R,0.0160X0.0008*%
%ADD95R,0.0112X0.0008*%
%ADD96R,0.0168X0.0008*%
%ADD97R,0.0168X0.0008*%
%ADD98R,0.0456X0.0008*%
%ADD99R,0.0448X0.0008*%
%ADD100R,0.0168X0.0008*%
%ADD101R,0.0456X0.0008*%
%ADD102R,0.0056X0.0008*%
%ADD103R,0.0144X0.0008*%
%ADD104R,0.0048X0.0008*%
%ADD105R,0.0224X0.0008*%
%ADD106R,0.0208X0.0008*%
%ADD107R,0.0192X0.0008*%
%ADD108R,0.0184X0.0008*%
%ADD109R,0.0184X0.0008*%
%ADD110R,0.0264X0.0008*%
%ADD111R,0.0264X0.0008*%
%ADD112R,0.0272X0.0008*%
%ADD113R,0.0192X0.0008*%
%ADD114R,0.0200X0.0008*%
%ADD115R,0.0216X0.0008*%
%ADD116R,0.0024X0.0008*%
%ADD117R,0.0008X0.0008*%
%ADD118R,0.0024X0.0008*%
%ADD119R,0.0184X0.0008*%
%ADD120R,0.0272X0.0008*%
%ADD121R,0.0288X0.0008*%
%ADD122R,0.0032X0.0008*%
%ADD123R,0.0304X0.0008*%
%ADD124R,0.0448X0.0008*%
%ADD125R,0.0232X0.0008*%
%ADD126R,0.0320X0.0008*%
%ADD127C,0.0060*%
%ADD128C,0.0040*%
%ADD129C,0.0050*%
%ADD130C,0.0100*%
%ADD131C,0.0080*%
D10*
X021627Y019742D03*
X022075Y020142D03*
X022075Y020150D03*
X022411Y020854D03*
X022635Y020942D03*
X022635Y020950D03*
X022651Y020982D03*
X022667Y021014D03*
X022987Y020822D03*
X022995Y020830D03*
X023011Y020846D03*
X023027Y020870D03*
X023171Y020822D03*
X023179Y020830D03*
X023195Y020846D03*
X023411Y020830D03*
X023427Y020846D03*
X023099Y021134D03*
X023091Y021142D03*
X023427Y019990D03*
X023419Y019974D03*
X023395Y019926D03*
X023195Y019846D03*
X023179Y019822D03*
X023171Y019814D03*
X023755Y019806D03*
X023771Y019830D03*
X023787Y019854D03*
X023795Y019862D03*
X023795Y019870D03*
X023939Y019806D03*
X023947Y019814D03*
X023955Y019822D03*
X024171Y019806D03*
X024179Y019814D03*
X024187Y019822D03*
X023851Y020102D03*
X024995Y019886D03*
X025011Y019910D03*
X025155Y021206D03*
X026379Y020326D03*
X027387Y020326D03*
X028011Y019902D03*
X028019Y019910D03*
D11*
X027979Y019854D03*
X027875Y019950D03*
X027867Y019942D03*
X027859Y019934D03*
X027851Y019926D03*
X027891Y019966D03*
X027899Y019974D03*
X027907Y019982D03*
X027931Y020326D03*
X026955Y020286D03*
X026947Y020294D03*
X026939Y020302D03*
X026683Y019782D03*
X026691Y019774D03*
X026699Y019766D03*
X025451Y020286D03*
X025443Y020294D03*
X025435Y020302D03*
X024923Y020326D03*
X024899Y019982D03*
X024891Y019974D03*
X024883Y019966D03*
X024867Y019950D03*
X024859Y019942D03*
X024851Y019934D03*
X024843Y019926D03*
X024971Y019854D03*
X025179Y019782D03*
X025187Y019774D03*
X025195Y019766D03*
X025179Y021254D03*
X025595Y021262D03*
X025595Y021270D03*
X024211Y021262D03*
X024203Y021254D03*
X024195Y021246D03*
X023787Y020862D03*
X023779Y020854D03*
X023771Y020846D03*
X022363Y020822D03*
X022235Y020766D03*
X022283Y021126D03*
X022299Y021134D03*
X022187Y021262D03*
X022195Y021270D03*
X021795Y020806D03*
X021923Y020326D03*
X022075Y020214D03*
X022075Y020206D03*
X021851Y019742D03*
D12*
X022171Y019742D03*
X022171Y019870D03*
X022075Y020174D03*
X022075Y020182D03*
X021971Y021006D03*
X022075Y021126D03*
X022083Y021134D03*
X022115Y021174D03*
X022123Y021182D03*
X022131Y021190D03*
X022163Y021230D03*
X022675Y021166D03*
X022691Y021054D03*
X022683Y021046D03*
X023083Y020766D03*
X023451Y021166D03*
X023435Y021350D03*
X023275Y021350D03*
X023915Y020982D03*
X023923Y020990D03*
X024195Y020326D03*
X024195Y020214D03*
X024211Y020142D03*
X023835Y019742D03*
X023451Y020030D03*
X023443Y020022D03*
X023435Y020142D03*
X023203Y020142D03*
X024763Y019854D03*
X025243Y019742D03*
X026435Y019742D03*
X026435Y019870D03*
X027771Y019854D03*
X027995Y019870D03*
X027795Y020230D03*
X025595Y021230D03*
X025595Y021246D03*
X025163Y021222D03*
D13*
X025591Y021222D03*
X025591Y021214D03*
X025591Y021206D03*
X024775Y020214D03*
X023855Y020094D03*
X023855Y020086D03*
X023535Y020142D03*
X023431Y020006D03*
X023423Y019982D03*
X023415Y019966D03*
X023391Y019910D03*
X023663Y019742D03*
X023071Y019742D03*
X022903Y020766D03*
X022631Y020934D03*
X022655Y020990D03*
X022663Y021006D03*
X022671Y021022D03*
X022671Y021030D03*
X022775Y021166D03*
X023055Y021166D03*
X023103Y021126D03*
X022111Y020310D03*
X021775Y020766D03*
X021671Y019950D03*
X021671Y019942D03*
X021671Y019934D03*
X021671Y019926D03*
X021631Y019750D03*
X027775Y020206D03*
X027783Y020214D03*
D14*
X028007Y019894D03*
X024999Y019894D03*
X024767Y020206D03*
X024079Y019742D03*
X023847Y020110D03*
X023807Y020142D03*
X023527Y020014D03*
X023439Y020014D03*
X023407Y019950D03*
X023399Y019934D03*
X023319Y020766D03*
X023407Y020822D03*
X022647Y020974D03*
X022399Y020846D03*
X022079Y020166D03*
X025159Y021214D03*
X025167Y021230D03*
D15*
X025175Y021246D03*
X025599Y021254D03*
X024815Y019902D03*
X024807Y019894D03*
X024799Y019886D03*
X024775Y019862D03*
X023527Y020022D03*
X022375Y020830D03*
X022391Y021166D03*
X022175Y021246D03*
X022159Y021222D03*
X022151Y021214D03*
X022111Y021166D03*
X022095Y021150D03*
X022087Y021142D03*
X022055Y021102D03*
X022047Y021094D03*
X022039Y021086D03*
X022015Y021054D03*
X022007Y021046D03*
X021991Y021030D03*
X021959Y020990D03*
X021951Y020982D03*
X021927Y020950D03*
X021919Y020942D03*
X021911Y020934D03*
X022695Y021062D03*
X022767Y021046D03*
X023799Y020870D03*
X023815Y020886D03*
X023831Y020902D03*
X023839Y020910D03*
X023855Y020926D03*
X023871Y020942D03*
X023879Y020950D03*
X023895Y020966D03*
X024071Y021126D03*
X024079Y021134D03*
X024087Y021142D03*
X024095Y021150D03*
X024111Y021166D03*
X024119Y021174D03*
X024127Y021182D03*
X024135Y021190D03*
X024151Y021206D03*
X024159Y021214D03*
X024167Y021222D03*
X024175Y021230D03*
X022079Y020190D03*
X021671Y019902D03*
X021671Y019894D03*
X021671Y019886D03*
X026135Y019742D03*
X026887Y020326D03*
X027791Y019870D03*
X027807Y019886D03*
X027815Y019894D03*
X027831Y019910D03*
D16*
X027987Y019862D03*
X027787Y020222D03*
X027499Y019870D03*
X027499Y019742D03*
X026747Y019742D03*
X024987Y019870D03*
X024979Y019862D03*
X024779Y020222D03*
X024787Y020230D03*
X023187Y020214D03*
X023187Y020326D03*
X022027Y021070D03*
X022019Y021062D03*
X021987Y021022D03*
X021979Y021014D03*
X021947Y020974D03*
X021939Y020966D03*
X021787Y020790D03*
X021787Y020782D03*
X021779Y020774D03*
X021667Y019910D03*
D17*
X021847Y019750D03*
X022919Y020286D03*
X023087Y019790D03*
X021847Y020926D03*
X024799Y021054D03*
X025807Y020294D03*
D18*
X025331Y020302D03*
X025323Y020294D03*
X025315Y020286D03*
X024963Y020054D03*
X024955Y020046D03*
X024931Y020014D03*
X024923Y020006D03*
X025171Y019814D03*
X025171Y019806D03*
X026043Y019806D03*
X026051Y019790D03*
X026435Y019750D03*
X026435Y019862D03*
X026675Y019814D03*
X026675Y019806D03*
X026803Y019766D03*
X026811Y019774D03*
X026963Y020254D03*
X026963Y020262D03*
X026835Y020302D03*
X025595Y021286D03*
X024195Y020222D03*
X023755Y020110D03*
X023763Y020830D03*
X023435Y021246D03*
X023435Y021342D03*
X023011Y021142D03*
X023003Y021134D03*
X022251Y021094D03*
X022203Y021294D03*
X021803Y020822D03*
X022075Y020230D03*
X022171Y019862D03*
X022171Y019750D03*
X021675Y019854D03*
X027931Y020006D03*
X027955Y020030D03*
X027963Y020046D03*
X027971Y020054D03*
X028163Y019966D03*
X028171Y019974D03*
X028155Y019950D03*
X028203Y020006D03*
X028211Y020014D03*
X028235Y020046D03*
X028243Y020054D03*
X028251Y020062D03*
X028275Y020086D03*
X028283Y020094D03*
X028475Y020310D03*
D19*
X027851Y019814D03*
X024843Y019814D03*
X022771Y019750D03*
X022435Y019750D03*
D20*
X022071Y020246D03*
X021671Y019846D03*
X022223Y021054D03*
X022231Y021070D03*
X022775Y021150D03*
X022991Y021126D03*
X024231Y021294D03*
X023743Y020094D03*
X023735Y020086D03*
X023535Y020126D03*
X023663Y019750D03*
X023071Y019750D03*
X024975Y020070D03*
X024983Y020086D03*
X025295Y020262D03*
X025463Y020246D03*
X025463Y020230D03*
X026671Y019830D03*
X026671Y019822D03*
X026823Y019782D03*
X026831Y019790D03*
X027975Y020062D03*
X027983Y020070D03*
X027991Y020086D03*
X028463Y020286D03*
X028471Y020302D03*
D21*
X028391Y020094D03*
X028383Y020070D03*
X028383Y020062D03*
X028351Y019950D03*
X028311Y019814D03*
X028311Y019806D03*
X028303Y019782D03*
X028295Y019750D03*
X028015Y020166D03*
X028015Y020174D03*
X028015Y020182D03*
X028015Y020190D03*
X027311Y020206D03*
X027311Y020214D03*
X027311Y020222D03*
X027303Y020190D03*
X027303Y020182D03*
X027295Y020166D03*
X027271Y020086D03*
X027263Y020054D03*
X027255Y020030D03*
X027255Y020022D03*
X027231Y019950D03*
X027231Y019942D03*
X027215Y019894D03*
X027215Y019886D03*
X026871Y019854D03*
X026671Y019910D03*
X026671Y019926D03*
X026751Y020174D03*
X026751Y020182D03*
X026215Y020246D03*
X026031Y019910D03*
X026031Y019902D03*
X026031Y019894D03*
X026255Y019846D03*
X026263Y019862D03*
X025751Y020022D03*
X025751Y020030D03*
X025743Y020006D03*
X025735Y019974D03*
X025735Y019966D03*
X025711Y019894D03*
X025711Y019886D03*
X025703Y019862D03*
X025695Y019830D03*
X025775Y020110D03*
X025783Y020134D03*
X025783Y020142D03*
X025791Y020166D03*
X025463Y020150D03*
X025463Y020142D03*
X025455Y020126D03*
X025455Y020110D03*
X025255Y020190D03*
X025175Y019950D03*
X025175Y019942D03*
X025175Y019934D03*
X025375Y019870D03*
X025383Y019886D03*
X024151Y020054D03*
X024151Y020062D03*
X024143Y020030D03*
X024135Y020006D03*
X024111Y019926D03*
X024103Y019902D03*
X024095Y019870D03*
X023855Y019862D03*
X023855Y019854D03*
X023655Y019910D03*
X023655Y019926D03*
X023663Y019942D03*
X023663Y019950D03*
X023375Y020054D03*
X023335Y019886D03*
X023311Y019814D03*
X023311Y019806D03*
X023303Y019782D03*
X023295Y019750D03*
X023095Y019902D03*
X023103Y019926D03*
X023111Y019950D03*
X023135Y020030D03*
X023143Y020054D03*
X023143Y020062D03*
X023935Y020126D03*
X023935Y020134D03*
X023335Y020894D03*
X023343Y020926D03*
X023351Y020950D03*
X023375Y021030D03*
X023383Y021054D03*
X023391Y021086D03*
X023175Y021134D03*
X023175Y021142D03*
X023183Y021166D03*
X023183Y021174D03*
X023191Y021190D03*
X023215Y021270D03*
X023151Y021062D03*
X023151Y021054D03*
X023143Y021030D03*
X023143Y021022D03*
X023135Y021006D03*
X023103Y020902D03*
X023103Y020894D03*
X023103Y020886D03*
X023095Y020870D03*
X023095Y020862D03*
X022895Y020934D03*
X022895Y020942D03*
X022895Y020950D03*
X022903Y020966D03*
X022903Y020974D03*
X022911Y020990D03*
X022575Y020910D03*
X022551Y020830D03*
X022543Y020806D03*
X022535Y020782D03*
X022535Y020774D03*
X022391Y021046D03*
X022183Y020942D03*
X022175Y020934D03*
X022175Y020926D03*
X022175Y020910D03*
X022175Y020902D03*
X022175Y020854D03*
X021823Y020870D03*
X021863Y020294D03*
X021831Y020270D03*
X021823Y020262D03*
X021823Y020254D03*
X021815Y020246D03*
X022063Y020270D03*
X021983Y019830D03*
X021975Y019814D03*
X021951Y019790D03*
X021943Y019782D03*
D22*
X021679Y019822D03*
X022071Y020254D03*
X021815Y020854D03*
X022191Y020990D03*
X022199Y021006D03*
X022199Y021014D03*
X022207Y021022D03*
X022207Y021030D03*
X022575Y020942D03*
X022583Y020966D03*
X022647Y021150D03*
X022767Y021134D03*
X022935Y021046D03*
X022943Y021062D03*
X022951Y021070D03*
X022959Y021086D03*
X023751Y020814D03*
X024239Y021302D03*
X023711Y020054D03*
X023695Y020030D03*
X023695Y020022D03*
X023687Y020006D03*
X023679Y019990D03*
X023527Y020110D03*
X023407Y020126D03*
X023343Y019942D03*
X023839Y019750D03*
X024991Y020102D03*
X024999Y020126D03*
X025351Y019830D03*
X025351Y019822D03*
X025463Y020190D03*
X025847Y020310D03*
X026247Y020270D03*
X026271Y020286D03*
X026287Y020294D03*
X026031Y019870D03*
X026031Y019862D03*
X026031Y019854D03*
X026031Y019846D03*
X026215Y019782D03*
X026223Y019790D03*
X026855Y019822D03*
X026855Y019830D03*
X026967Y020190D03*
X027351Y020310D03*
X027999Y020102D03*
X028007Y020126D03*
X028447Y020262D03*
X028455Y020270D03*
X025583Y021302D03*
D23*
X025199Y021286D03*
X024967Y020062D03*
X025167Y019830D03*
X025167Y019822D03*
X025319Y019782D03*
X025327Y019790D03*
X026039Y019814D03*
X026039Y019822D03*
X026327Y020310D03*
X026799Y020262D03*
X026967Y020246D03*
X026967Y020230D03*
X024079Y019750D03*
X023759Y020822D03*
X023319Y020774D03*
X022767Y021062D03*
X022247Y021086D03*
X022207Y021302D03*
X021807Y020830D03*
D24*
X024799Y021326D03*
X024799Y019750D03*
X027807Y019750D03*
D25*
X028443Y020254D03*
X026963Y020134D03*
X026763Y020206D03*
X026283Y020030D03*
X026243Y019822D03*
X025363Y019846D03*
X025243Y019750D03*
X025163Y019886D03*
X025163Y019894D03*
X025163Y019902D03*
X025003Y020134D03*
X025003Y020142D03*
X025003Y020150D03*
X024243Y021310D03*
X023323Y020782D03*
X022923Y021014D03*
X022923Y021022D03*
X022603Y021022D03*
X022603Y021030D03*
X022403Y021070D03*
X022363Y021006D03*
X021683Y019814D03*
X023363Y020006D03*
X023363Y020014D03*
D26*
X025675Y019750D03*
X027179Y019750D03*
D27*
X027191Y019806D03*
X026911Y019942D03*
X026911Y019950D03*
X026919Y019966D03*
X026919Y019974D03*
X026927Y019982D03*
X026927Y019990D03*
X026935Y020006D03*
X026935Y020014D03*
X026935Y020022D03*
X026719Y020094D03*
X026719Y020102D03*
X026711Y020070D03*
X026695Y020022D03*
X026695Y020014D03*
X026687Y019990D03*
X026151Y020182D03*
X026127Y020150D03*
X026119Y020142D03*
X026119Y020134D03*
X026111Y020126D03*
X026095Y020094D03*
X026079Y020070D03*
X026079Y020062D03*
X026071Y020054D03*
X026071Y020046D03*
X026055Y020014D03*
X026055Y020006D03*
X026047Y019982D03*
X026047Y019974D03*
X026135Y019750D03*
X025687Y019806D03*
X025407Y019942D03*
X025407Y019950D03*
X025415Y019966D03*
X025415Y019974D03*
X025431Y020006D03*
X025431Y020014D03*
X025431Y020022D03*
X025439Y020046D03*
X025439Y020054D03*
X025399Y019926D03*
X025191Y020014D03*
X025191Y020022D03*
X025199Y020046D03*
X025199Y020054D03*
X025207Y020070D03*
X025215Y020094D03*
X025215Y020102D03*
X025007Y020206D03*
X025007Y020214D03*
X024999Y020222D03*
X024607Y020854D03*
X024607Y020862D03*
X024615Y020886D03*
X024631Y020942D03*
X024639Y020966D03*
X024647Y020990D03*
X024655Y021022D03*
X024679Y021102D03*
X024687Y021134D03*
X024711Y021214D03*
X024719Y021246D03*
X024727Y021270D03*
X024879Y021094D03*
X024815Y021030D03*
X024831Y020974D03*
X024839Y020950D03*
X024839Y020942D03*
X024855Y020894D03*
X024855Y020886D03*
X025279Y020870D03*
X025279Y020862D03*
X025287Y020894D03*
X025287Y020902D03*
X025295Y020926D03*
X025311Y020982D03*
X025319Y021006D03*
X025319Y021014D03*
X025335Y021062D03*
X025335Y021070D03*
X025351Y021126D03*
X025359Y021150D03*
X025367Y021174D03*
X025367Y021182D03*
X025375Y021206D03*
X025391Y021262D03*
X025399Y021286D03*
X025399Y021294D03*
X025231Y021310D03*
X024159Y020102D03*
X024159Y020094D03*
X024087Y019766D03*
X023847Y019766D03*
X023855Y019886D03*
X023511Y020062D03*
X023375Y020094D03*
X023151Y020094D03*
X023151Y020102D03*
X022895Y020190D03*
X022887Y020166D03*
X022879Y020142D03*
X022879Y020134D03*
X022871Y020110D03*
X022855Y020054D03*
X022831Y019974D03*
X022807Y019894D03*
X022807Y019886D03*
X022799Y019862D03*
X022791Y019830D03*
X023079Y019766D03*
X022487Y019942D03*
X022495Y019974D03*
X022471Y019894D03*
X022471Y019886D03*
X022455Y019830D03*
X022519Y020054D03*
X022527Y020086D03*
X022535Y020110D03*
X022551Y020166D03*
X022567Y020222D03*
X022239Y020774D03*
X021831Y020886D03*
X021831Y020934D03*
X021831Y020942D03*
X021839Y021030D03*
X021839Y021046D03*
X021839Y021054D03*
X021839Y021062D03*
X021839Y021070D03*
X021839Y021086D03*
X021839Y021094D03*
X021839Y021102D03*
X021839Y021110D03*
X021847Y021134D03*
X021847Y021142D03*
X021847Y021150D03*
X021847Y021166D03*
X021847Y021174D03*
X021847Y021182D03*
X021847Y021190D03*
X021847Y021206D03*
X021847Y021214D03*
X021847Y021222D03*
X021847Y021230D03*
X022215Y021326D03*
X022751Y021086D03*
X022911Y020790D03*
X023159Y021094D03*
X023159Y021102D03*
X023159Y021110D03*
X023399Y021126D03*
X023319Y020822D03*
X023327Y020790D03*
X021991Y019886D03*
X021991Y019870D03*
X021991Y019862D03*
X021991Y019854D03*
X021807Y020190D03*
X021807Y020206D03*
X021807Y020214D03*
X028007Y020222D03*
X028015Y020214D03*
X028015Y020206D03*
X028415Y020206D03*
D28*
X028011Y020150D03*
X028011Y020142D03*
X028011Y020134D03*
X027499Y019854D03*
X026971Y020166D03*
X026971Y020174D03*
X026971Y020182D03*
X026779Y020230D03*
X026771Y020222D03*
X026771Y020214D03*
X026667Y019902D03*
X026667Y019894D03*
X026667Y019886D03*
X026747Y019750D03*
X026867Y019846D03*
X026875Y019862D03*
X026435Y019854D03*
X026235Y019806D03*
X026035Y019886D03*
X026275Y020046D03*
X026275Y020054D03*
X026267Y020062D03*
X026259Y020070D03*
X026227Y020254D03*
X026235Y020262D03*
X025467Y020182D03*
X025467Y020174D03*
X025467Y020166D03*
X025459Y020134D03*
X025275Y020230D03*
X025267Y020222D03*
X025267Y020214D03*
X025259Y020206D03*
X025371Y019862D03*
X024195Y020302D03*
X023691Y020014D03*
X023675Y019982D03*
X023675Y019974D03*
X023667Y019966D03*
X023659Y019934D03*
X023371Y020030D03*
X023371Y020046D03*
X023379Y020062D03*
X023379Y020070D03*
X023355Y019990D03*
X023355Y019982D03*
X023355Y019974D03*
X023347Y019966D03*
X023347Y019950D03*
X023339Y019934D03*
X023339Y019926D03*
X023331Y019910D03*
X023187Y020302D03*
X022907Y020782D03*
X022907Y020982D03*
X022915Y021006D03*
X022931Y021030D03*
X022939Y021054D03*
X022619Y021086D03*
X022619Y021094D03*
X022611Y021070D03*
X022611Y021062D03*
X022611Y021054D03*
X022595Y021014D03*
X022595Y021006D03*
X022587Y020990D03*
X022587Y020982D03*
X022587Y020974D03*
X022579Y020950D03*
X022571Y020934D03*
X022379Y021022D03*
X022379Y021030D03*
X022371Y021014D03*
X022395Y021054D03*
X022187Y020982D03*
X022187Y020974D03*
X022187Y020966D03*
X021819Y020862D03*
X022067Y020262D03*
X022171Y019854D03*
X023435Y021262D03*
X023435Y021326D03*
X023747Y020806D03*
X025219Y021302D03*
D29*
X025459Y020262D03*
X025459Y020254D03*
X025307Y019774D03*
X025299Y019766D03*
X024947Y020030D03*
X024939Y020022D03*
X023747Y020102D03*
X023187Y020222D03*
X022907Y020774D03*
X022259Y021102D03*
X024227Y021286D03*
X026819Y020286D03*
X026827Y020294D03*
X027499Y019862D03*
X027499Y019750D03*
X027939Y020014D03*
X027947Y020022D03*
X028179Y019982D03*
X028187Y019990D03*
X028219Y020022D03*
X028259Y020070D03*
X028467Y020294D03*
D30*
X027799Y019878D03*
X024791Y019878D03*
X023455Y020038D03*
X023807Y020878D03*
X023847Y020918D03*
X023887Y020958D03*
X023935Y020998D03*
X022167Y021238D03*
X022135Y021198D03*
X021999Y021038D03*
X021967Y020998D03*
X021791Y020798D03*
X022079Y020198D03*
X021639Y019758D03*
D31*
X021839Y019758D03*
D32*
X022171Y019758D03*
X023075Y019758D03*
X023347Y019958D03*
X023371Y020038D03*
X023187Y020238D03*
X023667Y019958D03*
X023667Y019758D03*
X024195Y020238D03*
X022915Y020998D03*
X022931Y021038D03*
X022595Y020998D03*
X022579Y020958D03*
X022387Y021038D03*
X022195Y020998D03*
X022219Y021318D03*
X026035Y019878D03*
X026227Y019798D03*
X026435Y019758D03*
X026259Y020278D03*
X027499Y019758D03*
D33*
X026163Y020078D03*
X022771Y019758D03*
X022435Y019758D03*
D34*
X023295Y019758D03*
X023655Y019918D03*
X023895Y019998D03*
X023391Y021078D03*
X023191Y021198D03*
X023215Y021278D03*
X023143Y021038D03*
X023135Y020998D03*
X022615Y021078D03*
X022383Y021158D03*
X022175Y020918D03*
X022551Y020838D03*
X025175Y019958D03*
X025255Y020198D03*
X025383Y020318D03*
X025463Y020158D03*
X025455Y020118D03*
X025743Y019998D03*
X025695Y019838D03*
X025791Y020158D03*
X026255Y019838D03*
X026671Y019918D03*
X026743Y020158D03*
X027271Y020078D03*
X027295Y020158D03*
X027303Y020198D03*
X027223Y019918D03*
X028015Y020158D03*
X028375Y020038D03*
X028351Y019958D03*
X028295Y019758D03*
X028431Y020238D03*
D35*
X028363Y019998D03*
X027931Y020318D03*
X027315Y020238D03*
X027283Y020118D03*
X027235Y019958D03*
X027211Y019878D03*
X026915Y019958D03*
X026883Y019878D03*
X026691Y019998D03*
X026435Y019838D03*
X026283Y019918D03*
X026291Y019958D03*
X026043Y019958D03*
X026035Y019918D03*
X026131Y020158D03*
X026163Y020198D03*
X025811Y020238D03*
X025755Y020038D03*
X025731Y019958D03*
X025411Y019958D03*
X025395Y019918D03*
X025195Y020038D03*
X025011Y020198D03*
X024923Y020318D03*
X024155Y020078D03*
X024131Y019998D03*
X024123Y019958D03*
X024083Y019838D03*
X023851Y019838D03*
X023843Y019798D03*
X023843Y019758D03*
X023651Y019798D03*
X023643Y019838D03*
X023883Y019958D03*
X023931Y020118D03*
X023515Y020078D03*
X023331Y019878D03*
X023115Y019958D03*
X023123Y019998D03*
X023091Y019878D03*
X023075Y019838D03*
X023315Y020838D03*
X023331Y020878D03*
X023355Y020958D03*
X023155Y021078D03*
X023203Y021238D03*
X023435Y021278D03*
X023435Y021318D03*
X022763Y021118D03*
X022883Y020878D03*
X022563Y020878D03*
X022411Y021118D03*
X022171Y020878D03*
X021835Y020958D03*
X021835Y020998D03*
X021843Y021118D03*
X021811Y020238D03*
X022171Y019838D03*
D36*
X023363Y019998D03*
X023683Y019998D03*
X024083Y019758D03*
X022603Y021038D03*
X026283Y020038D03*
D37*
X027807Y019758D03*
X024799Y019758D03*
D38*
X025247Y019758D03*
X024991Y020238D03*
X024887Y020798D03*
X024951Y021198D03*
X024951Y021238D03*
X024095Y020838D03*
X024015Y021038D03*
X023327Y020798D03*
X023095Y020798D03*
X022911Y020798D03*
X021927Y020318D03*
X022447Y019798D03*
X026751Y019758D03*
X027999Y020238D03*
D39*
X027835Y019798D03*
X027179Y019758D03*
X025675Y019758D03*
X024827Y019798D03*
D40*
X024595Y020798D03*
X025259Y020798D03*
X026139Y019758D03*
X023907Y021318D03*
X028387Y020158D03*
D41*
X021795Y019766D03*
D42*
X021683Y019806D03*
X021811Y020222D03*
X021811Y020230D03*
X022171Y019846D03*
X022171Y019774D03*
X022171Y019766D03*
X022555Y020846D03*
X022563Y020870D03*
X022571Y020894D03*
X022571Y020902D03*
X022411Y021102D03*
X022411Y021110D03*
X022171Y020894D03*
X022171Y020886D03*
X022171Y020870D03*
X022171Y020862D03*
X021835Y020950D03*
X021835Y020966D03*
X021835Y020974D03*
X021835Y020982D03*
X021835Y020990D03*
X021835Y021006D03*
X021835Y021014D03*
X021835Y021022D03*
X021843Y021126D03*
X022755Y021102D03*
X022755Y021094D03*
X022763Y021110D03*
X022891Y020926D03*
X022883Y020870D03*
X022883Y020862D03*
X022883Y020854D03*
X022891Y020822D03*
X023083Y020822D03*
X023091Y020790D03*
X023091Y020854D03*
X023115Y020934D03*
X023115Y020942D03*
X023115Y020950D03*
X023123Y020966D03*
X023131Y020990D03*
X023155Y021070D03*
X023155Y021086D03*
X023171Y021126D03*
X023195Y021206D03*
X023203Y021230D03*
X023211Y021262D03*
X023435Y021270D03*
X023435Y021310D03*
X023395Y021110D03*
X023395Y021102D03*
X023395Y021094D03*
X023371Y021022D03*
X023371Y021014D03*
X023363Y020990D03*
X023363Y020982D03*
X023355Y020966D03*
X023331Y020886D03*
X023323Y020862D03*
X023323Y020854D03*
X023323Y020846D03*
X023315Y020830D03*
X023523Y020094D03*
X023523Y020086D03*
X023515Y020070D03*
X023643Y019854D03*
X023643Y019846D03*
X023643Y019830D03*
X023843Y019822D03*
X023843Y019814D03*
X023843Y019806D03*
X023851Y019846D03*
X023875Y019926D03*
X023875Y019934D03*
X023875Y019942D03*
X023883Y019950D03*
X023891Y019974D03*
X023891Y019982D03*
X023891Y019990D03*
X023923Y020086D03*
X023923Y020094D03*
X024155Y020086D03*
X024155Y020070D03*
X024131Y019990D03*
X024123Y019966D03*
X024115Y019942D03*
X024115Y019934D03*
X024091Y019862D03*
X024091Y019854D03*
X024083Y019830D03*
X024083Y019822D03*
X024075Y019814D03*
X024075Y019806D03*
X024195Y020246D03*
X024195Y020254D03*
X024195Y020286D03*
X024195Y020294D03*
X023331Y019870D03*
X023323Y019854D03*
X023323Y019846D03*
X023315Y019822D03*
X023091Y019886D03*
X023091Y019894D03*
X023083Y019862D03*
X023083Y019854D03*
X023075Y019830D03*
X023075Y019822D03*
X023115Y019966D03*
X023123Y019990D03*
X023131Y020014D03*
X023131Y020022D03*
X025195Y020030D03*
X025203Y020062D03*
X025211Y020086D03*
X025235Y020142D03*
X025235Y020150D03*
X025243Y020166D03*
X025451Y020102D03*
X025451Y020094D03*
X025451Y020086D03*
X025443Y020070D03*
X025443Y020062D03*
X025435Y020030D03*
X025403Y019934D03*
X025395Y019910D03*
X025691Y019822D03*
X025691Y019814D03*
X025715Y019902D03*
X025715Y019910D03*
X025723Y019926D03*
X025723Y019934D03*
X025755Y020046D03*
X025763Y020062D03*
X025763Y020070D03*
X025771Y020094D03*
X025771Y020102D03*
X025795Y020174D03*
X025811Y020230D03*
X025811Y020246D03*
X026155Y020190D03*
X026171Y020206D03*
X026291Y019990D03*
X026291Y019982D03*
X026291Y019974D03*
X026291Y019966D03*
X026283Y019934D03*
X026283Y019926D03*
X026283Y019910D03*
X026275Y019902D03*
X026275Y019894D03*
X026275Y019886D03*
X026435Y019846D03*
X026435Y019774D03*
X026435Y019766D03*
X026683Y019966D03*
X026683Y019974D03*
X026683Y019982D03*
X026691Y020006D03*
X026715Y020086D03*
X026723Y020110D03*
X026731Y020126D03*
X026731Y020134D03*
X026955Y020102D03*
X026955Y020094D03*
X026955Y020086D03*
X026891Y019902D03*
X026891Y019894D03*
X027195Y019822D03*
X027195Y019814D03*
X027203Y019846D03*
X027203Y019854D03*
X027211Y019870D03*
X027243Y019982D03*
X027243Y019990D03*
X027251Y020014D03*
X027275Y020094D03*
X027275Y020102D03*
X027283Y020126D03*
X027291Y020150D03*
X027315Y020230D03*
X027315Y020246D03*
X027331Y020302D03*
X028371Y020030D03*
X028371Y020022D03*
X028363Y019990D03*
X028355Y019974D03*
X028355Y019966D03*
X028323Y019854D03*
X028315Y019830D03*
X028315Y019822D03*
X028395Y020102D03*
X028395Y020110D03*
X026051Y019990D03*
X026043Y019966D03*
X026043Y019950D03*
X026043Y019942D03*
X026035Y019926D03*
X025571Y021310D03*
D43*
X022439Y019766D03*
X022247Y020790D03*
D44*
X022775Y019766D03*
X023903Y021326D03*
X024255Y021342D03*
X024591Y020790D03*
X024911Y020782D03*
X025791Y020286D03*
X027295Y020286D03*
D45*
X027299Y020174D03*
X027267Y020070D03*
X027267Y020062D03*
X027259Y020046D03*
X027227Y019934D03*
X027227Y019926D03*
X027219Y019910D03*
X027219Y019902D03*
X027499Y019846D03*
X027499Y019774D03*
X027499Y019766D03*
X026907Y019934D03*
X026899Y019910D03*
X026939Y020030D03*
X026947Y020062D03*
X026947Y020070D03*
X026739Y020142D03*
X026739Y020150D03*
X026747Y020166D03*
X026707Y020062D03*
X026699Y020030D03*
X026267Y019870D03*
X026259Y019854D03*
X026219Y020094D03*
X026139Y020166D03*
X026179Y020214D03*
X026187Y020222D03*
X025827Y020302D03*
X025787Y020150D03*
X025779Y020126D03*
X025747Y020014D03*
X025739Y019990D03*
X025739Y019982D03*
X025707Y019870D03*
X025699Y019854D03*
X025699Y019846D03*
X025387Y019894D03*
X025387Y019902D03*
X025179Y019966D03*
X025179Y019974D03*
X025179Y019982D03*
X025187Y020006D03*
X025219Y020110D03*
X025227Y020126D03*
X025227Y020134D03*
X024147Y020046D03*
X024139Y020022D03*
X024139Y020014D03*
X024107Y019910D03*
X024099Y019894D03*
X024099Y019886D03*
X023867Y019910D03*
X023859Y019870D03*
X023899Y020006D03*
X023899Y020014D03*
X023899Y020022D03*
X023667Y019766D03*
X023339Y019894D03*
X023339Y019902D03*
X023307Y019790D03*
X023299Y019774D03*
X023299Y019766D03*
X023067Y019806D03*
X023067Y019814D03*
X023099Y019910D03*
X023107Y019934D03*
X023107Y019942D03*
X023139Y020046D03*
X023147Y020070D03*
X023147Y020086D03*
X023187Y020246D03*
X023187Y020254D03*
X023187Y020286D03*
X023187Y020294D03*
X023379Y020086D03*
X022539Y020790D03*
X022547Y020814D03*
X022547Y020822D03*
X022579Y020926D03*
X022619Y021102D03*
X022619Y021110D03*
X022627Y021142D03*
X023107Y020926D03*
X023139Y021014D03*
X023147Y021046D03*
X023179Y021150D03*
X023187Y021182D03*
X023219Y021286D03*
X023219Y021294D03*
X023219Y021302D03*
X023387Y021070D03*
X023387Y021062D03*
X023379Y021046D03*
X023347Y020942D03*
X023347Y020934D03*
X023339Y020910D03*
X023339Y020902D03*
X022179Y020846D03*
X021987Y019846D03*
X021979Y019822D03*
X028299Y019774D03*
X028299Y019766D03*
X028307Y019790D03*
X028379Y020046D03*
X028379Y020054D03*
X028387Y020086D03*
X028427Y020230D03*
D46*
X027811Y019766D03*
X024811Y019774D03*
X024803Y019766D03*
X021971Y020302D03*
D47*
X021847Y020094D03*
X021871Y020070D03*
X021943Y019990D03*
X021951Y019982D03*
X021703Y019774D03*
X022583Y020294D03*
X022919Y020294D03*
X023359Y020102D03*
X022599Y021126D03*
X022215Y021334D03*
X025679Y019766D03*
X027183Y019766D03*
X028375Y020142D03*
D48*
X028311Y020126D03*
X028295Y020110D03*
X028287Y020102D03*
X027919Y019990D03*
X027815Y020246D03*
X026959Y020270D03*
X026679Y019790D03*
X026071Y019766D03*
X026055Y019782D03*
X025455Y020270D03*
X025175Y019790D03*
X024911Y019990D03*
X024807Y020246D03*
X025191Y021270D03*
X024215Y021270D03*
X023535Y020134D03*
X023527Y020030D03*
X022767Y021054D03*
X022271Y021110D03*
X022199Y021286D03*
X021799Y020814D03*
X022079Y020222D03*
X021671Y019870D03*
X021671Y019862D03*
D49*
X021675Y019830D03*
X021811Y020846D03*
X022219Y021046D03*
X022227Y021062D03*
X022299Y020966D03*
X022331Y020982D03*
X022347Y020990D03*
X022211Y021310D03*
X022771Y021142D03*
X022971Y021102D03*
X022979Y021110D03*
X023251Y021342D03*
X023435Y021334D03*
X023435Y021254D03*
X023187Y020310D03*
X023187Y020230D03*
X023179Y020134D03*
X023707Y020046D03*
X023715Y020062D03*
X024187Y020134D03*
X024195Y020230D03*
X024195Y020310D03*
X024987Y020094D03*
X024995Y020110D03*
X025291Y020254D03*
X025299Y020270D03*
X025467Y020222D03*
X025467Y020214D03*
X025467Y020206D03*
X025347Y019814D03*
X025339Y019806D03*
X026035Y019830D03*
X026195Y019766D03*
X026667Y019846D03*
X026667Y019854D03*
X026667Y019862D03*
X026667Y019870D03*
X026851Y019814D03*
X026971Y020206D03*
X026971Y020214D03*
X026971Y020222D03*
X026795Y020254D03*
X026787Y020246D03*
X026307Y020302D03*
X025587Y021294D03*
X025211Y021294D03*
X027995Y020094D03*
D50*
X028367Y020014D03*
X028367Y020006D03*
X028359Y019982D03*
X028327Y019870D03*
X028327Y019862D03*
X028319Y019846D03*
X028399Y020126D03*
X028439Y020246D03*
X027287Y020142D03*
X027287Y020134D03*
X027279Y020110D03*
X027247Y020006D03*
X027239Y019974D03*
X027239Y019966D03*
X027207Y019862D03*
X027199Y019830D03*
X026887Y019886D03*
X026879Y019870D03*
X026679Y019934D03*
X026679Y019942D03*
X026679Y019950D03*
X026759Y020190D03*
X026959Y020126D03*
X026959Y020110D03*
X026967Y020142D03*
X026967Y020150D03*
X026287Y020022D03*
X026287Y020014D03*
X026287Y020006D03*
X026287Y019950D03*
X026287Y019942D03*
X026247Y019830D03*
X026239Y019814D03*
X026039Y019934D03*
X025759Y020054D03*
X025767Y020086D03*
X025799Y020182D03*
X025799Y020190D03*
X025807Y020206D03*
X025807Y020214D03*
X025807Y020222D03*
X025727Y019950D03*
X025727Y019942D03*
X025367Y019854D03*
X025167Y019910D03*
X025167Y019926D03*
X025247Y020174D03*
X025247Y020182D03*
X025007Y020182D03*
X025007Y020174D03*
X025007Y020166D03*
X025007Y020190D03*
X026199Y020230D03*
X024127Y019982D03*
X024127Y019974D03*
X024119Y019950D03*
X024087Y019846D03*
X023887Y019966D03*
X023847Y019830D03*
X023647Y019822D03*
X023647Y019814D03*
X023647Y019806D03*
X023647Y019862D03*
X023647Y019870D03*
X023647Y019886D03*
X023647Y019894D03*
X023647Y019902D03*
X023527Y020102D03*
X023367Y020022D03*
X023327Y019862D03*
X023319Y019830D03*
X023087Y019870D03*
X023079Y019846D03*
X023119Y019974D03*
X023119Y019982D03*
X023127Y020006D03*
X023799Y020126D03*
X023927Y020110D03*
X023927Y020102D03*
X023087Y020782D03*
X023087Y020830D03*
X023087Y020846D03*
X023127Y020974D03*
X023127Y020982D03*
X023047Y021150D03*
X023199Y021214D03*
X023199Y021222D03*
X023207Y021246D03*
X023207Y021254D03*
X023367Y021006D03*
X023359Y020974D03*
X023327Y020870D03*
X022887Y020886D03*
X022887Y020894D03*
X022887Y020902D03*
X022887Y020910D03*
X022887Y020846D03*
X022887Y020830D03*
X022767Y021126D03*
X022607Y021046D03*
X022567Y020886D03*
X022559Y020862D03*
X022559Y020854D03*
X022399Y021062D03*
X022407Y021086D03*
X022407Y021094D03*
X022407Y021126D03*
X022407Y021134D03*
X021847Y020286D03*
X021967Y019806D03*
X021927Y019774D03*
D51*
X021963Y019966D03*
X021843Y020102D03*
X022443Y019774D03*
X022243Y020782D03*
D52*
X022211Y020950D03*
X022371Y021142D03*
X022219Y021342D03*
X022915Y020814D03*
X022779Y019774D03*
X021955Y019974D03*
X021851Y020086D03*
X021835Y020110D03*
X023859Y019790D03*
X024107Y020806D03*
X024011Y021014D03*
X028379Y020150D03*
D53*
X028399Y020182D03*
X028407Y020190D03*
X027311Y020270D03*
X025807Y020270D03*
X024927Y021134D03*
X024919Y021126D03*
X024935Y021150D03*
X024951Y021182D03*
X024951Y021190D03*
X024951Y021206D03*
X024951Y021246D03*
X024951Y021254D03*
X024951Y021262D03*
X024735Y021310D03*
X024247Y021326D03*
X023951Y021190D03*
X023975Y021134D03*
X023991Y021102D03*
X024015Y021030D03*
X024039Y020982D03*
X024055Y020942D03*
X024079Y020886D03*
X024095Y020846D03*
X023919Y021270D03*
X023911Y021286D03*
X023911Y021294D03*
X024599Y020830D03*
X024599Y020822D03*
X024879Y020814D03*
X024087Y019774D03*
X023671Y019782D03*
X023375Y020110D03*
X023079Y019774D03*
X022911Y020254D03*
X022911Y020262D03*
X022575Y020262D03*
X022575Y020254D03*
X022447Y019806D03*
X021991Y019910D03*
X021815Y020142D03*
X021815Y020150D03*
X021807Y020166D03*
X021839Y020910D03*
X021855Y021294D03*
X021855Y021302D03*
X021855Y021310D03*
X022375Y021150D03*
X022615Y021134D03*
D54*
X022195Y020822D03*
X021835Y020894D03*
X021835Y020902D03*
X021851Y021246D03*
X021851Y021254D03*
X021851Y021262D03*
X021851Y021270D03*
X021851Y021286D03*
X022059Y020286D03*
X021803Y020182D03*
X021803Y020174D03*
X021995Y019902D03*
X021995Y019894D03*
X022171Y019830D03*
X022171Y019822D03*
X022171Y019790D03*
X022171Y019782D03*
X022451Y019814D03*
X022451Y019822D03*
X022459Y019846D03*
X022459Y019854D03*
X022467Y019870D03*
X022475Y019902D03*
X022475Y019910D03*
X022483Y019926D03*
X022483Y019934D03*
X022491Y019950D03*
X022491Y019966D03*
X022499Y019982D03*
X022499Y019990D03*
X022507Y020006D03*
X022507Y020014D03*
X022523Y020062D03*
X022523Y020070D03*
X022531Y020094D03*
X022531Y020102D03*
X022539Y020126D03*
X022539Y020134D03*
X022547Y020142D03*
X022547Y020150D03*
X022555Y020174D03*
X022555Y020182D03*
X022555Y020190D03*
X022563Y020206D03*
X022563Y020214D03*
X022571Y020230D03*
X022571Y020246D03*
X022891Y020182D03*
X022891Y020174D03*
X022883Y020150D03*
X022875Y020126D03*
X022867Y020102D03*
X022867Y020094D03*
X022859Y020070D03*
X022859Y020062D03*
X022843Y020014D03*
X022843Y020006D03*
X022835Y019990D03*
X022835Y019982D03*
X022827Y019966D03*
X022827Y019950D03*
X022819Y019934D03*
X022819Y019926D03*
X022811Y019910D03*
X022811Y019902D03*
X022803Y019870D03*
X022795Y019854D03*
X022795Y019846D03*
X022787Y019822D03*
X022787Y019814D03*
X022899Y020206D03*
X022899Y020214D03*
X022907Y020230D03*
X022907Y020246D03*
X023155Y020126D03*
X023147Y020110D03*
X023187Y020262D03*
X023187Y020270D03*
X023507Y020054D03*
X023667Y019774D03*
X023907Y020062D03*
X023907Y020070D03*
X024155Y020110D03*
X024163Y020126D03*
X024195Y020262D03*
X024195Y020270D03*
X024091Y020854D03*
X024091Y020862D03*
X024083Y020870D03*
X024075Y020894D03*
X024075Y020902D03*
X024067Y020910D03*
X024059Y020926D03*
X024059Y020934D03*
X024051Y020950D03*
X024043Y020966D03*
X024043Y020974D03*
X024035Y020990D03*
X024027Y021006D03*
X024011Y021046D03*
X024011Y021054D03*
X024003Y021062D03*
X024003Y021070D03*
X023995Y021086D03*
X023995Y021094D03*
X023979Y021126D03*
X023971Y021142D03*
X023971Y021150D03*
X023963Y021166D03*
X023955Y021174D03*
X023955Y021182D03*
X023947Y021206D03*
X023939Y021214D03*
X023939Y021222D03*
X023931Y021230D03*
X023931Y021246D03*
X023923Y021254D03*
X023923Y021262D03*
X023435Y021286D03*
X023435Y021294D03*
X023435Y021302D03*
X023403Y021150D03*
X023395Y021134D03*
X024603Y020846D03*
X024611Y020870D03*
X024619Y020894D03*
X024619Y020902D03*
X024627Y020926D03*
X024627Y020934D03*
X024635Y020950D03*
X024643Y020974D03*
X024643Y020982D03*
X024651Y021006D03*
X024651Y021014D03*
X024659Y021030D03*
X024675Y021086D03*
X024675Y021094D03*
X024683Y021110D03*
X024683Y021126D03*
X024691Y021142D03*
X024691Y021150D03*
X024699Y021166D03*
X024699Y021174D03*
X024707Y021206D03*
X024715Y021222D03*
X024715Y021230D03*
X024723Y021254D03*
X024723Y021262D03*
X024731Y021286D03*
X024731Y021294D03*
X024731Y021302D03*
X024915Y021310D03*
X024923Y021302D03*
X024931Y021294D03*
X024939Y021286D03*
X024947Y021270D03*
X024931Y021142D03*
X024907Y021110D03*
X024891Y021102D03*
X024811Y021046D03*
X024819Y021022D03*
X024819Y021014D03*
X024827Y020990D03*
X024827Y020982D03*
X024835Y020966D03*
X024843Y020934D03*
X024843Y020926D03*
X024851Y020910D03*
X024851Y020902D03*
X024859Y020870D03*
X024867Y020854D03*
X024867Y020846D03*
X024875Y020830D03*
X024875Y020822D03*
X024883Y020806D03*
X025267Y020822D03*
X025267Y020830D03*
X025275Y020846D03*
X025275Y020854D03*
X025283Y020886D03*
X025291Y020910D03*
X025299Y020934D03*
X025299Y020942D03*
X025307Y020966D03*
X025307Y020974D03*
X025315Y020990D03*
X025323Y021022D03*
X025323Y021030D03*
X025331Y021046D03*
X025331Y021054D03*
X025339Y021086D03*
X025347Y021102D03*
X025347Y021110D03*
X025355Y021134D03*
X025355Y021142D03*
X025363Y021166D03*
X025371Y021190D03*
X025379Y021214D03*
X025379Y021222D03*
X025387Y021246D03*
X025387Y021254D03*
X025395Y021270D03*
X025403Y021302D03*
X025403Y021310D03*
X025379Y020310D03*
X024995Y020230D03*
X025811Y020254D03*
X025811Y020262D03*
X026099Y020102D03*
X026435Y019830D03*
X026435Y019822D03*
X026435Y019790D03*
X026435Y019782D03*
X026883Y020310D03*
X027315Y020262D03*
X027315Y020254D03*
X027499Y019830D03*
X027499Y019822D03*
X027499Y019790D03*
X027499Y019782D03*
X027187Y019782D03*
X027187Y019790D03*
X028003Y020230D03*
X028419Y020214D03*
X025683Y019790D03*
X025683Y019782D03*
X021691Y019790D03*
D55*
X022171Y019806D03*
X022171Y019814D03*
X022443Y019790D03*
X022443Y019782D03*
X023083Y019782D03*
X022915Y020270D03*
X022915Y020806D03*
X023331Y020806D03*
X023211Y021326D03*
X023995Y021110D03*
X024011Y021022D03*
X024595Y020814D03*
X024595Y020806D03*
X024955Y021214D03*
X024955Y021222D03*
X024955Y021230D03*
X024923Y020310D03*
X025683Y019774D03*
X026435Y019806D03*
X026435Y019814D03*
X027931Y020310D03*
X028395Y020174D03*
X024091Y019782D03*
X023851Y019774D03*
X023675Y019790D03*
X022051Y020294D03*
D56*
X023423Y020134D03*
X026063Y019774D03*
X028223Y020030D03*
D57*
X028003Y020110D03*
X026843Y019806D03*
X026803Y020270D03*
X026203Y019774D03*
X025283Y020246D03*
X025163Y019870D03*
X025163Y019862D03*
X025163Y019854D03*
X025163Y019846D03*
X023803Y020134D03*
X023723Y020070D03*
X023083Y020774D03*
X022963Y021094D03*
X022323Y020974D03*
D58*
X022579Y020270D03*
X022779Y019790D03*
X022779Y019782D03*
X021979Y019934D03*
X021979Y019942D03*
X021819Y020134D03*
X021699Y019782D03*
X023099Y020806D03*
X023739Y020790D03*
X024107Y020814D03*
X023907Y021302D03*
X027187Y019774D03*
X027499Y019806D03*
X027499Y019814D03*
D59*
X027819Y019774D03*
D60*
X027991Y020246D03*
X028391Y020166D03*
X027311Y020294D03*
X025263Y020806D03*
X024895Y020790D03*
X024983Y020246D03*
X024095Y019790D03*
X023855Y019782D03*
X023335Y020814D03*
X023103Y020814D03*
X022583Y020286D03*
X021975Y019950D03*
X021823Y020126D03*
X023903Y021310D03*
D61*
X024815Y019782D03*
X027831Y019790D03*
D62*
X027823Y019782D03*
X024823Y019790D03*
D63*
X025207Y020078D03*
X025439Y020038D03*
X025447Y020078D03*
X025687Y019798D03*
X026055Y019998D03*
X026711Y020078D03*
X026727Y020118D03*
X026951Y020078D03*
X026927Y019998D03*
X027191Y019798D03*
X025295Y020918D03*
X025327Y021038D03*
X025351Y021118D03*
X024815Y021038D03*
X024847Y020918D03*
X024871Y020838D03*
X024647Y020998D03*
X024695Y021158D03*
X024719Y021238D03*
X023399Y021118D03*
X023159Y021118D03*
X022615Y021118D03*
X021847Y021158D03*
X021847Y021198D03*
X021839Y021078D03*
X021839Y021038D03*
X021807Y020198D03*
X021991Y019878D03*
X021687Y019798D03*
X022455Y019838D03*
X022479Y019918D03*
X022791Y019838D03*
X022815Y019918D03*
X022839Y019998D03*
X023071Y019798D03*
X023855Y019878D03*
X024079Y019798D03*
D64*
X023647Y019878D03*
X023319Y019838D03*
X023087Y020838D03*
X023119Y020958D03*
X022887Y020918D03*
X022887Y020838D03*
X023367Y020998D03*
X022407Y021078D03*
X021839Y020278D03*
X021959Y019798D03*
X024247Y021318D03*
X025007Y020158D03*
X025239Y020158D03*
X025167Y019918D03*
X025719Y019918D03*
X025767Y020078D03*
X025799Y020198D03*
X026207Y020238D03*
X026287Y019998D03*
X026679Y019958D03*
X026759Y020198D03*
X026887Y020318D03*
X026967Y020158D03*
X026959Y020118D03*
X027247Y019998D03*
X027199Y019838D03*
X028319Y019838D03*
X028399Y020118D03*
D65*
X026435Y019798D03*
X022915Y020278D03*
X022171Y019798D03*
X021843Y020918D03*
D66*
X022783Y019798D03*
X024943Y021158D03*
X024943Y021278D03*
D67*
X024767Y020198D03*
X024167Y019798D03*
X023847Y020118D03*
X023159Y019798D03*
X022079Y020158D03*
X022119Y020318D03*
X022639Y020958D03*
X022679Y021038D03*
X022767Y021038D03*
X027999Y019878D03*
D68*
X028307Y019798D03*
X028387Y020078D03*
X028019Y020198D03*
X027499Y019838D03*
X027259Y020038D03*
X026899Y019918D03*
X026699Y020038D03*
X026267Y019878D03*
X025779Y020118D03*
X025707Y019878D03*
X025379Y019878D03*
X025187Y019998D03*
X024147Y020038D03*
X024107Y019918D03*
X024099Y019878D03*
X023867Y019918D03*
X023379Y020078D03*
X023387Y020118D03*
X023147Y020078D03*
X023139Y020038D03*
X023099Y019918D03*
X023307Y019798D03*
X022539Y020798D03*
X022579Y020918D03*
X022899Y020958D03*
X023107Y020918D03*
X023099Y020878D03*
X023339Y020918D03*
X023379Y021038D03*
X023179Y021158D03*
X021827Y020878D03*
X022059Y020278D03*
X021987Y019838D03*
D69*
X022659Y020998D03*
X023187Y020838D03*
X023419Y020838D03*
X023411Y019958D03*
X023395Y019918D03*
X023747Y019798D03*
X023779Y019838D03*
X023931Y019798D03*
X025155Y021198D03*
X025675Y020278D03*
X027179Y020278D03*
D70*
X027367Y020318D03*
X026959Y020278D03*
X026679Y019798D03*
X025455Y020278D03*
X025175Y019798D03*
X023767Y020118D03*
X023767Y020838D03*
X022775Y021158D03*
X022199Y021278D03*
X025591Y021278D03*
X028231Y020038D03*
X028479Y020318D03*
D71*
X028459Y020278D03*
X027987Y020078D03*
X026971Y020198D03*
X026835Y019798D03*
X026035Y019838D03*
X025467Y020198D03*
X025331Y019798D03*
X024979Y020078D03*
X023531Y020118D03*
X023427Y021158D03*
X023051Y021158D03*
X022955Y021078D03*
X022355Y020998D03*
X021811Y020838D03*
X021675Y019838D03*
D72*
X022075Y020238D03*
X024195Y020318D03*
X024915Y019998D03*
X026043Y019798D03*
X026355Y020318D03*
X025195Y021278D03*
X027923Y019998D03*
X027955Y020038D03*
X028155Y019958D03*
X028195Y019998D03*
D73*
X027499Y019798D03*
X022579Y020278D03*
D74*
X022783Y019806D03*
X021983Y019926D03*
X024103Y020822D03*
X024103Y020830D03*
X024943Y021166D03*
X024943Y021174D03*
X025263Y020814D03*
D75*
X025883Y020326D03*
X025003Y019902D03*
X024203Y019846D03*
X023763Y019814D03*
X023403Y019942D03*
X023163Y019806D03*
X023043Y020894D03*
X023443Y020870D03*
X023123Y021326D03*
X022643Y020966D03*
X022123Y020326D03*
X028003Y019886D03*
D76*
X027839Y019806D03*
X025255Y020774D03*
X025255Y020782D03*
X024591Y020782D03*
X024831Y019806D03*
X022919Y020310D03*
D77*
X024847Y019822D03*
X024919Y020254D03*
X024919Y020262D03*
X026159Y020086D03*
X027927Y020254D03*
X027927Y020262D03*
D78*
X027863Y019830D03*
X027855Y019822D03*
X024855Y019830D03*
X024735Y021062D03*
X024743Y021342D03*
D79*
X024859Y019838D03*
X027867Y019838D03*
D80*
X026967Y020238D03*
X026807Y020278D03*
X025167Y019838D03*
X023727Y020078D03*
X023527Y020038D03*
X022239Y021078D03*
D81*
X022215Y021038D03*
X023335Y019918D03*
X023703Y020038D03*
X024999Y020118D03*
X025167Y019878D03*
X025359Y019838D03*
X025279Y020238D03*
X026671Y019878D03*
X026863Y019838D03*
X026783Y020238D03*
X028007Y020118D03*
D82*
X026671Y019838D03*
X025463Y020238D03*
X025303Y020278D03*
X022983Y021118D03*
D83*
X023903Y021334D03*
X023903Y021342D03*
X024103Y020782D03*
X024103Y020774D03*
X024863Y019846D03*
X024919Y020270D03*
X027871Y019846D03*
X027927Y020270D03*
X022255Y020814D03*
D84*
X022183Y020830D03*
X022743Y021070D03*
X023103Y020910D03*
X023223Y021310D03*
X023223Y021334D03*
X022903Y020222D03*
X022863Y020086D03*
X022823Y019942D03*
X022463Y019862D03*
X023503Y020046D03*
X023863Y019902D03*
X023863Y019894D03*
X023903Y020030D03*
X023903Y020046D03*
X023903Y020054D03*
X024623Y020910D03*
X024663Y021046D03*
X024663Y021054D03*
X024703Y021182D03*
X024703Y021190D03*
X024863Y021086D03*
X024823Y021006D03*
X024863Y020862D03*
X025303Y020950D03*
X025343Y021094D03*
X025383Y021230D03*
X025423Y019990D03*
X025423Y019982D03*
X025183Y019990D03*
X026063Y020022D03*
X026063Y020030D03*
X026103Y020110D03*
X026143Y020174D03*
X026703Y020054D03*
X026703Y020046D03*
X026903Y019926D03*
X026943Y020046D03*
X026943Y020054D03*
X028423Y020222D03*
D85*
X027823Y019902D03*
X027783Y019862D03*
X026223Y020102D03*
X025383Y020326D03*
X024823Y019910D03*
X024783Y019870D03*
X023823Y020894D03*
X023863Y020934D03*
X023903Y020974D03*
X023943Y021006D03*
X025183Y021262D03*
X022183Y021254D03*
X022143Y021206D03*
X022063Y021110D03*
D86*
X022275Y021118D03*
X021667Y019878D03*
X024187Y021238D03*
X024795Y020238D03*
X024875Y019958D03*
X024835Y019918D03*
X027803Y020238D03*
X027883Y019958D03*
X027843Y019918D03*
D87*
X028411Y020198D03*
X026107Y020118D03*
X026067Y020038D03*
X025267Y020838D03*
X025283Y020878D03*
X025315Y020998D03*
X025339Y021078D03*
X025363Y021158D03*
X025371Y021198D03*
X025395Y021278D03*
X024915Y021118D03*
X024835Y020958D03*
X024859Y020878D03*
X024635Y020958D03*
X024611Y020878D03*
X024603Y020838D03*
X024659Y021038D03*
X024683Y021118D03*
X024707Y021198D03*
X024731Y021278D03*
X024035Y020998D03*
X024051Y020958D03*
X024067Y020918D03*
X024083Y020878D03*
X023995Y021078D03*
X023963Y021158D03*
X023947Y021198D03*
X023931Y021238D03*
X023915Y021278D03*
X023219Y021318D03*
X022747Y021078D03*
X021851Y021238D03*
X021851Y021278D03*
X021811Y020158D03*
X021987Y019918D03*
X022467Y019878D03*
X022491Y019958D03*
X022523Y020078D03*
X022539Y020118D03*
X022547Y020158D03*
X022563Y020198D03*
X022571Y020238D03*
X022883Y020158D03*
X022875Y020118D03*
X022899Y020198D03*
X022907Y020238D03*
X023187Y020278D03*
X022827Y019958D03*
X022803Y019878D03*
X023907Y020078D03*
X024195Y020278D03*
D88*
X023431Y019998D03*
X021671Y019918D03*
X024991Y019878D03*
X025591Y021198D03*
X027775Y020198D03*
D89*
X028271Y019918D03*
X028263Y019878D03*
D90*
X028263Y019886D03*
X028263Y019894D03*
X028271Y019902D03*
X028271Y019910D03*
D91*
X028279Y019926D03*
X028279Y019934D03*
D92*
X028283Y019942D03*
D93*
X025799Y020278D03*
X021967Y019958D03*
D94*
X021935Y019998D03*
X021863Y020078D03*
X024111Y020798D03*
X023999Y021118D03*
D95*
X023743Y020798D03*
X023903Y020038D03*
X022863Y020078D03*
X022503Y019998D03*
X022183Y020838D03*
X024623Y020918D03*
X024823Y020998D03*
X025303Y020958D03*
X025383Y021238D03*
X025223Y020118D03*
X025423Y019998D03*
X026943Y020038D03*
D96*
X027931Y020302D03*
X028371Y020134D03*
X024915Y020774D03*
X023379Y021142D03*
X021859Y021326D03*
X021875Y020062D03*
X021891Y020046D03*
X021907Y020030D03*
X021915Y020022D03*
X021931Y020006D03*
D97*
X021923Y020014D03*
X021883Y020054D03*
X024923Y020302D03*
D98*
X022683Y020046D03*
X022675Y020022D03*
D99*
X022679Y020030D03*
X025407Y021326D03*
X025407Y021334D03*
X025407Y021342D03*
D100*
X024139Y020118D03*
X023131Y020118D03*
X021899Y020038D03*
D101*
X022683Y020038D03*
D102*
X023187Y020318D03*
X024947Y020038D03*
X028267Y020078D03*
D103*
X027303Y020278D03*
X021831Y020118D03*
X021855Y021318D03*
D104*
X022663Y021158D03*
X024223Y021278D03*
X025863Y020318D03*
X028303Y020118D03*
D105*
X027927Y020278D03*
X024919Y020278D03*
D106*
X024919Y020286D03*
X027927Y020286D03*
D107*
X027927Y020294D03*
X024919Y020294D03*
X024111Y020790D03*
D108*
X023739Y020774D03*
X022587Y020302D03*
X025259Y020790D03*
D109*
X024251Y021334D03*
X022923Y020302D03*
X021931Y020310D03*
D110*
X022587Y020310D03*
X024587Y020774D03*
D111*
X022587Y020318D03*
D112*
X022927Y020318D03*
D113*
X023743Y020782D03*
D114*
X022251Y020798D03*
D115*
X022251Y020806D03*
D116*
X022387Y020838D03*
X022067Y021118D03*
D117*
X023003Y020838D03*
D118*
X023435Y021238D03*
X022035Y021078D03*
X021931Y020958D03*
X025171Y021238D03*
X025595Y021238D03*
D119*
X022227Y020958D03*
D120*
X024743Y021070D03*
D121*
X024759Y021078D03*
D122*
X024143Y021198D03*
X024103Y021158D03*
X022103Y021158D03*
D123*
X024815Y021318D03*
D124*
X025407Y021318D03*
D125*
X021859Y021334D03*
X021859Y021342D03*
D126*
X024767Y021334D03*
D127*
X035943Y020590D02*
X035945Y020629D01*
X035951Y020668D01*
X035961Y020706D01*
X035974Y020743D01*
X035991Y020778D01*
X036011Y020812D01*
X036035Y020843D01*
X036062Y020872D01*
X036091Y020898D01*
X036123Y020921D01*
X036157Y020941D01*
X036193Y020957D01*
X036230Y020969D01*
X036269Y020978D01*
X036308Y020983D01*
X036347Y020984D01*
X036386Y020981D01*
X036425Y020974D01*
X036462Y020963D01*
X036499Y020949D01*
X036534Y020931D01*
X036567Y020910D01*
X036598Y020885D01*
X036626Y020858D01*
X036651Y020828D01*
X036673Y020795D01*
X036692Y020761D01*
X036707Y020725D01*
X036719Y020687D01*
X036727Y020649D01*
X036731Y020610D01*
X036731Y020570D01*
X036727Y020531D01*
X036719Y020493D01*
X036707Y020455D01*
X036692Y020419D01*
X036673Y020385D01*
X036651Y020352D01*
X036626Y020322D01*
X036598Y020295D01*
X036567Y020270D01*
X036534Y020249D01*
X036499Y020231D01*
X036462Y020217D01*
X036425Y020206D01*
X036386Y020199D01*
X036347Y020196D01*
X036308Y020197D01*
X036269Y020202D01*
X036230Y020211D01*
X036193Y020223D01*
X036157Y020239D01*
X036123Y020259D01*
X036091Y020282D01*
X036062Y020308D01*
X036035Y020337D01*
X036011Y020368D01*
X035991Y020402D01*
X035974Y020437D01*
X035961Y020474D01*
X035951Y020512D01*
X035945Y020551D01*
X035943Y020590D01*
X040417Y020590D02*
X040419Y020621D01*
X040425Y020652D01*
X040435Y020682D01*
X040448Y020710D01*
X040465Y020737D01*
X040485Y020761D01*
X040508Y020783D01*
X040533Y020801D01*
X040561Y020816D01*
X040590Y020828D01*
X040620Y020836D01*
X040651Y020840D01*
X040683Y020840D01*
X040714Y020836D01*
X040744Y020828D01*
X040773Y020816D01*
X040801Y020801D01*
X040826Y020783D01*
X040849Y020761D01*
X040869Y020737D01*
X040886Y020710D01*
X040899Y020682D01*
X040909Y020652D01*
X040915Y020621D01*
X040917Y020590D01*
X040915Y020559D01*
X040909Y020528D01*
X040899Y020498D01*
X040886Y020470D01*
X040869Y020443D01*
X040849Y020419D01*
X040826Y020397D01*
X040801Y020379D01*
X040773Y020364D01*
X040744Y020352D01*
X040714Y020344D01*
X040683Y020340D01*
X040651Y020340D01*
X040620Y020344D01*
X040590Y020352D01*
X040561Y020364D01*
X040533Y020379D01*
X040508Y020397D01*
X040485Y020419D01*
X040465Y020443D01*
X040448Y020470D01*
X040435Y020498D01*
X040425Y020528D01*
X040419Y020559D01*
X040417Y020590D01*
X041205Y019802D02*
X041207Y019833D01*
X041213Y019864D01*
X041223Y019894D01*
X041236Y019922D01*
X041253Y019949D01*
X041273Y019973D01*
X041296Y019995D01*
X041321Y020013D01*
X041349Y020028D01*
X041378Y020040D01*
X041408Y020048D01*
X041439Y020052D01*
X041471Y020052D01*
X041502Y020048D01*
X041532Y020040D01*
X041561Y020028D01*
X041589Y020013D01*
X041614Y019995D01*
X041637Y019973D01*
X041657Y019949D01*
X041674Y019922D01*
X041687Y019894D01*
X041697Y019864D01*
X041703Y019833D01*
X041705Y019802D01*
X041703Y019771D01*
X041697Y019740D01*
X041687Y019710D01*
X041674Y019682D01*
X041657Y019655D01*
X041637Y019631D01*
X041614Y019609D01*
X041589Y019591D01*
X041561Y019576D01*
X041532Y019564D01*
X041502Y019556D01*
X041471Y019552D01*
X041439Y019552D01*
X041408Y019556D01*
X041378Y019564D01*
X041349Y019576D01*
X041321Y019591D01*
X041296Y019609D01*
X041273Y019631D01*
X041253Y019655D01*
X041236Y019682D01*
X041223Y019710D01*
X041213Y019740D01*
X041207Y019771D01*
X041205Y019802D01*
X040273Y024920D02*
X040275Y024959D01*
X040281Y024998D01*
X040291Y025036D01*
X040304Y025073D01*
X040321Y025108D01*
X040341Y025142D01*
X040365Y025173D01*
X040392Y025202D01*
X040421Y025228D01*
X040453Y025251D01*
X040487Y025271D01*
X040523Y025287D01*
X040560Y025299D01*
X040599Y025308D01*
X040638Y025313D01*
X040677Y025314D01*
X040716Y025311D01*
X040755Y025304D01*
X040792Y025293D01*
X040829Y025279D01*
X040864Y025261D01*
X040897Y025240D01*
X040928Y025215D01*
X040956Y025188D01*
X040981Y025158D01*
X041003Y025125D01*
X041022Y025091D01*
X041037Y025055D01*
X041049Y025017D01*
X041057Y024979D01*
X041061Y024940D01*
X041061Y024900D01*
X041057Y024861D01*
X041049Y024823D01*
X041037Y024785D01*
X041022Y024749D01*
X041003Y024715D01*
X040981Y024682D01*
X040956Y024652D01*
X040928Y024625D01*
X040897Y024600D01*
X040864Y024579D01*
X040829Y024561D01*
X040792Y024547D01*
X040755Y024536D01*
X040716Y024529D01*
X040677Y024526D01*
X040638Y024527D01*
X040599Y024532D01*
X040560Y024541D01*
X040523Y024553D01*
X040487Y024569D01*
X040453Y024589D01*
X040421Y024612D01*
X040392Y024638D01*
X040365Y024667D01*
X040341Y024698D01*
X040321Y024732D01*
X040304Y024767D01*
X040291Y024804D01*
X040281Y024842D01*
X040275Y024881D01*
X040273Y024920D01*
D128*
X040818Y026145D02*
X041125Y026452D01*
X041125Y026529D01*
X041048Y026605D01*
X040894Y026605D01*
X040818Y026529D01*
X040818Y026145D02*
X041125Y026145D01*
X041278Y026222D02*
X041355Y026145D01*
X041508Y026145D01*
X041585Y026222D01*
X041585Y026298D01*
X041508Y026375D01*
X041278Y026375D01*
X041278Y026222D01*
X041278Y026375D02*
X041431Y026529D01*
X041585Y026605D01*
X042387Y020357D02*
X042387Y020050D01*
X042387Y020204D02*
X041927Y020204D01*
X042081Y020050D01*
X036010Y019428D02*
X035856Y019351D01*
X035703Y019198D01*
X035933Y019198D01*
X036010Y019121D01*
X036010Y019044D01*
X035933Y018968D01*
X035779Y018968D01*
X035703Y019044D01*
X035703Y019198D01*
X035549Y019351D02*
X035242Y019044D01*
X035242Y018968D01*
X035242Y019428D02*
X035549Y019428D01*
X035549Y019351D01*
X035027Y025267D02*
X035104Y025344D01*
X035104Y025497D01*
X035027Y025574D01*
X034874Y025574D01*
X034797Y025497D01*
X034797Y025420D01*
X034874Y025267D01*
X034644Y025267D01*
X034644Y025574D01*
X034797Y025727D02*
X034644Y025881D01*
X035104Y025881D01*
X035104Y026034D02*
X035104Y025727D01*
D129*
X020672Y017317D02*
X018389Y017317D01*
X018389Y020289D01*
X020672Y020289D01*
X020672Y017317D01*
X021499Y018399D02*
X021499Y018596D01*
X021361Y018498D01*
X021499Y018399D01*
X023569Y018110D02*
X025222Y018110D01*
X025222Y015275D01*
X023569Y015275D01*
X023569Y018110D01*
X023923Y016378D02*
X023923Y015984D01*
X023726Y016181D02*
X024120Y016181D01*
X021654Y015193D02*
X021474Y015193D01*
X021529Y015133D02*
X021639Y015024D01*
X021529Y014915D01*
X021474Y014855D02*
X021654Y014855D01*
X026322Y015361D02*
X028999Y015361D01*
X028999Y016543D01*
X026322Y016543D01*
X026322Y015361D01*
X026657Y014653D02*
X026558Y014554D01*
X026755Y014554D01*
X026657Y014653D01*
X028431Y017688D02*
X028431Y019263D01*
X029573Y019263D01*
X029573Y017688D01*
X028431Y017688D01*
X027860Y018574D02*
X027959Y018672D01*
X027860Y018771D01*
X027860Y018574D01*
X028828Y021520D02*
X025993Y021520D01*
X025993Y023174D01*
X028828Y023174D01*
X028828Y021520D01*
X027096Y022819D02*
X026702Y022819D01*
X026899Y023016D02*
X026899Y022622D01*
X026358Y024780D02*
X024991Y026408D01*
X021613Y023574D01*
X021462Y023755D01*
X024839Y026589D01*
X024991Y026408D01*
X026338Y026535D02*
X027991Y026535D01*
X027991Y029370D01*
X026338Y029370D01*
X026338Y026535D01*
X026692Y027244D02*
X026692Y027638D01*
X026495Y027441D02*
X026889Y027441D01*
X024933Y028654D02*
X027044Y030426D01*
X027068Y030703D01*
X026562Y031306D01*
X026285Y031330D01*
X024174Y029559D01*
X024149Y029282D01*
X024656Y028679D01*
X024933Y028654D01*
X026358Y024780D02*
X022980Y021945D01*
X021613Y023574D01*
X019767Y023247D02*
X019629Y023259D01*
X019617Y023120D01*
X019767Y023247D01*
X019492Y024095D02*
X018733Y025000D01*
X018070Y024443D01*
X017918Y024624D01*
X017556Y024320D01*
X017708Y024140D01*
X018070Y024443D01*
X018100Y024469D02*
X018277Y024257D01*
X017372Y023498D01*
X017195Y023709D01*
X017708Y024140D01*
X017195Y023709D02*
X016562Y023178D01*
X017321Y022273D01*
X019492Y024095D01*
X017050Y021937D02*
X016460Y021937D01*
X016460Y020756D01*
X017050Y020756D01*
X017050Y021937D01*
X016811Y020933D02*
X016813Y020948D01*
X016819Y020963D01*
X016828Y020975D01*
X016840Y020985D01*
X016854Y020992D01*
X016869Y020995D01*
X016885Y020994D01*
X016899Y020989D01*
X016913Y020981D01*
X016923Y020969D01*
X016931Y020956D01*
X016935Y020941D01*
X016935Y020925D01*
X016931Y020910D01*
X016923Y020897D01*
X016913Y020885D01*
X016899Y020877D01*
X016885Y020872D01*
X016869Y020871D01*
X016854Y020874D01*
X016840Y020881D01*
X016828Y020891D01*
X016819Y020903D01*
X016813Y020918D01*
X016811Y020933D01*
X028199Y032321D02*
X028199Y033502D01*
X028789Y033502D01*
X028789Y032321D01*
X028199Y032321D01*
X028314Y033325D02*
X028316Y033340D01*
X028322Y033355D01*
X028331Y033367D01*
X028343Y033377D01*
X028357Y033384D01*
X028372Y033387D01*
X028388Y033386D01*
X028402Y033381D01*
X028416Y033373D01*
X028426Y033361D01*
X028434Y033348D01*
X028438Y033333D01*
X028438Y033317D01*
X028434Y033302D01*
X028426Y033289D01*
X028416Y033277D01*
X028402Y033269D01*
X028388Y033264D01*
X028372Y033263D01*
X028357Y033266D01*
X028343Y033273D01*
X028331Y033283D01*
X028322Y033295D01*
X028316Y033310D01*
X028314Y033325D01*
X032345Y029803D02*
X032525Y029803D01*
X032401Y029743D02*
X032510Y029634D01*
X032401Y029525D01*
X032345Y029465D02*
X032525Y029465D01*
X032527Y029393D02*
X032347Y029393D01*
X032403Y029333D02*
X032512Y029224D01*
X032403Y029115D01*
X032347Y029055D02*
X032527Y029055D01*
X032528Y028973D02*
X032348Y028973D01*
X032404Y028913D02*
X032513Y028804D01*
X032404Y028695D01*
X032348Y028635D02*
X032528Y028635D01*
X032531Y028561D02*
X032351Y028561D01*
X032407Y028501D02*
X032516Y028392D01*
X032407Y028283D01*
X032351Y028223D02*
X032531Y028223D01*
X034439Y028686D02*
X034439Y026323D01*
X035580Y026323D01*
X035580Y028686D01*
X034439Y028686D01*
X034695Y029961D02*
X034683Y030100D01*
X034544Y030088D01*
X034695Y029961D01*
X034534Y030841D02*
X035268Y031716D01*
X040093Y027667D01*
X039360Y026792D01*
X034534Y030841D01*
X033881Y031827D02*
X032780Y033459D01*
X034412Y034559D01*
X035293Y033254D01*
X035187Y032707D01*
X033881Y031827D01*
X035800Y029027D02*
X035802Y029039D01*
X035807Y029050D01*
X035816Y029059D01*
X035827Y029064D01*
X035839Y029066D01*
X035851Y029064D01*
X035862Y029059D01*
X035871Y029050D01*
X035876Y029039D01*
X035878Y029027D01*
X035876Y029015D01*
X035871Y029004D01*
X035862Y028995D01*
X035851Y028990D01*
X035839Y028988D01*
X035827Y028990D01*
X035816Y028995D01*
X035807Y029004D01*
X035802Y029015D01*
X035800Y029027D01*
X037307Y027762D02*
X037309Y027774D01*
X037314Y027785D01*
X037323Y027794D01*
X037334Y027799D01*
X037346Y027801D01*
X037358Y027799D01*
X037369Y027794D01*
X037378Y027785D01*
X037383Y027774D01*
X037385Y027762D01*
X037383Y027750D01*
X037378Y027739D01*
X037369Y027730D01*
X037358Y027725D01*
X037346Y027723D01*
X037334Y027725D01*
X037323Y027730D01*
X037314Y027739D01*
X037309Y027750D01*
X037307Y027762D01*
X036151Y027012D02*
X036053Y026914D01*
X036151Y026816D01*
X036151Y027012D01*
X036010Y026527D02*
X036012Y026546D01*
X036017Y026565D01*
X036027Y026581D01*
X036039Y026596D01*
X036054Y026608D01*
X036070Y026618D01*
X036089Y026623D01*
X036108Y026625D01*
X036127Y026623D01*
X036146Y026618D01*
X036162Y026608D01*
X036177Y026596D01*
X036189Y026581D01*
X036199Y026565D01*
X036204Y026546D01*
X036206Y026527D01*
X036204Y026508D01*
X036199Y026489D01*
X036189Y026473D01*
X036177Y026458D01*
X036162Y026446D01*
X036146Y026436D01*
X036127Y026431D01*
X036108Y026429D01*
X036089Y026431D01*
X036070Y026436D01*
X036054Y026446D01*
X036039Y026458D01*
X036027Y026473D01*
X036017Y026489D01*
X036012Y026508D01*
X036010Y026527D01*
X035714Y025542D02*
X041226Y025542D01*
X041226Y020424D01*
X040833Y020030D01*
X035714Y020030D01*
X035714Y025542D01*
X034632Y024361D02*
X034634Y024380D01*
X034639Y024399D01*
X034649Y024415D01*
X034661Y024430D01*
X034676Y024442D01*
X034692Y024452D01*
X034711Y024457D01*
X034730Y024459D01*
X034749Y024457D01*
X034768Y024452D01*
X034784Y024442D01*
X034799Y024430D01*
X034811Y024415D01*
X034821Y024399D01*
X034826Y024380D01*
X034828Y024361D01*
X034826Y024342D01*
X034821Y024323D01*
X034811Y024307D01*
X034799Y024292D01*
X034784Y024280D01*
X034768Y024270D01*
X034749Y024265D01*
X034730Y024263D01*
X034711Y024265D01*
X034692Y024270D01*
X034676Y024280D01*
X034661Y024292D01*
X034649Y024307D01*
X034639Y024323D01*
X034634Y024342D01*
X034632Y024361D01*
X034632Y023377D02*
X034634Y023396D01*
X034639Y023415D01*
X034649Y023431D01*
X034661Y023446D01*
X034676Y023458D01*
X034692Y023468D01*
X034711Y023473D01*
X034730Y023475D01*
X034749Y023473D01*
X034768Y023468D01*
X034784Y023458D01*
X034799Y023446D01*
X034811Y023431D01*
X034821Y023415D01*
X034826Y023396D01*
X034828Y023377D01*
X034826Y023358D01*
X034821Y023339D01*
X034811Y023323D01*
X034799Y023308D01*
X034784Y023296D01*
X034768Y023286D01*
X034749Y023281D01*
X034730Y023279D01*
X034711Y023281D01*
X034692Y023286D01*
X034676Y023296D01*
X034661Y023308D01*
X034649Y023323D01*
X034639Y023339D01*
X034634Y023358D01*
X034632Y023377D01*
X033746Y023056D02*
X033746Y019906D01*
X032604Y019906D01*
X032604Y023056D01*
X033746Y023056D01*
X034632Y022393D02*
X034634Y022412D01*
X034639Y022431D01*
X034649Y022447D01*
X034661Y022462D01*
X034676Y022474D01*
X034692Y022484D01*
X034711Y022489D01*
X034730Y022491D01*
X034749Y022489D01*
X034768Y022484D01*
X034784Y022474D01*
X034799Y022462D01*
X034811Y022447D01*
X034821Y022431D01*
X034826Y022412D01*
X034828Y022393D01*
X034826Y022374D01*
X034821Y022355D01*
X034811Y022339D01*
X034799Y022324D01*
X034784Y022312D01*
X034768Y022302D01*
X034749Y022297D01*
X034730Y022295D01*
X034711Y022297D01*
X034692Y022302D01*
X034676Y022312D01*
X034661Y022324D01*
X034649Y022339D01*
X034639Y022355D01*
X034634Y022374D01*
X034632Y022393D01*
X034632Y021408D02*
X034634Y021427D01*
X034639Y021446D01*
X034649Y021462D01*
X034661Y021477D01*
X034676Y021489D01*
X034692Y021499D01*
X034711Y021504D01*
X034730Y021506D01*
X034749Y021504D01*
X034768Y021499D01*
X034784Y021489D01*
X034799Y021477D01*
X034811Y021462D01*
X034821Y021446D01*
X034826Y021427D01*
X034828Y021408D01*
X034826Y021389D01*
X034821Y021370D01*
X034811Y021354D01*
X034799Y021339D01*
X034784Y021327D01*
X034768Y021317D01*
X034749Y021312D01*
X034730Y021310D01*
X034711Y021312D01*
X034692Y021317D01*
X034676Y021327D01*
X034661Y021339D01*
X034649Y021354D01*
X034639Y021370D01*
X034634Y021389D01*
X034632Y021408D01*
X034317Y020595D02*
X034218Y020497D01*
X034317Y020398D01*
X034317Y020595D01*
X034632Y020424D02*
X034634Y020443D01*
X034639Y020462D01*
X034649Y020478D01*
X034661Y020493D01*
X034676Y020505D01*
X034692Y020515D01*
X034711Y020520D01*
X034730Y020522D01*
X034749Y020520D01*
X034768Y020515D01*
X034784Y020505D01*
X034799Y020493D01*
X034811Y020478D01*
X034821Y020462D01*
X034826Y020443D01*
X034828Y020424D01*
X034826Y020405D01*
X034821Y020386D01*
X034811Y020370D01*
X034799Y020355D01*
X034784Y020343D01*
X034768Y020333D01*
X034749Y020328D01*
X034730Y020326D01*
X034711Y020328D01*
X034692Y020333D01*
X034676Y020343D01*
X034661Y020355D01*
X034649Y020370D01*
X034639Y020386D01*
X034634Y020405D01*
X034632Y020424D01*
X034406Y019690D02*
X034406Y019099D01*
X035587Y019099D01*
X035587Y019690D01*
X034406Y019690D01*
X034522Y019277D02*
X034524Y019292D01*
X034530Y019307D01*
X034539Y019319D01*
X034551Y019329D01*
X034565Y019336D01*
X034580Y019339D01*
X034596Y019338D01*
X034610Y019333D01*
X034624Y019325D01*
X034634Y019313D01*
X034642Y019300D01*
X034646Y019285D01*
X034646Y019269D01*
X034642Y019254D01*
X034634Y019241D01*
X034624Y019229D01*
X034610Y019221D01*
X034596Y019216D01*
X034580Y019215D01*
X034565Y019218D01*
X034551Y019225D01*
X034539Y019235D01*
X034530Y019247D01*
X034524Y019262D01*
X034522Y019277D01*
X034213Y018732D02*
X034213Y015897D01*
X032559Y015897D01*
X032559Y018732D01*
X034213Y018732D01*
X032913Y016999D02*
X032913Y016606D01*
X032717Y016803D02*
X033110Y016803D01*
X034941Y016564D02*
X034941Y015383D01*
X037619Y015383D01*
X037619Y016564D01*
X034941Y016564D01*
X035276Y014674D02*
X035178Y014576D01*
X035375Y014576D01*
X035276Y014674D01*
X036798Y019046D02*
X036800Y019065D01*
X036805Y019084D01*
X036815Y019100D01*
X036827Y019115D01*
X036842Y019127D01*
X036858Y019137D01*
X036877Y019142D01*
X036896Y019144D01*
X036915Y019142D01*
X036934Y019137D01*
X036950Y019127D01*
X036965Y019115D01*
X036977Y019100D01*
X036987Y019084D01*
X036992Y019065D01*
X036994Y019046D01*
X036992Y019027D01*
X036987Y019008D01*
X036977Y018992D01*
X036965Y018977D01*
X036950Y018965D01*
X036934Y018955D01*
X036915Y018950D01*
X036896Y018948D01*
X036877Y018950D01*
X036858Y018955D01*
X036842Y018965D01*
X036827Y018977D01*
X036815Y018992D01*
X036805Y019008D01*
X036800Y019027D01*
X036798Y019046D01*
X037782Y019046D02*
X037784Y019065D01*
X037789Y019084D01*
X037799Y019100D01*
X037811Y019115D01*
X037826Y019127D01*
X037842Y019137D01*
X037861Y019142D01*
X037880Y019144D01*
X037899Y019142D01*
X037918Y019137D01*
X037934Y019127D01*
X037949Y019115D01*
X037961Y019100D01*
X037971Y019084D01*
X037976Y019065D01*
X037978Y019046D01*
X037976Y019027D01*
X037971Y019008D01*
X037961Y018992D01*
X037949Y018977D01*
X037934Y018965D01*
X037918Y018955D01*
X037899Y018950D01*
X037880Y018948D01*
X037861Y018950D01*
X037842Y018955D01*
X037826Y018965D01*
X037811Y018977D01*
X037799Y018992D01*
X037789Y019008D01*
X037784Y019027D01*
X037782Y019046D01*
X038766Y019046D02*
X038768Y019065D01*
X038773Y019084D01*
X038783Y019100D01*
X038795Y019115D01*
X038810Y019127D01*
X038826Y019137D01*
X038845Y019142D01*
X038864Y019144D01*
X038883Y019142D01*
X038902Y019137D01*
X038918Y019127D01*
X038933Y019115D01*
X038945Y019100D01*
X038955Y019084D01*
X038960Y019065D01*
X038962Y019046D01*
X038960Y019027D01*
X038955Y019008D01*
X038945Y018992D01*
X038933Y018977D01*
X038918Y018965D01*
X038902Y018955D01*
X038883Y018950D01*
X038864Y018948D01*
X038845Y018950D01*
X038826Y018955D01*
X038810Y018965D01*
X038795Y018977D01*
X038783Y018992D01*
X038773Y019008D01*
X038768Y019027D01*
X038766Y019046D01*
X039750Y019046D02*
X039752Y019065D01*
X039757Y019084D01*
X039767Y019100D01*
X039779Y019115D01*
X039794Y019127D01*
X039810Y019137D01*
X039829Y019142D01*
X039848Y019144D01*
X039867Y019142D01*
X039886Y019137D01*
X039902Y019127D01*
X039917Y019115D01*
X039929Y019100D01*
X039939Y019084D01*
X039944Y019065D01*
X039946Y019046D01*
X039944Y019027D01*
X039939Y019008D01*
X039929Y018992D01*
X039917Y018977D01*
X039902Y018965D01*
X039886Y018955D01*
X039867Y018950D01*
X039848Y018948D01*
X039829Y018950D01*
X039810Y018955D01*
X039794Y018965D01*
X039779Y018977D01*
X039767Y018992D01*
X039757Y019008D01*
X039752Y019027D01*
X039750Y019046D01*
X040735Y019046D02*
X040737Y019065D01*
X040742Y019084D01*
X040752Y019100D01*
X040764Y019115D01*
X040779Y019127D01*
X040795Y019137D01*
X040814Y019142D01*
X040833Y019144D01*
X040852Y019142D01*
X040871Y019137D01*
X040887Y019127D01*
X040902Y019115D01*
X040914Y019100D01*
X040924Y019084D01*
X040929Y019065D01*
X040931Y019046D01*
X040929Y019027D01*
X040924Y019008D01*
X040914Y018992D01*
X040902Y018977D01*
X040887Y018965D01*
X040871Y018955D01*
X040852Y018950D01*
X040833Y018948D01*
X040814Y018950D01*
X040795Y018955D01*
X040779Y018965D01*
X040764Y018977D01*
X040752Y018992D01*
X040742Y019008D01*
X040737Y019027D01*
X040735Y019046D01*
X042113Y021212D02*
X042115Y021231D01*
X042120Y021250D01*
X042130Y021266D01*
X042142Y021281D01*
X042157Y021293D01*
X042173Y021303D01*
X042192Y021308D01*
X042211Y021310D01*
X042230Y021308D01*
X042249Y021303D01*
X042265Y021293D01*
X042280Y021281D01*
X042292Y021266D01*
X042302Y021250D01*
X042307Y021231D01*
X042309Y021212D01*
X042307Y021193D01*
X042302Y021174D01*
X042292Y021158D01*
X042280Y021143D01*
X042265Y021131D01*
X042249Y021121D01*
X042230Y021116D01*
X042211Y021114D01*
X042192Y021116D01*
X042173Y021121D01*
X042157Y021131D01*
X042142Y021143D01*
X042130Y021158D01*
X042120Y021174D01*
X042115Y021193D01*
X042113Y021212D01*
X042113Y022196D02*
X042115Y022215D01*
X042120Y022234D01*
X042130Y022250D01*
X042142Y022265D01*
X042157Y022277D01*
X042173Y022287D01*
X042192Y022292D01*
X042211Y022294D01*
X042230Y022292D01*
X042249Y022287D01*
X042265Y022277D01*
X042280Y022265D01*
X042292Y022250D01*
X042302Y022234D01*
X042307Y022215D01*
X042309Y022196D01*
X042307Y022177D01*
X042302Y022158D01*
X042292Y022142D01*
X042280Y022127D01*
X042265Y022115D01*
X042249Y022105D01*
X042230Y022100D01*
X042211Y022098D01*
X042192Y022100D01*
X042173Y022105D01*
X042157Y022115D01*
X042142Y022127D01*
X042130Y022142D01*
X042120Y022158D01*
X042115Y022177D01*
X042113Y022196D01*
X042113Y023180D02*
X042115Y023199D01*
X042120Y023218D01*
X042130Y023234D01*
X042142Y023249D01*
X042157Y023261D01*
X042173Y023271D01*
X042192Y023276D01*
X042211Y023278D01*
X042230Y023276D01*
X042249Y023271D01*
X042265Y023261D01*
X042280Y023249D01*
X042292Y023234D01*
X042302Y023218D01*
X042307Y023199D01*
X042309Y023180D01*
X042307Y023161D01*
X042302Y023142D01*
X042292Y023126D01*
X042280Y023111D01*
X042265Y023099D01*
X042249Y023089D01*
X042230Y023084D01*
X042211Y023082D01*
X042192Y023084D01*
X042173Y023089D01*
X042157Y023099D01*
X042142Y023111D01*
X042130Y023126D01*
X042120Y023142D01*
X042115Y023161D01*
X042113Y023180D01*
X042626Y023251D02*
X043517Y024141D01*
X044185Y023473D01*
X043294Y022582D01*
X042626Y023251D01*
X042113Y024164D02*
X042115Y024183D01*
X042120Y024202D01*
X042130Y024218D01*
X042142Y024233D01*
X042157Y024245D01*
X042173Y024255D01*
X042192Y024260D01*
X042211Y024262D01*
X042230Y024260D01*
X042249Y024255D01*
X042265Y024245D01*
X042280Y024233D01*
X042292Y024218D01*
X042302Y024202D01*
X042307Y024183D01*
X042309Y024164D01*
X042307Y024145D01*
X042302Y024126D01*
X042292Y024110D01*
X042280Y024095D01*
X042265Y024083D01*
X042249Y024073D01*
X042230Y024068D01*
X042211Y024066D01*
X042192Y024068D01*
X042173Y024073D01*
X042157Y024083D01*
X042142Y024095D01*
X042130Y024110D01*
X042120Y024126D01*
X042115Y024145D01*
X042113Y024164D01*
X042113Y025149D02*
X042115Y025168D01*
X042120Y025187D01*
X042130Y025203D01*
X042142Y025218D01*
X042157Y025230D01*
X042173Y025240D01*
X042192Y025245D01*
X042211Y025247D01*
X042230Y025245D01*
X042249Y025240D01*
X042265Y025230D01*
X042280Y025218D01*
X042292Y025203D01*
X042302Y025187D01*
X042307Y025168D01*
X042309Y025149D01*
X042307Y025130D01*
X042302Y025111D01*
X042292Y025095D01*
X042280Y025080D01*
X042265Y025068D01*
X042249Y025058D01*
X042230Y025053D01*
X042211Y025051D01*
X042192Y025053D01*
X042173Y025058D01*
X042157Y025068D01*
X042142Y025080D01*
X042130Y025095D01*
X042120Y025111D01*
X042115Y025130D01*
X042113Y025149D01*
X039947Y026527D02*
X039949Y026546D01*
X039954Y026565D01*
X039964Y026581D01*
X039976Y026596D01*
X039991Y026608D01*
X040007Y026618D01*
X040026Y026623D01*
X040045Y026625D01*
X040064Y026623D01*
X040083Y026618D01*
X040099Y026608D01*
X040114Y026596D01*
X040126Y026581D01*
X040136Y026565D01*
X040141Y026546D01*
X040143Y026527D01*
X040141Y026508D01*
X040136Y026489D01*
X040126Y026473D01*
X040114Y026458D01*
X040099Y026446D01*
X040083Y026436D01*
X040064Y026431D01*
X040045Y026429D01*
X040026Y026431D01*
X040007Y026436D01*
X039991Y026446D01*
X039976Y026458D01*
X039964Y026473D01*
X039954Y026489D01*
X039949Y026508D01*
X039947Y026527D01*
X038963Y026527D02*
X038965Y026546D01*
X038970Y026565D01*
X038980Y026581D01*
X038992Y026596D01*
X039007Y026608D01*
X039023Y026618D01*
X039042Y026623D01*
X039061Y026625D01*
X039080Y026623D01*
X039099Y026618D01*
X039115Y026608D01*
X039130Y026596D01*
X039142Y026581D01*
X039152Y026565D01*
X039157Y026546D01*
X039159Y026527D01*
X039157Y026508D01*
X039152Y026489D01*
X039142Y026473D01*
X039130Y026458D01*
X039115Y026446D01*
X039099Y026436D01*
X039080Y026431D01*
X039061Y026429D01*
X039042Y026431D01*
X039023Y026436D01*
X039007Y026446D01*
X038992Y026458D01*
X038980Y026473D01*
X038970Y026489D01*
X038965Y026508D01*
X038963Y026527D01*
X037979Y026527D02*
X037981Y026546D01*
X037986Y026565D01*
X037996Y026581D01*
X038008Y026596D01*
X038023Y026608D01*
X038039Y026618D01*
X038058Y026623D01*
X038077Y026625D01*
X038096Y026623D01*
X038115Y026618D01*
X038131Y026608D01*
X038146Y026596D01*
X038158Y026581D01*
X038168Y026565D01*
X038173Y026546D01*
X038175Y026527D01*
X038173Y026508D01*
X038168Y026489D01*
X038158Y026473D01*
X038146Y026458D01*
X038131Y026446D01*
X038115Y026436D01*
X038096Y026431D01*
X038077Y026429D01*
X038058Y026431D01*
X038039Y026436D01*
X038023Y026446D01*
X038008Y026458D01*
X037996Y026473D01*
X037986Y026489D01*
X037981Y026508D01*
X037979Y026527D01*
X036994Y026527D02*
X036996Y026546D01*
X037001Y026565D01*
X037011Y026581D01*
X037023Y026596D01*
X037038Y026608D01*
X037054Y026618D01*
X037073Y026623D01*
X037092Y026625D01*
X037111Y026623D01*
X037130Y026618D01*
X037146Y026608D01*
X037161Y026596D01*
X037173Y026581D01*
X037183Y026565D01*
X037188Y026546D01*
X037190Y026527D01*
X037188Y026508D01*
X037183Y026489D01*
X037173Y026473D01*
X037161Y026458D01*
X037146Y026446D01*
X037130Y026436D01*
X037111Y026431D01*
X037092Y026429D01*
X037073Y026431D01*
X037054Y026436D01*
X037038Y026446D01*
X037023Y026458D01*
X037011Y026473D01*
X037001Y026489D01*
X036996Y026508D01*
X036994Y026527D01*
X029898Y026485D02*
X029718Y026485D01*
X029774Y026425D02*
X029883Y026316D01*
X029774Y026207D01*
X029718Y026147D02*
X029898Y026147D01*
X029895Y026585D02*
X029715Y026585D01*
X029771Y026645D02*
X029880Y026754D01*
X029771Y026863D01*
X029715Y026923D02*
X029895Y026923D01*
X045247Y022345D02*
X045247Y021164D01*
X045838Y021164D01*
X045838Y022345D01*
X045247Y022345D01*
X045363Y022168D02*
X045365Y022183D01*
X045371Y022198D01*
X045380Y022210D01*
X045392Y022220D01*
X045406Y022227D01*
X045421Y022230D01*
X045437Y022229D01*
X045451Y022224D01*
X045465Y022216D01*
X045475Y022204D01*
X045483Y022191D01*
X045487Y022176D01*
X045487Y022160D01*
X045483Y022145D01*
X045475Y022132D01*
X045465Y022120D01*
X045451Y022112D01*
X045437Y022107D01*
X045421Y022106D01*
X045406Y022109D01*
X045392Y022116D01*
X045380Y022126D01*
X045371Y022138D01*
X045365Y022153D01*
X045363Y022168D01*
D130*
X044344Y020387D02*
X043989Y020387D01*
X044344Y020387D02*
X044344Y018024D01*
X043989Y018024D01*
X043517Y018024D02*
X043163Y018024D01*
X043163Y020387D01*
X043517Y020387D01*
X043556Y019698D02*
X043950Y019698D01*
X043950Y018713D01*
X043556Y018713D01*
X043556Y019698D01*
X041472Y018536D02*
X041277Y018731D01*
X040776Y018731D01*
X040442Y018397D01*
X039662Y017617D02*
X039328Y017283D01*
X039328Y016782D01*
X039523Y016587D01*
X040609Y015501D02*
X040832Y015279D01*
X041277Y015279D01*
X041639Y015641D01*
X042474Y016476D02*
X043003Y017005D01*
X042613Y017394D01*
D131*
X042046Y019982D02*
X041771Y019982D01*
X041771Y020257D01*
X042046Y020257D01*
X041771Y020257D02*
X041495Y020257D01*
X041495Y019982D02*
X041771Y019982D01*
X042097Y021220D02*
X042097Y021495D01*
X042373Y021495D01*
X042373Y021771D01*
X042097Y021771D02*
X042097Y021495D01*
X042373Y021495D02*
X042373Y021220D01*
X043170Y021893D02*
X042975Y022088D01*
X043170Y022283D01*
X043365Y022088D01*
X043170Y022283D02*
X042975Y022478D01*
X042780Y022283D02*
X042975Y022088D01*
X042832Y023774D02*
X043027Y023969D01*
X042832Y024164D01*
X043027Y024358D01*
X043221Y024164D02*
X043027Y023969D01*
X042832Y024164D02*
X042637Y023969D01*
X045273Y021050D02*
X045549Y021050D01*
X045549Y020775D01*
X045824Y020775D01*
X045549Y020775D02*
X045273Y020775D01*
X045549Y021050D02*
X045824Y021050D01*
X046475Y021578D02*
X046908Y021578D01*
X046908Y021972D01*
X046475Y021972D01*
X046908Y021972D02*
X047341Y021972D01*
X047341Y021578D02*
X046908Y021578D01*
X046906Y021416D02*
X046906Y021140D01*
X047181Y021140D01*
X046906Y021140D02*
X046630Y021140D01*
X046630Y021416D02*
X046906Y021416D01*
X047181Y021416D01*
X040176Y019143D02*
X039900Y019143D01*
X039900Y018867D01*
X039625Y018867D01*
X039900Y018867D02*
X040176Y018867D01*
X039900Y019143D02*
X039625Y019143D01*
X037258Y017819D02*
X037258Y017544D01*
X036983Y017544D01*
X036983Y017819D01*
X036897Y017822D02*
X036897Y017547D01*
X036621Y017547D01*
X036621Y017822D01*
X036518Y017826D02*
X036518Y017550D01*
X036243Y017550D01*
X036243Y017826D01*
X036178Y017822D02*
X036178Y017547D01*
X035903Y017547D01*
X035903Y017822D01*
X035903Y017547D02*
X035903Y017271D01*
X036178Y017271D02*
X036178Y017547D01*
X036243Y017550D02*
X036243Y017274D01*
X036518Y017274D02*
X036518Y017550D01*
X036621Y017547D02*
X036621Y017271D01*
X036897Y017271D02*
X036897Y017547D01*
X036983Y017544D02*
X036983Y017268D01*
X037258Y017268D02*
X037258Y017544D01*
X036779Y018937D02*
X036503Y018937D01*
X036503Y019213D01*
X036228Y019213D01*
X036503Y019213D02*
X036779Y019213D01*
X036503Y018937D02*
X036228Y018937D01*
X034227Y019117D02*
X034227Y019392D01*
X033951Y019392D01*
X033951Y019668D01*
X033951Y019392D02*
X033951Y019117D01*
X034227Y019392D02*
X034227Y019668D01*
X033523Y019492D02*
X033247Y019492D01*
X033247Y019216D01*
X032971Y019216D01*
X032971Y019492D02*
X033247Y019492D01*
X033247Y019216D02*
X033523Y019216D01*
X034488Y016239D02*
X034488Y015964D01*
X034764Y015964D01*
X034764Y015688D01*
X034488Y015688D02*
X034488Y015964D01*
X034764Y015964D02*
X034764Y016239D01*
X034803Y015185D02*
X034528Y015185D01*
X034528Y014909D01*
X034252Y014909D01*
X034528Y014909D02*
X034803Y014909D01*
X034528Y015185D02*
X034252Y015185D01*
X029882Y015691D02*
X029607Y015691D01*
X029607Y015967D01*
X029882Y015967D01*
X029887Y016055D02*
X029612Y016055D01*
X029612Y016330D01*
X029887Y016330D01*
X029891Y016415D02*
X029615Y016415D01*
X029615Y016690D01*
X029891Y016690D01*
X029886Y016761D02*
X029610Y016761D01*
X029610Y017037D01*
X029886Y017037D01*
X029610Y017037D02*
X029335Y017037D01*
X029335Y016761D02*
X029610Y016761D01*
X029615Y016690D02*
X029340Y016690D01*
X029340Y016415D02*
X029615Y016415D01*
X029612Y016330D02*
X029336Y016330D01*
X029336Y016055D02*
X029612Y016055D01*
X029607Y015967D02*
X029331Y015967D01*
X029331Y015691D02*
X029607Y015691D01*
X027892Y018194D02*
X027892Y018470D01*
X027616Y018470D01*
X027616Y018194D01*
X027616Y018470D02*
X027616Y018745D01*
X027892Y018745D02*
X027892Y018470D01*
X026106Y016259D02*
X026106Y015984D01*
X025831Y015984D01*
X025831Y015708D01*
X026106Y015708D02*
X026106Y015984D01*
X025831Y015984D02*
X025831Y016259D01*
X025896Y015095D02*
X025896Y014819D01*
X025620Y014819D01*
X025620Y015095D02*
X025896Y015095D01*
X026172Y015095D01*
X026172Y014819D02*
X025896Y014819D01*
X020984Y014884D02*
X020709Y014884D01*
X020709Y015160D01*
X020433Y015160D01*
X020709Y015160D02*
X020984Y015160D01*
X020709Y014884D02*
X020433Y014884D01*
X015806Y021133D02*
X015373Y021133D01*
X015373Y021526D01*
X015806Y021526D01*
X015649Y021699D02*
X015374Y021699D01*
X015374Y021974D01*
X015098Y021974D01*
X015098Y021699D02*
X015374Y021699D01*
X015373Y021526D02*
X014940Y021526D01*
X014940Y021133D02*
X015373Y021133D01*
X015374Y021974D02*
X015649Y021974D01*
X016483Y022065D02*
X016759Y022065D01*
X016759Y022340D01*
X016483Y022340D01*
X016759Y022340D02*
X017034Y022340D01*
X017034Y022065D02*
X016759Y022065D01*
X024170Y028393D02*
X023993Y028604D01*
X024204Y028781D01*
X024027Y028992D01*
X023816Y028815D02*
X023993Y028604D01*
X024204Y028781D02*
X024382Y028570D01*
X025161Y028538D02*
X025161Y028262D01*
X025437Y028262D01*
X025437Y027987D01*
X025437Y028262D02*
X025437Y028538D01*
X025761Y028538D02*
X025761Y028262D01*
X026037Y028262D01*
X026037Y027987D01*
X026037Y028262D02*
X026037Y028538D01*
X025761Y028262D02*
X025761Y027987D01*
X025161Y027987D02*
X025161Y028262D01*
X028299Y026890D02*
X028575Y026890D01*
X028575Y026614D01*
X028299Y026614D01*
X028306Y026469D02*
X028581Y026469D01*
X028581Y026193D01*
X028306Y026193D01*
X028581Y026193D02*
X028857Y026193D01*
X028857Y026469D02*
X028581Y026469D01*
X028575Y026614D02*
X028851Y026614D01*
X028851Y026890D02*
X028575Y026890D01*
X031084Y028375D02*
X031084Y029635D01*
X031694Y029635D01*
X031694Y028375D01*
X031084Y028375D01*
X033068Y025694D02*
X033068Y025418D01*
X033343Y025418D01*
X033343Y025143D01*
X033447Y025144D02*
X033447Y025420D01*
X033723Y025420D01*
X033723Y025144D01*
X033723Y025420D02*
X033723Y025695D01*
X033447Y025695D02*
X033447Y025420D01*
X033343Y025418D02*
X033343Y025694D01*
X033068Y025418D02*
X033068Y025143D01*
X034893Y025695D02*
X035169Y025695D01*
X035169Y025970D01*
X034893Y025970D01*
X035169Y025970D02*
X035444Y025970D01*
X035444Y025695D02*
X035169Y025695D01*
X036246Y027857D02*
X036246Y028132D01*
X036522Y028132D01*
X036522Y027857D01*
X036522Y028132D02*
X036522Y028408D01*
X036246Y028408D02*
X036246Y028132D01*
X038454Y026674D02*
X038730Y026674D01*
X038730Y026398D01*
X038454Y026398D01*
X038730Y026398D02*
X039006Y026398D01*
X039006Y026674D02*
X038730Y026674D01*
X033127Y034267D02*
X033521Y034661D01*
X033521Y038204D01*
X033127Y038598D01*
X029978Y038598D01*
X028797Y037417D01*
X028797Y035448D01*
X029978Y034267D01*
X033127Y034267D01*
X029046Y034133D02*
X027865Y034133D01*
X028172Y033982D02*
X028447Y033982D01*
X028447Y033706D01*
X028172Y033706D01*
X028447Y033706D02*
X028723Y033706D01*
X028723Y033982D02*
X028447Y033982D01*
X028397Y034212D02*
X028613Y034428D01*
X028397Y034645D01*
X028397Y034212D01*
X027865Y034723D02*
X029046Y034723D01*
X028384Y032136D02*
X028109Y032136D01*
X028109Y031860D01*
X028384Y031860D01*
X028109Y031860D02*
X027833Y031860D01*
X027833Y032136D02*
X028109Y032136D01*
M02*
