G75*
G70*
%OFA0B0*%
%FSLAX24Y24*%
%IPPOS*%
%LPD*%
%AMOC8*
5,1,8,0,0,1.08239X$1,22.5*
%
%ADD10C,0.0080*%
%ADD11C,0.0050*%
%ADD12C,0.0240*%
D10*
X020653Y019471D02*
X020653Y019747D01*
X020928Y019747D01*
X020928Y020022D01*
X020653Y020022D02*
X020653Y019747D01*
X020928Y019747D02*
X020928Y019471D01*
X021115Y018860D02*
X021391Y018860D01*
X021391Y018584D01*
X021115Y018584D01*
X021106Y018488D02*
X021381Y018488D01*
X021381Y018212D01*
X021106Y018212D01*
X021098Y018121D02*
X021373Y018121D01*
X021373Y017845D01*
X021649Y017845D01*
X021652Y017611D02*
X021376Y017611D01*
X021376Y017335D01*
X021652Y017335D01*
X021376Y017335D02*
X021101Y017335D01*
X021101Y017611D02*
X021376Y017611D01*
X021373Y017845D02*
X021098Y017845D01*
X021373Y018121D02*
X021649Y018121D01*
X021657Y018212D02*
X021381Y018212D01*
X021381Y018488D02*
X021657Y018488D01*
X021667Y018584D02*
X021391Y018584D01*
X021391Y018860D02*
X021667Y018860D01*
X022392Y018876D02*
X022392Y019151D01*
X022667Y019151D01*
X022667Y018876D01*
X022763Y019094D02*
X022763Y019370D01*
X023039Y019370D01*
X023039Y019094D01*
X023039Y019370D02*
X023039Y019645D01*
X022763Y019645D02*
X022763Y019370D01*
X022667Y019427D02*
X022667Y019151D01*
X022392Y019151D02*
X022392Y019427D01*
X023689Y018444D02*
X023689Y018168D01*
X023964Y018168D01*
X023964Y018444D01*
X024057Y018448D02*
X024057Y018173D01*
X024333Y018173D01*
X024333Y018448D01*
X024333Y018173D02*
X024333Y017897D01*
X024057Y017897D02*
X024057Y018173D01*
X023964Y018168D02*
X023964Y017893D01*
X023689Y017893D02*
X023689Y018168D01*
X024575Y017080D02*
X024575Y016805D01*
X024850Y016805D01*
X024850Y016529D01*
X024575Y016529D02*
X024575Y016805D01*
X024850Y016805D02*
X024850Y017080D01*
X023191Y016850D02*
X023191Y016574D01*
X022916Y016574D01*
X022916Y016299D01*
X022916Y016574D02*
X022916Y016850D01*
X023191Y016574D02*
X023191Y016299D01*
X022404Y016276D02*
X022404Y016552D01*
X022129Y016552D01*
X022129Y016827D01*
X022013Y016826D02*
X022013Y016551D01*
X021737Y016551D01*
X021737Y016826D01*
X021737Y016551D02*
X021737Y016275D01*
X022013Y016275D02*
X022013Y016551D01*
X022129Y016552D02*
X022129Y016276D01*
X022404Y016552D02*
X022404Y016827D01*
X026460Y017461D02*
X026735Y017461D01*
X026735Y017737D01*
X027011Y017737D01*
X027004Y017971D02*
X026728Y017971D01*
X026728Y018247D01*
X027004Y018247D01*
X026728Y018247D02*
X026453Y018247D01*
X026453Y017971D02*
X026728Y017971D01*
X026735Y017737D02*
X026460Y017737D01*
X026735Y017461D02*
X027011Y017461D01*
X027153Y016963D02*
X027153Y016687D01*
X027428Y016687D01*
X027428Y016963D01*
X027506Y016969D02*
X027506Y016694D01*
X027782Y016694D01*
X027782Y016969D01*
X027782Y016694D02*
X027782Y016418D01*
X027506Y016418D02*
X027506Y016694D01*
X027428Y016687D02*
X027428Y016411D01*
X027153Y016411D02*
X027153Y016687D01*
X028284Y016685D02*
X028284Y016409D01*
X028284Y016685D02*
X028560Y016685D01*
X028560Y016409D01*
X028560Y016685D02*
X028560Y016960D01*
X028284Y016960D02*
X028284Y016685D01*
X029188Y018036D02*
X029188Y018312D01*
X029463Y018312D01*
X029463Y018588D01*
X029563Y018589D02*
X029563Y018314D01*
X029838Y018314D01*
X029838Y018589D01*
X029838Y018314D02*
X029838Y018038D01*
X029563Y018038D02*
X029563Y018314D01*
X029463Y018312D02*
X029463Y018036D01*
X029188Y018312D02*
X029188Y018588D01*
X028422Y019213D02*
X028422Y019488D01*
X028146Y019488D01*
X028146Y019213D01*
X028043Y019260D02*
X027768Y019260D01*
X027768Y018984D01*
X028043Y018984D02*
X028043Y019260D01*
X028043Y019535D01*
X028146Y019488D02*
X028146Y019764D01*
X028422Y019764D02*
X028422Y019488D01*
X027768Y019535D02*
X027768Y019260D01*
X027003Y019187D02*
X026728Y019187D01*
X026728Y018911D01*
X026452Y018911D01*
X026450Y018842D02*
X026726Y018842D01*
X026726Y018566D01*
X026450Y018566D01*
X026726Y018566D02*
X027001Y018566D01*
X027001Y018842D02*
X026726Y018842D01*
X026728Y018911D02*
X027003Y018911D01*
X026728Y019187D02*
X026452Y019187D01*
X027663Y021433D02*
X027663Y021708D01*
X027938Y021708D01*
X027938Y021433D01*
X027938Y021708D02*
X027938Y021984D01*
X027663Y021984D02*
X027663Y021708D01*
X025287Y021663D02*
X025287Y021938D01*
X025011Y021938D01*
X025011Y021663D01*
X025011Y021938D02*
X025011Y022214D01*
X025287Y022214D02*
X025287Y021938D01*
X025114Y023133D02*
X024722Y023601D01*
X025687Y024410D01*
X026080Y023943D01*
X025114Y023133D01*
X024511Y023851D02*
X025476Y024660D01*
X025084Y025128D01*
X024119Y024318D01*
X024511Y023851D01*
X024052Y023595D02*
X023660Y024063D01*
X022695Y023253D01*
X023087Y022785D01*
X024052Y023595D01*
X023454Y024320D02*
X022489Y023510D01*
X022096Y023977D01*
X023061Y024787D01*
X023454Y024320D01*
X023192Y024870D02*
X023404Y025047D01*
X023226Y025258D01*
X023438Y025435D01*
X023615Y025224D02*
X023404Y025047D01*
X023226Y025258D02*
X023015Y025081D01*
X022014Y023157D02*
X021738Y023157D01*
X021738Y022881D01*
X021462Y022881D01*
X021293Y022881D02*
X021017Y022881D01*
X021017Y023157D01*
X020742Y023157D01*
X021017Y023157D02*
X021293Y023157D01*
X021462Y023157D02*
X021738Y023157D01*
X021738Y022881D02*
X022014Y022881D01*
X022032Y022612D02*
X022032Y022337D01*
X021756Y022337D01*
X021756Y022612D01*
X021756Y022337D02*
X021756Y022061D01*
X022032Y022061D02*
X022032Y022337D01*
X021017Y022881D02*
X020742Y022881D01*
X025673Y026457D02*
X025673Y026732D01*
X025948Y026732D01*
X025948Y026457D01*
X025948Y026732D02*
X025948Y027008D01*
X025673Y027008D02*
X025673Y026732D01*
X027090Y027886D02*
X027366Y027886D01*
X027366Y028162D01*
X027641Y028162D01*
X027366Y028162D02*
X027090Y028162D01*
X027366Y027886D02*
X027641Y027886D01*
X029899Y028027D02*
X030175Y028027D01*
X030175Y028303D01*
X029899Y028303D01*
X030175Y028303D02*
X030450Y028303D01*
X030438Y028551D02*
X030438Y028827D01*
X030162Y028827D01*
X030162Y029102D01*
X030162Y028827D02*
X030162Y028551D01*
X030438Y028827D02*
X030438Y029102D01*
X030450Y028027D02*
X030175Y028027D01*
X030687Y027871D02*
X030687Y027595D01*
X030963Y027595D01*
X030963Y027871D01*
X031037Y027875D02*
X031037Y027599D01*
X031312Y027599D01*
X031312Y027324D01*
X031397Y027516D02*
X031673Y027516D01*
X031673Y027791D01*
X031949Y027791D01*
X032071Y027721D02*
X032071Y027997D01*
X032346Y027997D01*
X032346Y028272D01*
X032071Y028272D02*
X032071Y027997D01*
X032346Y027997D02*
X032346Y027721D01*
X031949Y027516D02*
X031673Y027516D01*
X031673Y027791D02*
X031397Y027791D01*
X031312Y027875D02*
X031312Y027599D01*
X031037Y027599D02*
X031037Y027324D01*
X030963Y027320D02*
X030963Y027595D01*
X030687Y027595D02*
X030687Y027320D01*
X035045Y027573D02*
X035320Y027573D01*
X035320Y027849D01*
X035045Y027849D01*
X035320Y027849D02*
X035596Y027849D01*
X035596Y027573D02*
X035320Y027573D01*
X035334Y027419D02*
X035334Y027143D01*
X035058Y027143D01*
X035058Y027419D02*
X035334Y027419D01*
X035609Y027419D01*
X035609Y027143D02*
X035334Y027143D01*
X036969Y029168D02*
X037934Y028358D01*
X038326Y028825D01*
X037361Y029635D01*
X036969Y029168D01*
X036240Y029897D02*
X036417Y030108D01*
X036206Y030286D01*
X036028Y030074D01*
X035919Y030146D02*
X036096Y030357D01*
X035885Y030534D01*
X035708Y030323D01*
X035885Y030534D02*
X036062Y030745D01*
X036273Y030568D02*
X036096Y030357D01*
X036206Y030286D02*
X036383Y030497D01*
X036594Y030320D02*
X036417Y030108D01*
X035555Y030915D02*
X035344Y031093D01*
X035521Y031304D01*
X035732Y031127D02*
X035555Y030915D01*
X035378Y030704D01*
X035167Y030881D02*
X035344Y031093D01*
X034510Y035721D02*
X034234Y035721D01*
X034234Y035996D01*
X034510Y035996D01*
X034234Y035996D02*
X033959Y035996D01*
X033959Y035721D02*
X034234Y035721D01*
X033702Y037154D02*
X033702Y037430D01*
X033426Y037430D01*
X033426Y037706D01*
X033426Y037430D02*
X033426Y037154D01*
X033702Y037430D02*
X033702Y037706D01*
X038417Y025091D02*
X038417Y024816D01*
X038693Y024816D01*
X038693Y024540D01*
X038777Y024539D02*
X038777Y024814D01*
X039052Y024814D01*
X039052Y024539D01*
X039052Y024814D02*
X039052Y025090D01*
X038777Y025090D02*
X038777Y024814D01*
X038693Y024816D02*
X038693Y025091D01*
X038417Y024816D02*
X038417Y024540D01*
X039369Y024471D02*
X039645Y024471D01*
X039645Y024747D01*
X039369Y024747D02*
X039369Y024471D01*
X039369Y024196D01*
X039645Y024196D02*
X039645Y024471D01*
X040647Y023589D02*
X040647Y023314D01*
X040922Y023314D01*
X040922Y023589D01*
X040922Y023314D02*
X040922Y023038D01*
X040922Y022888D02*
X040922Y022612D01*
X040646Y022612D01*
X040646Y022888D01*
X040647Y023038D02*
X040647Y023314D01*
X041004Y022893D02*
X041004Y022617D01*
X041280Y022617D01*
X041280Y022342D01*
X041280Y022617D02*
X041280Y022893D01*
X041004Y022617D02*
X041004Y022342D01*
X040922Y022336D02*
X040922Y022612D01*
X040646Y022612D02*
X040646Y022336D01*
X038594Y021720D02*
X038319Y021720D01*
X038319Y021445D01*
X038594Y021445D01*
X038319Y021445D02*
X038043Y021445D01*
X037894Y021445D02*
X037619Y021445D01*
X037619Y021720D01*
X037894Y021720D01*
X037819Y021845D02*
X037819Y022120D01*
X038094Y022120D01*
X037819Y022120D02*
X037543Y022120D01*
X037543Y021845D02*
X037819Y021845D01*
X038094Y021845D01*
X038043Y021720D02*
X038319Y021720D01*
X038494Y021186D02*
X038494Y020576D01*
X037235Y020576D01*
X037235Y021186D01*
X038494Y021186D01*
X037619Y021445D02*
X037343Y021445D01*
X037107Y021482D02*
X036831Y021482D01*
X036831Y021758D01*
X036831Y021482D02*
X036831Y021207D01*
X036849Y021096D02*
X036849Y020820D01*
X037125Y020820D01*
X037125Y020545D01*
X037125Y020820D02*
X037125Y021096D01*
X037107Y021207D02*
X037107Y021482D01*
X037107Y021758D01*
X037343Y021720D02*
X037619Y021720D01*
X036734Y021094D02*
X036734Y020819D01*
X036459Y020819D01*
X036459Y020543D01*
X036734Y020543D02*
X036734Y020819D01*
X036849Y020820D02*
X036849Y020545D01*
X036459Y020819D02*
X036459Y021094D01*
X035639Y020531D02*
X035363Y020531D01*
X035363Y020255D01*
X035639Y020255D01*
X035363Y020255D02*
X035087Y020255D01*
X035087Y020531D02*
X035363Y020531D01*
X034825Y020639D02*
X034549Y020639D01*
X034549Y020915D01*
X034549Y020639D02*
X034549Y020364D01*
X034825Y020364D02*
X034825Y020639D01*
X034825Y020915D01*
X035376Y019275D02*
X035376Y019000D01*
X035651Y019000D01*
X035651Y018724D01*
X035376Y018724D02*
X035376Y019000D01*
X035250Y019057D02*
X035250Y018781D01*
X034974Y018781D01*
X034974Y018506D01*
X034974Y018781D02*
X034974Y019057D01*
X035250Y018781D02*
X035250Y018506D01*
X035651Y019000D02*
X035651Y019275D01*
X036327Y018074D02*
X036327Y017798D01*
X036602Y017798D01*
X036602Y018074D01*
X036685Y018068D02*
X036685Y017793D01*
X036961Y017793D01*
X036961Y018068D01*
X036961Y017793D02*
X036961Y017517D01*
X036685Y017517D02*
X036685Y017793D01*
X036602Y017798D02*
X036602Y017523D01*
X036327Y017523D02*
X036327Y017798D01*
X037147Y016760D02*
X037147Y016485D01*
X037423Y016485D01*
X037423Y016209D01*
X037147Y016209D02*
X037147Y016485D01*
X037423Y016485D02*
X037423Y016760D01*
X039137Y016273D02*
X039137Y017533D01*
X039747Y017533D01*
X039747Y016273D01*
X039137Y016273D01*
X039165Y016167D02*
X039441Y016167D01*
X039441Y015891D01*
X039165Y015891D01*
X039441Y015891D02*
X039716Y015891D01*
X039716Y016167D02*
X039441Y016167D01*
X042203Y018662D02*
X042203Y018938D01*
X042478Y018938D01*
X042478Y018662D01*
X042617Y018619D02*
X042617Y019800D01*
X042480Y019902D02*
X042480Y019627D01*
X042205Y019627D01*
X042205Y019902D01*
X042205Y019627D02*
X042205Y019351D01*
X042203Y019213D02*
X042203Y018938D01*
X042478Y018938D02*
X042478Y019213D01*
X042480Y019351D02*
X042480Y019627D01*
X042695Y019269D02*
X043129Y019269D01*
X042912Y019052D01*
X042695Y019269D01*
X043207Y019800D02*
X043207Y018619D01*
X035411Y023461D02*
X035135Y023461D01*
X035135Y023737D01*
X034860Y023737D01*
X034868Y023838D02*
X035144Y023838D01*
X035144Y024113D01*
X034868Y024113D01*
X035144Y024113D02*
X035419Y024113D01*
X035419Y023838D02*
X035144Y023838D01*
X035135Y023737D02*
X035411Y023737D01*
X035135Y023461D02*
X034860Y023461D01*
X034107Y019277D02*
X033831Y019277D01*
X033831Y019002D01*
X033555Y019002D01*
X033556Y018886D02*
X033831Y018886D01*
X033831Y018610D01*
X033556Y018610D01*
X033831Y018610D02*
X034107Y018610D01*
X034107Y018886D02*
X033831Y018886D01*
X033831Y019002D02*
X034107Y019002D01*
X033831Y019277D02*
X033555Y019277D01*
X033608Y017763D02*
X033883Y017763D01*
X033883Y017488D01*
X034159Y017488D01*
X034152Y017253D02*
X033876Y017253D01*
X033876Y016978D01*
X034152Y016978D01*
X033876Y016978D02*
X033601Y016978D01*
X033601Y017253D02*
X033876Y017253D01*
X033883Y017488D02*
X033608Y017488D01*
X033883Y017763D02*
X034159Y017763D01*
X034355Y016486D02*
X034355Y016211D01*
X034631Y016211D01*
X034631Y016486D01*
X034717Y016487D02*
X034717Y016212D01*
X034992Y016212D01*
X034992Y016487D01*
X034992Y016212D02*
X034992Y015936D01*
X034717Y015936D02*
X034717Y016212D01*
X034631Y016211D02*
X034631Y015935D01*
X034355Y015935D02*
X034355Y016211D01*
X030185Y016773D02*
X030185Y017048D01*
X029909Y017048D01*
X029909Y016773D01*
X029909Y017048D02*
X029909Y017324D01*
X030185Y017324D02*
X030185Y017048D01*
X006801Y020933D02*
X006801Y021208D01*
X006525Y021208D01*
X006525Y020933D01*
X006525Y021208D02*
X006525Y021484D01*
X006801Y021484D02*
X006801Y021208D01*
X005074Y021454D02*
X005074Y021730D01*
X004798Y021730D01*
X004798Y022006D01*
X004798Y021730D02*
X004798Y021454D01*
X005074Y021730D02*
X005074Y022006D01*
X004380Y022155D02*
X004380Y020974D01*
X002806Y020974D01*
X002806Y022155D01*
X004380Y022155D01*
X003987Y021879D02*
X003908Y021879D01*
X003987Y021879D02*
X003751Y021643D01*
X003751Y021485D01*
X003987Y021249D01*
X003751Y021249D02*
X003751Y021485D01*
X003593Y021485D02*
X003436Y021485D01*
X003436Y021249D01*
X003436Y021485D02*
X003278Y021722D01*
X003436Y021722D01*
X003436Y021879D01*
X003436Y021722D02*
X003593Y021722D01*
X003436Y021485D01*
X003278Y021485D01*
X003751Y021643D02*
X003751Y021879D01*
X003987Y021879D02*
X003987Y021800D01*
X055413Y021763D02*
X055413Y021487D01*
X055688Y021487D01*
X055688Y021212D01*
X055688Y021487D02*
X055688Y021763D01*
X055413Y021487D02*
X055413Y021212D01*
X057184Y021122D02*
X057184Y021398D01*
X057459Y021398D01*
X057459Y021122D01*
X057459Y021398D02*
X057459Y021673D01*
X057184Y021673D02*
X057184Y021398D01*
X057926Y020980D02*
X057926Y022161D01*
X059500Y022161D01*
X059500Y020980D01*
X057926Y020980D01*
X058319Y021256D02*
X058555Y021492D01*
X058555Y021649D01*
X058319Y021886D01*
X058555Y021886D02*
X058555Y021649D01*
X058555Y021492D02*
X058555Y021256D01*
X058398Y021256D02*
X058319Y021256D01*
X058319Y021334D01*
X058713Y021413D02*
X058870Y021413D01*
X058870Y021256D01*
X058870Y021413D02*
X059028Y021413D01*
X058870Y021649D01*
X058870Y021886D01*
X058870Y021649D02*
X058713Y021413D01*
X058713Y021649D02*
X058870Y021649D01*
X059028Y021649D01*
D11*
X019581Y018959D02*
X019581Y017777D01*
X020762Y017777D01*
X020762Y018959D01*
X019581Y018959D01*
X019200Y019517D02*
X020381Y019517D01*
X020381Y020698D01*
X019200Y020698D01*
X019200Y019517D01*
X019974Y017777D02*
X019976Y017804D01*
X019982Y017831D01*
X019991Y017857D01*
X020004Y017881D01*
X020020Y017904D01*
X020039Y017923D01*
X020061Y017940D01*
X020085Y017954D01*
X020110Y017964D01*
X020137Y017971D01*
X020164Y017974D01*
X020192Y017973D01*
X020219Y017968D01*
X020245Y017960D01*
X020269Y017948D01*
X020292Y017932D01*
X020313Y017914D01*
X020330Y017893D01*
X020345Y017869D01*
X020356Y017844D01*
X020364Y017818D01*
X020368Y017791D01*
X020368Y017763D01*
X020364Y017736D01*
X020356Y017710D01*
X020345Y017685D01*
X020330Y017661D01*
X020313Y017640D01*
X020292Y017622D01*
X020270Y017606D01*
X020245Y017594D01*
X020219Y017586D01*
X020192Y017581D01*
X020164Y017580D01*
X020137Y017583D01*
X020110Y017590D01*
X020085Y017600D01*
X020061Y017614D01*
X020039Y017631D01*
X020020Y017650D01*
X020004Y017673D01*
X019991Y017697D01*
X019982Y017723D01*
X019976Y017750D01*
X019974Y017777D01*
X021872Y017075D02*
X023446Y017075D01*
X023446Y018649D01*
X021872Y018649D01*
X021872Y017075D01*
X023595Y017384D02*
X023595Y016478D01*
X024382Y016478D01*
X024382Y017384D01*
X023595Y017384D01*
X024134Y016675D02*
X024136Y016691D01*
X024142Y016707D01*
X024151Y016721D01*
X024163Y016732D01*
X024177Y016740D01*
X024193Y016745D01*
X024209Y016746D01*
X024225Y016743D01*
X024240Y016736D01*
X024254Y016727D01*
X024264Y016714D01*
X024272Y016699D01*
X024276Y016683D01*
X024276Y016667D01*
X024272Y016651D01*
X024264Y016636D01*
X024254Y016623D01*
X024241Y016614D01*
X024225Y016607D01*
X024209Y016604D01*
X024193Y016605D01*
X024177Y016610D01*
X024163Y016618D01*
X024151Y016629D01*
X024142Y016643D01*
X024136Y016659D01*
X024134Y016675D01*
X025040Y017262D02*
X025040Y018443D01*
X026221Y018443D01*
X026221Y017262D01*
X025040Y017262D01*
X026024Y017853D02*
X026026Y017880D01*
X026032Y017907D01*
X026041Y017933D01*
X026054Y017957D01*
X026070Y017980D01*
X026089Y017999D01*
X026111Y018016D01*
X026135Y018030D01*
X026160Y018040D01*
X026187Y018047D01*
X026214Y018050D01*
X026242Y018049D01*
X026269Y018044D01*
X026295Y018036D01*
X026319Y018024D01*
X026342Y018008D01*
X026363Y017990D01*
X026380Y017969D01*
X026395Y017945D01*
X026406Y017920D01*
X026414Y017894D01*
X026418Y017867D01*
X026418Y017839D01*
X026414Y017812D01*
X026406Y017786D01*
X026395Y017761D01*
X026380Y017737D01*
X026363Y017716D01*
X026342Y017698D01*
X026320Y017682D01*
X026295Y017670D01*
X026269Y017662D01*
X026242Y017657D01*
X026214Y017656D01*
X026187Y017659D01*
X026160Y017666D01*
X026135Y017676D01*
X026111Y017690D01*
X026089Y017707D01*
X026070Y017726D01*
X026054Y017749D01*
X026041Y017773D01*
X026032Y017799D01*
X026026Y017826D01*
X026024Y017853D01*
X027249Y017193D02*
X028824Y017193D01*
X028824Y018768D01*
X027249Y018768D01*
X027249Y017193D01*
X028594Y018611D02*
X028596Y018628D01*
X028602Y018643D01*
X028611Y018657D01*
X028623Y018669D01*
X028637Y018677D01*
X028653Y018682D01*
X028670Y018683D01*
X028687Y018680D01*
X028702Y018673D01*
X028715Y018663D01*
X028726Y018651D01*
X028734Y018636D01*
X028738Y018619D01*
X028738Y018603D01*
X028734Y018586D01*
X028726Y018571D01*
X028715Y018559D01*
X028702Y018549D01*
X028687Y018542D01*
X028670Y018539D01*
X028653Y018540D01*
X028637Y018545D01*
X028623Y018553D01*
X028611Y018565D01*
X028602Y018579D01*
X028596Y018594D01*
X028594Y018611D01*
X028899Y018915D02*
X030080Y018915D01*
X030080Y020096D01*
X028899Y020096D01*
X028899Y018915D01*
X029292Y020096D02*
X029294Y020123D01*
X029300Y020150D01*
X029309Y020176D01*
X029322Y020200D01*
X029338Y020223D01*
X029357Y020242D01*
X029379Y020259D01*
X029403Y020273D01*
X029428Y020283D01*
X029455Y020290D01*
X029482Y020293D01*
X029510Y020292D01*
X029537Y020287D01*
X029563Y020279D01*
X029587Y020267D01*
X029610Y020251D01*
X029631Y020233D01*
X029648Y020212D01*
X029663Y020188D01*
X029674Y020163D01*
X029682Y020137D01*
X029686Y020110D01*
X029686Y020082D01*
X029682Y020055D01*
X029674Y020029D01*
X029663Y020004D01*
X029648Y019980D01*
X029631Y019959D01*
X029610Y019941D01*
X029588Y019925D01*
X029563Y019913D01*
X029537Y019905D01*
X029510Y019900D01*
X029482Y019899D01*
X029455Y019902D01*
X029428Y019909D01*
X029403Y019919D01*
X029379Y019933D01*
X029357Y019950D01*
X029338Y019969D01*
X029322Y019992D01*
X029309Y020016D01*
X029300Y020042D01*
X029294Y020069D01*
X029292Y020096D01*
X027280Y021348D02*
X027280Y022923D01*
X025706Y022923D01*
X025706Y021348D01*
X027280Y021348D01*
X026395Y021348D02*
X026397Y021367D01*
X026402Y021386D01*
X026412Y021402D01*
X026424Y021417D01*
X026439Y021429D01*
X026455Y021439D01*
X026474Y021444D01*
X026493Y021446D01*
X026512Y021444D01*
X026531Y021439D01*
X026547Y021429D01*
X026562Y021417D01*
X026574Y021402D01*
X026584Y021386D01*
X026589Y021367D01*
X026591Y021348D01*
X026589Y021329D01*
X026584Y021310D01*
X026574Y021294D01*
X026562Y021279D01*
X026547Y021267D01*
X026531Y021257D01*
X026512Y021252D01*
X026493Y021250D01*
X026474Y021252D01*
X026455Y021257D01*
X026439Y021267D01*
X026424Y021279D01*
X026412Y021294D01*
X026402Y021310D01*
X026397Y021329D01*
X026395Y021348D01*
X024667Y020050D02*
X024667Y018869D01*
X023486Y018869D01*
X023486Y020050D01*
X024667Y020050D01*
X023880Y020050D02*
X023882Y020077D01*
X023888Y020104D01*
X023897Y020130D01*
X023910Y020154D01*
X023926Y020177D01*
X023945Y020196D01*
X023967Y020213D01*
X023991Y020227D01*
X024016Y020237D01*
X024043Y020244D01*
X024070Y020247D01*
X024098Y020246D01*
X024125Y020241D01*
X024151Y020233D01*
X024175Y020221D01*
X024198Y020205D01*
X024219Y020187D01*
X024236Y020166D01*
X024251Y020142D01*
X024262Y020117D01*
X024270Y020091D01*
X024274Y020064D01*
X024274Y020036D01*
X024270Y020009D01*
X024262Y019983D01*
X024251Y019958D01*
X024236Y019934D01*
X024219Y019913D01*
X024198Y019895D01*
X024176Y019879D01*
X024151Y019867D01*
X024125Y019859D01*
X024098Y019854D01*
X024070Y019853D01*
X024043Y019856D01*
X024016Y019863D01*
X023991Y019873D01*
X023967Y019887D01*
X023945Y019904D01*
X023926Y019923D01*
X023910Y019946D01*
X023897Y019970D01*
X023888Y019996D01*
X023882Y020023D01*
X023880Y020050D01*
X023217Y018492D02*
X023219Y018509D01*
X023225Y018524D01*
X023234Y018538D01*
X023246Y018550D01*
X023260Y018558D01*
X023276Y018563D01*
X023293Y018564D01*
X023310Y018561D01*
X023325Y018554D01*
X023338Y018544D01*
X023349Y018532D01*
X023357Y018517D01*
X023361Y018500D01*
X023361Y018484D01*
X023357Y018467D01*
X023349Y018452D01*
X023338Y018440D01*
X023325Y018430D01*
X023310Y018423D01*
X023293Y018420D01*
X023276Y018421D01*
X023260Y018426D01*
X023246Y018434D01*
X023234Y018446D01*
X023225Y018460D01*
X023219Y018475D01*
X023217Y018492D01*
X021340Y021942D02*
X020848Y021942D01*
X020848Y022749D01*
X021340Y022749D01*
X021340Y021942D01*
X020941Y022100D02*
X020943Y022113D01*
X020949Y022125D01*
X020958Y022134D01*
X020969Y022141D01*
X020982Y022144D01*
X020995Y022143D01*
X021007Y022138D01*
X021017Y022130D01*
X021025Y022119D01*
X021029Y022107D01*
X021029Y022093D01*
X021025Y022081D01*
X021017Y022070D01*
X021007Y022062D01*
X020995Y022057D01*
X020982Y022056D01*
X020969Y022059D01*
X020958Y022066D01*
X020949Y022075D01*
X020943Y022087D01*
X020941Y022100D01*
X026279Y026128D02*
X026279Y027703D01*
X027854Y027703D01*
X027854Y026128D01*
X026279Y026128D01*
X026968Y026128D02*
X026970Y026147D01*
X026975Y026166D01*
X026985Y026182D01*
X026997Y026197D01*
X027012Y026209D01*
X027028Y026219D01*
X027047Y026224D01*
X027066Y026226D01*
X027085Y026224D01*
X027104Y026219D01*
X027120Y026209D01*
X027135Y026197D01*
X027147Y026182D01*
X027157Y026166D01*
X027162Y026147D01*
X027164Y026128D01*
X027162Y026109D01*
X027157Y026090D01*
X027147Y026074D01*
X027135Y026059D01*
X027120Y026047D01*
X027104Y026037D01*
X027085Y026032D01*
X027066Y026030D01*
X027047Y026032D01*
X027028Y026037D01*
X027012Y026047D01*
X026997Y026059D01*
X026985Y026074D01*
X026975Y026090D01*
X026970Y026109D01*
X026968Y026128D01*
X030657Y028272D02*
X031838Y028272D01*
X031838Y029354D01*
X031740Y029453D01*
X030657Y029453D01*
X030657Y028272D01*
X033968Y036099D02*
X034460Y036099D01*
X034460Y036906D01*
X033968Y036906D01*
X033968Y036099D01*
X034278Y036749D02*
X034280Y036762D01*
X034286Y036774D01*
X034295Y036783D01*
X034306Y036790D01*
X034319Y036793D01*
X034332Y036792D01*
X034344Y036787D01*
X034354Y036779D01*
X034362Y036768D01*
X034366Y036756D01*
X034366Y036742D01*
X034362Y036730D01*
X034354Y036719D01*
X034344Y036711D01*
X034332Y036706D01*
X034319Y036705D01*
X034306Y036708D01*
X034295Y036715D01*
X034286Y036724D01*
X034280Y036736D01*
X034278Y036749D01*
X036128Y019640D02*
X037310Y019640D01*
X037310Y018459D01*
X036128Y018459D01*
X036128Y019640D01*
X036522Y019640D02*
X036524Y019667D01*
X036530Y019694D01*
X036539Y019720D01*
X036552Y019744D01*
X036568Y019767D01*
X036587Y019786D01*
X036609Y019803D01*
X036633Y019817D01*
X036658Y019827D01*
X036685Y019834D01*
X036712Y019837D01*
X036740Y019836D01*
X036767Y019831D01*
X036793Y019823D01*
X036817Y019811D01*
X036840Y019795D01*
X036861Y019777D01*
X036878Y019756D01*
X036893Y019732D01*
X036904Y019707D01*
X036912Y019681D01*
X036916Y019654D01*
X036916Y019626D01*
X036912Y019599D01*
X036904Y019573D01*
X036893Y019548D01*
X036878Y019524D01*
X036861Y019503D01*
X036840Y019485D01*
X036818Y019469D01*
X036793Y019457D01*
X036767Y019449D01*
X036740Y019444D01*
X036712Y019443D01*
X036685Y019446D01*
X036658Y019453D01*
X036633Y019463D01*
X036609Y019477D01*
X036587Y019494D01*
X036568Y019513D01*
X036552Y019536D01*
X036539Y019560D01*
X036530Y019586D01*
X036524Y019613D01*
X036522Y019640D01*
X036026Y018287D02*
X034452Y018287D01*
X034452Y016712D01*
X036026Y016712D01*
X036026Y018287D01*
X035797Y018130D02*
X035799Y018147D01*
X035805Y018162D01*
X035814Y018176D01*
X035826Y018188D01*
X035840Y018196D01*
X035856Y018201D01*
X035873Y018202D01*
X035890Y018199D01*
X035905Y018192D01*
X035918Y018182D01*
X035929Y018170D01*
X035937Y018155D01*
X035941Y018138D01*
X035941Y018122D01*
X035937Y018105D01*
X035929Y018090D01*
X035918Y018078D01*
X035905Y018068D01*
X035890Y018061D01*
X035873Y018058D01*
X035856Y018059D01*
X035840Y018064D01*
X035826Y018072D01*
X035814Y018084D01*
X035805Y018098D01*
X035799Y018113D01*
X035797Y018130D01*
X036242Y016944D02*
X037030Y016944D01*
X037030Y016038D01*
X036242Y016038D01*
X036242Y016944D01*
X036781Y016235D02*
X036783Y016251D01*
X036789Y016267D01*
X036798Y016281D01*
X036810Y016292D01*
X036824Y016300D01*
X036840Y016305D01*
X036856Y016306D01*
X036872Y016303D01*
X036887Y016296D01*
X036901Y016287D01*
X036911Y016274D01*
X036919Y016259D01*
X036923Y016243D01*
X036923Y016227D01*
X036919Y016211D01*
X036911Y016196D01*
X036901Y016183D01*
X036888Y016174D01*
X036872Y016167D01*
X036856Y016164D01*
X036840Y016165D01*
X036824Y016170D01*
X036810Y016178D01*
X036798Y016189D01*
X036789Y016203D01*
X036783Y016219D01*
X036781Y016235D01*
X033359Y017427D02*
X032178Y017427D01*
X032178Y018609D01*
X033359Y018609D01*
X033359Y017427D01*
X032572Y017427D02*
X032574Y017454D01*
X032580Y017481D01*
X032589Y017507D01*
X032602Y017531D01*
X032618Y017554D01*
X032637Y017573D01*
X032659Y017590D01*
X032683Y017604D01*
X032708Y017614D01*
X032735Y017621D01*
X032762Y017624D01*
X032790Y017623D01*
X032817Y017618D01*
X032843Y017610D01*
X032867Y017598D01*
X032890Y017582D01*
X032911Y017564D01*
X032928Y017543D01*
X032943Y017519D01*
X032954Y017494D01*
X032962Y017468D01*
X032966Y017441D01*
X032966Y017413D01*
X032962Y017386D01*
X032954Y017360D01*
X032943Y017335D01*
X032928Y017311D01*
X032911Y017290D01*
X032890Y017272D01*
X032868Y017256D01*
X032843Y017244D01*
X032817Y017236D01*
X032790Y017231D01*
X032762Y017230D01*
X032735Y017233D01*
X032708Y017240D01*
X032683Y017250D01*
X032659Y017264D01*
X032637Y017281D01*
X032618Y017300D01*
X032602Y017323D01*
X032589Y017347D01*
X032580Y017373D01*
X032574Y017400D01*
X032572Y017427D01*
X029779Y017455D02*
X029779Y016550D01*
X028992Y016550D01*
X028992Y017455D01*
X029779Y017455D01*
X029531Y016746D02*
X029533Y016762D01*
X029539Y016778D01*
X029548Y016792D01*
X029560Y016803D01*
X029574Y016811D01*
X029590Y016816D01*
X029606Y016817D01*
X029622Y016814D01*
X029637Y016807D01*
X029651Y016798D01*
X029661Y016785D01*
X029669Y016770D01*
X029673Y016754D01*
X029673Y016738D01*
X029669Y016722D01*
X029661Y016707D01*
X029651Y016694D01*
X029638Y016685D01*
X029622Y016678D01*
X029606Y016675D01*
X029590Y016676D01*
X029574Y016681D01*
X029560Y016689D01*
X029548Y016700D01*
X029539Y016714D01*
X029533Y016730D01*
X029531Y016746D01*
X006041Y021300D02*
X006041Y022107D01*
X005549Y022107D01*
X005549Y021300D01*
X006041Y021300D01*
X005643Y021457D02*
X005645Y021470D01*
X005651Y021482D01*
X005660Y021491D01*
X005671Y021498D01*
X005684Y021501D01*
X005697Y021500D01*
X005709Y021495D01*
X005719Y021487D01*
X005727Y021476D01*
X005731Y021464D01*
X005731Y021450D01*
X005727Y021438D01*
X005719Y021427D01*
X005709Y021419D01*
X005697Y021414D01*
X005684Y021413D01*
X005671Y021416D01*
X005660Y021423D01*
X005651Y021432D01*
X005645Y021444D01*
X005643Y021457D01*
X056127Y021054D02*
X056619Y021054D01*
X056619Y021861D01*
X056127Y021861D01*
X056127Y021054D01*
X056437Y021704D02*
X056439Y021717D01*
X056445Y021729D01*
X056454Y021738D01*
X056465Y021745D01*
X056478Y021748D01*
X056491Y021747D01*
X056503Y021742D01*
X056513Y021734D01*
X056521Y021723D01*
X056525Y021711D01*
X056525Y021697D01*
X056521Y021685D01*
X056513Y021674D01*
X056503Y021666D01*
X056491Y021661D01*
X056478Y021660D01*
X056465Y021663D01*
X056454Y021670D01*
X056445Y021679D01*
X056439Y021691D01*
X056437Y021704D01*
D12*
X019741Y020707D02*
X019743Y020720D01*
X019748Y020733D01*
X019757Y020744D01*
X019768Y020751D01*
X019781Y020756D01*
X019794Y020757D01*
X019808Y020754D01*
X019820Y020748D01*
X019830Y020739D01*
X019837Y020727D01*
X019841Y020714D01*
X019841Y020700D01*
X019837Y020687D01*
X019830Y020675D01*
X019820Y020666D01*
X019808Y020660D01*
X019794Y020657D01*
X019781Y020658D01*
X019768Y020663D01*
X019757Y020670D01*
X019748Y020681D01*
X019743Y020694D01*
X019741Y020707D01*
M02*
