G75*
G70*
%OFA0B0*%
%FSLAX24Y24*%
%IPPOS*%
%LPD*%
%AMOC8*
5,1,8,0,0,1.08239X$1,22.5*
%
%ADD10C,0.0493*%
%ADD11C,0.0887*%
%ADD12C,0.0611*%
%ADD13R,0.0729X0.0158*%
%ADD14R,0.0158X0.0729*%
%ADD15R,0.0359X0.0867*%
%ADD16R,0.0847X0.0769*%
%ADD17R,0.0591X0.0310*%
%ADD18C,0.0375*%
%ADD19R,0.0690X0.0532*%
%ADD20R,0.0454X0.0572*%
%ADD21R,0.0808X0.0651*%
%ADD22C,0.2029*%
%ADD23C,0.0454*%
%ADD24R,0.0454X0.0690*%
%ADD25R,0.0257X0.0257*%
%ADD26R,0.0257X0.0257*%
%ADD27R,0.0375X0.0414*%
%ADD28R,0.0493X0.0414*%
%ADD29R,0.0493X0.0296*%
%ADD30R,0.0670X0.0296*%
%ADD31R,0.0769X0.0532*%
%ADD32R,0.0296X0.0292*%
%ADD33R,0.0296X0.0371*%
%ADD34C,0.0414*%
%ADD35R,0.0532X0.0454*%
%ADD36R,0.1005X0.0375*%
%ADD37R,0.1359X0.0769*%
%ADD38R,0.1084X0.0690*%
%ADD39R,0.0690X0.1084*%
%ADD40R,0.0296X0.0493*%
%ADD41R,0.0375X0.0375*%
%ADD42C,0.0106*%
%ADD43R,0.0454X0.0257*%
%ADD44R,0.0532X0.0473*%
%ADD45OC8,0.0257*%
D10*
X018559Y022252D03*
X029589Y015172D03*
X032739Y015172D03*
X041583Y016476D03*
X043759Y022252D03*
X031159Y039572D03*
D11*
X043759Y015562D03*
X018559Y015562D03*
D12*
X028799Y024222D03*
X033519Y024222D03*
X033519Y030912D03*
X028799Y030912D03*
D13*
X035301Y025149D03*
X035301Y024952D03*
X035301Y024755D03*
X035301Y024558D03*
X035301Y024361D03*
X035301Y024164D03*
X035301Y023967D03*
X035301Y023771D03*
X035301Y023574D03*
X035301Y023377D03*
X035301Y023180D03*
X035301Y022983D03*
X035301Y022786D03*
X035301Y022589D03*
X035301Y022393D03*
X035301Y022196D03*
X035301Y021999D03*
X035301Y021802D03*
X035301Y021605D03*
X035301Y021408D03*
X035301Y021212D03*
X035301Y021015D03*
X035301Y020818D03*
X035301Y020621D03*
X035301Y020424D03*
X041640Y020424D03*
X041640Y020621D03*
X041640Y020818D03*
X041640Y021015D03*
X041640Y021212D03*
X041640Y021408D03*
X041640Y021605D03*
X041640Y021802D03*
X041640Y021999D03*
X041640Y022196D03*
X041640Y022393D03*
X041640Y022589D03*
X041640Y022786D03*
X041640Y022983D03*
X041640Y023180D03*
X041640Y023377D03*
X041640Y023574D03*
X041640Y023771D03*
X041640Y023967D03*
X041640Y024164D03*
X041640Y024361D03*
X041640Y024558D03*
X041640Y024755D03*
X041640Y024952D03*
X041640Y025149D03*
D14*
X040833Y025956D03*
X040636Y025956D03*
X040439Y025956D03*
X040242Y025956D03*
X040045Y025956D03*
X039848Y025956D03*
X039651Y025956D03*
X039455Y025956D03*
X039258Y025956D03*
X039061Y025956D03*
X038864Y025956D03*
X038667Y025956D03*
X038470Y025956D03*
X038274Y025956D03*
X038077Y025956D03*
X037880Y025956D03*
X037683Y025956D03*
X037486Y025956D03*
X037289Y025956D03*
X037092Y025956D03*
X036896Y025956D03*
X036699Y025956D03*
X036502Y025956D03*
X036305Y025956D03*
X036108Y025956D03*
X036108Y019617D03*
X036305Y019617D03*
X036502Y019617D03*
X036699Y019617D03*
X036896Y019617D03*
X037092Y019617D03*
X037289Y019617D03*
X037486Y019617D03*
X037683Y019617D03*
X037880Y019617D03*
X038077Y019617D03*
X038274Y019617D03*
X038470Y019617D03*
X038667Y019617D03*
X038864Y019617D03*
X039061Y019617D03*
X039258Y019617D03*
X039455Y019617D03*
X039651Y019617D03*
X039848Y019617D03*
X040045Y019617D03*
X040242Y019617D03*
X040439Y019617D03*
X040636Y019617D03*
X040833Y019617D03*
D15*
X037284Y016702D03*
X036782Y016702D03*
X036280Y016702D03*
X035788Y016702D03*
X035276Y016702D03*
X035276Y015245D03*
X035788Y015245D03*
X036280Y015245D03*
X036782Y015245D03*
X037284Y015245D03*
X028665Y015224D03*
X028163Y015224D03*
X027661Y015224D03*
X027169Y015224D03*
X026657Y015224D03*
X026657Y016680D03*
X027169Y016680D03*
X027661Y016680D03*
X028163Y016680D03*
X028665Y016680D03*
D16*
G36*
X039942Y018660D02*
X040539Y018063D01*
X039996Y017520D01*
X039399Y018117D01*
X039942Y018660D01*
G37*
G36*
X042113Y016489D02*
X042710Y015892D01*
X042167Y015349D01*
X041570Y015946D01*
X042113Y016489D01*
G37*
D17*
G36*
X042184Y017519D02*
X042600Y017935D01*
X042820Y017715D01*
X042404Y017299D01*
X042184Y017519D01*
G37*
G36*
X041766Y017937D02*
X042182Y018353D01*
X042402Y018133D01*
X041986Y017717D01*
X041766Y017937D01*
G37*
G36*
X041377Y018326D02*
X041793Y018742D01*
X042013Y018522D01*
X041597Y018106D01*
X041377Y018326D01*
G37*
G36*
X039317Y016266D02*
X039733Y016682D01*
X039953Y016462D01*
X039537Y016046D01*
X039317Y016266D01*
G37*
G36*
X039706Y015877D02*
X040122Y016293D01*
X040342Y016073D01*
X039926Y015657D01*
X039706Y015877D01*
G37*
G36*
X040068Y015515D02*
X040484Y015931D01*
X040704Y015711D01*
X040288Y015295D01*
X040068Y015515D01*
G37*
D18*
X040525Y017534D03*
D19*
G36*
X042862Y022694D02*
X043349Y023181D01*
X043726Y022804D01*
X043239Y022317D01*
X042862Y022694D01*
G37*
G36*
X042361Y023196D02*
X042848Y023683D01*
X043225Y023306D01*
X042738Y022819D01*
X042361Y023196D01*
G37*
G36*
X043085Y023919D02*
X043572Y024406D01*
X043949Y024029D01*
X043462Y023542D01*
X043085Y023919D01*
G37*
G36*
X043586Y023418D02*
X044073Y023905D01*
X044450Y023528D01*
X043963Y023041D01*
X043586Y023418D01*
G37*
D20*
X028889Y034428D03*
X028023Y034428D03*
D21*
X028698Y036433D03*
X034131Y036433D03*
X034131Y037417D03*
X034131Y035448D03*
D22*
X031159Y036433D03*
D23*
X033324Y038106D03*
X033324Y034759D03*
D24*
X043753Y020583D03*
X043753Y017828D03*
D25*
G36*
X043226Y021851D02*
X043045Y022032D01*
X043226Y022213D01*
X043407Y022032D01*
X043226Y021851D01*
G37*
G36*
X042920Y022520D02*
X043101Y022339D01*
X042920Y022158D01*
X042739Y022339D01*
X042920Y022520D01*
G37*
G36*
X042595Y023913D02*
X042776Y024094D01*
X042957Y023913D01*
X042776Y023732D01*
X042595Y023913D01*
G37*
G36*
X043263Y024219D02*
X043082Y024038D01*
X042901Y024219D01*
X043082Y024400D01*
X043263Y024219D01*
G37*
G36*
X024223Y028346D02*
X024058Y028541D01*
X024253Y028706D01*
X024418Y028511D01*
X024223Y028346D01*
G37*
G36*
X023975Y029038D02*
X024140Y028843D01*
X023945Y028678D01*
X023780Y028873D01*
X023975Y029038D01*
G37*
D26*
X025299Y028479D03*
X025299Y028046D03*
X025899Y028046D03*
X025899Y028479D03*
X028359Y026752D03*
X028365Y026331D03*
X028798Y026331D03*
X028792Y026752D03*
X033206Y025635D03*
X033585Y025636D03*
X033585Y025203D03*
X033206Y025202D03*
X034952Y025832D03*
X035385Y025832D03*
X036384Y027916D03*
X036384Y028349D03*
X038514Y026536D03*
X038947Y026536D03*
X042235Y021712D03*
X042235Y021279D03*
X041987Y020120D03*
X041554Y020120D03*
X040117Y019005D03*
X039684Y019005D03*
X037120Y017760D03*
X036759Y017763D03*
X036380Y017767D03*
X036040Y017763D03*
X036040Y017330D03*
X036380Y017334D03*
X036759Y017330D03*
X037120Y017327D03*
X036720Y019075D03*
X036287Y019075D03*
X034089Y019176D03*
X034089Y019609D03*
X033464Y019354D03*
X033030Y019354D03*
X034626Y016180D03*
X034626Y015747D03*
X034744Y015047D03*
X034311Y015047D03*
X029823Y015829D03*
X029828Y016192D03*
X029832Y016552D03*
X029827Y016899D03*
X029394Y016899D03*
X029399Y016552D03*
X029395Y016192D03*
X029390Y015829D03*
X027754Y018253D03*
X027754Y018686D03*
X025969Y016200D03*
X025969Y015767D03*
X026113Y014957D03*
X025679Y014957D03*
X020925Y015022D03*
X020492Y015022D03*
X015590Y021837D03*
X015157Y021837D03*
X016542Y022202D03*
X016975Y022202D03*
X027892Y031998D03*
X028325Y031998D03*
X028231Y033844D03*
X028664Y033844D03*
X045332Y020912D03*
X045765Y020912D03*
X046689Y021278D03*
X047122Y021278D03*
D27*
X032707Y028392D03*
X032704Y028804D03*
X032702Y029224D03*
X032701Y029634D03*
X032169Y029634D03*
X032171Y029224D03*
X032172Y028804D03*
X032176Y028392D03*
X030071Y026754D03*
X030074Y026316D03*
X029542Y026316D03*
X029539Y026754D03*
X021829Y015024D03*
X021298Y015024D03*
D28*
G36*
X034130Y031722D02*
X033855Y032129D01*
X034198Y032360D01*
X034473Y031953D01*
X034130Y031722D01*
G37*
G36*
X033051Y033321D02*
X032776Y033728D01*
X033119Y033959D01*
X033394Y033552D01*
X033051Y033321D01*
G37*
G36*
X034193Y034092D02*
X033918Y034499D01*
X034261Y034730D01*
X034536Y034323D01*
X034193Y034092D01*
G37*
D29*
X029006Y033285D03*
X029006Y032537D03*
X027982Y032537D03*
X027982Y032911D03*
X027982Y033285D03*
X017267Y021721D03*
X017267Y021347D03*
X017267Y020973D03*
X016243Y020973D03*
X016243Y021721D03*
X045031Y021755D03*
X045031Y022129D03*
X045031Y021381D03*
X046055Y021381D03*
X046055Y022129D03*
D30*
G36*
X039147Y027227D02*
X038718Y026715D01*
X038491Y026905D01*
X038920Y027417D01*
X039147Y027227D01*
G37*
G36*
X038845Y027480D02*
X038416Y026968D01*
X038189Y027158D01*
X038618Y027670D01*
X038845Y027480D01*
G37*
G36*
X038543Y027733D02*
X038114Y027221D01*
X037887Y027411D01*
X038316Y027923D01*
X038543Y027733D01*
G37*
G36*
X038242Y027987D02*
X037813Y027475D01*
X037586Y027665D01*
X038015Y028177D01*
X038242Y027987D01*
G37*
G36*
X037940Y028240D02*
X037511Y027728D01*
X037284Y027918D01*
X037713Y028430D01*
X037940Y028240D01*
G37*
G36*
X037639Y028493D02*
X037210Y027981D01*
X036983Y028171D01*
X037412Y028683D01*
X037639Y028493D01*
G37*
G36*
X037337Y028746D02*
X036908Y028234D01*
X036681Y028424D01*
X037110Y028936D01*
X037337Y028746D01*
G37*
G36*
X037035Y028999D02*
X036606Y028487D01*
X036379Y028677D01*
X036808Y029189D01*
X037035Y028999D01*
G37*
G36*
X036734Y029252D02*
X036305Y028740D01*
X036078Y028930D01*
X036507Y029442D01*
X036734Y029252D01*
G37*
G36*
X036432Y029505D02*
X036003Y028993D01*
X035776Y029183D01*
X036205Y029695D01*
X036432Y029505D01*
G37*
G36*
X036131Y029758D02*
X035702Y029246D01*
X035475Y029436D01*
X035904Y029948D01*
X036131Y029758D01*
G37*
G36*
X035829Y030011D02*
X035400Y029499D01*
X035173Y029689D01*
X035602Y030201D01*
X035829Y030011D01*
G37*
G36*
X035527Y030264D02*
X035098Y029752D01*
X034871Y029942D01*
X035300Y030454D01*
X035527Y030264D01*
G37*
G36*
X035226Y030517D02*
X034797Y030005D01*
X034570Y030195D01*
X034999Y030707D01*
X035226Y030517D01*
G37*
X035718Y028095D03*
X035718Y027701D03*
X035718Y027308D03*
X035718Y026914D03*
X033884Y022465D03*
X033884Y022071D03*
X033884Y021678D03*
X033884Y021284D03*
X033884Y020890D03*
X033884Y020497D03*
X028293Y018672D03*
X028293Y018279D03*
D31*
X029297Y017649D03*
X029297Y019302D03*
X032880Y019867D03*
X032880Y023095D03*
X034714Y026284D03*
X034714Y028725D03*
G36*
X035511Y031653D02*
X035018Y031065D01*
X034611Y031407D01*
X035104Y031995D01*
X035511Y031653D01*
G37*
G36*
X040396Y027553D02*
X039903Y026965D01*
X039496Y027307D01*
X039989Y027895D01*
X040396Y027553D01*
G37*
D32*
X031714Y028848D03*
X031714Y029163D03*
X031084Y029163D03*
X031084Y028848D03*
D33*
X031084Y028493D03*
X031714Y028493D03*
X031714Y029517D03*
X031084Y029517D03*
D34*
X018479Y024016D03*
X017575Y023257D03*
D35*
G36*
X017929Y021871D02*
X017587Y022277D01*
X017933Y022569D01*
X018275Y022163D01*
X017929Y021871D01*
G37*
G36*
X018683Y022503D02*
X018341Y022909D01*
X018687Y023201D01*
X019029Y022795D01*
X018683Y022503D01*
G37*
G36*
X019437Y023136D02*
X019095Y023542D01*
X019441Y023834D01*
X019783Y023428D01*
X019437Y023136D01*
G37*
D36*
X020869Y019108D03*
X020869Y018518D03*
D37*
X018881Y017474D03*
X018881Y020151D03*
D38*
X024356Y017913D03*
X024356Y015472D03*
X033346Y016094D03*
X033346Y018535D03*
X027125Y026732D03*
X027125Y029173D03*
D39*
X026190Y022386D03*
X028631Y022386D03*
D40*
X034623Y019906D03*
X035371Y019906D03*
X035371Y018883D03*
X034997Y018883D03*
X034623Y018883D03*
D41*
X046593Y021775D03*
X047223Y021775D03*
X015688Y021330D03*
X015058Y021330D03*
D42*
X024688Y029399D02*
X024635Y029452D01*
X024810Y029437D01*
X024923Y029302D01*
X024908Y029127D01*
X024773Y029014D01*
X024598Y029029D01*
X024485Y029164D01*
X024500Y029339D01*
X024635Y029452D01*
X024661Y029370D01*
X024770Y029360D01*
X024841Y029276D01*
X024831Y029167D01*
X024747Y029096D01*
X024638Y029106D01*
X024567Y029190D01*
X024577Y029299D01*
X024661Y029370D01*
X024687Y029287D01*
X024731Y029283D01*
X024758Y029250D01*
X024754Y029206D01*
X024721Y029179D01*
X024677Y029183D01*
X024650Y029216D01*
X024654Y029260D01*
X024687Y029287D01*
X025291Y029905D02*
X025238Y029958D01*
X025413Y029943D01*
X025526Y029808D01*
X025511Y029633D01*
X025376Y029520D01*
X025201Y029535D01*
X025088Y029670D01*
X025103Y029845D01*
X025238Y029958D01*
X025264Y029876D01*
X025373Y029866D01*
X025444Y029782D01*
X025434Y029673D01*
X025350Y029602D01*
X025241Y029612D01*
X025170Y029696D01*
X025180Y029805D01*
X025264Y029876D01*
X025290Y029793D01*
X025334Y029789D01*
X025361Y029756D01*
X025357Y029712D01*
X025324Y029685D01*
X025280Y029689D01*
X025253Y029722D01*
X025257Y029766D01*
X025290Y029793D01*
X025894Y030411D02*
X025841Y030464D01*
X026016Y030449D01*
X026129Y030314D01*
X026114Y030139D01*
X025979Y030026D01*
X025804Y030041D01*
X025691Y030176D01*
X025706Y030351D01*
X025841Y030464D01*
X025867Y030382D01*
X025976Y030372D01*
X026047Y030288D01*
X026037Y030179D01*
X025953Y030108D01*
X025844Y030118D01*
X025773Y030202D01*
X025783Y030311D01*
X025867Y030382D01*
X025893Y030299D01*
X025937Y030295D01*
X025964Y030262D01*
X025960Y030218D01*
X025927Y030191D01*
X025883Y030195D01*
X025856Y030228D01*
X025860Y030272D01*
X025893Y030299D01*
X026498Y030918D02*
X026445Y030971D01*
X026620Y030956D01*
X026733Y030821D01*
X026718Y030646D01*
X026583Y030533D01*
X026408Y030548D01*
X026295Y030683D01*
X026310Y030858D01*
X026445Y030971D01*
X026471Y030889D01*
X026580Y030879D01*
X026651Y030795D01*
X026641Y030686D01*
X026557Y030615D01*
X026448Y030625D01*
X026377Y030709D01*
X026387Y030818D01*
X026471Y030889D01*
X026497Y030806D01*
X026541Y030802D01*
X026568Y030769D01*
X026564Y030725D01*
X026531Y030698D01*
X026487Y030702D01*
X026460Y030735D01*
X026464Y030779D01*
X026497Y030806D01*
D43*
G36*
X024194Y026086D02*
X023904Y026433D01*
X024100Y026598D01*
X024390Y026251D01*
X024194Y026086D01*
G37*
G36*
X023862Y025808D02*
X023572Y026155D01*
X023768Y026320D01*
X024058Y025973D01*
X023862Y025808D01*
G37*
G36*
X023531Y025529D02*
X023241Y025876D01*
X023437Y026041D01*
X023727Y025694D01*
X023531Y025529D01*
G37*
G36*
X023199Y025251D02*
X022909Y025598D01*
X023105Y025763D01*
X023395Y025416D01*
X023199Y025251D01*
G37*
G36*
X022973Y025061D02*
X022683Y025408D01*
X022879Y025573D01*
X023169Y025226D01*
X022973Y025061D01*
G37*
G36*
X022762Y024884D02*
X022472Y025231D01*
X022668Y025396D01*
X022958Y025049D01*
X022762Y024884D01*
G37*
G36*
X022535Y024694D02*
X022245Y025041D01*
X022441Y025206D01*
X022731Y024859D01*
X022535Y024694D01*
G37*
G36*
X022204Y024416D02*
X021914Y024763D01*
X022110Y024928D01*
X022400Y024581D01*
X022204Y024416D01*
G37*
G36*
X021872Y024138D02*
X021582Y024485D01*
X021778Y024650D01*
X022068Y024303D01*
X021872Y024138D01*
G37*
D44*
G36*
X021814Y023214D02*
X021472Y023621D01*
X021832Y023924D01*
X022174Y023517D01*
X021814Y023214D01*
G37*
G36*
X022940Y021872D02*
X022598Y022279D01*
X022958Y022582D01*
X023300Y022175D01*
X022940Y021872D01*
G37*
G36*
X026076Y024504D02*
X025734Y024911D01*
X026094Y025214D01*
X026436Y024807D01*
X026076Y024504D01*
G37*
G36*
X024950Y025846D02*
X024608Y026253D01*
X024968Y026556D01*
X025310Y026149D01*
X024950Y025846D01*
G37*
D45*
X018049Y016642D03*
X020039Y017252D03*
X020269Y017252D03*
X020499Y017252D03*
X020729Y017252D03*
X020959Y017252D03*
X021189Y017222D03*
X021419Y017222D03*
X021649Y017222D03*
X021919Y016982D03*
X022339Y017542D03*
X022659Y017862D03*
X022349Y018182D03*
X022039Y018642D03*
X021859Y018762D03*
X021849Y018982D03*
X021739Y019172D03*
X021619Y018982D03*
X021969Y019172D03*
X022079Y018982D03*
X022199Y019172D03*
X021849Y018522D03*
X022789Y018582D03*
X022979Y018182D03*
X022979Y017542D03*
X023299Y017182D03*
X024019Y017182D03*
X024219Y016982D03*
X024419Y016782D03*
X024669Y017182D03*
X025269Y018412D03*
X025499Y018412D03*
X025729Y018412D03*
X025729Y018642D03*
X025499Y018642D03*
X025269Y018642D03*
X024909Y019172D03*
X024919Y019722D03*
X025559Y020362D03*
X026049Y020312D03*
X026069Y019832D03*
X026269Y019682D03*
X026519Y019682D03*
X026739Y019512D03*
X025879Y019292D03*
X025819Y019832D03*
X025749Y021412D03*
X026219Y021682D03*
X026519Y021682D03*
X026819Y021682D03*
X026819Y021982D03*
X026519Y021982D03*
X026219Y021982D03*
X026219Y022282D03*
X026519Y022282D03*
X026819Y022282D03*
X026819Y022582D03*
X026519Y022582D03*
X026219Y022582D03*
X025759Y023272D03*
X025269Y023672D03*
X025509Y023882D03*
X024999Y023442D03*
X024529Y023532D03*
X024129Y022922D03*
X023459Y023532D03*
X023229Y023332D03*
X022959Y023112D03*
X022579Y022492D03*
X022659Y021972D03*
X023229Y020972D03*
X024219Y021982D03*
X024879Y022002D03*
X024809Y021112D03*
X025009Y022922D03*
X023749Y023762D03*
X023929Y024052D03*
X023589Y024472D03*
X023729Y025482D03*
X022569Y025332D03*
X022329Y026532D03*
X022359Y027772D03*
X023759Y027692D03*
X024489Y027992D03*
X024969Y028262D03*
X026139Y028712D03*
X026669Y027732D03*
X026769Y027332D03*
X026769Y027082D03*
X026769Y026832D03*
X026769Y026582D03*
X027019Y026582D03*
X027269Y026582D03*
X027269Y026832D03*
X027519Y026832D03*
X027519Y027082D03*
X027269Y027082D03*
X027019Y027082D03*
X027019Y026832D03*
X027019Y027332D03*
X027269Y027332D03*
X027519Y027332D03*
X028169Y027002D03*
X028179Y028102D03*
X027919Y028082D03*
X027919Y028682D03*
X027649Y028672D03*
X028209Y028662D03*
X029399Y028092D03*
X029209Y027502D03*
X030069Y027082D03*
X030419Y027332D03*
X030569Y026982D03*
X030789Y026772D03*
X030799Y025822D03*
X032029Y026102D03*
X032319Y025532D03*
X032069Y025232D03*
X032209Y025002D03*
X032719Y026032D03*
X032719Y026282D03*
X033819Y026782D03*
X033819Y027032D03*
X034459Y026972D03*
X035119Y027232D03*
X035469Y027332D03*
X035469Y027732D03*
X035909Y028092D03*
X036259Y028612D03*
X035969Y029182D03*
X035669Y029432D03*
X035369Y029682D03*
X034889Y029752D03*
X034769Y030182D03*
X034459Y030622D03*
X034459Y031042D03*
X034979Y030832D03*
X035499Y030452D03*
X036079Y031022D03*
X035539Y031472D03*
X034709Y031902D03*
X033979Y032422D03*
X033829Y031312D03*
X032659Y031972D03*
X033349Y033352D03*
X033349Y033852D03*
X033459Y034372D03*
X033969Y034172D03*
X034019Y034932D03*
X033609Y035462D03*
X032799Y035032D03*
X032379Y036432D03*
X033869Y037232D03*
X034679Y037022D03*
X034659Y036512D03*
X034469Y036232D03*
X034659Y035452D03*
X034689Y034512D03*
X031939Y033662D03*
X030419Y033682D03*
X029519Y034112D03*
X029009Y032852D03*
X028999Y032252D03*
X028319Y031732D03*
X027459Y032032D03*
X027649Y033552D03*
X027649Y035552D03*
X029939Y036432D03*
X031159Y035232D03*
X031149Y037662D03*
X029879Y038062D03*
X029259Y038772D03*
X027729Y037482D03*
X031159Y040132D03*
X032979Y038912D03*
X032379Y038222D03*
X029949Y031152D03*
X029829Y030522D03*
X030529Y029612D03*
X030299Y029322D03*
X031319Y029802D03*
X032709Y029972D03*
X033829Y029032D03*
X034709Y029132D03*
X034709Y028322D03*
X034909Y027972D03*
X035179Y026712D03*
X035869Y026182D03*
X035869Y025882D03*
X036169Y025432D03*
X036369Y025232D03*
X036669Y024932D03*
X037009Y024542D03*
X036269Y024532D03*
X036079Y024332D03*
X035919Y024532D03*
X036079Y023642D03*
X035819Y023182D03*
X034819Y023582D03*
X034819Y023982D03*
X034819Y024232D03*
X034569Y024232D03*
X034719Y025482D03*
X033969Y026182D03*
X031869Y027582D03*
X031819Y028032D03*
X030769Y027732D03*
X030519Y027832D03*
X030069Y025972D03*
X028409Y025032D03*
X027329Y025142D03*
X026309Y024122D03*
X026519Y023432D03*
X027259Y023162D03*
X027669Y022462D03*
X028079Y021492D03*
X026999Y021112D03*
X027909Y020772D03*
X027639Y020282D03*
X028019Y019982D03*
X028019Y019732D03*
X027639Y019512D03*
X028219Y020182D03*
X028369Y020382D03*
X028639Y020402D03*
X029139Y021112D03*
X030099Y021382D03*
X030589Y020772D03*
X030709Y020282D03*
X030189Y020272D03*
X031319Y020282D03*
X031309Y020852D03*
X031569Y021282D03*
X031669Y021532D03*
X031919Y021532D03*
X032869Y020782D03*
X032669Y020482D03*
X033069Y020282D03*
X033629Y019902D03*
X033719Y019402D03*
X034299Y018972D03*
X034289Y018512D03*
X034619Y018202D03*
X034859Y018512D03*
X035369Y018142D03*
X034909Y017832D03*
X035049Y017512D03*
X034909Y017172D03*
X034519Y017382D03*
X034519Y016682D03*
X033809Y016562D03*
X033269Y016082D03*
X033419Y015882D03*
X033119Y015882D03*
X032969Y016082D03*
X032819Y015882D03*
X032339Y015392D03*
X032399Y014872D03*
X033099Y014872D03*
X033489Y014872D03*
X035169Y015932D03*
X035569Y015932D03*
X036019Y016032D03*
X035819Y016432D03*
X035719Y017632D03*
X035779Y018522D03*
X035769Y018742D03*
X035969Y018732D03*
X036169Y018702D03*
X036049Y018522D03*
X035879Y018922D03*
X035369Y019532D03*
X035079Y019832D03*
X034969Y020082D03*
X034629Y019512D03*
X034329Y019902D03*
X034419Y020632D03*
X034719Y020882D03*
X034369Y021582D03*
X033419Y021532D03*
X033419Y022982D03*
X034069Y022932D03*
X032669Y023732D03*
X032369Y023232D03*
X032169Y022982D03*
X031969Y023132D03*
X031769Y022982D03*
X031349Y022922D03*
X029959Y023812D03*
X029219Y022242D03*
X028769Y019312D03*
X029319Y018882D03*
X029819Y018832D03*
X030469Y018882D03*
X031379Y018292D03*
X031579Y018732D03*
X031929Y018442D03*
X032269Y018672D03*
X032619Y018972D03*
X033069Y018972D03*
X033339Y018382D03*
X033339Y018152D03*
X033339Y017922D03*
X033569Y017922D03*
X033569Y018152D03*
X033569Y018382D03*
X032379Y019532D03*
X031989Y019142D03*
X031939Y017622D03*
X031629Y017432D03*
X031629Y016642D03*
X031619Y016382D03*
X032269Y016562D03*
X032329Y016962D03*
X033019Y016562D03*
X030569Y016382D03*
X030419Y016582D03*
X030419Y016832D03*
X030369Y017082D03*
X029269Y017182D03*
X028719Y017282D03*
X028179Y017672D03*
X028179Y017992D03*
X027719Y018002D03*
X027709Y017672D03*
X027319Y017282D03*
X027019Y017282D03*
X027119Y017852D03*
X026729Y018422D03*
X027419Y018632D03*
X028169Y018682D03*
X029049Y018052D03*
X027089Y016682D03*
X025979Y016622D03*
X024569Y015682D03*
X024719Y015482D03*
X024569Y015282D03*
X024419Y015482D03*
X024269Y015282D03*
X024119Y015482D03*
X023969Y015282D03*
X023969Y015682D03*
X024269Y015682D03*
X023399Y016212D03*
X022619Y016232D03*
X021119Y016202D03*
X020319Y015032D03*
X019819Y014872D03*
X021919Y017732D03*
X020919Y018272D03*
X020709Y018272D03*
X020709Y018502D03*
X020919Y018502D03*
X020919Y018732D03*
X020709Y018732D03*
X020319Y019432D03*
X020419Y020082D03*
X020669Y020082D03*
X020919Y020082D03*
X021169Y020082D03*
X021169Y020332D03*
X020919Y020332D03*
X020669Y020332D03*
X020419Y020332D03*
X020419Y020582D03*
X020669Y020582D03*
X020919Y020582D03*
X021169Y020582D03*
X021169Y020832D03*
X020919Y020832D03*
X020669Y020832D03*
X020419Y020832D03*
X021419Y020682D03*
X021419Y020432D03*
X021419Y020182D03*
X021739Y019982D03*
X021609Y020962D03*
X020419Y021882D03*
X020219Y021682D03*
X020399Y022332D03*
X020049Y022812D03*
X020119Y023232D03*
X019469Y023332D03*
X019219Y023182D03*
X018689Y022722D03*
X018419Y023162D03*
X017469Y022402D03*
X017369Y022132D03*
X017669Y021582D03*
X017919Y021482D03*
X018789Y021502D03*
X019249Y021502D03*
X019259Y021962D03*
X018969Y021982D03*
X019469Y021082D03*
X018059Y020412D03*
X015709Y022242D03*
X014499Y021572D03*
X014739Y021182D03*
X016959Y023282D03*
X019129Y025062D03*
X020539Y025032D03*
X021449Y024422D03*
X021569Y023282D03*
X021729Y022812D03*
X021029Y022402D03*
X023519Y019562D03*
X023519Y019332D03*
X023329Y019212D03*
X023519Y019102D03*
X023329Y018982D03*
X023519Y018872D03*
X023919Y018782D03*
X029239Y014872D03*
X029929Y014872D03*
X029999Y015392D03*
X035649Y019912D03*
X036119Y020382D03*
X036319Y020632D03*
X036619Y020532D03*
X036969Y020532D03*
X037319Y020532D03*
X037719Y020532D03*
X038019Y020532D03*
X038319Y020532D03*
X038869Y020332D03*
X039069Y020132D03*
X039489Y020372D03*
X039249Y020852D03*
X038869Y021332D03*
X038519Y021532D03*
X038069Y021982D03*
X037819Y021582D03*
X036969Y021682D03*
X036019Y021432D03*
X035819Y021232D03*
X036019Y021032D03*
X035869Y020832D03*
X036519Y018422D03*
X036919Y018382D03*
X037169Y018382D03*
X037429Y018412D03*
X038219Y019122D03*
X039419Y019012D03*
X040169Y018732D03*
X040759Y018542D03*
X040769Y019132D03*
X041859Y019442D03*
X042069Y019832D03*
X042249Y020122D03*
X042139Y020822D03*
X042899Y020792D03*
X043399Y020292D03*
X043419Y020032D03*
X043329Y019442D03*
X044179Y019602D03*
X043749Y018302D03*
X043749Y017352D03*
X042939Y017092D03*
X041769Y017732D03*
X042389Y018342D03*
X040799Y017792D03*
X040069Y017082D03*
X040219Y016732D03*
X040479Y016632D03*
X040219Y016432D03*
X040409Y016232D03*
X039669Y015732D03*
X039339Y015392D03*
X038949Y015972D03*
X038439Y015412D03*
X037939Y014912D03*
X037589Y016282D03*
X037619Y017532D03*
X038969Y017732D03*
X039069Y017982D03*
X039059Y018252D03*
X039769Y017382D03*
X039119Y016732D03*
X039999Y014912D03*
X041129Y015662D03*
X041959Y014912D03*
X042889Y015732D03*
X043839Y014922D03*
X044179Y016032D03*
X040169Y020132D03*
X039789Y021602D03*
X039779Y022772D03*
X039769Y023782D03*
X039969Y024582D03*
X039919Y024832D03*
X040019Y025332D03*
X040219Y025482D03*
X040419Y025332D03*
X040619Y025482D03*
X041019Y025382D03*
X041119Y025632D03*
X041419Y025382D03*
X041919Y025482D03*
X042619Y025332D03*
X042849Y025182D03*
X043269Y024412D03*
X044519Y023392D03*
X043809Y022702D03*
X044519Y022232D03*
X043409Y021842D03*
X042879Y021752D03*
X042239Y021972D03*
X042149Y022592D03*
X041169Y022932D03*
X041169Y023182D03*
X040769Y022382D03*
X042309Y023732D03*
X041119Y024132D03*
X041119Y024532D03*
X040869Y024532D03*
X039819Y025482D03*
X039499Y025352D03*
X038819Y025482D03*
X038569Y025432D03*
X038079Y024662D03*
X039199Y024692D03*
X038429Y023672D03*
X038309Y022632D03*
X037089Y023132D03*
X036819Y023132D03*
X036769Y023382D03*
X037009Y023862D03*
X036909Y026452D03*
X037279Y026462D03*
X036359Y026562D03*
X036389Y027652D03*
X037129Y027862D03*
X037419Y027612D03*
X038069Y027982D03*
X038219Y028222D03*
X038469Y028182D03*
X038719Y028132D03*
X038969Y028082D03*
X039219Y028032D03*
X039599Y028092D03*
X039029Y026872D03*
X038469Y027282D03*
X038249Y026532D03*
X036969Y028532D03*
X036989Y029442D03*
X040939Y026972D03*
X045579Y021542D03*
X046049Y021092D03*
X046909Y021522D03*
X047119Y021022D03*
X047669Y021022D03*
X047909Y021402D03*
X047539Y021922D03*
X044619Y021182D03*
X043899Y021282D03*
X043569Y021062D03*
X054789Y021922D03*
X055279Y021392D03*
X055789Y021472D03*
X055939Y020892D03*
X057059Y021472D03*
X057589Y021622D03*
X057549Y020892D03*
X059569Y021182D03*
X059569Y021982D03*
X028109Y026252D03*
X025229Y025292D03*
X024299Y029362D03*
X028139Y030202D03*
X028139Y030652D03*
X020809Y026472D03*
X007569Y021562D03*
X006919Y021232D03*
X006439Y022222D03*
X005719Y021682D03*
X004649Y021562D03*
X004769Y022202D03*
X002769Y021982D03*
X002769Y021182D03*
M02*
