%
M48
M72
T01C0.0118
T02C0.0315
T03C0.0354
T04C0.0394
T05C0.0433
T06C0.0551
T07C0.0827
T08C0.1969
%
T01
X18049Y16642
X20039Y17252
X20269Y17252
X20499Y17252
X20729Y17252
X20959Y17252
X21189Y17222
X21419Y17222
X21649Y17222
X21919Y16982
X22339Y17542
X22659Y17862
X22349Y18182
X22039Y18642
X21859Y18762
X21849Y18982
X21739Y19172
X21619Y18982
X21969Y19172
X22079Y18982
X22199Y19172
X21849Y18522
X22789Y18582
X22979Y18182
X22979Y17542
X23299Y17182
X24019Y17182
X24219Y16982
X24419Y16782
X24669Y17182
X25269Y18412
X25499Y18412
X25729Y18412
X25729Y18642
X25499Y18642
X25269Y18642
X24909Y19172
X24919Y19722
X25559Y20362
X26049Y20312
X26069Y19832
X26269Y19682
X26519Y19682
X26739Y19512
X25879Y19292
X25819Y19832
X25749Y21412
X26219Y21682
X26519Y21682
X26819Y21682
X26819Y21982
X26519Y21982
X26219Y21982
X26219Y22282
X26519Y22282
X26819Y22282
X26819Y22582
X26519Y22582
X26219Y22582
X25759Y23272
X25269Y23672
X25509Y23882
X24999Y23442
X24529Y23532
X24129Y22922
X23459Y23532
X23229Y23332
X22959Y23112
X22579Y22492
X22659Y21972
X23229Y20972
X24219Y21982
X24879Y22002
X24809Y21112
X25009Y22922
X23749Y23762
X23929Y24052
X23589Y24472
X23729Y25482
X22569Y25332
X22329Y26532
X22359Y27772
X23759Y27692
X24489Y27992
X24969Y28262
X26139Y28712
X26669Y27732
X26769Y27332
X26769Y27082
X26769Y26832
X26769Y26582
X27019Y26582
X27269Y26582
X27269Y26832
X27519Y26832
X27519Y27082
X27269Y27082
X27019Y27082
X27019Y26832
X27019Y27332
X27269Y27332
X27519Y27332
X28169Y27002
X28179Y28102
X27919Y28082
X27919Y28682
X27649Y28672
X28209Y28662
X29399Y28092
X29209Y27502
X30069Y27082
X30419Y27332
X30569Y26982
X30789Y26772
X30799Y25822
X32029Y26102
X32319Y25532
X32069Y25232
X32209Y25002
X32719Y26032
X32719Y26282
X33819Y26782
X33819Y27032
X34459Y26972
X35119Y27232
X35469Y27332
X35469Y27732
X35909Y28092
X36259Y28612
X35969Y29182
X35669Y29432
X35369Y29682
X34889Y29752
X34769Y30182
X34459Y30622
X34459Y31042
X34979Y30832
X35499Y30452
X36079Y31022
X35539Y31472
X34709Y31902
X33979Y32422
X33829Y31312
X32659Y31972
X33349Y33352
X33349Y33852
X33459Y34372
X33969Y34172
X34019Y34932
X33609Y35462
X32799Y35032
X32379Y36432
X33869Y37232
X34679Y37022
X34659Y36512
X34469Y36232
X34659Y35452
X34689Y34512
X31939Y33662
X30419Y33682
X29519Y34112
X29009Y32852
X28999Y32252
X28319Y31732
X27459Y32032
X27649Y33552
X27649Y35552
X29939Y36432
X31159Y35232
X31149Y37662
X29879Y38062
X29259Y38772
X27729Y37482
X31159Y40132
X32979Y38912
X32379Y38222
X29949Y31152
X29829Y30522
X30529Y29612
X30299Y29322
X31319Y29802
X32709Y29972
X33829Y29032
X34709Y29132
X34709Y28322
X34909Y27972
X35179Y26712
X35869Y26182
X35869Y25882
X36169Y25432
X36369Y25232
X36669Y24932
X37009Y24542
X36269Y24532
X36079Y24332
X35919Y24532
X36079Y23642
X35819Y23182
X34819Y23582
X34819Y23982
X34819Y24232
X34569Y24232
X34719Y25482
X33969Y26182
X31869Y27582
X31819Y28032
X30769Y27732
X30519Y27832
X30069Y25972
X28409Y25032
X27329Y25142
X26309Y24122
X26519Y23432
X27259Y23162
X27669Y22462
X28079Y21492
X26999Y21112
X27909Y20772
X27639Y20282
X28019Y19982
X28019Y19732
X27639Y19512
X28219Y20182
X28369Y20382
X28639Y20402
X29139Y21112
X30099Y21382
X30589Y20772
X30709Y20282
X30189Y20272
X31319Y20282
X31309Y20852
X31569Y21282
X31669Y21532
X31919Y21532
X32869Y20782
X32669Y20482
X33069Y20282
X33629Y19902
X33719Y19402
X34299Y18972
X34289Y18512
X34619Y18202
X34859Y18512
X35369Y18142
X34909Y17832
X35049Y17512
X34909Y17172
X34519Y17382
X34519Y16682
X33809Y16562
X33269Y16082
X33419Y15882
X33119Y15882
X32969Y16082
X32819Y15882
X32339Y15392
X32399Y14872
X33099Y14872
X33489Y14872
X35169Y15932
X35569Y15932
X36019Y16032
X35819Y16432
X35719Y17632
X35779Y18522
X35769Y18742
X35969Y18732
X36169Y18702
X36049Y18522
X35879Y18922
X35369Y19532
X35079Y19832
X34969Y20082
X34629Y19512
X34329Y19902
X34419Y20632
X34719Y20882
X34369Y21582
X33419Y21532
X33419Y22982
X34069Y22932
X32669Y23732
X32369Y23232
X32169Y22982
X31969Y23132
X31769Y22982
X31349Y22922
X29959Y23812
X29219Y22242
X28769Y19312
X29319Y18882
X29819Y18832
X30469Y18882
X31379Y18292
X31579Y18732
X31929Y18442
X32269Y18672
X32619Y18972
X33069Y18972
X33339Y18382
X33339Y18152
X33339Y17922
X33569Y17922
X33569Y18152
X33569Y18382
X32379Y19532
X31989Y19142
X31939Y17622
X31629Y17432
X31629Y16642
X31619Y16382
X32269Y16562
X32329Y16962
X33019Y16562
X30569Y16382
X30419Y16582
X30419Y16832
X30369Y17082
X29269Y17182
X28719Y17282
X28179Y17672
X28179Y17992
X27719Y18002
X27709Y17672
X27319Y17282
X27019Y17282
X27119Y17852
X26729Y18422
X27419Y18632
X28169Y18682
X29049Y18052
X27089Y16682
X25979Y16622
X24569Y15682
X24719Y15482
X24569Y15282
X24419Y15482
X24269Y15282
X24119Y15482
X23969Y15282
X23969Y15682
X24269Y15682
X23399Y16212
X22619Y16232
X21119Y16202
X20319Y15032
X19819Y14872
X21919Y17732
X20919Y18272
X20709Y18272
X20709Y18502
X20919Y18502
X20919Y18732
X20709Y18732
X20319Y19432
X20419Y20082
X20669Y20082
X20919Y20082
X21169Y20082
X21169Y20332
X20919Y20332
X20669Y20332
X20419Y20332
X20419Y20582
X20669Y20582
X20919Y20582
X21169Y20582
X21169Y20832
X20919Y20832
X20669Y20832
X20419Y20832
X21419Y20682
X21419Y20432
X21419Y20182
X21739Y19982
X21609Y20962
X20419Y21882
X20219Y21682
X20399Y22332
X20049Y22812
X20119Y23232
X19469Y23332
X19219Y23182
X18689Y22722
X18419Y23162
X17469Y22402
X17369Y22132
X17669Y21582
X17919Y21482
X18789Y21502
X19249Y21502
X19259Y21962
X18969Y21982
X19469Y21082
X18059Y20412
X15709Y22242
X14499Y21572
X14739Y21182
X16959Y23282
X19129Y25062
X20539Y25032
X21449Y24422
X21569Y23282
X21729Y22812
X21029Y22402
X23519Y19562
X23519Y19332
X23329Y19212
X23519Y19102
X23329Y18982
X23519Y18872
X23919Y18782
X29239Y14872
X29929Y14872
X29999Y15392
X35649Y19912
X36119Y20382
X36319Y20632
X36619Y20532
X36969Y20532
X37319Y20532
X37719Y20532
X38019Y20532
X38319Y20532
X38869Y20332
X39069Y20132
X39489Y20372
X39249Y20852
X38869Y21332
X38519Y21532
X38069Y21982
X37819Y21582
X36969Y21682
X36019Y21432
X35819Y21232
X36019Y21032
X35869Y20832
X36519Y18422
X36919Y18382
X37169Y18382
X37429Y18412
X38219Y19122
X39419Y19012
X40169Y18732
X40759Y18542
X40769Y19132
X41859Y19442
X42069Y19832
X42249Y20122
X42139Y20822
X42899Y20792
X43399Y20292
X43419Y20032
X43329Y19442
X44179Y19602
X43749Y18302
X43749Y17352
X42939Y17092
X41769Y17732
X42389Y18342
X40799Y17792
X40069Y17082
X40219Y16732
X40479Y16632
X40219Y16432
X40409Y16232
X39669Y15732
X39339Y15392
X38949Y15972
X38439Y15412
X37939Y14912
X37589Y16282
X37619Y17532
X38969Y17732
X39069Y17982
X39059Y18252
X39769Y17382
X39119Y16732
X39999Y14912
X41129Y15662
X41959Y14912
X42889Y15732
X43839Y14922
X44179Y16032
X40169Y20132
X39789Y21602
X39779Y22772
X39769Y23782
X39969Y24582
X39919Y24832
X40019Y25332
X40219Y25482
X40419Y25332
X40619Y25482
X41019Y25382
X41119Y25632
X41419Y25382
X41919Y25482
X42619Y25332
X42849Y25182
X43269Y24412
X44519Y23392
X43809Y22702
X44519Y22232
X43409Y21842
X42879Y21752
X42239Y21972
X42149Y22592
X41169Y22932
X41169Y23182
X40769Y22382
X42309Y23732
X41119Y24132
X41119Y24532
X40869Y24532
X39819Y25482
X39499Y25352
X38819Y25482
X38569Y25432
X38079Y24662
X39199Y24692
X38429Y23672
X38309Y22632
X37089Y23132
X36819Y23132
X36769Y23382
X37009Y23862
X36909Y26452
X37279Y26462
X36359Y26562
X36389Y27652
X37129Y27862
X37419Y27612
X38069Y27982
X38219Y28222
X38469Y28182
X38719Y28132
X38969Y28082
X39219Y28032
X39599Y28092
X39029Y26872
X38469Y27282
X38249Y26532
X36969Y28532
X36989Y29442
X40939Y26972
X45579Y21542
X46049Y21092
X46909Y21522
X47119Y21022
X47669Y21022
X47909Y21402
X47539Y21922
X44619Y21182
X43899Y21282
X43569Y21062
X54789Y21922
X55279Y21392
X55789Y21472
X55939Y20892
X57059Y21472
X57589Y21622
X57549Y20892
X59569Y21182
X59569Y21982
X28109Y26252
X25229Y25292
X24299Y29362
X28139Y30202
X28139Y30652
X20809Y26472
X7569Y21562
X6919Y21232
X6439Y22222
X5719Y21682
X4649Y21562
X4769Y22202
X2769Y21982
X2769Y21182
T02
X24704Y29233
X25307Y29739
X25910Y30245
X26514Y30752
X40525Y17534
T03
X18479Y24016
X17575Y23257
T04
X33324Y34759
X33324Y38106
T05
X31159Y39572
X43759Y22252
X41583Y16476
X32739Y15172
X29589Y15172
X18559Y22252
T06
X28799Y24222
X33519Y24222
X33519Y30912
X28799Y30912
T07
X18559Y15562
X43759Y15562
T08
X31159Y36433
M30
