G75*
%MOIN*%
%OFA0B0*%
%FSLAX25Y25*%
%IPPOS*%
%LPD*%
%AMOC8*
5,1,8,0,0,1.08239X$1,22.5*
%
%ADD10R,0.01969X0.01969*%
%ADD11R,0.05118X0.03937*%
%ADD12R,0.02362X0.02323*%
%ADD13R,0.02362X0.03110*%
%ADD14R,0.02953X0.01772*%
%ADD15R,0.01969X0.01969*%
%ADD16R,0.03937X0.01378*%
%ADD17R,0.08661X0.11811*%
%ADD18R,0.06299X0.04724*%
%ADD19R,0.02953X0.01378*%
%ADD20R,0.01378X0.02953*%
%ADD21R,0.09449X0.09449*%
%ADD22R,0.02323X0.02362*%
%ADD23R,0.03110X0.02362*%
%ADD24R,0.02165X0.01772*%
%ADD25R,0.04134X0.10039*%
%ADD26R,0.02165X0.10039*%
%ADD27R,0.01772X0.02165*%
%ADD28R,0.10039X0.04134*%
%ADD29R,0.10039X0.02165*%
%ADD30R,0.00984X0.03150*%
%ADD31R,0.03150X0.00984*%
%ADD32R,0.03937X0.02362*%
%ADD33R,0.09843X0.09843*%
%ADD34R,0.03740X0.01575*%
%ADD35R,0.07874X0.12992*%
%ADD36R,0.03740X0.06693*%
%ADD37R,0.03740X0.09252*%
%ADD38R,0.01181X0.02362*%
D10*
X0102998Y0209842D03*
X0102998Y0214173D03*
X0085728Y0215062D03*
X0085728Y0219393D03*
X0244372Y0230119D03*
X0248703Y0230119D03*
X0251580Y0230119D03*
X0255911Y0230119D03*
X0255309Y0225458D03*
X0255309Y0221127D03*
X0244272Y0199558D03*
X0244272Y0195227D03*
X0248111Y0187144D03*
X0248015Y0183428D03*
X0247934Y0179756D03*
X0252265Y0179756D03*
X0252346Y0183428D03*
X0252442Y0187144D03*
X0261661Y0189275D03*
X0265377Y0191457D03*
X0261661Y0193606D03*
X0265377Y0195788D03*
X0274633Y0183774D03*
X0278317Y0183817D03*
X0278317Y0179486D03*
X0274633Y0179443D03*
X0283493Y0170141D03*
X0283493Y0165810D03*
X0266902Y0167833D03*
X0266902Y0163502D03*
X0259033Y0163278D03*
X0255117Y0163270D03*
X0255117Y0167600D03*
X0259033Y0167608D03*
X0252295Y0174656D03*
X0247965Y0174656D03*
X0287854Y0217142D03*
X0287854Y0221473D03*
X0314370Y0219173D03*
X0314370Y0214842D03*
X0319206Y0196973D03*
X0319206Y0192642D03*
X0315422Y0194688D03*
X0315422Y0190357D03*
X0305809Y0190415D03*
X0305791Y0186967D03*
X0301460Y0186967D03*
X0301478Y0190415D03*
X0301483Y0181017D03*
X0305813Y0181017D03*
X0305883Y0175917D03*
X0301552Y0175917D03*
X0309272Y0168962D03*
X0312804Y0169027D03*
X0312804Y0164696D03*
X0309272Y0164631D03*
X0320586Y0164608D03*
X0320586Y0168939D03*
X0329620Y0180881D03*
X0333372Y0180898D03*
X0333372Y0185229D03*
X0329620Y0185212D03*
X0336838Y0172573D03*
X0336838Y0168242D03*
X0372965Y0171080D03*
X0377295Y0171080D03*
X0377365Y0176180D03*
X0373034Y0176180D03*
X0372515Y0187404D03*
X0372511Y0191320D03*
X0376842Y0191320D03*
X0376846Y0187404D03*
X0387485Y0185575D03*
X0387485Y0189906D03*
X0391501Y0187757D03*
X0391501Y0192088D03*
X0392161Y0203857D03*
X0387831Y0203857D03*
X0402331Y0205948D03*
X0406238Y0205963D03*
X0406238Y0210293D03*
X0406055Y0212585D03*
X0406055Y0216915D03*
X0410390Y0215750D03*
X0414720Y0215750D03*
X0417390Y0215750D03*
X0416720Y0219750D03*
X0412390Y0219750D03*
X0421720Y0215750D03*
X0402331Y0210278D03*
X0389885Y0235919D03*
X0389969Y0239680D03*
X0385638Y0239680D03*
X0385554Y0235919D03*
X0402435Y0257256D03*
X0402435Y0261586D03*
X0391870Y0272735D03*
X0391735Y0277035D03*
X0387405Y0277035D03*
X0387539Y0272735D03*
X0378029Y0273994D03*
X0373698Y0273994D03*
X0374728Y0279380D03*
X0378665Y0279380D03*
X0378665Y0283711D03*
X0378469Y0287057D03*
X0374138Y0287057D03*
X0374728Y0283711D03*
X0361539Y0269734D03*
X0361539Y0265404D03*
X0354650Y0264813D03*
X0354650Y0269144D03*
X0348154Y0258711D03*
X0343823Y0258711D03*
X0320004Y0264813D03*
X0320004Y0269144D03*
X0320004Y0273474D03*
X0320004Y0277805D03*
X0312190Y0280165D03*
X0307859Y0280165D03*
X0294470Y0269413D03*
X0294470Y0265082D03*
X0352872Y0283076D03*
X0352872Y0287407D03*
X0421919Y0250248D03*
X0425513Y0250233D03*
X0425513Y0245903D03*
X0421919Y0245918D03*
X0431437Y0246804D03*
X0431437Y0242473D03*
X0444210Y0235227D03*
X0444210Y0230896D03*
X0444204Y0228212D03*
X0447783Y0228263D03*
X0447783Y0223933D03*
X0444204Y0223881D03*
X0459793Y0198358D03*
X0459793Y0194027D03*
X0459770Y0191469D03*
X0459770Y0187138D03*
X0432938Y0160219D03*
X0428607Y0160219D03*
X0409217Y0162610D03*
X0409217Y0166941D03*
X0404594Y0175686D03*
X0401009Y0175743D03*
X0401009Y0180074D03*
X0404594Y0180017D03*
X0384909Y0164208D03*
X0381294Y0164200D03*
X0381294Y0159870D03*
X0384909Y0159878D03*
X0591871Y0212633D03*
X0591871Y0216963D03*
X0609583Y0216069D03*
X0609583Y0211738D03*
X0380876Y0358512D03*
X0376546Y0358512D03*
X0372009Y0372060D03*
X0372009Y0376391D03*
D11*
X0465486Y0196355D03*
X0465486Y0187693D03*
D12*
X0434035Y0170531D03*
X0434035Y0167381D03*
X0427735Y0167381D03*
X0427735Y0170531D03*
D13*
X0427735Y0174074D03*
X0434035Y0174074D03*
X0434035Y0163838D03*
X0427735Y0163838D03*
D14*
X0596257Y0212045D03*
X0596257Y0217163D03*
X0603934Y0217163D03*
X0603934Y0214604D03*
X0603934Y0212045D03*
X0382346Y0362492D03*
X0382346Y0365051D03*
X0382346Y0367610D03*
X0374669Y0367610D03*
X0374669Y0362492D03*
X0251141Y0225843D03*
X0251141Y0220725D03*
X0243464Y0220725D03*
X0243464Y0223284D03*
X0243464Y0225843D03*
X0098154Y0219420D03*
X0098154Y0214302D03*
X0090476Y0214302D03*
X0090476Y0216861D03*
X0090476Y0219420D03*
D15*
G36*
X0266471Y0250182D02*
X0267978Y0251447D01*
X0269243Y0249940D01*
X0267736Y0248675D01*
X0266471Y0250182D01*
G37*
G36*
X0272561Y0252724D02*
X0271054Y0251459D01*
X0269789Y0252966D01*
X0271296Y0254231D01*
X0272561Y0252724D01*
G37*
G36*
X0392614Y0244571D02*
X0394005Y0243180D01*
X0392614Y0241789D01*
X0391223Y0243180D01*
X0392614Y0244571D01*
G37*
G36*
X0395676Y0238727D02*
X0394285Y0240118D01*
X0395676Y0241509D01*
X0397067Y0240118D01*
X0395676Y0238727D01*
G37*
G36*
X0432716Y0281162D02*
X0434223Y0279897D01*
X0432958Y0278390D01*
X0431451Y0279655D01*
X0432716Y0281162D01*
G37*
G36*
X0436276Y0275606D02*
X0434769Y0276871D01*
X0436034Y0278378D01*
X0437541Y0277113D01*
X0436276Y0275606D01*
G37*
G36*
X0410183Y0299270D02*
X0408918Y0297763D01*
X0407411Y0299028D01*
X0408676Y0300535D01*
X0410183Y0299270D01*
G37*
G36*
X0404628Y0295710D02*
X0405893Y0297217D01*
X0407400Y0295952D01*
X0406135Y0294445D01*
X0404628Y0295710D01*
G37*
G36*
X0389273Y0308506D02*
X0390538Y0310013D01*
X0392045Y0308748D01*
X0390780Y0307241D01*
X0389273Y0308506D01*
G37*
G36*
X0394829Y0312065D02*
X0393564Y0310558D01*
X0392057Y0311823D01*
X0393322Y0313330D01*
X0394829Y0312065D01*
G37*
D16*
X0314510Y0273805D03*
X0314510Y0270656D03*
X0314510Y0267506D03*
X0314510Y0264356D03*
X0299550Y0264356D03*
X0299550Y0267506D03*
X0299550Y0270656D03*
X0299550Y0273805D03*
X0293816Y0226005D03*
X0293816Y0222856D03*
X0293816Y0219706D03*
X0293816Y0216556D03*
X0308776Y0216556D03*
X0308776Y0219706D03*
X0308776Y0222856D03*
X0308776Y0226005D03*
D17*
X0301296Y0221281D03*
X0307030Y0269081D03*
D18*
X0079187Y0219505D03*
X0079187Y0211631D03*
X0065407Y0211631D03*
X0065407Y0219505D03*
X0616606Y0219569D03*
X0616606Y0211695D03*
X0630385Y0211695D03*
X0630385Y0219569D03*
D19*
X0395745Y0178762D03*
X0395745Y0176203D03*
X0395745Y0173644D03*
X0395745Y0171085D03*
X0381769Y0171085D03*
X0381769Y0173644D03*
X0381769Y0176203D03*
X0381769Y0178762D03*
X0323717Y0178455D03*
X0323717Y0181014D03*
X0323717Y0183573D03*
X0323717Y0175896D03*
X0309741Y0175896D03*
X0309741Y0178455D03*
X0309741Y0181014D03*
X0309741Y0183573D03*
X0269945Y0182385D03*
X0269945Y0179826D03*
X0269945Y0177267D03*
X0269945Y0174708D03*
X0255969Y0174708D03*
X0255969Y0177267D03*
X0255969Y0179826D03*
X0255969Y0182385D03*
D20*
X0259118Y0185535D03*
X0261677Y0185535D03*
X0264236Y0185535D03*
X0266795Y0185535D03*
X0266795Y0171559D03*
X0264236Y0171559D03*
X0261677Y0171559D03*
X0259118Y0171559D03*
X0312891Y0172746D03*
X0315450Y0172746D03*
X0318009Y0172746D03*
X0320568Y0172746D03*
X0320568Y0186722D03*
X0318009Y0186722D03*
X0315450Y0186722D03*
X0312891Y0186722D03*
X0384918Y0181911D03*
X0387477Y0181911D03*
X0390036Y0181911D03*
X0392595Y0181911D03*
X0392595Y0167935D03*
X0390036Y0167935D03*
X0387477Y0167935D03*
X0384918Y0167935D03*
D21*
X0388757Y0174923D03*
X0316729Y0179734D03*
X0262957Y0178547D03*
D22*
G36*
X0269333Y0230824D02*
X0271111Y0232316D01*
X0272629Y0230508D01*
X0270851Y0229016D01*
X0269333Y0230824D01*
G37*
G36*
X0271746Y0232848D02*
X0273524Y0234340D01*
X0275042Y0232532D01*
X0273264Y0231040D01*
X0271746Y0232848D01*
G37*
G36*
X0267697Y0237674D02*
X0269475Y0239166D01*
X0270993Y0237358D01*
X0269215Y0235866D01*
X0267697Y0237674D01*
G37*
G36*
X0265284Y0235649D02*
X0267062Y0237141D01*
X0268580Y0235333D01*
X0266802Y0233841D01*
X0265284Y0235649D01*
G37*
G36*
X0266520Y0237903D02*
X0264742Y0236411D01*
X0263224Y0238219D01*
X0265002Y0239711D01*
X0266520Y0237903D01*
G37*
G36*
X0268932Y0239928D02*
X0267154Y0238436D01*
X0265636Y0240244D01*
X0267414Y0241736D01*
X0268932Y0239928D01*
G37*
G36*
X0264883Y0244753D02*
X0263105Y0243261D01*
X0261587Y0245069D01*
X0263365Y0246561D01*
X0264883Y0244753D01*
G37*
G36*
X0262471Y0242729D02*
X0260693Y0241237D01*
X0259175Y0243045D01*
X0260953Y0244537D01*
X0262471Y0242729D01*
G37*
G36*
X0282695Y0246137D02*
X0280917Y0244645D01*
X0279399Y0246453D01*
X0281177Y0247945D01*
X0282695Y0246137D01*
G37*
G36*
X0285108Y0248162D02*
X0283330Y0246670D01*
X0281812Y0248478D01*
X0283590Y0249970D01*
X0285108Y0248162D01*
G37*
G36*
X0289157Y0243336D02*
X0287379Y0241844D01*
X0285861Y0243652D01*
X0287639Y0245144D01*
X0289157Y0243336D01*
G37*
G36*
X0287972Y0241153D02*
X0289750Y0242645D01*
X0291268Y0240837D01*
X0289490Y0239345D01*
X0287972Y0241153D01*
G37*
G36*
X0285559Y0239128D02*
X0287337Y0240620D01*
X0288855Y0238812D01*
X0287077Y0237320D01*
X0285559Y0239128D01*
G37*
G36*
X0286744Y0241312D02*
X0284966Y0239820D01*
X0283448Y0241628D01*
X0285226Y0243120D01*
X0286744Y0241312D01*
G37*
G36*
X0289608Y0234303D02*
X0291386Y0235795D01*
X0292904Y0233987D01*
X0291126Y0232495D01*
X0289608Y0234303D01*
G37*
G36*
X0292021Y0236327D02*
X0293799Y0237819D01*
X0295317Y0236011D01*
X0293539Y0234519D01*
X0292021Y0236327D01*
G37*
X0413437Y0211988D03*
X0416587Y0211988D03*
X0416587Y0205689D03*
X0413437Y0205689D03*
G36*
X0423204Y0281191D02*
X0424982Y0279699D01*
X0423464Y0277891D01*
X0421686Y0279383D01*
X0423204Y0281191D01*
G37*
G36*
X0420791Y0283215D02*
X0422569Y0281723D01*
X0421051Y0279915D01*
X0419273Y0281407D01*
X0420791Y0283215D01*
G37*
G36*
X0424840Y0288041D02*
X0426618Y0286549D01*
X0425100Y0284741D01*
X0423322Y0286233D01*
X0424840Y0288041D01*
G37*
G36*
X0427253Y0286016D02*
X0429031Y0284524D01*
X0427513Y0282716D01*
X0425735Y0284208D01*
X0427253Y0286016D01*
G37*
D23*
G36*
X0429665Y0283993D02*
X0432047Y0281995D01*
X0430529Y0280185D01*
X0428147Y0282183D01*
X0429665Y0283993D01*
G37*
G36*
X0425616Y0279167D02*
X0427998Y0277169D01*
X0426480Y0275359D01*
X0424098Y0277357D01*
X0425616Y0279167D01*
G37*
G36*
X0417775Y0285747D02*
X0420157Y0283749D01*
X0418639Y0281939D01*
X0416257Y0283937D01*
X0417775Y0285747D01*
G37*
G36*
X0421824Y0290572D02*
X0424206Y0288574D01*
X0422688Y0286764D01*
X0420306Y0288762D01*
X0421824Y0290572D01*
G37*
X0420130Y0211988D03*
X0420130Y0205689D03*
X0409894Y0205689D03*
X0409894Y0211988D03*
G36*
X0294433Y0238353D02*
X0296815Y0240351D01*
X0298333Y0238541D01*
X0295951Y0236543D01*
X0294433Y0238353D01*
G37*
G36*
X0290384Y0243178D02*
X0292766Y0245176D01*
X0294284Y0243366D01*
X0291902Y0241368D01*
X0290384Y0243178D01*
G37*
G36*
X0292173Y0245866D02*
X0289791Y0243868D01*
X0288273Y0245678D01*
X0290655Y0247676D01*
X0292173Y0245866D01*
G37*
G36*
X0288124Y0250691D02*
X0285742Y0248693D01*
X0284224Y0250503D01*
X0286606Y0252501D01*
X0288124Y0250691D01*
G37*
G36*
X0284332Y0239286D02*
X0281950Y0237288D01*
X0280432Y0239098D01*
X0282814Y0241096D01*
X0284332Y0239286D01*
G37*
G36*
X0282543Y0236599D02*
X0284925Y0238597D01*
X0286443Y0236787D01*
X0284061Y0234789D01*
X0282543Y0236599D01*
G37*
G36*
X0274158Y0234874D02*
X0276540Y0236872D01*
X0278058Y0235062D01*
X0275676Y0233064D01*
X0274158Y0234874D01*
G37*
G36*
X0270109Y0239700D02*
X0272491Y0241698D01*
X0274009Y0239888D01*
X0271627Y0237890D01*
X0270109Y0239700D01*
G37*
G36*
X0271949Y0242457D02*
X0269567Y0240459D01*
X0268049Y0242269D01*
X0270431Y0244267D01*
X0271949Y0242457D01*
G37*
G36*
X0280283Y0244112D02*
X0277901Y0242114D01*
X0276383Y0243924D01*
X0278765Y0245922D01*
X0280283Y0244112D01*
G37*
G36*
X0267900Y0247283D02*
X0265518Y0245285D01*
X0264000Y0247095D01*
X0266382Y0249093D01*
X0267900Y0247283D01*
G37*
G36*
X0260058Y0240703D02*
X0257676Y0238705D01*
X0256158Y0240515D01*
X0258540Y0242513D01*
X0260058Y0240703D01*
G37*
G36*
X0264107Y0235878D02*
X0261725Y0233880D01*
X0260207Y0235690D01*
X0262589Y0237688D01*
X0264107Y0235878D01*
G37*
G36*
X0262268Y0233120D02*
X0264650Y0235118D01*
X0266168Y0233308D01*
X0263786Y0231310D01*
X0262268Y0233120D01*
G37*
G36*
X0266317Y0228294D02*
X0268699Y0230292D01*
X0270217Y0228482D01*
X0267835Y0226484D01*
X0266317Y0228294D01*
G37*
G36*
X0286592Y0231773D02*
X0288974Y0233771D01*
X0290492Y0231961D01*
X0288110Y0229963D01*
X0286592Y0231773D01*
G37*
D24*
X0282701Y0198376D03*
X0282701Y0195817D03*
X0282701Y0193258D03*
X0282701Y0190699D03*
X0271480Y0190699D03*
X0271480Y0193258D03*
X0271480Y0195817D03*
X0271480Y0198376D03*
X0243724Y0187352D03*
X0243724Y0184793D03*
X0243724Y0182234D03*
X0243724Y0179675D03*
X0232504Y0179675D03*
X0232504Y0182234D03*
X0232504Y0184793D03*
X0232504Y0187352D03*
X0325811Y0191093D03*
X0325811Y0193652D03*
X0325811Y0196211D03*
X0325811Y0198770D03*
X0337031Y0198770D03*
X0337031Y0196211D03*
X0337031Y0193652D03*
X0337031Y0191093D03*
X0358488Y0183809D03*
X0358488Y0181250D03*
X0358488Y0178691D03*
X0358488Y0176132D03*
X0369709Y0176132D03*
X0369709Y0178691D03*
X0369709Y0181250D03*
X0369709Y0183809D03*
X0398055Y0186565D03*
X0398055Y0189124D03*
X0398055Y0191683D03*
X0398055Y0194242D03*
X0409276Y0194242D03*
X0409276Y0191683D03*
X0409276Y0189124D03*
X0409276Y0186565D03*
D25*
X0401992Y0190404D03*
X0365772Y0179970D03*
X0329748Y0194931D03*
X0275417Y0194537D03*
X0239787Y0183514D03*
D26*
X0235555Y0183514D03*
X0279650Y0194537D03*
X0333980Y0194931D03*
X0361539Y0179970D03*
X0406224Y0190404D03*
D27*
X0296283Y0184006D03*
X0293724Y0184006D03*
X0291165Y0184006D03*
X0288606Y0184006D03*
X0288606Y0172785D03*
X0291165Y0172785D03*
X0293724Y0172785D03*
X0296283Y0172785D03*
D28*
X0292445Y0180069D03*
D29*
X0292445Y0175837D03*
D30*
X0360555Y0275443D03*
X0362524Y0275443D03*
X0364492Y0275443D03*
X0366461Y0275443D03*
X0368429Y0275443D03*
X0368429Y0286860D03*
X0366461Y0286860D03*
X0364492Y0286860D03*
X0362524Y0286860D03*
X0360555Y0286860D03*
D31*
X0358783Y0283120D03*
X0358783Y0281152D03*
X0358783Y0279183D03*
X0370201Y0279183D03*
X0370201Y0281152D03*
X0370201Y0283120D03*
D32*
X0348744Y0279577D03*
X0348744Y0274577D03*
X0348744Y0269577D03*
X0348744Y0264537D03*
X0326303Y0264537D03*
X0326303Y0269537D03*
X0326303Y0274537D03*
X0326303Y0279537D03*
D33*
X0337524Y0272018D03*
D34*
X0239846Y0197156D03*
D35*
X0232858Y0200994D03*
D36*
X0239846Y0202274D03*
D37*
X0228429Y0200994D03*
D38*
X0273311Y0174734D03*
X0275280Y0174734D03*
X0277248Y0174734D03*
X0279217Y0174734D03*
X0279217Y0163711D03*
X0277248Y0163711D03*
X0275280Y0163711D03*
X0273311Y0163711D03*
X0327287Y0164459D03*
X0329256Y0164459D03*
X0331224Y0164459D03*
X0333193Y0164459D03*
X0333193Y0175482D03*
X0331224Y0175482D03*
X0329256Y0175482D03*
X0327287Y0175482D03*
X0399768Y0170325D03*
X0401736Y0170325D03*
X0403705Y0170325D03*
X0405673Y0170325D03*
X0405673Y0159301D03*
X0403705Y0159301D03*
X0401736Y0159301D03*
X0399768Y0159301D03*
M02*
