G75*
%MOIN*%
%OFA0B0*%
%FSLAX25Y25*%
%IPPOS*%
%LPD*%
%AMOC8*
5,1,8,0,0,1.08239X$1,22.5*
%
%ADD10R,0.06693X0.00984*%
%ADD11R,0.00984X0.06693*%
%ADD12R,0.02992X0.08071*%
%ADD13R,0.07874X0.07087*%
%ADD14R,0.05315X0.02500*%
%ADD15R,0.06299X0.04724*%
%ADD16R,0.03937X0.05118*%
%ADD17R,0.07480X0.05906*%
%ADD18R,0.03937X0.07874*%
%ADD19R,0.01969X0.01969*%
%ADD20R,0.01969X0.01969*%
%ADD21R,0.01969X0.02362*%
%ADD22R,0.04331X0.03543*%
%ADD23R,0.04331X0.02362*%
%ADD24R,0.02362X0.02323*%
%ADD25R,0.02362X0.03110*%
%ADD26R,0.06102X0.02362*%
%ADD27R,0.07087X0.04724*%
%ADD28R,0.04724X0.03937*%
%ADD29R,0.10236X0.07087*%
%ADD30R,0.07087X0.10236*%
%ADD31R,0.02362X0.04331*%
%ADD32R,0.03150X0.03150*%
%ADD33R,0.03937X0.01969*%
%ADD34R,0.04724X0.04134*%
%ADD35R,0.05906X0.02362*%
%ADD36R,0.05906X0.03150*%
%ADD37R,0.03937X0.01181*%
%ADD38R,0.02559X0.02953*%
%ADD39R,0.03543X0.05512*%
D10*
X0389377Y0204168D03*
X0389377Y0206136D03*
X0389377Y0208105D03*
X0389377Y0210073D03*
X0389377Y0212042D03*
X0389377Y0214010D03*
X0389377Y0215979D03*
X0389377Y0217947D03*
X0389377Y0219916D03*
X0389377Y0221884D03*
X0389377Y0223853D03*
X0389377Y0225821D03*
X0389377Y0227790D03*
X0389377Y0229759D03*
X0389377Y0231727D03*
X0389377Y0233696D03*
X0389377Y0235664D03*
X0389377Y0237633D03*
X0389377Y0239601D03*
X0389377Y0241570D03*
X0389377Y0243538D03*
X0389377Y0245507D03*
X0389377Y0247475D03*
X0389377Y0249444D03*
X0389377Y0251412D03*
X0452763Y0251412D03*
X0452763Y0249444D03*
X0452763Y0247475D03*
X0452763Y0245507D03*
X0452763Y0243538D03*
X0452763Y0241570D03*
X0452763Y0239601D03*
X0452763Y0237633D03*
X0452763Y0235664D03*
X0452763Y0233696D03*
X0452763Y0231727D03*
X0452763Y0229759D03*
X0452763Y0227790D03*
X0452763Y0225821D03*
X0452763Y0223853D03*
X0452763Y0221884D03*
X0452763Y0219916D03*
X0452763Y0217947D03*
X0452763Y0215979D03*
X0452763Y0214010D03*
X0452763Y0212042D03*
X0452763Y0210073D03*
X0452763Y0208105D03*
X0452763Y0206136D03*
X0452763Y0204168D03*
D11*
X0444692Y0196097D03*
X0442724Y0196097D03*
X0440755Y0196097D03*
X0438787Y0196097D03*
X0436818Y0196097D03*
X0434850Y0196097D03*
X0432881Y0196097D03*
X0430913Y0196097D03*
X0428944Y0196097D03*
X0426976Y0196097D03*
X0425007Y0196097D03*
X0423039Y0196097D03*
X0421070Y0196097D03*
X0419101Y0196097D03*
X0417133Y0196097D03*
X0415164Y0196097D03*
X0413196Y0196097D03*
X0411227Y0196097D03*
X0409259Y0196097D03*
X0407290Y0196097D03*
X0405322Y0196097D03*
X0403353Y0196097D03*
X0401385Y0196097D03*
X0399416Y0196097D03*
X0397448Y0196097D03*
X0397448Y0259483D03*
X0399416Y0259483D03*
X0401385Y0259483D03*
X0403353Y0259483D03*
X0405322Y0259483D03*
X0407290Y0259483D03*
X0409259Y0259483D03*
X0411227Y0259483D03*
X0413196Y0259483D03*
X0415164Y0259483D03*
X0417133Y0259483D03*
X0419101Y0259483D03*
X0421070Y0259483D03*
X0423039Y0259483D03*
X0425007Y0259483D03*
X0426976Y0259483D03*
X0428944Y0259483D03*
X0430913Y0259483D03*
X0432881Y0259483D03*
X0434850Y0259483D03*
X0436818Y0259483D03*
X0438787Y0259483D03*
X0440755Y0259483D03*
X0442724Y0259483D03*
X0444692Y0259483D03*
D12*
X0409206Y0166943D03*
X0404187Y0166943D03*
X0399167Y0166943D03*
X0394246Y0166943D03*
X0389128Y0166943D03*
X0389128Y0152376D03*
X0394246Y0152376D03*
X0399167Y0152376D03*
X0404187Y0152376D03*
X0409206Y0152376D03*
X0323013Y0152163D03*
X0317994Y0152163D03*
X0312974Y0152163D03*
X0308053Y0152163D03*
X0302935Y0152163D03*
X0302935Y0166730D03*
X0308053Y0166730D03*
X0312974Y0166730D03*
X0317994Y0166730D03*
X0323013Y0166730D03*
D13*
G36*
X0435774Y0186119D02*
X0441341Y0180552D01*
X0436330Y0175541D01*
X0430763Y0181108D01*
X0435774Y0186119D01*
G37*
G36*
X0457489Y0164405D02*
X0463056Y0158838D01*
X0458045Y0153827D01*
X0452478Y0159394D01*
X0457489Y0164405D01*
G37*
D14*
G36*
X0458624Y0175103D02*
X0462380Y0178859D01*
X0464148Y0177091D01*
X0460392Y0173335D01*
X0458624Y0175103D01*
G37*
G36*
X0454448Y0179279D02*
X0458204Y0183035D01*
X0459972Y0181267D01*
X0456216Y0177511D01*
X0454448Y0179279D01*
G37*
G36*
X0450550Y0183177D02*
X0454306Y0186933D01*
X0456074Y0185165D01*
X0452318Y0181409D01*
X0450550Y0183177D01*
G37*
G36*
X0429950Y0162576D02*
X0433706Y0166332D01*
X0435474Y0164564D01*
X0431718Y0160808D01*
X0429950Y0162576D01*
G37*
G36*
X0433847Y0158678D02*
X0437603Y0162434D01*
X0439371Y0160666D01*
X0435615Y0156910D01*
X0433847Y0158678D01*
G37*
G36*
X0437466Y0155059D02*
X0441222Y0158815D01*
X0442990Y0157047D01*
X0439234Y0153291D01*
X0437466Y0155059D01*
G37*
D15*
G36*
X0465413Y0226865D02*
X0469865Y0231317D01*
X0473205Y0227977D01*
X0468753Y0223525D01*
X0465413Y0226865D01*
G37*
G36*
X0460402Y0231876D02*
X0464854Y0236328D01*
X0468194Y0232988D01*
X0463742Y0228536D01*
X0460402Y0231876D01*
G37*
G36*
X0467640Y0239114D02*
X0472092Y0243566D01*
X0475432Y0240226D01*
X0470980Y0235774D01*
X0467640Y0239114D01*
G37*
G36*
X0472651Y0234103D02*
X0477103Y0238555D01*
X0480443Y0235215D01*
X0475991Y0230763D01*
X0472651Y0234103D01*
G37*
D16*
X0325255Y0344207D03*
X0316594Y0344207D03*
D17*
X0323349Y0364253D03*
X0377680Y0364253D03*
X0377680Y0374096D03*
X0377680Y0354411D03*
D18*
X0473897Y0204974D03*
X0473897Y0181352D03*
D19*
G36*
X0468624Y0218859D02*
X0467233Y0220250D01*
X0468624Y0221641D01*
X0470015Y0220250D01*
X0468624Y0218859D01*
G37*
G36*
X0465562Y0224703D02*
X0466953Y0223312D01*
X0465562Y0221921D01*
X0464171Y0223312D01*
X0465562Y0224703D01*
G37*
G36*
X0462735Y0239057D02*
X0464126Y0240448D01*
X0465517Y0239057D01*
X0464126Y0237666D01*
X0462735Y0239057D01*
G37*
G36*
X0468580Y0242119D02*
X0467189Y0240728D01*
X0465798Y0242119D01*
X0467189Y0243510D01*
X0468580Y0242119D01*
G37*
G36*
X0419815Y0269319D02*
X0418308Y0270584D01*
X0419573Y0272091D01*
X0421080Y0270826D01*
X0419815Y0269319D01*
G37*
G36*
X0417453Y0266563D02*
X0415946Y0267828D01*
X0417211Y0269335D01*
X0418718Y0268070D01*
X0417453Y0266563D01*
G37*
G36*
X0413893Y0272118D02*
X0415400Y0270853D01*
X0414135Y0269346D01*
X0412628Y0270611D01*
X0413893Y0272118D01*
G37*
G36*
X0416256Y0274874D02*
X0417763Y0273609D01*
X0416498Y0272102D01*
X0414991Y0273367D01*
X0416256Y0274874D01*
G37*
G36*
X0389826Y0294903D02*
X0388319Y0296168D01*
X0389584Y0297675D01*
X0391091Y0296410D01*
X0389826Y0294903D01*
G37*
G36*
X0386266Y0300459D02*
X0387773Y0299194D01*
X0386508Y0297687D01*
X0385001Y0298952D01*
X0386266Y0300459D01*
G37*
G36*
X0278626Y0283805D02*
X0277361Y0285312D01*
X0278868Y0286577D01*
X0280133Y0285070D01*
X0278626Y0283805D01*
G37*
G36*
X0276084Y0289895D02*
X0277349Y0288388D01*
X0275842Y0287123D01*
X0274577Y0288630D01*
X0276084Y0289895D01*
G37*
D20*
X0289355Y0284715D03*
X0289355Y0280385D03*
X0295355Y0280385D03*
X0295355Y0284715D03*
X0319951Y0267449D03*
X0320013Y0263233D03*
X0324343Y0263233D03*
X0324282Y0267449D03*
X0368422Y0256274D03*
X0372216Y0256289D03*
X0372216Y0251959D03*
X0368422Y0251944D03*
X0385890Y0258250D03*
X0390220Y0258250D03*
X0421502Y0265284D03*
X0425832Y0265284D03*
X0458717Y0217044D03*
X0458717Y0212714D03*
X0456239Y0201122D03*
X0451909Y0201122D03*
X0437535Y0189978D03*
X0433204Y0189978D03*
X0407570Y0177527D03*
X0403954Y0177558D03*
X0400170Y0177593D03*
X0396770Y0177558D03*
X0396770Y0173227D03*
X0400170Y0173262D03*
X0403954Y0173227D03*
X0407570Y0173196D03*
X0403565Y0190677D03*
X0399234Y0190677D03*
X0377255Y0191685D03*
X0377255Y0196015D03*
X0379059Y0214419D03*
X0379059Y0218750D03*
X0334634Y0168919D03*
X0334685Y0165451D03*
X0334650Y0161851D03*
X0334599Y0158219D03*
X0330269Y0158219D03*
X0330319Y0161851D03*
X0330354Y0165451D03*
X0330303Y0168919D03*
X0313906Y0182458D03*
X0313906Y0186789D03*
X0296051Y0161929D03*
X0296051Y0157598D03*
X0297491Y0149496D03*
X0293161Y0149496D03*
X0245617Y0150149D03*
X0241286Y0150149D03*
X0193760Y0213219D03*
X0193760Y0217549D03*
X0201790Y0221950D03*
X0206120Y0221950D03*
X0319223Y0319510D03*
X0323554Y0319510D03*
X0323005Y0338365D03*
X0318674Y0338365D03*
X0489690Y0209050D03*
X0494020Y0209050D03*
X0501953Y0213251D03*
X0501953Y0217581D03*
X0383808Y0150396D03*
X0379477Y0150396D03*
X0382628Y0157398D03*
X0382628Y0161729D03*
D21*
X0336417Y0263082D03*
X0332480Y0263082D03*
X0332449Y0267467D03*
X0336386Y0267467D03*
X0360387Y0282670D03*
X0364324Y0282670D03*
X0364291Y0286785D03*
X0360354Y0286785D03*
X0360339Y0290985D03*
X0364276Y0290985D03*
X0364260Y0295085D03*
X0360323Y0295085D03*
X0253970Y0150167D03*
X0250033Y0150167D03*
D22*
G36*
X0377748Y0317551D02*
X0375327Y0321140D01*
X0378262Y0323121D01*
X0380683Y0319532D01*
X0377748Y0317551D01*
G37*
G36*
X0366960Y0333545D02*
X0364539Y0337134D01*
X0367474Y0339115D01*
X0369895Y0335526D01*
X0366960Y0333545D01*
G37*
G36*
X0378384Y0341250D02*
X0375963Y0344839D01*
X0378898Y0346820D01*
X0381319Y0343231D01*
X0378384Y0341250D01*
G37*
D23*
X0326424Y0332779D03*
X0326424Y0325299D03*
X0316188Y0325299D03*
X0316188Y0329039D03*
X0316188Y0332779D03*
X0209035Y0217132D03*
X0209035Y0213392D03*
X0209035Y0209652D03*
X0198798Y0209652D03*
X0198798Y0217132D03*
X0486676Y0217474D03*
X0486676Y0221214D03*
X0486676Y0213733D03*
X0496912Y0213733D03*
X0496912Y0221214D03*
D24*
X0355078Y0287221D03*
X0355078Y0290370D03*
X0348779Y0290370D03*
X0348779Y0287221D03*
D25*
X0348779Y0283678D03*
X0355078Y0283678D03*
X0355078Y0293914D03*
X0348779Y0293914D03*
D26*
X0393546Y0280878D03*
X0393546Y0276941D03*
X0393546Y0273004D03*
X0393546Y0269067D03*
X0319300Y0186649D03*
X0319300Y0182712D03*
D27*
X0329339Y0176413D03*
X0329339Y0192948D03*
X0383507Y0262767D03*
X0383507Y0287177D03*
D28*
G36*
X0230765Y0231703D02*
X0227730Y0235321D01*
X0230745Y0237851D01*
X0233780Y0234233D01*
X0230765Y0231703D01*
G37*
G36*
X0223225Y0225376D02*
X0220190Y0228994D01*
X0223205Y0231524D01*
X0226240Y0227906D01*
X0223225Y0225376D01*
G37*
G36*
X0215685Y0219050D02*
X0212650Y0222668D01*
X0215665Y0225198D01*
X0218700Y0221580D01*
X0215685Y0219050D01*
G37*
D29*
X0279926Y0178663D03*
X0279926Y0154254D03*
X0369831Y0160866D03*
X0369831Y0185275D03*
X0307617Y0267247D03*
X0307617Y0291656D03*
D30*
X0298269Y0223789D03*
X0322678Y0223789D03*
D31*
X0382595Y0198991D03*
X0390076Y0198991D03*
X0390076Y0188755D03*
X0386335Y0188755D03*
X0382595Y0188755D03*
D32*
X0507012Y0212254D03*
X0507012Y0218553D03*
X0188689Y0218144D03*
X0188689Y0211845D03*
D33*
G36*
X0255126Y0241723D02*
X0252597Y0244738D01*
X0254104Y0246003D01*
X0256633Y0242988D01*
X0255126Y0241723D01*
G37*
G36*
X0258443Y0244507D02*
X0255914Y0247522D01*
X0257421Y0248787D01*
X0259950Y0245772D01*
X0258443Y0244507D01*
G37*
G36*
X0261761Y0247290D02*
X0259232Y0250305D01*
X0260739Y0251570D01*
X0263268Y0248555D01*
X0261761Y0247290D01*
G37*
G36*
X0264023Y0249188D02*
X0261494Y0252203D01*
X0263001Y0253468D01*
X0265530Y0250453D01*
X0264023Y0249188D01*
G37*
G36*
X0266134Y0250960D02*
X0263605Y0253975D01*
X0265112Y0255240D01*
X0267641Y0252225D01*
X0266134Y0250960D01*
G37*
G36*
X0268396Y0252858D02*
X0265867Y0255873D01*
X0267374Y0257138D01*
X0269903Y0254123D01*
X0268396Y0252858D01*
G37*
G36*
X0271713Y0255641D02*
X0269184Y0258656D01*
X0270691Y0259921D01*
X0273220Y0256906D01*
X0271713Y0255641D01*
G37*
G36*
X0275031Y0258425D02*
X0272502Y0261440D01*
X0274009Y0262705D01*
X0276538Y0259690D01*
X0275031Y0258425D01*
G37*
G36*
X0278349Y0261209D02*
X0275820Y0264224D01*
X0277327Y0265489D01*
X0279856Y0262474D01*
X0278349Y0261209D01*
G37*
G36*
X0384590Y0316922D02*
X0387119Y0319937D01*
X0388626Y0318672D01*
X0386097Y0315657D01*
X0384590Y0316922D01*
G37*
G36*
X0393939Y0309077D02*
X0396468Y0312092D01*
X0397975Y0310827D01*
X0395446Y0307812D01*
X0393939Y0309077D01*
G37*
G36*
X0396744Y0306741D02*
X0399273Y0309756D01*
X0400780Y0308491D01*
X0398251Y0305476D01*
X0396744Y0306741D01*
G37*
G36*
X0409109Y0296366D02*
X0411638Y0299381D01*
X0413145Y0298116D01*
X0410616Y0295101D01*
X0409109Y0296366D01*
G37*
G36*
X0412366Y0293692D02*
X0414895Y0296707D01*
X0416402Y0295442D01*
X0413873Y0292427D01*
X0412366Y0293692D01*
G37*
G36*
X0436795Y0273194D02*
X0439324Y0276209D01*
X0440831Y0274944D01*
X0438302Y0271929D01*
X0436795Y0273194D01*
G37*
D34*
G36*
X0297155Y0245381D02*
X0294119Y0248999D01*
X0297285Y0251657D01*
X0300321Y0248039D01*
X0297155Y0245381D01*
G37*
G36*
X0285893Y0258802D02*
X0282857Y0262420D01*
X0286023Y0265078D01*
X0289059Y0261460D01*
X0285893Y0258802D01*
G37*
G36*
X0254527Y0232483D02*
X0251491Y0236101D01*
X0254657Y0238759D01*
X0257693Y0235141D01*
X0254527Y0232483D01*
G37*
G36*
X0265789Y0219062D02*
X0262753Y0222680D01*
X0265919Y0225338D01*
X0268955Y0221720D01*
X0265789Y0219062D01*
G37*
D35*
X0362917Y0220719D03*
X0362917Y0216781D03*
X0362917Y0212844D03*
X0373941Y0210876D03*
X0373941Y0214813D03*
X0373941Y0218750D03*
D36*
X0373941Y0224656D03*
X0362917Y0224656D03*
X0362917Y0206939D03*
X0373941Y0206939D03*
D37*
G36*
X0426470Y0268239D02*
X0428999Y0271253D01*
X0429902Y0270495D01*
X0427373Y0267481D01*
X0426470Y0268239D01*
G37*
G36*
X0424962Y0269504D02*
X0427491Y0272518D01*
X0428394Y0271760D01*
X0425865Y0268746D01*
X0424962Y0269504D01*
G37*
G36*
X0423454Y0270769D02*
X0425983Y0273783D01*
X0426886Y0273025D01*
X0424357Y0270011D01*
X0423454Y0270769D01*
G37*
G36*
X0421946Y0272035D02*
X0424475Y0275049D01*
X0425378Y0274291D01*
X0422849Y0271277D01*
X0421946Y0272035D01*
G37*
G36*
X0420438Y0273300D02*
X0422967Y0276314D01*
X0423870Y0275556D01*
X0421341Y0272542D01*
X0420438Y0273300D01*
G37*
G36*
X0418930Y0274565D02*
X0421459Y0277579D01*
X0422362Y0276821D01*
X0419833Y0273807D01*
X0418930Y0274565D01*
G37*
G36*
X0417422Y0275831D02*
X0419951Y0278845D01*
X0420854Y0278087D01*
X0418325Y0275073D01*
X0417422Y0275831D01*
G37*
G36*
X0415914Y0277096D02*
X0418443Y0280110D01*
X0419346Y0279352D01*
X0416817Y0276338D01*
X0415914Y0277096D01*
G37*
G36*
X0414406Y0278361D02*
X0416935Y0281375D01*
X0417838Y0280617D01*
X0415309Y0277603D01*
X0414406Y0278361D01*
G37*
G36*
X0412898Y0279627D02*
X0415427Y0282641D01*
X0416330Y0281883D01*
X0413801Y0278869D01*
X0412898Y0279627D01*
G37*
G36*
X0411390Y0280892D02*
X0413919Y0283906D01*
X0414822Y0283148D01*
X0412293Y0280134D01*
X0411390Y0280892D01*
G37*
G36*
X0409882Y0282157D02*
X0412411Y0285171D01*
X0413314Y0284413D01*
X0410785Y0281399D01*
X0409882Y0282157D01*
G37*
G36*
X0408374Y0283423D02*
X0410903Y0286437D01*
X0411806Y0285679D01*
X0409277Y0282665D01*
X0408374Y0283423D01*
G37*
G36*
X0400292Y0290145D02*
X0402821Y0293159D01*
X0403724Y0292401D01*
X0401195Y0289387D01*
X0400292Y0290145D01*
G37*
G36*
X0398784Y0291410D02*
X0401313Y0294424D01*
X0402216Y0293666D01*
X0399687Y0290652D01*
X0398784Y0291410D01*
G37*
G36*
X0397276Y0292676D02*
X0399805Y0295690D01*
X0400708Y0294932D01*
X0398179Y0291918D01*
X0397276Y0292676D01*
G37*
G36*
X0395768Y0293941D02*
X0398297Y0296955D01*
X0399200Y0296197D01*
X0396671Y0293183D01*
X0395768Y0293941D01*
G37*
G36*
X0394260Y0295206D02*
X0396789Y0298220D01*
X0397692Y0297462D01*
X0395163Y0294448D01*
X0394260Y0295206D01*
G37*
G36*
X0392752Y0296472D02*
X0395281Y0299486D01*
X0396184Y0298728D01*
X0393655Y0295714D01*
X0392752Y0296472D01*
G37*
G36*
X0385122Y0302856D02*
X0387651Y0305870D01*
X0388554Y0305112D01*
X0386025Y0302098D01*
X0385122Y0302856D01*
G37*
G36*
X0383614Y0304121D02*
X0386143Y0307135D01*
X0387046Y0306377D01*
X0384517Y0303363D01*
X0383614Y0304121D01*
G37*
G36*
X0382106Y0305387D02*
X0384635Y0308401D01*
X0385538Y0307643D01*
X0383009Y0304629D01*
X0382106Y0305387D01*
G37*
G36*
X0380598Y0306652D02*
X0383127Y0309666D01*
X0384030Y0308908D01*
X0381501Y0305894D01*
X0380598Y0306652D01*
G37*
G36*
X0427978Y0266973D02*
X0430507Y0269987D01*
X0431410Y0269229D01*
X0428881Y0266215D01*
X0427978Y0266973D01*
G37*
D38*
X0236697Y0205955D03*
X0231972Y0205955D03*
D39*
X0226461Y0190994D03*
X0242209Y0190994D03*
M02*
