G75*
%MOIN*%
%OFA0B0*%
%FSLAX25Y25*%
%IPPOS*%
%LPD*%
%AMOC8*
5,1,8,0,0,1.08239X$1,22.5*
%
%ADD10C,0.00800*%
%ADD11C,0.00500*%
%ADD12C,0.00600*%
%ADD13C,0.01600*%
%ADD14C,0.02000*%
%ADD15C,0.02400*%
D10*
X0222038Y0195215D02*
X0222572Y0194681D01*
X0224707Y0194681D01*
X0225241Y0195215D01*
X0225241Y0196283D01*
X0224707Y0196817D01*
X0222572Y0196817D01*
X0222038Y0196283D01*
X0222038Y0195215D01*
X0223105Y0195749D02*
X0222038Y0196817D01*
X0222038Y0198365D02*
X0224173Y0200500D01*
X0224707Y0200500D01*
X0225241Y0199966D01*
X0225241Y0198898D01*
X0224707Y0198365D01*
X0222038Y0198365D02*
X0222038Y0200500D01*
X0222572Y0202048D02*
X0224707Y0204183D01*
X0222572Y0204183D01*
X0222038Y0203649D01*
X0222038Y0202582D01*
X0222572Y0202048D01*
X0224707Y0202048D01*
X0225241Y0202582D01*
X0225241Y0203649D01*
X0224707Y0204183D01*
X0224173Y0205731D02*
X0225241Y0206798D01*
X0222038Y0206798D01*
X0222038Y0205731D02*
X0222038Y0207866D01*
X0225916Y0190012D02*
X0225916Y0187877D01*
X0228051Y0190012D01*
X0228585Y0190012D01*
X0229118Y0189478D01*
X0229118Y0188410D01*
X0228585Y0187877D01*
X0228585Y0186329D02*
X0226450Y0184193D01*
X0225916Y0184727D01*
X0225916Y0185795D01*
X0226450Y0186329D01*
X0228585Y0186329D01*
X0229118Y0185795D01*
X0229118Y0184727D01*
X0228585Y0184193D01*
X0226450Y0184193D01*
X0226450Y0182645D02*
X0225916Y0182112D01*
X0225916Y0181044D01*
X0226450Y0180510D01*
X0227517Y0181578D02*
X0227517Y0182112D01*
X0226983Y0182645D01*
X0226450Y0182645D01*
X0227517Y0182112D02*
X0228051Y0182645D01*
X0228585Y0182645D01*
X0229118Y0182112D01*
X0229118Y0181044D01*
X0228585Y0180510D01*
X0228585Y0178962D02*
X0226450Y0178962D01*
X0225916Y0178429D01*
X0225916Y0177361D01*
X0226450Y0176827D01*
X0228585Y0176827D01*
X0229118Y0177361D01*
X0229118Y0178429D01*
X0228585Y0178962D01*
X0226983Y0177895D02*
X0225916Y0178962D01*
X0239198Y0170143D02*
X0241333Y0168008D01*
X0240799Y0167474D01*
X0239732Y0167474D01*
X0239198Y0168008D01*
X0239198Y0170143D01*
X0239732Y0170677D01*
X0240799Y0170677D01*
X0241333Y0170143D01*
X0241333Y0168008D01*
X0242881Y0167474D02*
X0245016Y0167474D01*
X0243949Y0167474D02*
X0243949Y0170677D01*
X0245016Y0169610D01*
X0246564Y0169610D02*
X0247098Y0169076D01*
X0246564Y0168542D01*
X0246564Y0168008D01*
X0247098Y0167474D01*
X0248166Y0167474D01*
X0248700Y0168008D01*
X0247632Y0169076D02*
X0247098Y0169076D01*
X0246564Y0169610D02*
X0246564Y0170143D01*
X0247098Y0170677D01*
X0248166Y0170677D01*
X0248700Y0170143D01*
X0250248Y0170143D02*
X0250248Y0169076D01*
X0250781Y0168542D01*
X0252383Y0168542D01*
X0252383Y0167474D02*
X0252383Y0170677D01*
X0250781Y0170677D01*
X0250248Y0170143D01*
X0251315Y0168542D02*
X0250248Y0167474D01*
X0250751Y0165935D02*
X0250217Y0165401D01*
X0250217Y0164333D01*
X0250751Y0163799D01*
X0252352Y0163799D01*
X0252352Y0162732D02*
X0252352Y0165935D01*
X0250751Y0165935D01*
X0248669Y0165401D02*
X0248135Y0165935D01*
X0247067Y0165935D01*
X0246534Y0165401D01*
X0246534Y0164867D01*
X0247067Y0164333D01*
X0246534Y0163799D01*
X0246534Y0163266D01*
X0247067Y0162732D01*
X0248135Y0162732D01*
X0248669Y0163266D01*
X0247601Y0164333D02*
X0247067Y0164333D01*
X0244986Y0163266D02*
X0242851Y0165401D01*
X0242851Y0163266D01*
X0243384Y0162732D01*
X0244452Y0162732D01*
X0244986Y0163266D01*
X0244986Y0165401D01*
X0244452Y0165935D01*
X0243384Y0165935D01*
X0242851Y0165401D01*
X0241303Y0164333D02*
X0239701Y0164333D01*
X0239167Y0163799D01*
X0239167Y0163266D01*
X0239701Y0162732D01*
X0240769Y0162732D01*
X0241303Y0163266D01*
X0241303Y0164333D01*
X0240235Y0165401D01*
X0239167Y0165935D01*
X0247374Y0173278D02*
X0250130Y0173278D01*
X0250130Y0176034D01*
X0252886Y0176034D01*
X0252855Y0178378D02*
X0250099Y0178378D01*
X0250099Y0181134D01*
X0252855Y0181134D01*
X0252936Y0182050D02*
X0250180Y0182050D01*
X0250180Y0184806D01*
X0247424Y0184806D01*
X0247520Y0185766D02*
X0250276Y0185766D01*
X0250276Y0188522D01*
X0247520Y0188522D01*
X0248175Y0190009D02*
X0249242Y0190009D01*
X0249776Y0190543D01*
X0247641Y0192678D01*
X0247641Y0190543D01*
X0248175Y0190009D01*
X0249776Y0190543D02*
X0249776Y0192678D01*
X0249242Y0193212D01*
X0248175Y0193212D01*
X0247641Y0192678D01*
X0246093Y0192144D02*
X0245026Y0193212D01*
X0245026Y0190009D01*
X0246093Y0190009D02*
X0243958Y0190009D01*
X0242894Y0194637D02*
X0242894Y0197393D01*
X0245650Y0197393D01*
X0245650Y0200148D01*
X0245650Y0197393D02*
X0245650Y0194637D01*
X0246416Y0194512D02*
X0248551Y0194512D01*
X0247484Y0194512D02*
X0247484Y0197715D01*
X0248551Y0196647D01*
X0250099Y0197181D02*
X0252234Y0195046D01*
X0251701Y0194512D01*
X0250633Y0194512D01*
X0250099Y0195046D01*
X0250099Y0197181D01*
X0250633Y0197715D01*
X0251701Y0197715D01*
X0252234Y0197181D01*
X0252234Y0195046D01*
X0253782Y0195046D02*
X0254316Y0194512D01*
X0255384Y0194512D01*
X0255918Y0195046D01*
X0254850Y0196114D02*
X0254316Y0196114D01*
X0253782Y0195580D01*
X0253782Y0195046D01*
X0254316Y0196114D02*
X0253782Y0196647D01*
X0253782Y0197181D01*
X0254316Y0197715D01*
X0255384Y0197715D01*
X0255918Y0197181D01*
X0257466Y0197181D02*
X0257466Y0196114D01*
X0257999Y0195580D01*
X0259601Y0195580D01*
X0258533Y0195580D02*
X0257466Y0194512D01*
X0256609Y0193212D02*
X0257143Y0192678D01*
X0257143Y0190543D01*
X0256609Y0190009D01*
X0255541Y0190009D01*
X0255007Y0190543D01*
X0253459Y0190543D02*
X0252926Y0190009D01*
X0251858Y0190009D01*
X0251324Y0190543D01*
X0251324Y0191077D01*
X0251858Y0191610D01*
X0252392Y0191610D01*
X0251858Y0191610D02*
X0251324Y0192144D01*
X0251324Y0192678D01*
X0251858Y0193212D01*
X0252926Y0193212D01*
X0253459Y0192678D01*
X0255007Y0192678D02*
X0255541Y0193212D01*
X0256609Y0193212D01*
X0259601Y0194512D02*
X0259601Y0197715D01*
X0257999Y0197715D01*
X0257466Y0197181D01*
X0256418Y0199485D02*
X0256418Y0201087D01*
X0255884Y0201621D01*
X0254816Y0201621D01*
X0254283Y0201087D01*
X0254283Y0199485D01*
X0254283Y0200553D02*
X0253215Y0201621D01*
X0253215Y0203169D02*
X0255350Y0205304D01*
X0255884Y0205304D01*
X0256418Y0204770D01*
X0256418Y0203702D01*
X0255884Y0203169D01*
X0253215Y0203169D02*
X0253215Y0205304D01*
X0253749Y0206852D02*
X0255884Y0208987D01*
X0253749Y0208987D01*
X0253215Y0208453D01*
X0253215Y0207386D01*
X0253749Y0206852D01*
X0255884Y0206852D01*
X0256418Y0207386D01*
X0256418Y0208453D01*
X0255884Y0208987D01*
X0255350Y0210535D02*
X0256418Y0211602D01*
X0253215Y0211602D01*
X0253215Y0210535D02*
X0253215Y0212670D01*
X0253722Y0214785D02*
X0252655Y0214785D01*
X0252121Y0215318D01*
X0252121Y0217987D01*
X0250573Y0216920D02*
X0249505Y0217987D01*
X0249505Y0214785D01*
X0248438Y0214785D02*
X0250573Y0214785D01*
X0253722Y0214785D02*
X0254256Y0215318D01*
X0254256Y0217987D01*
X0253931Y0220537D02*
X0253931Y0223293D01*
X0256687Y0223293D01*
X0256687Y0226048D01*
X0257989Y0225767D02*
X0258523Y0225767D01*
X0260658Y0227902D01*
X0261192Y0227902D01*
X0261192Y0225767D01*
X0260658Y0224219D02*
X0258523Y0222084D01*
X0257989Y0222617D01*
X0257989Y0223685D01*
X0258523Y0224219D01*
X0260658Y0224219D01*
X0261192Y0223685D01*
X0261192Y0222617D01*
X0260658Y0222084D01*
X0258523Y0222084D01*
X0257989Y0220536D02*
X0257989Y0218401D01*
X0257989Y0219468D02*
X0261192Y0219468D01*
X0260124Y0218401D01*
X0260658Y0216853D02*
X0261192Y0216319D01*
X0261192Y0215251D01*
X0260658Y0214717D01*
X0258523Y0214717D01*
X0257989Y0215251D01*
X0257989Y0216319D01*
X0258523Y0216853D01*
X0256687Y0220537D02*
X0256687Y0223293D01*
X0253931Y0223293D02*
X0253931Y0226048D01*
X0253746Y0228741D02*
X0253746Y0231497D01*
X0250990Y0231497D01*
X0251373Y0232763D02*
X0249238Y0232763D01*
X0250306Y0232763D02*
X0250306Y0235966D01*
X0251373Y0234899D01*
X0252921Y0232763D02*
X0255056Y0232763D01*
X0253989Y0232763D02*
X0253989Y0235966D01*
X0255056Y0234899D01*
X0256604Y0235432D02*
X0256604Y0234365D01*
X0257138Y0233831D01*
X0258739Y0233831D01*
X0257672Y0233831D02*
X0256604Y0232763D01*
X0256502Y0231497D02*
X0253746Y0231497D01*
X0253746Y0228741D02*
X0250990Y0228741D01*
X0249294Y0228741D02*
X0246538Y0228741D01*
X0246538Y0231497D01*
X0243782Y0231497D01*
X0245555Y0233297D02*
X0246089Y0232763D01*
X0247156Y0232763D01*
X0247690Y0233297D01*
X0245555Y0235432D01*
X0245555Y0233297D01*
X0246538Y0231497D02*
X0249294Y0231497D01*
X0247690Y0233297D02*
X0247690Y0235432D01*
X0247156Y0235966D01*
X0246089Y0235966D01*
X0245555Y0235432D01*
X0245486Y0237488D02*
X0243351Y0237488D01*
X0244419Y0237488D02*
X0244419Y0240691D01*
X0245486Y0239623D01*
X0247034Y0240157D02*
X0247034Y0239089D01*
X0247568Y0238555D01*
X0249169Y0238555D01*
X0249169Y0237488D02*
X0249169Y0240691D01*
X0247568Y0240691D01*
X0247034Y0240157D01*
X0248102Y0238555D02*
X0247034Y0237488D01*
X0241803Y0238022D02*
X0239668Y0240157D01*
X0239668Y0238022D01*
X0240202Y0237488D01*
X0241269Y0237488D01*
X0241803Y0238022D01*
X0241803Y0240157D01*
X0241269Y0240691D01*
X0240202Y0240691D01*
X0239668Y0240157D01*
X0238120Y0240691D02*
X0235985Y0240691D01*
X0235985Y0240157D01*
X0238120Y0238022D01*
X0238120Y0237488D01*
X0243782Y0228741D02*
X0246538Y0228741D01*
X0253746Y0228741D02*
X0256502Y0228741D01*
X0258739Y0232763D02*
X0258739Y0235966D01*
X0257138Y0235966D01*
X0256604Y0235432D01*
X0257330Y0239699D02*
X0266981Y0247797D01*
X0270904Y0243123D01*
X0261253Y0235024D01*
X0257330Y0239699D01*
X0255181Y0242078D02*
X0256817Y0243451D01*
X0253809Y0243714D01*
X0253466Y0244123D01*
X0253532Y0244875D01*
X0254349Y0245561D01*
X0255101Y0245495D01*
X0253947Y0247106D02*
X0250939Y0247369D01*
X0250596Y0247778D01*
X0250661Y0248530D01*
X0251479Y0249216D01*
X0252231Y0249151D01*
X0253892Y0251241D02*
X0255951Y0248787D01*
X0256768Y0249473D02*
X0255133Y0248101D01*
X0253947Y0247106D02*
X0252311Y0245734D01*
X0250782Y0245147D02*
X0247774Y0245411D01*
X0249147Y0243775D01*
X0249899Y0243709D01*
X0250717Y0244395D01*
X0250782Y0245147D01*
X0249410Y0246783D01*
X0248658Y0246849D01*
X0247840Y0246163D01*
X0247774Y0245411D01*
X0250710Y0242507D02*
X0252966Y0242310D01*
X0251331Y0240938D01*
X0252769Y0240054D02*
X0250710Y0242507D01*
X0258003Y0244446D02*
X0259638Y0245818D01*
X0258821Y0245132D02*
X0256762Y0247586D01*
X0258266Y0247454D01*
X0259795Y0248040D02*
X0260547Y0247974D01*
X0261774Y0249004D01*
X0262460Y0248186D02*
X0260401Y0250639D01*
X0259174Y0249610D01*
X0259109Y0248858D01*
X0259795Y0248040D01*
X0260956Y0248317D02*
X0260824Y0246813D01*
X0257954Y0250469D02*
X0258086Y0251973D01*
X0257677Y0251629D02*
X0258904Y0252659D01*
X0259590Y0251841D02*
X0257531Y0254294D01*
X0256304Y0253265D01*
X0256239Y0252513D01*
X0256925Y0251695D01*
X0257677Y0251629D01*
X0255396Y0251109D02*
X0253892Y0251241D01*
X0264931Y0255816D02*
X0267187Y0255618D01*
X0265552Y0254246D01*
X0266990Y0253362D02*
X0264931Y0255816D01*
X0268162Y0258526D02*
X0270220Y0256073D01*
X0269403Y0255387D02*
X0271038Y0256759D01*
X0272224Y0257754D02*
X0273860Y0259126D01*
X0273042Y0258440D02*
X0270983Y0260894D01*
X0272487Y0260762D01*
X0273330Y0262166D02*
X0273396Y0262918D01*
X0274214Y0263604D01*
X0274966Y0263538D01*
X0276338Y0261903D01*
X0276272Y0261151D01*
X0275454Y0260465D01*
X0274702Y0260530D01*
X0277294Y0257565D02*
X0279353Y0255111D01*
X0278535Y0254425D02*
X0280171Y0255798D01*
X0281356Y0256793D02*
X0282992Y0258165D01*
X0282174Y0257479D02*
X0280115Y0259932D01*
X0281620Y0259801D01*
X0283148Y0260387D02*
X0283900Y0260321D01*
X0285127Y0261350D01*
X0284309Y0260664D02*
X0284178Y0259160D01*
X0283148Y0260387D02*
X0282462Y0261205D01*
X0282528Y0261957D01*
X0283755Y0262986D01*
X0285813Y0260533D01*
X0286842Y0258966D02*
X0285615Y0257937D01*
X0285550Y0257185D01*
X0286236Y0256367D01*
X0286988Y0256301D01*
X0288215Y0257331D01*
X0288901Y0256513D02*
X0286842Y0258966D01*
X0287397Y0256645D02*
X0287265Y0255141D01*
X0286079Y0254145D02*
X0284444Y0252773D01*
X0285262Y0253459D02*
X0283203Y0255913D01*
X0284707Y0255781D01*
X0281542Y0253823D02*
X0280790Y0253888D01*
X0279973Y0253202D01*
X0279907Y0252450D01*
X0280250Y0252041D01*
X0283258Y0251778D01*
X0281622Y0250406D01*
X0280093Y0249819D02*
X0279750Y0250228D01*
X0278998Y0250294D01*
X0278180Y0249608D01*
X0278115Y0248856D01*
X0278458Y0248447D01*
X0279210Y0248381D01*
X0280028Y0249067D01*
X0280093Y0249819D01*
X0278998Y0250294D02*
X0279064Y0251046D01*
X0278721Y0251455D01*
X0277969Y0251521D01*
X0277151Y0250835D01*
X0277085Y0250083D01*
X0277428Y0249674D01*
X0278180Y0249608D01*
X0276122Y0252401D02*
X0275370Y0252467D01*
X0273998Y0254102D01*
X0274064Y0254854D01*
X0274881Y0255541D01*
X0275634Y0255475D01*
X0275977Y0255066D01*
X0275911Y0254314D01*
X0274684Y0253284D01*
X0276122Y0252401D02*
X0276940Y0253087D01*
X0277006Y0253839D01*
X0277294Y0257565D02*
X0278798Y0257433D01*
X0272513Y0252169D02*
X0270401Y0250398D01*
X0268630Y0252509D01*
X0270741Y0254280D01*
X0268630Y0252509D02*
X0266519Y0250737D01*
X0268290Y0248626D02*
X0270401Y0250398D01*
X0272964Y0240553D02*
X0263313Y0232455D01*
X0267236Y0227780D01*
X0276886Y0235878D01*
X0272964Y0240553D01*
X0277554Y0243108D02*
X0287205Y0251206D01*
X0291128Y0246531D01*
X0281477Y0238433D01*
X0277554Y0243108D01*
X0283588Y0235933D02*
X0293239Y0244031D01*
X0297161Y0239357D01*
X0287510Y0231259D01*
X0283588Y0235933D01*
X0281923Y0223159D02*
X0282457Y0222626D01*
X0282457Y0221558D01*
X0281923Y0221024D01*
X0281923Y0219476D02*
X0279788Y0217341D01*
X0279254Y0217875D01*
X0279254Y0218943D01*
X0279788Y0219476D01*
X0281923Y0219476D01*
X0282457Y0218943D01*
X0282457Y0217875D01*
X0281923Y0217341D01*
X0279788Y0217341D01*
X0279254Y0215793D02*
X0279254Y0213658D01*
X0281389Y0215793D01*
X0281923Y0215793D01*
X0282457Y0215259D01*
X0282457Y0214192D01*
X0281923Y0213658D01*
X0281923Y0212110D02*
X0282457Y0211576D01*
X0282457Y0210509D01*
X0281923Y0209975D01*
X0279788Y0209975D01*
X0279254Y0210509D01*
X0279254Y0211576D01*
X0279788Y0212110D01*
X0278812Y0206362D02*
X0277745Y0206362D01*
X0277211Y0205828D01*
X0277211Y0205295D01*
X0277745Y0204761D01*
X0277211Y0204227D01*
X0277211Y0203693D01*
X0277745Y0203159D01*
X0278812Y0203159D01*
X0279346Y0203693D01*
X0278278Y0204761D02*
X0277745Y0204761D01*
X0279346Y0205828D02*
X0278812Y0206362D01*
X0280894Y0206362D02*
X0280894Y0203693D01*
X0281428Y0203159D01*
X0282495Y0203159D01*
X0283029Y0203693D01*
X0283029Y0206362D01*
X0284971Y0204185D02*
X0284971Y0202050D01*
X0284971Y0203117D02*
X0288174Y0203117D01*
X0287106Y0202050D01*
X0287640Y0200502D02*
X0285505Y0198367D01*
X0284971Y0198900D01*
X0284971Y0199968D01*
X0285505Y0200502D01*
X0287640Y0200502D01*
X0288174Y0199968D01*
X0288174Y0198900D01*
X0287640Y0198367D01*
X0285505Y0198367D01*
X0285505Y0196819D02*
X0284971Y0196285D01*
X0284971Y0195217D01*
X0285505Y0194684D01*
X0286572Y0195751D02*
X0286572Y0196285D01*
X0286038Y0196819D01*
X0285505Y0196819D01*
X0286572Y0196285D02*
X0287106Y0196819D01*
X0287640Y0196819D01*
X0288174Y0196285D01*
X0288174Y0195217D01*
X0287640Y0194684D01*
X0287640Y0193136D02*
X0285505Y0193136D01*
X0284971Y0192602D01*
X0284971Y0191534D01*
X0285505Y0191000D01*
X0287640Y0191000D01*
X0288174Y0191534D01*
X0288174Y0192602D01*
X0287640Y0193136D01*
X0286038Y0192068D02*
X0284971Y0193136D01*
X0285947Y0189479D02*
X0287014Y0188945D01*
X0288082Y0187877D01*
X0286481Y0187877D01*
X0285947Y0187344D01*
X0285947Y0186810D01*
X0286481Y0186276D01*
X0287548Y0186276D01*
X0288082Y0186810D01*
X0288082Y0187877D01*
X0289630Y0186810D02*
X0290164Y0186276D01*
X0291231Y0186276D01*
X0291765Y0186810D01*
X0289630Y0188945D01*
X0289630Y0186810D01*
X0289630Y0188945D02*
X0290164Y0189479D01*
X0291231Y0189479D01*
X0291765Y0188945D01*
X0291765Y0186810D01*
X0293313Y0186810D02*
X0293847Y0186276D01*
X0294915Y0186276D01*
X0295448Y0186810D01*
X0294381Y0187877D02*
X0293847Y0187877D01*
X0293313Y0187344D01*
X0293313Y0186810D01*
X0293847Y0187877D02*
X0293313Y0188411D01*
X0293313Y0188945D01*
X0293847Y0189479D01*
X0294915Y0189479D01*
X0295448Y0188945D01*
X0296996Y0188945D02*
X0296996Y0186810D01*
X0297530Y0186276D01*
X0298598Y0186276D01*
X0299131Y0186810D01*
X0299131Y0188945D01*
X0298598Y0189479D01*
X0297530Y0189479D01*
X0296996Y0188945D01*
X0298064Y0187344D02*
X0296996Y0186276D01*
X0300869Y0185589D02*
X0303625Y0185589D01*
X0303625Y0188345D01*
X0300869Y0188345D01*
X0300887Y0189037D02*
X0303643Y0189037D01*
X0303643Y0191793D01*
X0300887Y0191793D01*
X0300579Y0192761D02*
X0300579Y0195964D01*
X0301646Y0194896D01*
X0303194Y0194896D02*
X0303728Y0194362D01*
X0303194Y0193829D01*
X0303194Y0193295D01*
X0303728Y0192761D01*
X0304796Y0192761D01*
X0305329Y0193295D01*
X0304262Y0194362D02*
X0303728Y0194362D01*
X0303194Y0194896D02*
X0303194Y0195430D01*
X0303728Y0195964D01*
X0304796Y0195964D01*
X0305329Y0195430D01*
X0306877Y0195430D02*
X0307411Y0195964D01*
X0308479Y0195964D01*
X0309013Y0195430D01*
X0309013Y0193295D01*
X0308479Y0192761D01*
X0307411Y0192761D01*
X0306877Y0193295D01*
X0306399Y0191793D02*
X0303643Y0191793D01*
X0301646Y0192761D02*
X0299511Y0192761D01*
X0297963Y0194362D02*
X0295828Y0194362D01*
X0296362Y0192761D02*
X0296362Y0195964D01*
X0297963Y0194362D01*
X0299529Y0197389D02*
X0301664Y0197389D01*
X0299529Y0199525D01*
X0299529Y0200058D01*
X0300063Y0200592D01*
X0301131Y0200592D01*
X0301664Y0200058D01*
X0303212Y0200058D02*
X0303212Y0199525D01*
X0303746Y0198991D01*
X0303212Y0198457D01*
X0303212Y0197923D01*
X0303746Y0197389D01*
X0304814Y0197389D01*
X0305348Y0197923D01*
X0304280Y0198991D02*
X0303746Y0198991D01*
X0303212Y0200058D02*
X0303746Y0200592D01*
X0304814Y0200592D01*
X0305348Y0200058D01*
X0306896Y0200058D02*
X0306896Y0198991D01*
X0307429Y0198457D01*
X0309031Y0198457D01*
X0309031Y0197389D02*
X0309031Y0200592D01*
X0307429Y0200592D01*
X0306896Y0200058D01*
X0307963Y0198457D02*
X0306896Y0197389D01*
X0313450Y0197464D02*
X0316653Y0197464D01*
X0316653Y0199066D01*
X0316119Y0199599D01*
X0315052Y0199599D01*
X0314518Y0199066D01*
X0314518Y0197464D01*
X0314518Y0198532D02*
X0313450Y0199599D01*
X0313984Y0201147D02*
X0313450Y0201681D01*
X0313450Y0202749D01*
X0313984Y0203282D01*
X0314518Y0203282D01*
X0315052Y0202749D01*
X0315052Y0202215D01*
X0315052Y0202749D02*
X0315586Y0203282D01*
X0316119Y0203282D01*
X0316653Y0202749D01*
X0316653Y0201681D01*
X0316119Y0201147D01*
X0318328Y0201645D02*
X0319395Y0200577D01*
X0319395Y0201111D02*
X0319395Y0199510D01*
X0318328Y0199510D02*
X0321530Y0199510D01*
X0321530Y0201111D01*
X0320997Y0201645D01*
X0319929Y0201645D01*
X0319395Y0201111D01*
X0318861Y0203193D02*
X0318328Y0203727D01*
X0318328Y0204794D01*
X0318861Y0205328D01*
X0319395Y0205328D01*
X0319929Y0204794D01*
X0319929Y0204261D01*
X0319929Y0204794D02*
X0320463Y0205328D01*
X0320997Y0205328D01*
X0321530Y0204794D01*
X0321530Y0203727D01*
X0320997Y0203193D01*
X0323617Y0205274D02*
X0323617Y0205808D01*
X0324151Y0206342D01*
X0325752Y0206342D01*
X0325752Y0205274D01*
X0325218Y0204741D01*
X0324151Y0204741D01*
X0323617Y0205274D01*
X0324685Y0207409D02*
X0325752Y0206342D01*
X0324685Y0207409D02*
X0323617Y0207943D01*
X0321530Y0207410D02*
X0320997Y0206876D01*
X0321530Y0207410D02*
X0321530Y0208477D01*
X0320997Y0209011D01*
X0320463Y0209011D01*
X0318328Y0206876D01*
X0318328Y0209011D01*
X0318861Y0210559D02*
X0318328Y0211093D01*
X0318328Y0212161D01*
X0318861Y0212694D01*
X0319929Y0212694D01*
X0320463Y0212161D01*
X0320463Y0211627D01*
X0319929Y0210559D01*
X0321530Y0210559D01*
X0321530Y0212694D01*
X0319534Y0215105D02*
X0317398Y0215105D01*
X0316865Y0215639D01*
X0316865Y0216706D01*
X0317398Y0217240D01*
X0316865Y0218788D02*
X0319000Y0220923D01*
X0319534Y0220923D01*
X0320067Y0220390D01*
X0320067Y0219322D01*
X0319534Y0218788D01*
X0319534Y0217240D02*
X0320067Y0216706D01*
X0320067Y0215639D01*
X0319534Y0215105D01*
X0315748Y0214252D02*
X0315748Y0217007D01*
X0312992Y0217007D01*
X0312992Y0214252D01*
X0312992Y0217007D02*
X0312992Y0219763D01*
X0315748Y0219763D02*
X0315748Y0217007D01*
X0316865Y0218788D02*
X0316865Y0220923D01*
X0317398Y0222471D02*
X0319534Y0224607D01*
X0317398Y0224607D01*
X0316865Y0224073D01*
X0316865Y0223005D01*
X0317398Y0222471D01*
X0319534Y0222471D01*
X0320067Y0223005D01*
X0320067Y0224073D01*
X0319534Y0224607D01*
X0318466Y0226155D02*
X0318466Y0228290D01*
X0320067Y0227756D02*
X0318466Y0226155D01*
X0316865Y0227756D02*
X0320067Y0227756D01*
X0316653Y0210649D02*
X0316119Y0210649D01*
X0313984Y0208514D01*
X0313450Y0208514D01*
X0313450Y0206966D02*
X0313450Y0204830D01*
X0315586Y0206966D01*
X0316119Y0206966D01*
X0316653Y0206432D01*
X0316653Y0205364D01*
X0316119Y0204830D01*
X0316653Y0208514D02*
X0316653Y0210649D01*
X0307800Y0211751D02*
X0307800Y0209082D01*
X0307266Y0208548D01*
X0306199Y0208548D01*
X0305665Y0209082D01*
X0305665Y0211751D01*
X0304117Y0211217D02*
X0303583Y0211751D01*
X0302515Y0211751D01*
X0301982Y0211217D01*
X0301982Y0210684D01*
X0304117Y0208548D01*
X0301982Y0208548D01*
X0300434Y0209082D02*
X0298299Y0211217D01*
X0298299Y0209082D01*
X0298832Y0208548D01*
X0299900Y0208548D01*
X0300434Y0209082D01*
X0300434Y0211217D01*
X0299900Y0211751D01*
X0298832Y0211751D01*
X0298299Y0211217D01*
X0296751Y0211217D02*
X0296217Y0211751D01*
X0295149Y0211751D01*
X0294615Y0211217D01*
X0294615Y0210684D01*
X0296751Y0208548D01*
X0294615Y0208548D01*
X0292545Y0204760D02*
X0292011Y0204760D01*
X0291477Y0204226D01*
X0290943Y0204760D01*
X0290409Y0204760D01*
X0289876Y0204226D01*
X0289876Y0203158D01*
X0290409Y0202625D01*
X0291477Y0203692D02*
X0291477Y0204226D01*
X0292545Y0204760D02*
X0293078Y0204226D01*
X0293078Y0203158D01*
X0292545Y0202625D01*
X0292545Y0201077D02*
X0290409Y0198941D01*
X0289876Y0199475D01*
X0289876Y0200543D01*
X0290409Y0201077D01*
X0292545Y0201077D01*
X0293078Y0200543D01*
X0293078Y0199475D01*
X0292545Y0198941D01*
X0290409Y0198941D01*
X0290409Y0197393D02*
X0289876Y0196860D01*
X0289876Y0195792D01*
X0290409Y0195258D01*
X0291477Y0196326D02*
X0291477Y0196860D01*
X0290943Y0197393D01*
X0290409Y0197393D01*
X0291477Y0196860D02*
X0292011Y0197393D01*
X0292545Y0197393D01*
X0293078Y0196860D01*
X0293078Y0195792D01*
X0292545Y0195258D01*
X0292545Y0193710D02*
X0291477Y0193710D01*
X0290943Y0193177D01*
X0290943Y0191575D01*
X0289876Y0191575D02*
X0293078Y0191575D01*
X0293078Y0193177D01*
X0292545Y0193710D01*
X0290943Y0192643D02*
X0289876Y0193710D01*
X0296380Y0197389D02*
X0296380Y0200592D01*
X0297981Y0198991D01*
X0295846Y0198991D01*
X0303643Y0189037D02*
X0306399Y0189037D01*
X0306381Y0188345D02*
X0303625Y0188345D01*
X0303625Y0185589D02*
X0306381Y0185589D01*
X0306404Y0182395D02*
X0303648Y0182395D01*
X0303648Y0179639D01*
X0306404Y0179639D01*
X0306473Y0177295D02*
X0303717Y0177295D01*
X0303717Y0174539D01*
X0306473Y0174539D01*
X0303717Y0174539D02*
X0300961Y0174539D01*
X0300961Y0177295D02*
X0303717Y0177295D01*
X0303648Y0179639D02*
X0300892Y0179639D01*
X0300892Y0182395D02*
X0303648Y0182395D01*
X0304319Y0170598D02*
X0303785Y0170064D01*
X0303785Y0168996D01*
X0304319Y0168462D01*
X0305920Y0168462D01*
X0304853Y0168462D02*
X0303785Y0167395D01*
X0304250Y0166249D02*
X0303716Y0165715D01*
X0303716Y0164647D01*
X0304250Y0164114D01*
X0305851Y0164114D01*
X0304784Y0164114D02*
X0303716Y0163046D01*
X0302168Y0163580D02*
X0301634Y0163046D01*
X0300567Y0163046D01*
X0300033Y0163580D01*
X0300033Y0164114D01*
X0300567Y0164647D01*
X0301100Y0164647D01*
X0300567Y0164647D02*
X0300033Y0165181D01*
X0300033Y0165715D01*
X0300567Y0166249D01*
X0301634Y0166249D01*
X0302168Y0165715D01*
X0301704Y0167395D02*
X0302237Y0167929D01*
X0301704Y0167395D02*
X0300636Y0167395D01*
X0300102Y0167929D01*
X0300102Y0168462D01*
X0300636Y0168996D01*
X0301170Y0168996D01*
X0300636Y0168996D02*
X0300102Y0169530D01*
X0300102Y0170064D01*
X0300636Y0170598D01*
X0301704Y0170598D01*
X0302237Y0170064D01*
X0304319Y0170598D02*
X0305920Y0170598D01*
X0305920Y0167395D01*
X0305851Y0166249D02*
X0304250Y0166249D01*
X0305851Y0166249D02*
X0305851Y0163046D01*
X0307175Y0161817D02*
X0307709Y0162351D01*
X0309844Y0162351D01*
X0310378Y0161817D01*
X0310378Y0160749D01*
X0309844Y0160216D01*
X0309310Y0160216D01*
X0308776Y0160749D01*
X0308776Y0162351D01*
X0307175Y0161817D02*
X0307175Y0160749D01*
X0307709Y0160216D01*
X0307175Y0158668D02*
X0307175Y0156533D01*
X0307175Y0157600D02*
X0310378Y0157600D01*
X0309310Y0156533D01*
X0309310Y0154985D02*
X0308776Y0154451D01*
X0308242Y0154985D01*
X0307709Y0154985D01*
X0307175Y0154451D01*
X0307175Y0153383D01*
X0307709Y0152849D01*
X0308776Y0153917D02*
X0308776Y0154451D01*
X0309310Y0154985D02*
X0309844Y0154985D01*
X0310378Y0154451D01*
X0310378Y0153383D01*
X0309844Y0152849D01*
X0309844Y0151301D02*
X0310378Y0150768D01*
X0310378Y0149700D01*
X0309844Y0149166D01*
X0307709Y0149166D01*
X0307175Y0149700D01*
X0307175Y0150768D01*
X0307709Y0151301D01*
X0311911Y0151236D02*
X0312979Y0150168D01*
X0312979Y0150702D02*
X0312979Y0149101D01*
X0311911Y0149101D02*
X0315114Y0149101D01*
X0315114Y0150702D01*
X0314580Y0151236D01*
X0313512Y0151236D01*
X0312979Y0150702D01*
X0312445Y0152784D02*
X0311911Y0153318D01*
X0311911Y0154385D01*
X0312445Y0154919D01*
X0312979Y0154919D01*
X0313512Y0154385D01*
X0313512Y0153852D01*
X0313512Y0154385D02*
X0314046Y0154919D01*
X0314580Y0154919D01*
X0315114Y0154385D01*
X0315114Y0153318D01*
X0314580Y0152784D01*
X0314580Y0156467D02*
X0315114Y0157001D01*
X0315114Y0158069D01*
X0314580Y0158602D01*
X0314046Y0158602D01*
X0313512Y0158069D01*
X0312979Y0158602D01*
X0312445Y0158602D01*
X0311911Y0158069D01*
X0311911Y0157001D01*
X0312445Y0156467D01*
X0313512Y0157535D02*
X0313512Y0158069D01*
X0314046Y0160150D02*
X0315114Y0161218D01*
X0311911Y0161218D01*
X0311911Y0162285D02*
X0311911Y0160150D01*
X0311426Y0164106D02*
X0311426Y0166862D01*
X0314182Y0166862D01*
X0314182Y0169618D01*
X0311426Y0169618D02*
X0311426Y0166862D01*
X0310650Y0166796D02*
X0307894Y0166796D01*
X0307894Y0169552D01*
X0307894Y0166796D02*
X0307894Y0164041D01*
X0310650Y0164041D02*
X0310650Y0166796D01*
X0310650Y0169552D01*
X0314182Y0166862D02*
X0314182Y0164106D01*
X0319208Y0164018D02*
X0319208Y0166774D01*
X0321964Y0166774D01*
X0321964Y0164018D01*
X0321741Y0162358D02*
X0321208Y0162358D01*
X0320674Y0161824D01*
X0320674Y0160757D01*
X0321208Y0160223D01*
X0321741Y0160223D01*
X0322275Y0160757D01*
X0322275Y0161824D01*
X0321741Y0162358D01*
X0320674Y0161824D02*
X0320140Y0162358D01*
X0319606Y0162358D01*
X0319072Y0161824D01*
X0319072Y0160757D01*
X0319606Y0160223D01*
X0320140Y0160223D01*
X0320674Y0160757D01*
X0321208Y0158675D02*
X0319072Y0156540D01*
X0319072Y0158675D01*
X0321208Y0158675D02*
X0321741Y0158675D01*
X0322275Y0158141D01*
X0322275Y0157073D01*
X0321741Y0156540D01*
X0321741Y0154992D02*
X0321208Y0154992D01*
X0320674Y0154458D01*
X0320140Y0154992D01*
X0319606Y0154992D01*
X0319072Y0154458D01*
X0319072Y0153390D01*
X0319606Y0152856D01*
X0320674Y0153924D02*
X0320674Y0154458D01*
X0321741Y0154992D02*
X0322275Y0154458D01*
X0322275Y0153390D01*
X0321741Y0152856D01*
X0321741Y0151308D02*
X0320674Y0151308D01*
X0320140Y0150775D01*
X0320140Y0149173D01*
X0319072Y0149173D02*
X0322275Y0149173D01*
X0322275Y0150775D01*
X0321741Y0151308D01*
X0320140Y0150241D02*
X0319072Y0151308D01*
X0325662Y0158654D02*
X0326730Y0158654D01*
X0327263Y0159188D01*
X0327263Y0160255D02*
X0326196Y0160789D01*
X0325662Y0160789D01*
X0325128Y0160255D01*
X0325128Y0159188D01*
X0325662Y0158654D01*
X0327263Y0160255D02*
X0327263Y0161857D01*
X0325128Y0161857D01*
X0328811Y0161323D02*
X0330947Y0159188D01*
X0330413Y0158654D01*
X0329345Y0158654D01*
X0328811Y0159188D01*
X0328811Y0161323D01*
X0329345Y0161857D01*
X0330413Y0161857D01*
X0330947Y0161323D01*
X0330947Y0159188D01*
X0332495Y0159188D02*
X0333028Y0158654D01*
X0334096Y0158654D01*
X0334630Y0159188D01*
X0333562Y0160255D02*
X0333028Y0160255D01*
X0332495Y0159722D01*
X0332495Y0159188D01*
X0333028Y0160255D02*
X0332495Y0160789D01*
X0332495Y0161323D01*
X0333028Y0161857D01*
X0334096Y0161857D01*
X0334630Y0161323D01*
X0336178Y0161857D02*
X0336178Y0159188D01*
X0336712Y0158654D01*
X0337779Y0158654D01*
X0338313Y0159188D01*
X0338313Y0161857D01*
X0340443Y0162396D02*
X0340443Y0163464D01*
X0340976Y0163997D01*
X0340976Y0165545D02*
X0340443Y0166079D01*
X0340443Y0167147D01*
X0340976Y0167681D01*
X0341510Y0167681D01*
X0342044Y0167147D01*
X0342044Y0166613D01*
X0342044Y0167147D02*
X0342578Y0167681D01*
X0343111Y0167681D01*
X0343645Y0167147D01*
X0343645Y0166079D01*
X0343111Y0165545D01*
X0343111Y0163997D02*
X0343645Y0163464D01*
X0343645Y0162396D01*
X0343111Y0161862D01*
X0340976Y0161862D01*
X0340443Y0162396D01*
X0338216Y0167652D02*
X0338216Y0170407D01*
X0335460Y0170407D01*
X0335460Y0167652D01*
X0335460Y0170407D02*
X0335460Y0173163D01*
X0335807Y0174904D02*
X0339010Y0174904D01*
X0339010Y0176505D01*
X0338476Y0177039D01*
X0337408Y0177039D01*
X0336875Y0176505D01*
X0336875Y0174904D01*
X0336875Y0175971D02*
X0335807Y0177039D01*
X0336341Y0178587D02*
X0335807Y0179120D01*
X0335807Y0180188D01*
X0336341Y0180722D01*
X0336875Y0180722D01*
X0337408Y0180188D01*
X0337408Y0179654D01*
X0337408Y0180188D02*
X0337942Y0180722D01*
X0338476Y0180722D01*
X0339010Y0180188D01*
X0339010Y0179120D01*
X0338476Y0178587D01*
X0340347Y0178210D02*
X0340347Y0179277D01*
X0340881Y0179811D01*
X0340881Y0181359D02*
X0340347Y0181893D01*
X0340347Y0182960D01*
X0340881Y0183494D01*
X0341415Y0183494D01*
X0341949Y0182960D01*
X0341949Y0182427D01*
X0341949Y0182960D02*
X0342482Y0183494D01*
X0343016Y0183494D01*
X0343550Y0182960D01*
X0343550Y0181893D01*
X0343016Y0181359D01*
X0343016Y0179811D02*
X0343550Y0179277D01*
X0343550Y0178210D01*
X0343016Y0177676D01*
X0340881Y0177676D01*
X0340347Y0178210D01*
X0340976Y0175047D02*
X0340443Y0174513D01*
X0340443Y0173446D01*
X0340976Y0172912D01*
X0341510Y0172912D01*
X0342044Y0173446D01*
X0342044Y0174513D01*
X0341510Y0175047D01*
X0340976Y0175047D01*
X0342044Y0174513D02*
X0342578Y0175047D01*
X0343111Y0175047D01*
X0343645Y0174513D01*
X0343645Y0173446D01*
X0343111Y0172912D01*
X0342578Y0172912D01*
X0342044Y0173446D01*
X0340443Y0171364D02*
X0340443Y0169229D01*
X0340443Y0170296D02*
X0343645Y0170296D01*
X0342578Y0169229D01*
X0338216Y0170407D02*
X0338216Y0173163D01*
X0334750Y0180307D02*
X0334750Y0183063D01*
X0331994Y0183063D01*
X0331994Y0185819D01*
X0330998Y0185803D02*
X0330998Y0183047D01*
X0328242Y0183047D01*
X0328242Y0185803D01*
X0328242Y0183047D02*
X0328242Y0180291D01*
X0330998Y0180291D02*
X0330998Y0183047D01*
X0331994Y0183063D02*
X0331994Y0180307D01*
X0334750Y0183063D02*
X0334750Y0185819D01*
X0335807Y0186487D02*
X0335807Y0187554D01*
X0336341Y0188088D01*
X0336875Y0188088D01*
X0337408Y0187554D01*
X0337408Y0185953D01*
X0336341Y0185953D01*
X0335807Y0186487D01*
X0337408Y0185953D02*
X0338476Y0187021D01*
X0339010Y0188088D01*
X0340347Y0187177D02*
X0340347Y0185042D01*
X0340347Y0186110D02*
X0343550Y0186110D01*
X0342482Y0185042D01*
X0339010Y0183871D02*
X0339010Y0182804D01*
X0338476Y0182270D01*
X0339010Y0183871D02*
X0338476Y0184405D01*
X0337942Y0184405D01*
X0335807Y0182270D01*
X0335807Y0184405D01*
X0340347Y0189259D02*
X0340347Y0190327D01*
X0340881Y0190861D01*
X0341415Y0190861D01*
X0341949Y0190327D01*
X0341949Y0188725D01*
X0340881Y0188725D01*
X0340347Y0189259D01*
X0341949Y0188725D02*
X0343016Y0189793D01*
X0343550Y0190861D01*
X0341971Y0192575D02*
X0342504Y0193109D01*
X0342504Y0194177D01*
X0341971Y0194710D01*
X0339835Y0194710D01*
X0339302Y0194177D01*
X0339302Y0193109D01*
X0339835Y0192575D01*
X0341971Y0192575D01*
X0340369Y0193643D02*
X0339302Y0194710D01*
X0339835Y0196258D02*
X0339302Y0196792D01*
X0339302Y0197860D01*
X0339835Y0198393D01*
X0340369Y0198393D01*
X0340903Y0197860D01*
X0340903Y0197326D01*
X0340903Y0197860D02*
X0341437Y0198393D01*
X0341971Y0198393D01*
X0342504Y0197860D01*
X0342504Y0196792D01*
X0341971Y0196258D01*
X0341971Y0199941D02*
X0342504Y0200475D01*
X0342504Y0201543D01*
X0341971Y0202077D01*
X0339835Y0199941D01*
X0339302Y0200475D01*
X0339302Y0201543D01*
X0339835Y0202077D01*
X0341971Y0202077D01*
X0342504Y0203625D02*
X0340903Y0203625D01*
X0341437Y0204692D01*
X0341437Y0205226D01*
X0340903Y0205760D01*
X0339835Y0205760D01*
X0339302Y0205226D01*
X0339302Y0204158D01*
X0339835Y0203625D01*
X0342504Y0203625D02*
X0342504Y0205760D01*
X0336802Y0205274D02*
X0336268Y0204741D01*
X0335200Y0204741D01*
X0334666Y0205274D01*
X0334666Y0207943D01*
X0333118Y0207409D02*
X0332585Y0207943D01*
X0331517Y0207943D01*
X0330983Y0207409D01*
X0330983Y0206876D01*
X0331517Y0206342D01*
X0330983Y0205808D01*
X0330983Y0205274D01*
X0331517Y0204741D01*
X0332585Y0204741D01*
X0333118Y0205274D01*
X0332051Y0206342D02*
X0331517Y0206342D01*
X0329435Y0207409D02*
X0328902Y0207943D01*
X0327834Y0207943D01*
X0327300Y0207409D01*
X0329435Y0205274D01*
X0328902Y0204741D01*
X0327834Y0204741D01*
X0327300Y0205274D01*
X0327300Y0207409D01*
X0329435Y0207409D02*
X0329435Y0205274D01*
X0336802Y0205274D02*
X0336802Y0207943D01*
X0339835Y0199941D02*
X0341971Y0199941D01*
X0353081Y0185935D02*
X0356284Y0185935D01*
X0354682Y0184333D01*
X0354682Y0186468D01*
X0353615Y0182785D02*
X0353081Y0182252D01*
X0353081Y0181184D01*
X0353615Y0180650D01*
X0355750Y0182785D01*
X0353615Y0182785D01*
X0353615Y0180650D02*
X0355750Y0180650D01*
X0356284Y0181184D01*
X0356284Y0182252D01*
X0355750Y0182785D01*
X0355750Y0179102D02*
X0355216Y0179102D01*
X0354682Y0178568D01*
X0354149Y0179102D01*
X0353615Y0179102D01*
X0353081Y0178568D01*
X0353081Y0177501D01*
X0353615Y0176967D01*
X0354682Y0178035D02*
X0354682Y0178568D01*
X0355750Y0179102D02*
X0356284Y0178568D01*
X0356284Y0177501D01*
X0355750Y0176967D01*
X0355750Y0175419D02*
X0353615Y0175419D01*
X0353081Y0174885D01*
X0353081Y0173818D01*
X0353615Y0173284D01*
X0355750Y0173284D01*
X0356284Y0173818D01*
X0356284Y0174885D01*
X0355750Y0175419D01*
X0354149Y0174351D02*
X0353081Y0175419D01*
X0365279Y0168208D02*
X0365813Y0168742D01*
X0366881Y0168742D01*
X0367414Y0168208D01*
X0368962Y0168208D02*
X0369496Y0168742D01*
X0370564Y0168742D01*
X0371097Y0168208D01*
X0372645Y0168208D02*
X0372645Y0167674D01*
X0373179Y0167140D01*
X0372645Y0166607D01*
X0372645Y0166073D01*
X0373179Y0165539D01*
X0374247Y0165539D01*
X0374781Y0166073D01*
X0373713Y0167140D02*
X0373179Y0167140D01*
X0372645Y0168208D02*
X0373179Y0168742D01*
X0374247Y0168742D01*
X0374781Y0168208D01*
X0375130Y0169702D02*
X0375130Y0172458D01*
X0377886Y0172458D01*
X0377955Y0174802D02*
X0375199Y0174802D01*
X0375199Y0177558D01*
X0377955Y0177558D01*
X0375199Y0177558D02*
X0372443Y0177558D01*
X0372443Y0174802D02*
X0375199Y0174802D01*
X0375130Y0172458D02*
X0372374Y0172458D01*
X0372374Y0169702D02*
X0375130Y0169702D01*
X0377886Y0169702D01*
X0378464Y0168742D02*
X0376862Y0168742D01*
X0376329Y0168208D01*
X0376329Y0167140D01*
X0376862Y0166607D01*
X0378464Y0166607D01*
X0377396Y0166607D02*
X0376329Y0165539D01*
X0376932Y0163999D02*
X0376398Y0163465D01*
X0376398Y0162398D01*
X0376932Y0161864D01*
X0378533Y0161864D01*
X0377466Y0161864D02*
X0376398Y0160796D01*
X0374850Y0161330D02*
X0374316Y0160796D01*
X0373249Y0160796D01*
X0372715Y0161330D01*
X0372715Y0161864D01*
X0373249Y0162398D01*
X0373782Y0162398D01*
X0373249Y0162398D02*
X0372715Y0162932D01*
X0372715Y0163465D01*
X0373249Y0163999D01*
X0374316Y0163999D01*
X0374850Y0163465D01*
X0376932Y0163999D02*
X0378533Y0163999D01*
X0378533Y0160796D01*
X0379916Y0162035D02*
X0382672Y0162035D01*
X0382672Y0164791D01*
X0383531Y0164799D02*
X0383531Y0162043D01*
X0386287Y0162043D01*
X0386287Y0164799D01*
X0386287Y0162043D02*
X0386287Y0159287D01*
X0386035Y0157262D02*
X0385501Y0156728D01*
X0384968Y0157262D01*
X0384434Y0157262D01*
X0383900Y0156728D01*
X0383900Y0155660D01*
X0384434Y0155127D01*
X0385501Y0156194D02*
X0385501Y0156728D01*
X0386035Y0157262D02*
X0386569Y0157262D01*
X0387103Y0156728D01*
X0387103Y0155660D01*
X0386569Y0155127D01*
X0386569Y0153579D02*
X0387103Y0153045D01*
X0387103Y0151977D01*
X0386569Y0151444D01*
X0386569Y0149896D02*
X0386035Y0149896D01*
X0385501Y0149362D01*
X0384968Y0149896D01*
X0384434Y0149896D01*
X0383900Y0149362D01*
X0383900Y0148294D01*
X0384434Y0147760D01*
X0385501Y0148828D02*
X0385501Y0149362D01*
X0386569Y0149896D02*
X0387103Y0149362D01*
X0387103Y0148294D01*
X0386569Y0147760D01*
X0386569Y0146212D02*
X0385501Y0146212D01*
X0384968Y0145679D01*
X0384968Y0144077D01*
X0384968Y0145145D02*
X0383900Y0146212D01*
X0382451Y0145686D02*
X0382451Y0144619D01*
X0381917Y0144085D01*
X0379782Y0144085D01*
X0379248Y0144619D01*
X0379248Y0145686D01*
X0379782Y0146220D01*
X0379782Y0147768D02*
X0379248Y0148302D01*
X0379248Y0149370D01*
X0379782Y0149903D01*
X0380316Y0149903D01*
X0380849Y0149370D01*
X0380849Y0148836D01*
X0380849Y0149370D02*
X0381383Y0149903D01*
X0381917Y0149903D01*
X0382451Y0149370D01*
X0382451Y0148302D01*
X0381917Y0147768D01*
X0381917Y0146220D02*
X0382451Y0145686D01*
X0383900Y0144077D02*
X0387103Y0144077D01*
X0387103Y0145679D01*
X0386569Y0146212D01*
X0383900Y0151444D02*
X0386035Y0153579D01*
X0386569Y0153579D01*
X0383900Y0153579D02*
X0383900Y0151444D01*
X0382451Y0152519D02*
X0379248Y0152519D01*
X0379248Y0151451D02*
X0379248Y0153587D01*
X0379782Y0155135D02*
X0379248Y0155668D01*
X0379248Y0156736D01*
X0379782Y0157270D01*
X0380316Y0157270D01*
X0380849Y0156736D01*
X0380849Y0156202D01*
X0380849Y0156736D02*
X0381383Y0157270D01*
X0381917Y0157270D01*
X0382451Y0156736D01*
X0382451Y0155668D01*
X0381917Y0155135D01*
X0382451Y0152519D02*
X0381383Y0151451D01*
X0382672Y0159279D02*
X0382672Y0162035D01*
X0383531Y0162043D02*
X0383531Y0159287D01*
X0379916Y0159279D02*
X0379916Y0162035D01*
X0379916Y0164791D01*
X0378464Y0165539D02*
X0378464Y0168742D01*
X0371097Y0165539D02*
X0368962Y0167674D01*
X0368962Y0168208D01*
X0368962Y0165539D02*
X0371097Y0165539D01*
X0370633Y0163999D02*
X0371167Y0163465D01*
X0370633Y0163999D02*
X0369565Y0163999D01*
X0369032Y0163465D01*
X0369032Y0162932D01*
X0371167Y0160796D01*
X0369032Y0160796D01*
X0367484Y0160796D02*
X0365348Y0160796D01*
X0366416Y0160796D02*
X0366416Y0163999D01*
X0367484Y0162932D01*
X0367414Y0165539D02*
X0365279Y0167674D01*
X0365279Y0168208D01*
X0365279Y0165539D02*
X0367414Y0165539D01*
X0371924Y0186026D02*
X0374680Y0186026D01*
X0374680Y0188782D01*
X0371924Y0188782D01*
X0371920Y0189942D02*
X0374676Y0189942D01*
X0374676Y0192698D01*
X0371920Y0192698D01*
X0372027Y0193592D02*
X0373095Y0193592D01*
X0373629Y0194126D01*
X0372561Y0195193D02*
X0372027Y0195193D01*
X0371494Y0194659D01*
X0371494Y0194126D01*
X0372027Y0193592D01*
X0372027Y0195193D02*
X0371494Y0195727D01*
X0371494Y0196261D01*
X0372027Y0196794D01*
X0373095Y0196794D01*
X0373629Y0196261D01*
X0375177Y0196261D02*
X0375710Y0196794D01*
X0376778Y0196794D01*
X0377312Y0196261D01*
X0377312Y0194126D01*
X0376778Y0193592D01*
X0375710Y0193592D01*
X0375177Y0194126D01*
X0374676Y0192698D02*
X0377432Y0192698D01*
X0378789Y0193637D02*
X0378789Y0191502D01*
X0380924Y0193637D01*
X0381458Y0193637D01*
X0381992Y0193103D01*
X0381992Y0192036D01*
X0381458Y0191502D01*
X0381458Y0189954D02*
X0380924Y0189954D01*
X0380390Y0189420D01*
X0379857Y0189954D01*
X0379323Y0189954D01*
X0378789Y0189420D01*
X0378789Y0188353D01*
X0379323Y0187819D01*
X0380390Y0188887D02*
X0380390Y0189420D01*
X0381458Y0189954D02*
X0381992Y0189420D01*
X0381992Y0188353D01*
X0381458Y0187819D01*
X0381458Y0186271D02*
X0380390Y0186271D01*
X0379857Y0185737D01*
X0379857Y0184136D01*
X0379857Y0185203D02*
X0378789Y0186271D01*
X0377436Y0186026D02*
X0374680Y0186026D01*
X0374680Y0188782D02*
X0377436Y0188782D01*
X0377432Y0189942D02*
X0374676Y0189942D01*
X0369946Y0194126D02*
X0367810Y0196261D01*
X0367810Y0194126D01*
X0368344Y0193592D01*
X0369412Y0193592D01*
X0369946Y0194126D01*
X0369946Y0196261D01*
X0369412Y0196794D01*
X0368344Y0196794D01*
X0367810Y0196261D01*
X0366262Y0196261D02*
X0366262Y0195727D01*
X0365729Y0195193D01*
X0364127Y0195193D01*
X0364127Y0194126D02*
X0364127Y0196261D01*
X0364661Y0196794D01*
X0365729Y0196794D01*
X0366262Y0196261D01*
X0365725Y0198295D02*
X0366258Y0198829D01*
X0365725Y0198295D02*
X0364657Y0198295D01*
X0364123Y0198829D01*
X0364123Y0199362D01*
X0364657Y0199896D01*
X0365191Y0199896D01*
X0364657Y0199896D02*
X0364123Y0200430D01*
X0364123Y0200964D01*
X0364657Y0201498D01*
X0365725Y0201498D01*
X0366258Y0200964D01*
X0368874Y0201498D02*
X0368874Y0198295D01*
X0369942Y0198295D02*
X0367806Y0198295D01*
X0369942Y0200430D02*
X0368874Y0201498D01*
X0371490Y0200964D02*
X0371490Y0200430D01*
X0372023Y0199896D01*
X0371490Y0199362D01*
X0371490Y0198829D01*
X0372023Y0198295D01*
X0373091Y0198295D01*
X0373625Y0198829D01*
X0372557Y0199896D02*
X0372023Y0199896D01*
X0371490Y0200964D02*
X0372023Y0201498D01*
X0373091Y0201498D01*
X0373625Y0200964D01*
X0375173Y0200964D02*
X0375173Y0199896D01*
X0375707Y0199362D01*
X0377308Y0199362D01*
X0377308Y0198295D02*
X0377308Y0201498D01*
X0375707Y0201498D01*
X0375173Y0200964D01*
X0376240Y0199362D02*
X0375173Y0198295D01*
X0378789Y0196787D02*
X0378789Y0195719D01*
X0379323Y0195185D01*
X0381458Y0197320D01*
X0379323Y0197320D01*
X0378789Y0196787D01*
X0379323Y0195185D02*
X0381458Y0195185D01*
X0381992Y0195719D01*
X0381992Y0196787D01*
X0381458Y0197320D01*
X0383041Y0197081D02*
X0383041Y0196013D01*
X0383575Y0195480D01*
X0384642Y0196547D02*
X0384642Y0197081D01*
X0384109Y0197615D01*
X0383575Y0197615D01*
X0383041Y0197081D01*
X0384642Y0197081D02*
X0385176Y0197615D01*
X0385710Y0197615D01*
X0386244Y0197081D01*
X0386244Y0196013D01*
X0385710Y0195480D01*
X0385710Y0193932D02*
X0384642Y0193932D01*
X0384109Y0193398D01*
X0384109Y0191796D01*
X0384109Y0192864D02*
X0383041Y0193932D01*
X0383041Y0191796D02*
X0386244Y0191796D01*
X0386244Y0193398D01*
X0385710Y0193932D01*
X0386107Y0190496D02*
X0386107Y0187741D01*
X0388863Y0187741D01*
X0388863Y0184985D01*
X0390123Y0187167D02*
X0390123Y0189922D01*
X0392879Y0189922D01*
X0392879Y0187167D01*
X0392879Y0189922D02*
X0392879Y0192678D01*
X0390123Y0192678D02*
X0390123Y0189922D01*
X0388863Y0190496D02*
X0388863Y0187741D01*
X0386107Y0187741D02*
X0386107Y0184985D01*
X0381992Y0185737D02*
X0381458Y0186271D01*
X0381992Y0185737D02*
X0381992Y0184136D01*
X0378789Y0184136D01*
X0383041Y0199163D02*
X0383041Y0201298D01*
X0383041Y0200230D02*
X0386244Y0200230D01*
X0385176Y0199163D01*
X0384642Y0202846D02*
X0384642Y0204447D01*
X0384109Y0204981D01*
X0383575Y0204981D01*
X0383041Y0204447D01*
X0383041Y0203380D01*
X0383575Y0202846D01*
X0384642Y0202846D01*
X0385710Y0203913D01*
X0386244Y0204981D01*
X0387240Y0205235D02*
X0389996Y0205235D01*
X0389996Y0202479D01*
X0392752Y0202479D01*
X0391060Y0201164D02*
X0392662Y0199562D01*
X0390526Y0199562D01*
X0391060Y0197961D02*
X0391060Y0201164D01*
X0389996Y0202479D02*
X0387240Y0202479D01*
X0389996Y0205235D02*
X0392752Y0205235D01*
X0391782Y0206677D02*
X0391782Y0208278D01*
X0392316Y0208812D01*
X0393383Y0208812D01*
X0393917Y0208278D01*
X0393917Y0206677D01*
X0390714Y0206677D01*
X0391782Y0207744D02*
X0390714Y0208812D01*
X0390714Y0210360D02*
X0390714Y0212495D01*
X0390714Y0211427D02*
X0393917Y0211427D01*
X0392849Y0210360D01*
X0395469Y0210345D02*
X0395469Y0212480D01*
X0395469Y0211413D02*
X0398672Y0211413D01*
X0397604Y0210345D01*
X0397071Y0208797D02*
X0396537Y0208263D01*
X0396537Y0206662D01*
X0396537Y0207729D02*
X0395469Y0208797D01*
X0397071Y0208797D02*
X0398138Y0208797D01*
X0398672Y0208263D01*
X0398672Y0206662D01*
X0395469Y0206662D01*
X0395811Y0201164D02*
X0394743Y0201164D01*
X0394210Y0200630D01*
X0396345Y0198495D01*
X0395811Y0197961D01*
X0394743Y0197961D01*
X0394210Y0198495D01*
X0394210Y0200630D01*
X0395811Y0201164D02*
X0396345Y0200630D01*
X0396345Y0198495D01*
X0397893Y0198495D02*
X0398427Y0197961D01*
X0399494Y0197961D01*
X0400028Y0198495D01*
X0398960Y0199562D02*
X0398427Y0199562D01*
X0397893Y0199029D01*
X0397893Y0198495D01*
X0398427Y0199562D02*
X0397893Y0200096D01*
X0397893Y0200630D01*
X0398427Y0201164D01*
X0399494Y0201164D01*
X0400028Y0200630D01*
X0401576Y0201164D02*
X0401576Y0198495D01*
X0402110Y0197961D01*
X0403177Y0197961D01*
X0403711Y0198495D01*
X0403711Y0201164D01*
X0407238Y0201858D02*
X0407238Y0202392D01*
X0407772Y0202926D01*
X0408840Y0202926D01*
X0409373Y0202392D01*
X0410921Y0202392D02*
X0410921Y0201858D01*
X0411455Y0201325D01*
X0410921Y0200791D01*
X0410921Y0200257D01*
X0411455Y0199723D01*
X0412523Y0199723D01*
X0413057Y0200257D01*
X0411989Y0201325D02*
X0411455Y0201325D01*
X0410921Y0202392D02*
X0411455Y0202926D01*
X0412523Y0202926D01*
X0413057Y0202392D01*
X0415672Y0202926D02*
X0415672Y0199723D01*
X0414605Y0199723D02*
X0416740Y0199723D01*
X0418288Y0199723D02*
X0419355Y0200791D01*
X0418821Y0200791D02*
X0420423Y0200791D01*
X0420423Y0199723D02*
X0420423Y0202926D01*
X0418821Y0202926D01*
X0418288Y0202392D01*
X0418288Y0201325D01*
X0418821Y0200791D01*
X0416740Y0201858D02*
X0415672Y0202926D01*
X0415002Y0198476D02*
X0414468Y0198476D01*
X0413934Y0197943D01*
X0413401Y0198476D01*
X0412867Y0198476D01*
X0412333Y0197943D01*
X0412333Y0196875D01*
X0412867Y0196341D01*
X0413934Y0197409D02*
X0413934Y0197943D01*
X0415002Y0198476D02*
X0415536Y0197943D01*
X0415536Y0196875D01*
X0415002Y0196341D01*
X0415002Y0194793D02*
X0412867Y0192658D01*
X0412333Y0193192D01*
X0412333Y0194259D01*
X0412867Y0194793D01*
X0415002Y0194793D01*
X0415536Y0194259D01*
X0415536Y0193192D01*
X0415002Y0192658D01*
X0412867Y0192658D01*
X0412867Y0191110D02*
X0412333Y0190576D01*
X0412333Y0189509D01*
X0412867Y0188975D01*
X0413934Y0190042D02*
X0413934Y0190576D01*
X0413401Y0191110D01*
X0412867Y0191110D01*
X0413934Y0190576D02*
X0414468Y0191110D01*
X0415002Y0191110D01*
X0415536Y0190576D01*
X0415536Y0189509D01*
X0415002Y0188975D01*
X0415002Y0187427D02*
X0412867Y0187427D01*
X0412333Y0186893D01*
X0412333Y0185826D01*
X0412867Y0185292D01*
X0415002Y0185292D01*
X0415536Y0185826D01*
X0415536Y0186893D01*
X0415002Y0187427D01*
X0413401Y0186359D02*
X0412333Y0187427D01*
X0412890Y0182893D02*
X0412356Y0182359D01*
X0412356Y0181291D01*
X0412890Y0180758D01*
X0415025Y0182893D01*
X0412890Y0182893D01*
X0410793Y0182809D02*
X0410259Y0183343D01*
X0409726Y0183343D01*
X0409192Y0182809D01*
X0409192Y0181742D01*
X0409726Y0181208D01*
X0410259Y0181208D01*
X0410793Y0181742D01*
X0410793Y0182809D01*
X0409192Y0182809D02*
X0408658Y0183343D01*
X0408124Y0183343D01*
X0407591Y0182809D01*
X0407591Y0181742D01*
X0408124Y0181208D01*
X0408658Y0181208D01*
X0409192Y0181742D01*
X0407591Y0179660D02*
X0407591Y0177525D01*
X0407591Y0178593D02*
X0410793Y0178593D01*
X0409726Y0177525D01*
X0409726Y0175977D02*
X0409192Y0175443D01*
X0408658Y0175977D01*
X0408124Y0175977D01*
X0407591Y0175443D01*
X0407591Y0174376D01*
X0408124Y0173842D01*
X0409192Y0174909D02*
X0409192Y0175443D01*
X0409726Y0175977D02*
X0410259Y0175977D01*
X0410793Y0175443D01*
X0410793Y0174376D01*
X0410259Y0173842D01*
X0410259Y0172294D02*
X0409192Y0172294D01*
X0408658Y0171760D01*
X0408658Y0170159D01*
X0408658Y0171226D02*
X0407591Y0172294D01*
X0407591Y0170159D02*
X0410793Y0170159D01*
X0410793Y0171760D01*
X0410259Y0172294D01*
X0412356Y0171310D02*
X0412890Y0171843D01*
X0412356Y0171310D02*
X0412356Y0170242D01*
X0412890Y0169708D01*
X0415025Y0169708D01*
X0415559Y0170242D01*
X0415559Y0171310D01*
X0415025Y0171843D01*
X0415025Y0173391D02*
X0415559Y0173925D01*
X0415559Y0174993D01*
X0415025Y0175527D01*
X0414491Y0175527D01*
X0413957Y0174993D01*
X0413423Y0175527D01*
X0412890Y0175527D01*
X0412356Y0174993D01*
X0412356Y0173925D01*
X0412890Y0173391D01*
X0413957Y0174459D02*
X0413957Y0174993D01*
X0414491Y0177075D02*
X0415559Y0178142D01*
X0412356Y0178142D01*
X0412356Y0177075D02*
X0412356Y0179210D01*
X0412890Y0180758D02*
X0415025Y0180758D01*
X0415559Y0181291D01*
X0415559Y0182359D01*
X0415025Y0182893D01*
X0405972Y0180607D02*
X0405972Y0177852D01*
X0403216Y0177852D01*
X0403216Y0180607D01*
X0402387Y0180664D02*
X0402387Y0177908D01*
X0399631Y0177908D01*
X0399631Y0180664D01*
X0399631Y0177908D02*
X0399631Y0175152D01*
X0402387Y0175152D02*
X0402387Y0177908D01*
X0403216Y0177852D02*
X0403216Y0175096D01*
X0405972Y0175096D02*
X0405972Y0177852D01*
X0407839Y0167531D02*
X0407839Y0164775D01*
X0410594Y0164775D01*
X0410594Y0162019D01*
X0412034Y0161628D02*
X0412034Y0163763D01*
X0412034Y0162695D02*
X0415237Y0162695D01*
X0414169Y0161628D01*
X0414169Y0160080D02*
X0413635Y0159546D01*
X0413101Y0160080D01*
X0412568Y0160080D01*
X0412034Y0159546D01*
X0412034Y0158478D01*
X0412568Y0157945D01*
X0413635Y0159012D02*
X0413635Y0159546D01*
X0414169Y0160080D02*
X0414703Y0160080D01*
X0415237Y0159546D01*
X0415237Y0158478D01*
X0414703Y0157945D01*
X0414703Y0156397D02*
X0415237Y0155863D01*
X0415237Y0154795D01*
X0414703Y0154262D01*
X0412568Y0154262D01*
X0412034Y0154795D01*
X0412034Y0155863D01*
X0412568Y0156397D01*
X0409368Y0156447D02*
X0409368Y0153778D01*
X0408834Y0153244D01*
X0407766Y0153244D01*
X0407233Y0153778D01*
X0407233Y0156447D01*
X0405685Y0155913D02*
X0405151Y0156447D01*
X0404083Y0156447D01*
X0403549Y0155913D01*
X0403549Y0155380D01*
X0404083Y0154846D01*
X0403549Y0154312D01*
X0403549Y0153778D01*
X0404083Y0153244D01*
X0405151Y0153244D01*
X0405685Y0153778D01*
X0404617Y0154846D02*
X0404083Y0154846D01*
X0402001Y0155913D02*
X0401468Y0156447D01*
X0400400Y0156447D01*
X0399866Y0155913D01*
X0402001Y0153778D01*
X0401468Y0153244D01*
X0400400Y0153244D01*
X0399866Y0153778D01*
X0399866Y0155913D01*
X0398318Y0155913D02*
X0397784Y0156447D01*
X0396717Y0156447D01*
X0396183Y0155913D01*
X0396183Y0155380D01*
X0396717Y0154846D01*
X0396183Y0154312D01*
X0396183Y0153778D01*
X0396717Y0153244D01*
X0397784Y0153244D01*
X0398318Y0153778D01*
X0397251Y0154846D02*
X0396717Y0154846D01*
X0402001Y0153778D02*
X0402001Y0155913D01*
X0407839Y0162019D02*
X0407839Y0164775D01*
X0410594Y0164775D02*
X0410594Y0167531D01*
X0412034Y0167446D02*
X0412034Y0165311D01*
X0414169Y0167446D01*
X0414703Y0167446D01*
X0415237Y0166912D01*
X0415237Y0165845D01*
X0414703Y0165311D01*
X0421917Y0165383D02*
X0421917Y0167518D01*
X0421917Y0166450D02*
X0425119Y0166450D01*
X0424052Y0165383D01*
X0424585Y0163835D02*
X0423518Y0163835D01*
X0422984Y0163301D01*
X0422984Y0161700D01*
X0422984Y0162767D02*
X0421917Y0163835D01*
X0421917Y0161700D02*
X0425119Y0161700D01*
X0425119Y0163301D01*
X0424585Y0163835D01*
X0427735Y0162657D02*
X0427735Y0175256D01*
X0433838Y0175256D01*
X0433838Y0162657D01*
X0427735Y0162657D01*
X0428017Y0161597D02*
X0430772Y0161597D01*
X0430772Y0158841D01*
X0428017Y0158841D01*
X0427980Y0157798D02*
X0427446Y0157265D01*
X0429581Y0155129D01*
X0429047Y0154596D01*
X0427980Y0154596D01*
X0427446Y0155129D01*
X0427446Y0157265D01*
X0427980Y0157798D02*
X0429047Y0157798D01*
X0429581Y0157265D01*
X0429581Y0155129D01*
X0431129Y0154596D02*
X0433264Y0154596D01*
X0432197Y0154596D02*
X0432197Y0157798D01*
X0433264Y0156731D01*
X0434812Y0157265D02*
X0434812Y0156197D01*
X0435346Y0155663D01*
X0436947Y0155663D01*
X0435880Y0155663D02*
X0434812Y0154596D01*
X0436947Y0154596D02*
X0436947Y0157798D01*
X0435346Y0157798D01*
X0434812Y0157265D01*
X0433528Y0158841D02*
X0430772Y0158841D01*
X0430772Y0161597D02*
X0433528Y0161597D01*
X0425898Y0156197D02*
X0423763Y0156197D01*
X0424296Y0154596D02*
X0424296Y0157798D01*
X0425898Y0156197D01*
X0424585Y0169066D02*
X0422450Y0169066D01*
X0424585Y0171201D01*
X0422450Y0171201D01*
X0421917Y0170667D01*
X0421917Y0169600D01*
X0422450Y0169066D01*
X0424585Y0169066D02*
X0425119Y0169600D01*
X0425119Y0170667D01*
X0424585Y0171201D01*
X0424585Y0172749D02*
X0425119Y0173283D01*
X0425119Y0174350D01*
X0424585Y0174884D01*
X0424052Y0174884D01*
X0423518Y0174350D01*
X0422984Y0174884D01*
X0422450Y0174884D01*
X0421917Y0174350D01*
X0421917Y0173283D01*
X0422450Y0172749D01*
X0423518Y0173817D02*
X0423518Y0174350D01*
X0451957Y0178002D02*
X0455160Y0178002D01*
X0455160Y0179604D01*
X0454626Y0180138D01*
X0453559Y0180138D01*
X0453025Y0179604D01*
X0453025Y0178002D01*
X0453025Y0179070D02*
X0451957Y0180138D01*
X0451957Y0181686D02*
X0451957Y0183821D01*
X0451957Y0182753D02*
X0455160Y0182753D01*
X0454093Y0181686D01*
X0454626Y0185369D02*
X0455160Y0185903D01*
X0455160Y0186970D01*
X0454626Y0187504D01*
X0454093Y0187504D01*
X0453559Y0186970D01*
X0453025Y0187504D01*
X0452491Y0187504D01*
X0451957Y0186970D01*
X0451957Y0185903D01*
X0452491Y0185369D01*
X0453559Y0186436D02*
X0453559Y0186970D01*
X0453559Y0189052D02*
X0453559Y0190653D01*
X0453025Y0191187D01*
X0452491Y0191187D01*
X0451957Y0190653D01*
X0451957Y0189586D01*
X0452491Y0189052D01*
X0453559Y0189052D01*
X0454626Y0190119D01*
X0455160Y0191187D01*
X0454476Y0193955D02*
X0452341Y0193955D01*
X0451807Y0194489D01*
X0451807Y0195556D01*
X0452341Y0196090D01*
X0451807Y0197638D02*
X0451807Y0199773D01*
X0451807Y0198705D02*
X0455010Y0198705D01*
X0453942Y0197638D01*
X0454476Y0196090D02*
X0455010Y0195556D01*
X0455010Y0194489D01*
X0454476Y0193955D01*
X0458415Y0193437D02*
X0458415Y0196193D01*
X0461171Y0196193D01*
X0461171Y0198948D01*
X0462533Y0197930D02*
X0462533Y0186119D01*
X0461148Y0186548D02*
X0461148Y0189304D01*
X0458392Y0189304D01*
X0458392Y0186548D01*
X0458392Y0189304D02*
X0458392Y0192059D01*
X0461148Y0192059D02*
X0461148Y0189304D01*
X0463320Y0192615D02*
X0467651Y0192615D01*
X0465486Y0190449D01*
X0463320Y0192615D01*
X0461171Y0193437D02*
X0461171Y0196193D01*
X0458415Y0196193D02*
X0458415Y0198948D01*
X0455010Y0202389D02*
X0451807Y0202389D01*
X0451807Y0203456D02*
X0451807Y0201321D01*
X0453942Y0201321D02*
X0455010Y0202389D01*
X0455010Y0205004D02*
X0455010Y0207139D01*
X0454476Y0207139D01*
X0452341Y0205004D01*
X0451807Y0205004D01*
X0450914Y0219007D02*
X0450380Y0219540D01*
X0450380Y0220608D01*
X0450914Y0221142D01*
X0450380Y0222690D02*
X0450380Y0224825D01*
X0450380Y0223757D02*
X0453583Y0223757D01*
X0452515Y0222690D01*
X0453049Y0221142D02*
X0453583Y0220608D01*
X0453583Y0219540D01*
X0453049Y0219007D01*
X0450914Y0219007D01*
X0449161Y0223342D02*
X0449161Y0226098D01*
X0446406Y0226098D01*
X0446406Y0223342D01*
X0445582Y0223291D02*
X0445582Y0226047D01*
X0442826Y0226047D01*
X0442826Y0228803D01*
X0441783Y0228192D02*
X0441783Y0227125D01*
X0441249Y0226591D01*
X0440715Y0226591D01*
X0440182Y0227125D01*
X0440182Y0228726D01*
X0441249Y0228726D02*
X0441783Y0228192D01*
X0441249Y0228726D02*
X0439114Y0228726D01*
X0438580Y0228192D01*
X0438580Y0227125D01*
X0439114Y0226591D01*
X0439114Y0225043D02*
X0438580Y0224509D01*
X0438580Y0223441D01*
X0439114Y0222908D01*
X0440182Y0223975D02*
X0440182Y0224509D01*
X0439648Y0225043D01*
X0439114Y0225043D01*
X0440182Y0224509D02*
X0440715Y0225043D01*
X0441249Y0225043D01*
X0441783Y0224509D01*
X0441783Y0223441D01*
X0441249Y0222908D01*
X0442826Y0223291D02*
X0442826Y0226047D01*
X0445582Y0226047D02*
X0445582Y0228803D01*
X0446406Y0228854D02*
X0446406Y0226098D01*
X0449161Y0226098D02*
X0449161Y0228854D01*
X0450380Y0227974D02*
X0450380Y0226907D01*
X0450914Y0226373D01*
X0453049Y0228508D01*
X0450914Y0228508D01*
X0450380Y0227974D01*
X0450914Y0226373D02*
X0453049Y0226373D01*
X0453583Y0226907D01*
X0453583Y0227974D01*
X0453049Y0228508D01*
X0453049Y0230056D02*
X0453583Y0230590D01*
X0453583Y0231657D01*
X0453049Y0232191D01*
X0452515Y0232191D01*
X0450380Y0230056D01*
X0450380Y0232191D01*
X0445588Y0233062D02*
X0445588Y0230306D01*
X0442832Y0230306D02*
X0442832Y0233062D01*
X0445588Y0233062D01*
X0445588Y0235818D01*
X0442832Y0235818D02*
X0442832Y0233062D01*
X0432701Y0232121D02*
X0431100Y0230519D01*
X0431100Y0232655D01*
X0432701Y0232121D02*
X0429498Y0232121D01*
X0427596Y0231282D02*
X0427062Y0231816D01*
X0425994Y0231816D01*
X0425460Y0231282D01*
X0425460Y0229680D01*
X0424393Y0229680D02*
X0427596Y0229680D01*
X0427596Y0231282D01*
X0425460Y0230748D02*
X0424393Y0231816D01*
X0424393Y0233364D02*
X0424393Y0235499D01*
X0424393Y0234431D02*
X0427596Y0234431D01*
X0426528Y0233364D01*
X0429498Y0234736D02*
X0430032Y0234203D01*
X0432167Y0236338D01*
X0430032Y0236338D01*
X0429498Y0235804D01*
X0429498Y0234736D01*
X0430032Y0234203D02*
X0432167Y0234203D01*
X0432701Y0234736D01*
X0432701Y0235804D01*
X0432167Y0236338D01*
X0431100Y0237886D02*
X0431100Y0240021D01*
X0432701Y0239487D02*
X0429498Y0239487D01*
X0431100Y0237886D02*
X0432701Y0239487D01*
X0432815Y0241882D02*
X0432815Y0244638D01*
X0430059Y0244638D01*
X0430059Y0247394D01*
X0430059Y0244638D02*
X0430059Y0241882D01*
X0427596Y0242331D02*
X0427062Y0242865D01*
X0426528Y0242865D01*
X0425994Y0242331D01*
X0425994Y0241264D01*
X0426528Y0240730D01*
X0427062Y0240730D01*
X0427596Y0241264D01*
X0427596Y0242331D01*
X0425994Y0242331D02*
X0425460Y0242865D01*
X0424927Y0242865D01*
X0424393Y0242331D01*
X0424393Y0241264D01*
X0424927Y0240730D01*
X0425460Y0240730D01*
X0425994Y0241264D01*
X0424393Y0239182D02*
X0424393Y0237047D01*
X0424393Y0238114D02*
X0427596Y0238114D01*
X0426528Y0237047D01*
X0422821Y0238129D02*
X0419618Y0238129D01*
X0419618Y0237062D02*
X0419618Y0239197D01*
X0419618Y0240745D02*
X0420152Y0240745D01*
X0422287Y0242880D01*
X0422821Y0242880D01*
X0422821Y0240745D01*
X0422821Y0238129D02*
X0421753Y0237062D01*
X0419618Y0235514D02*
X0419618Y0233379D01*
X0419618Y0234446D02*
X0422821Y0234446D01*
X0421753Y0233379D01*
X0421219Y0231831D02*
X0420686Y0231297D01*
X0420686Y0229695D01*
X0419618Y0229695D02*
X0422821Y0229695D01*
X0422821Y0231297D01*
X0422287Y0231831D01*
X0421219Y0231831D01*
X0420686Y0230763D02*
X0419618Y0231831D01*
X0419396Y0226746D02*
X0418862Y0226213D01*
X0418862Y0225145D01*
X0419396Y0224611D01*
X0420998Y0224611D01*
X0420998Y0223544D02*
X0420998Y0226746D01*
X0419396Y0226746D01*
X0419930Y0224611D02*
X0418862Y0223544D01*
X0417314Y0223544D02*
X0415179Y0223544D01*
X0416247Y0223544D02*
X0416247Y0226746D01*
X0417314Y0225679D01*
X0413631Y0226213D02*
X0413098Y0226746D01*
X0412030Y0226746D01*
X0411496Y0226213D01*
X0411496Y0225679D01*
X0413631Y0223544D01*
X0411496Y0223544D01*
X0409948Y0223544D02*
X0407813Y0225679D01*
X0407813Y0226213D01*
X0408347Y0226746D01*
X0409414Y0226746D01*
X0409948Y0226213D01*
X0409948Y0223544D02*
X0407813Y0223544D01*
X0403241Y0223168D02*
X0402707Y0222634D01*
X0403241Y0223168D02*
X0403241Y0224236D01*
X0402707Y0224770D01*
X0402173Y0224770D01*
X0400038Y0222634D01*
X0400038Y0224770D01*
X0400038Y0226318D02*
X0400572Y0226318D01*
X0402707Y0228453D01*
X0403241Y0228453D01*
X0403241Y0226318D01*
X0400038Y0221086D02*
X0400038Y0218951D01*
X0400038Y0220019D02*
X0403241Y0220019D01*
X0402173Y0218951D01*
X0402707Y0217403D02*
X0401639Y0217403D01*
X0401105Y0216869D01*
X0401105Y0215268D01*
X0400038Y0215268D02*
X0403241Y0215268D01*
X0403241Y0216869D01*
X0402707Y0217403D01*
X0401105Y0216336D02*
X0400038Y0217403D01*
X0398672Y0218245D02*
X0398672Y0219313D01*
X0398138Y0219846D01*
X0397604Y0219846D01*
X0397071Y0219313D01*
X0396537Y0219846D01*
X0396003Y0219846D01*
X0395469Y0219313D01*
X0395469Y0218245D01*
X0396003Y0217711D01*
X0397071Y0218779D02*
X0397071Y0219313D01*
X0398138Y0217711D02*
X0398672Y0218245D01*
X0398138Y0216163D02*
X0397604Y0216163D01*
X0397071Y0215629D01*
X0396537Y0216163D01*
X0396003Y0216163D01*
X0395469Y0215629D01*
X0395469Y0214562D01*
X0396003Y0214028D01*
X0397071Y0215096D02*
X0397071Y0215629D01*
X0398138Y0216163D02*
X0398672Y0215629D01*
X0398672Y0214562D01*
X0398138Y0214028D01*
X0400954Y0210869D02*
X0400954Y0208113D01*
X0403709Y0208113D01*
X0403709Y0205357D01*
X0404860Y0205372D02*
X0404860Y0208128D01*
X0407616Y0208128D01*
X0407616Y0205372D01*
X0408713Y0205689D02*
X0421311Y0205689D01*
X0421311Y0211791D01*
X0408713Y0211791D01*
X0408713Y0205689D01*
X0407616Y0208128D02*
X0407616Y0210884D01*
X0407433Y0211994D02*
X0407433Y0214750D01*
X0404677Y0214750D01*
X0404677Y0217506D01*
X0404677Y0214750D02*
X0404677Y0211994D01*
X0404860Y0210884D02*
X0404860Y0208128D01*
X0403709Y0208113D02*
X0403709Y0210869D01*
X0400954Y0208113D02*
X0400954Y0205357D01*
X0407238Y0201858D02*
X0409373Y0199723D01*
X0407238Y0199723D01*
X0409799Y0214372D02*
X0412555Y0214372D01*
X0412555Y0217128D01*
X0415311Y0217128D01*
X0414555Y0218372D02*
X0414555Y0221128D01*
X0417311Y0221128D01*
X0414555Y0221128D02*
X0411799Y0221128D01*
X0411799Y0218372D02*
X0414555Y0218372D01*
X0417311Y0218372D01*
X0416799Y0217128D02*
X0419555Y0217128D01*
X0419555Y0214372D01*
X0422311Y0214372D01*
X0423971Y0213843D02*
X0426106Y0213843D01*
X0425038Y0213843D02*
X0425038Y0217046D01*
X0426106Y0215978D01*
X0427654Y0215978D02*
X0427654Y0216512D01*
X0428188Y0217046D01*
X0429255Y0217046D01*
X0429789Y0216512D01*
X0430016Y0218567D02*
X0427880Y0218567D01*
X0428948Y0218567D02*
X0428948Y0221770D01*
X0430016Y0220702D01*
X0431564Y0221236D02*
X0431564Y0220169D01*
X0432097Y0219635D01*
X0433699Y0219635D01*
X0433699Y0218567D02*
X0433699Y0221770D01*
X0432097Y0221770D01*
X0431564Y0221236D01*
X0432631Y0219635D02*
X0431564Y0218567D01*
X0432405Y0217046D02*
X0432405Y0213843D01*
X0433472Y0213843D02*
X0431337Y0213843D01*
X0429789Y0213843D02*
X0427654Y0215978D01*
X0427654Y0213843D02*
X0429789Y0213843D01*
X0432405Y0217046D02*
X0433472Y0215978D01*
X0435020Y0215444D02*
X0435554Y0214910D01*
X0437155Y0214910D01*
X0437155Y0213843D02*
X0437155Y0217046D01*
X0435554Y0217046D01*
X0435020Y0216512D01*
X0435020Y0215444D01*
X0436088Y0214910D02*
X0435020Y0213843D01*
X0438580Y0215541D02*
X0441783Y0215541D01*
X0441783Y0217143D01*
X0441249Y0217676D01*
X0440182Y0217676D01*
X0439648Y0217143D01*
X0439648Y0215541D01*
X0439648Y0216609D02*
X0438580Y0217676D01*
X0438580Y0219224D02*
X0438580Y0221360D01*
X0438580Y0220292D02*
X0441783Y0220292D01*
X0440715Y0219224D01*
X0432701Y0226836D02*
X0432701Y0228438D01*
X0432167Y0228971D01*
X0431100Y0228971D01*
X0430566Y0228438D01*
X0430566Y0226836D01*
X0429498Y0226836D02*
X0432701Y0226836D01*
X0430566Y0227904D02*
X0429498Y0228971D01*
X0425799Y0221770D02*
X0426332Y0221236D01*
X0425799Y0221770D02*
X0424731Y0221770D01*
X0424197Y0221236D01*
X0424197Y0220702D01*
X0426332Y0218567D01*
X0424197Y0218567D01*
X0422649Y0219101D02*
X0422116Y0218567D01*
X0421048Y0218567D01*
X0420514Y0219101D01*
X0420514Y0219635D01*
X0421048Y0220169D01*
X0422649Y0220169D01*
X0422649Y0219101D01*
X0422649Y0220169D02*
X0421582Y0221236D01*
X0420514Y0221770D01*
X0419555Y0217128D02*
X0422311Y0217128D01*
X0419555Y0214372D02*
X0416799Y0214372D01*
X0415311Y0214372D02*
X0412555Y0214372D01*
X0412555Y0217128D02*
X0409799Y0217128D01*
X0407433Y0217506D02*
X0407433Y0214750D01*
X0393917Y0214577D02*
X0393917Y0215644D01*
X0393383Y0216178D01*
X0392849Y0216178D01*
X0392316Y0215644D01*
X0391782Y0216178D01*
X0391248Y0216178D01*
X0390714Y0215644D01*
X0390714Y0214577D01*
X0391248Y0214043D01*
X0392316Y0215111D02*
X0392316Y0215644D01*
X0393383Y0214043D02*
X0393917Y0214577D01*
X0393917Y0217726D02*
X0392316Y0217726D01*
X0392849Y0218794D01*
X0392849Y0219328D01*
X0392316Y0219861D01*
X0391248Y0219861D01*
X0390714Y0219328D01*
X0390714Y0218260D01*
X0391248Y0217726D01*
X0393917Y0217726D02*
X0393917Y0219861D01*
X0388864Y0209568D02*
X0387262Y0209568D01*
X0386729Y0209035D01*
X0386729Y0207967D01*
X0387262Y0207433D01*
X0388864Y0207433D01*
X0388864Y0206366D02*
X0388864Y0209568D01*
X0387796Y0207433D02*
X0386729Y0206366D01*
X0385181Y0206366D02*
X0383045Y0206366D01*
X0384113Y0206366D02*
X0384113Y0209568D01*
X0385181Y0208501D01*
X0381497Y0209035D02*
X0380964Y0209568D01*
X0379896Y0209568D01*
X0379362Y0209035D01*
X0379362Y0208501D01*
X0379896Y0207967D01*
X0379362Y0207433D01*
X0379362Y0206900D01*
X0379896Y0206366D01*
X0380964Y0206366D01*
X0381497Y0206900D01*
X0380430Y0207967D02*
X0379896Y0207967D01*
X0377814Y0206900D02*
X0377814Y0206366D01*
X0377814Y0206900D02*
X0375679Y0209035D01*
X0375679Y0209568D01*
X0377814Y0209568D01*
X0366262Y0194126D02*
X0365729Y0193592D01*
X0364661Y0193592D01*
X0364127Y0194126D01*
X0377167Y0229902D02*
X0379302Y0229902D01*
X0378234Y0229902D02*
X0378234Y0233105D01*
X0379302Y0232037D01*
X0380850Y0229902D02*
X0382985Y0229902D01*
X0381917Y0229902D02*
X0381917Y0233105D01*
X0382985Y0232037D01*
X0384533Y0229902D02*
X0386668Y0229902D01*
X0385600Y0229902D02*
X0385600Y0233105D01*
X0386668Y0232037D01*
X0388216Y0231503D02*
X0388750Y0230970D01*
X0390351Y0230970D01*
X0389284Y0230970D02*
X0388216Y0229902D01*
X0388216Y0231503D02*
X0388216Y0232571D01*
X0388750Y0233105D01*
X0390351Y0233105D01*
X0390351Y0229902D01*
X0390476Y0234541D02*
X0387720Y0234541D01*
X0387720Y0237297D01*
X0384964Y0237297D01*
X0385047Y0238302D02*
X0387803Y0238302D01*
X0387803Y0241058D01*
X0385047Y0241058D01*
X0384897Y0242324D02*
X0384897Y0245527D01*
X0385964Y0244459D01*
X0387512Y0243925D02*
X0388046Y0243392D01*
X0389647Y0243392D01*
X0388580Y0243392D02*
X0387512Y0242324D01*
X0387803Y0241058D02*
X0390559Y0241058D01*
X0389647Y0242324D02*
X0389647Y0245527D01*
X0388046Y0245527D01*
X0387512Y0244993D01*
X0387512Y0243925D01*
X0385964Y0242324D02*
X0383829Y0242324D01*
X0382281Y0242324D02*
X0380146Y0244459D01*
X0380146Y0244993D01*
X0380680Y0245527D01*
X0381747Y0245527D01*
X0382281Y0244993D01*
X0382281Y0242324D02*
X0380146Y0242324D01*
X0378598Y0242858D02*
X0378064Y0242324D01*
X0376996Y0242324D01*
X0376463Y0242858D01*
X0376463Y0243392D01*
X0376996Y0243925D01*
X0377530Y0243925D01*
X0376996Y0243925D02*
X0376463Y0244459D01*
X0376463Y0244993D01*
X0376996Y0245527D01*
X0378064Y0245527D01*
X0378598Y0244993D01*
X0387803Y0238302D02*
X0390559Y0238302D01*
X0390476Y0237297D02*
X0387720Y0237297D01*
X0387720Y0234541D02*
X0384964Y0234541D01*
X0391222Y0242623D02*
X0393171Y0240675D01*
X0395119Y0242623D01*
X0397068Y0240675D01*
X0398652Y0240856D02*
X0398652Y0241611D01*
X0398652Y0240856D02*
X0399407Y0240101D01*
X0400162Y0240101D01*
X0401672Y0241611D01*
X0401672Y0242366D01*
X0400917Y0243121D01*
X0400162Y0243121D01*
X0398690Y0243838D02*
X0398690Y0245348D01*
X0396425Y0243083D01*
X0397180Y0242328D02*
X0395670Y0243838D01*
X0395119Y0242623D02*
X0393171Y0244572D01*
X0394198Y0245310D02*
X0394953Y0245310D01*
X0394953Y0248330D01*
X0393443Y0246820D01*
X0393443Y0246065D01*
X0394198Y0245310D01*
X0394953Y0245310D02*
X0396463Y0246820D01*
X0396463Y0247575D01*
X0395708Y0248330D01*
X0394953Y0248330D01*
X0393481Y0249047D02*
X0393481Y0250556D01*
X0391216Y0248292D01*
X0391971Y0247537D02*
X0390461Y0249047D01*
X0393171Y0240675D02*
X0395119Y0238726D01*
X0405079Y0252852D02*
X0408281Y0252852D01*
X0408281Y0254454D01*
X0407748Y0254988D01*
X0406680Y0254988D01*
X0406146Y0254454D01*
X0406146Y0252852D01*
X0406146Y0253920D02*
X0405079Y0254988D01*
X0405079Y0256536D02*
X0405079Y0258671D01*
X0405079Y0257603D02*
X0408281Y0257603D01*
X0407214Y0256536D01*
X0403813Y0256665D02*
X0403813Y0259421D01*
X0401057Y0259421D01*
X0401057Y0262177D01*
X0403813Y0262177D02*
X0403813Y0259421D01*
X0405079Y0260219D02*
X0407214Y0262354D01*
X0407748Y0262354D01*
X0408281Y0261820D01*
X0408281Y0260752D01*
X0407748Y0260219D01*
X0405079Y0260219D02*
X0405079Y0262354D01*
X0405613Y0263902D02*
X0405079Y0264436D01*
X0405079Y0265503D01*
X0405613Y0266037D01*
X0407748Y0266037D01*
X0408281Y0265503D01*
X0408281Y0264436D01*
X0407748Y0263902D01*
X0407214Y0263902D01*
X0406680Y0264436D01*
X0406680Y0266037D01*
X0407274Y0270732D02*
X0407274Y0273935D01*
X0405672Y0273935D01*
X0405138Y0273401D01*
X0405138Y0272333D01*
X0405672Y0271799D01*
X0407274Y0271799D01*
X0406206Y0271799D02*
X0405138Y0270732D01*
X0403590Y0270732D02*
X0401455Y0270732D01*
X0402523Y0270732D02*
X0402523Y0273935D01*
X0403590Y0272867D01*
X0403725Y0275487D02*
X0401590Y0275487D01*
X0402657Y0275487D02*
X0402657Y0278690D01*
X0403725Y0277622D01*
X0405273Y0277088D02*
X0405807Y0276555D01*
X0407408Y0276555D01*
X0406341Y0276555D02*
X0405273Y0275487D01*
X0405273Y0277088D02*
X0405273Y0278156D01*
X0405807Y0278690D01*
X0407408Y0278690D01*
X0407408Y0275487D01*
X0412448Y0280202D02*
X0414083Y0278829D01*
X0413820Y0281837D01*
X0414163Y0282246D01*
X0414915Y0282312D01*
X0415733Y0281626D01*
X0415799Y0280874D01*
X0416985Y0279879D02*
X0417248Y0276871D01*
X0416496Y0276805D01*
X0415678Y0277491D01*
X0415612Y0278243D01*
X0416985Y0279879D01*
X0417737Y0279945D01*
X0418554Y0279258D01*
X0418620Y0278506D01*
X0417248Y0276871D01*
X0418090Y0275467D02*
X0419726Y0274094D01*
X0418908Y0274781D02*
X0420967Y0277234D01*
X0421098Y0275730D01*
X0421941Y0274326D02*
X0422007Y0273574D01*
X0423234Y0272545D01*
X0422416Y0273231D02*
X0420912Y0273099D01*
X0421941Y0274326D02*
X0422627Y0275144D01*
X0423379Y0275210D01*
X0424606Y0274180D01*
X0422547Y0271727D01*
X0427079Y0276655D02*
X0417429Y0284753D01*
X0421351Y0289428D01*
X0431002Y0281329D01*
X0427079Y0276655D01*
X0429710Y0274689D02*
X0431346Y0273317D01*
X0430528Y0274003D02*
X0432587Y0276456D01*
X0432718Y0274952D01*
X0434247Y0274366D02*
X0434510Y0271358D01*
X0433758Y0271292D01*
X0432941Y0271979D01*
X0432875Y0272731D01*
X0434247Y0274366D01*
X0434999Y0274432D01*
X0435817Y0273746D01*
X0435883Y0272994D01*
X0434510Y0271358D01*
X0435353Y0269954D02*
X0436989Y0268582D01*
X0436171Y0269268D02*
X0438230Y0271721D01*
X0438361Y0270217D01*
X0439204Y0268813D02*
X0439270Y0268061D01*
X0440496Y0267032D01*
X0439810Y0266214D02*
X0441869Y0268668D01*
X0440642Y0269697D01*
X0439890Y0269631D01*
X0439204Y0268813D01*
X0439679Y0267718D02*
X0438175Y0267587D01*
X0435721Y0275557D02*
X0433610Y0277328D01*
X0435382Y0279439D01*
X0433271Y0281211D01*
X0435382Y0279439D02*
X0437493Y0277668D01*
X0433610Y0277328D02*
X0431499Y0279100D01*
X0413070Y0294597D02*
X0412318Y0294531D01*
X0413070Y0294597D02*
X0413757Y0295415D01*
X0413691Y0296167D01*
X0412055Y0297539D01*
X0411303Y0297473D01*
X0410617Y0296656D01*
X0410683Y0295904D01*
X0410097Y0294375D02*
X0408593Y0294243D01*
X0411046Y0292184D01*
X0410360Y0291367D02*
X0411732Y0293002D01*
X0409365Y0290181D02*
X0407992Y0288545D01*
X0408679Y0289363D02*
X0406225Y0291422D01*
X0407729Y0291553D01*
X0406690Y0294493D02*
X0408461Y0296604D01*
X0406350Y0298376D01*
X0408121Y0300487D01*
X0406350Y0298376D02*
X0404578Y0296265D01*
X0408461Y0296604D02*
X0410233Y0298716D01*
X0404953Y0289075D02*
X0405362Y0288732D01*
X0405427Y0287980D01*
X0404741Y0287162D01*
X0404807Y0286410D01*
X0405216Y0286067D01*
X0405968Y0286133D01*
X0406654Y0286950D01*
X0406588Y0287702D01*
X0406180Y0288045D01*
X0405427Y0287980D01*
X0404741Y0287162D02*
X0403989Y0287096D01*
X0403580Y0287439D01*
X0403515Y0288191D01*
X0404201Y0289009D01*
X0404953Y0289075D01*
X0399508Y0278690D02*
X0398441Y0278690D01*
X0397907Y0278156D01*
X0400042Y0276021D01*
X0399508Y0275487D01*
X0398441Y0275487D01*
X0397907Y0276021D01*
X0397907Y0278156D01*
X0396359Y0278156D02*
X0396359Y0277622D01*
X0395825Y0277088D01*
X0394757Y0277088D01*
X0394224Y0276555D01*
X0394224Y0276021D01*
X0394757Y0275487D01*
X0395825Y0275487D01*
X0396359Y0276021D01*
X0396359Y0276555D01*
X0395825Y0277088D01*
X0394757Y0277088D02*
X0394224Y0277622D01*
X0394224Y0278156D01*
X0394757Y0278690D01*
X0395825Y0278690D01*
X0396359Y0278156D01*
X0399508Y0278690D02*
X0400042Y0278156D01*
X0400042Y0276021D01*
X0399373Y0273935D02*
X0398306Y0273935D01*
X0397772Y0273401D01*
X0399907Y0271266D01*
X0399373Y0270732D01*
X0398306Y0270732D01*
X0397772Y0271266D01*
X0397772Y0273401D01*
X0396224Y0273401D02*
X0396224Y0272867D01*
X0395690Y0272333D01*
X0394089Y0272333D01*
X0394089Y0271266D02*
X0394089Y0273401D01*
X0394623Y0273935D01*
X0395690Y0273935D01*
X0396224Y0273401D01*
X0396224Y0271266D02*
X0395690Y0270732D01*
X0394623Y0270732D01*
X0394089Y0271266D01*
X0392461Y0271357D02*
X0389705Y0271357D01*
X0389705Y0274113D01*
X0386949Y0274113D01*
X0386814Y0275657D02*
X0389570Y0275657D01*
X0389570Y0278413D01*
X0386814Y0278413D01*
X0386568Y0279701D02*
X0386034Y0280235D01*
X0386034Y0281303D01*
X0386568Y0281836D01*
X0386568Y0283384D02*
X0386034Y0283918D01*
X0386034Y0284986D01*
X0386568Y0285519D01*
X0387635Y0285519D01*
X0388169Y0284986D01*
X0388169Y0284452D01*
X0387635Y0283384D01*
X0389237Y0283384D01*
X0389237Y0285519D01*
X0388703Y0287067D02*
X0389237Y0287601D01*
X0389237Y0288669D01*
X0388703Y0289203D01*
X0386568Y0287067D01*
X0386034Y0287601D01*
X0386034Y0288669D01*
X0386568Y0289203D01*
X0388703Y0289203D01*
X0388169Y0290751D02*
X0389237Y0291818D01*
X0386034Y0291818D01*
X0386034Y0290751D02*
X0386034Y0292886D01*
X0384512Y0292352D02*
X0384512Y0291284D01*
X0383978Y0290751D01*
X0383978Y0289203D02*
X0381843Y0287067D01*
X0381309Y0287601D01*
X0381309Y0288669D01*
X0381843Y0289203D01*
X0383978Y0289203D01*
X0384512Y0288669D01*
X0384512Y0287601D01*
X0383978Y0287067D01*
X0381843Y0287067D01*
X0381843Y0285519D02*
X0381309Y0284986D01*
X0381309Y0283918D01*
X0381843Y0283384D01*
X0382911Y0283384D02*
X0383445Y0284452D01*
X0383445Y0284986D01*
X0382911Y0285519D01*
X0381843Y0285519D01*
X0380043Y0284301D02*
X0380043Y0281545D01*
X0377287Y0281545D01*
X0377287Y0284301D01*
X0376106Y0284301D02*
X0376106Y0281545D01*
X0373350Y0281545D01*
X0373350Y0284301D01*
X0373547Y0285679D02*
X0376303Y0285679D01*
X0376303Y0288435D01*
X0379059Y0288435D01*
X0378795Y0289701D02*
X0377727Y0289701D01*
X0377193Y0290235D01*
X0375645Y0290235D02*
X0375111Y0289701D01*
X0374044Y0289701D01*
X0373510Y0290235D01*
X0373510Y0291303D01*
X0374044Y0291836D01*
X0374578Y0291836D01*
X0375645Y0291303D01*
X0375645Y0292904D01*
X0373510Y0292904D01*
X0371962Y0292370D02*
X0371428Y0292904D01*
X0370361Y0292904D01*
X0369827Y0292370D01*
X0371962Y0290235D01*
X0371428Y0289701D01*
X0370361Y0289701D01*
X0369827Y0290235D01*
X0369827Y0292370D01*
X0368279Y0291303D02*
X0366144Y0291303D01*
X0366678Y0292904D02*
X0368279Y0291303D01*
X0366678Y0289701D02*
X0366678Y0292904D01*
X0366288Y0294937D02*
X0367356Y0294937D01*
X0367889Y0295471D01*
X0367889Y0296539D02*
X0366822Y0297073D01*
X0366288Y0297073D01*
X0365754Y0296539D01*
X0365754Y0295471D01*
X0366288Y0294937D01*
X0364206Y0295471D02*
X0362071Y0297606D01*
X0362071Y0295471D01*
X0362605Y0294937D01*
X0363672Y0294937D01*
X0364206Y0295471D01*
X0364206Y0297606D01*
X0363672Y0298140D01*
X0362605Y0298140D01*
X0362071Y0297606D01*
X0360523Y0297073D02*
X0359455Y0298140D01*
X0359455Y0294937D01*
X0358388Y0294937D02*
X0360523Y0294937D01*
X0365754Y0298140D02*
X0367889Y0298140D01*
X0367889Y0296539D01*
X0369437Y0295471D02*
X0369437Y0298140D01*
X0371572Y0298140D02*
X0371572Y0295471D01*
X0371039Y0294937D01*
X0369971Y0294937D01*
X0369437Y0295471D01*
X0371962Y0292370D02*
X0371962Y0290235D01*
X0373547Y0288435D02*
X0376303Y0288435D01*
X0376303Y0285679D02*
X0379059Y0285679D01*
X0378795Y0289701D02*
X0379328Y0290235D01*
X0379328Y0292370D01*
X0378795Y0292904D01*
X0377727Y0292904D01*
X0377193Y0292370D01*
X0381309Y0292886D02*
X0381309Y0290751D01*
X0383445Y0292886D01*
X0383978Y0292886D01*
X0384512Y0292352D01*
X0386568Y0287067D02*
X0388703Y0287067D01*
X0384512Y0285519D02*
X0384512Y0283384D01*
X0382911Y0283384D01*
X0383978Y0281836D02*
X0384512Y0281303D01*
X0384512Y0280235D01*
X0383978Y0279701D01*
X0381843Y0279701D01*
X0381309Y0280235D01*
X0381309Y0281303D01*
X0381843Y0281836D01*
X0380043Y0281545D02*
X0380043Y0278789D01*
X0377287Y0278789D02*
X0377287Y0281545D01*
X0376106Y0281545D02*
X0376106Y0278789D01*
X0373350Y0278789D02*
X0373350Y0281545D01*
X0371185Y0284695D02*
X0371185Y0287844D01*
X0369807Y0287844D01*
X0371185Y0277608D02*
X0371185Y0274459D01*
X0369807Y0274459D01*
X0373108Y0275372D02*
X0375864Y0275372D01*
X0375864Y0272616D01*
X0378620Y0272616D01*
X0378840Y0270928D02*
X0378840Y0269326D01*
X0377773Y0269860D01*
X0377239Y0269860D01*
X0376705Y0269326D01*
X0376705Y0268259D01*
X0377239Y0267725D01*
X0378307Y0267725D01*
X0378840Y0268259D01*
X0380388Y0268259D02*
X0380922Y0267725D01*
X0381990Y0267725D01*
X0382524Y0268259D01*
X0382524Y0270394D01*
X0381990Y0270928D01*
X0380922Y0270928D01*
X0380388Y0270394D01*
X0378840Y0270928D02*
X0376705Y0270928D01*
X0375157Y0270394D02*
X0375157Y0268259D01*
X0373022Y0270394D01*
X0373022Y0268259D01*
X0373556Y0267725D01*
X0374624Y0267725D01*
X0375157Y0268259D01*
X0375157Y0270394D02*
X0374624Y0270928D01*
X0373556Y0270928D01*
X0373022Y0270394D01*
X0371474Y0270394D02*
X0370940Y0270928D01*
X0369873Y0270928D01*
X0369339Y0270394D01*
X0369339Y0269860D01*
X0369873Y0269326D01*
X0369339Y0268792D01*
X0369339Y0268259D01*
X0369873Y0267725D01*
X0370940Y0267725D01*
X0371474Y0268259D01*
X0370407Y0269326D02*
X0369873Y0269326D01*
X0373108Y0272616D02*
X0375864Y0272616D01*
X0375864Y0275372D02*
X0378620Y0275372D01*
X0386568Y0279701D02*
X0388703Y0279701D01*
X0389237Y0280235D01*
X0389237Y0281303D01*
X0388703Y0281836D01*
X0389570Y0278413D02*
X0392326Y0278413D01*
X0392326Y0275657D02*
X0389570Y0275657D01*
X0389705Y0274113D02*
X0392461Y0274113D01*
X0389705Y0271357D02*
X0386949Y0271357D01*
X0399373Y0273935D02*
X0399907Y0273401D01*
X0399907Y0271266D01*
X0401057Y0259421D02*
X0401057Y0256665D01*
X0420541Y0250839D02*
X0420541Y0248083D01*
X0423297Y0248083D01*
X0423297Y0245327D01*
X0424135Y0245312D02*
X0424135Y0248068D01*
X0426891Y0248068D01*
X0426891Y0245312D01*
X0426891Y0248068D02*
X0426891Y0250824D01*
X0424135Y0250824D02*
X0424135Y0248068D01*
X0423297Y0248083D02*
X0423297Y0250839D01*
X0420541Y0248083D02*
X0420541Y0245327D01*
X0432815Y0244638D02*
X0432815Y0247394D01*
X0469686Y0199336D02*
X0469686Y0197201D01*
X0471821Y0199336D01*
X0472355Y0199336D01*
X0472889Y0198802D01*
X0472889Y0197735D01*
X0472355Y0197201D01*
X0472355Y0195653D02*
X0470220Y0193518D01*
X0469686Y0194052D01*
X0469686Y0195119D01*
X0470220Y0195653D01*
X0472355Y0195653D01*
X0472889Y0195119D01*
X0472889Y0194052D01*
X0472355Y0193518D01*
X0470220Y0193518D01*
X0469686Y0191970D02*
X0469686Y0189835D01*
X0469686Y0190902D02*
X0472889Y0190902D01*
X0471821Y0189835D01*
X0472355Y0188287D02*
X0472889Y0187753D01*
X0472889Y0186152D01*
X0469686Y0186152D01*
X0469686Y0187753D01*
X0470220Y0188287D01*
X0472355Y0188287D01*
X0468439Y0186119D02*
X0468439Y0197930D01*
X0574797Y0209187D02*
X0574797Y0210255D01*
X0575331Y0210788D01*
X0574797Y0209187D02*
X0575331Y0208653D01*
X0577466Y0208653D01*
X0578000Y0209187D01*
X0578000Y0210255D01*
X0577466Y0210788D01*
X0576398Y0212336D02*
X0576398Y0214471D01*
X0574797Y0213938D02*
X0578000Y0213938D01*
X0576398Y0212336D01*
X0579531Y0213990D02*
X0582733Y0213990D01*
X0581132Y0212388D01*
X0581132Y0214523D01*
X0580064Y0216071D02*
X0582200Y0218207D01*
X0580064Y0218207D01*
X0579531Y0217673D01*
X0579531Y0216605D01*
X0580064Y0216071D01*
X0582200Y0216071D01*
X0582733Y0216605D01*
X0582733Y0217673D01*
X0582200Y0218207D01*
X0582733Y0219755D02*
X0581132Y0219755D01*
X0581666Y0220822D01*
X0581666Y0221356D01*
X0581132Y0221890D01*
X0580064Y0221890D01*
X0579531Y0221356D01*
X0579531Y0220288D01*
X0580064Y0219755D01*
X0578000Y0220236D02*
X0578000Y0221304D01*
X0577466Y0221838D01*
X0576932Y0221838D01*
X0576398Y0221304D01*
X0575864Y0221838D01*
X0575331Y0221838D01*
X0574797Y0221304D01*
X0574797Y0220236D01*
X0575331Y0219703D01*
X0576398Y0220770D02*
X0576398Y0221304D01*
X0577466Y0219703D02*
X0578000Y0220236D01*
X0577466Y0218155D02*
X0578000Y0217621D01*
X0578000Y0216553D01*
X0577466Y0216019D01*
X0575331Y0216019D01*
X0577466Y0218155D01*
X0575331Y0218155D01*
X0574797Y0217621D01*
X0574797Y0216553D01*
X0575331Y0216019D01*
X0580064Y0210840D02*
X0582733Y0210840D01*
X0584250Y0210895D02*
X0585318Y0209828D01*
X0585318Y0210362D02*
X0585318Y0208760D01*
X0584250Y0208760D02*
X0587453Y0208760D01*
X0587453Y0210362D01*
X0586919Y0210895D01*
X0585852Y0210895D01*
X0585318Y0210362D01*
X0585852Y0212443D02*
X0585852Y0214579D01*
X0587453Y0214045D02*
X0585852Y0212443D01*
X0587453Y0214045D02*
X0584250Y0214045D01*
X0584784Y0216127D02*
X0584250Y0216660D01*
X0584250Y0217728D01*
X0584784Y0218262D01*
X0586919Y0218262D01*
X0584784Y0216127D01*
X0586919Y0216127D01*
X0587453Y0216660D01*
X0587453Y0217728D01*
X0586919Y0218262D01*
X0587453Y0219810D02*
X0585852Y0219810D01*
X0586386Y0220877D01*
X0586386Y0221411D01*
X0585852Y0221945D01*
X0584784Y0221945D01*
X0584250Y0221411D01*
X0584250Y0220343D01*
X0584784Y0219810D01*
X0582733Y0219755D02*
X0582733Y0221890D01*
X0587453Y0221945D02*
X0587453Y0219810D01*
X0590493Y0217554D02*
X0590493Y0214798D01*
X0593249Y0214798D01*
X0593249Y0212042D01*
X0593249Y0214798D02*
X0593249Y0217554D01*
X0596142Y0219512D02*
X0598277Y0219512D01*
X0596142Y0221647D01*
X0596142Y0222181D01*
X0596676Y0222715D01*
X0597743Y0222715D01*
X0598277Y0222181D01*
X0599825Y0222181D02*
X0601960Y0220046D01*
X0601426Y0219512D01*
X0600359Y0219512D01*
X0599825Y0220046D01*
X0599825Y0222181D01*
X0600359Y0222715D01*
X0601426Y0222715D01*
X0601960Y0222181D01*
X0601960Y0220046D01*
X0603508Y0221114D02*
X0605643Y0221114D01*
X0604042Y0222715D01*
X0604042Y0219512D01*
X0607031Y0219512D02*
X0608099Y0219512D01*
X0607565Y0219512D02*
X0607565Y0222715D01*
X0608099Y0222715D02*
X0607031Y0222715D01*
X0609647Y0222181D02*
X0609647Y0221114D01*
X0610181Y0220580D01*
X0611782Y0220580D01*
X0611782Y0219512D02*
X0611782Y0222715D01*
X0610181Y0222715D01*
X0609647Y0222181D01*
X0610961Y0216659D02*
X0610961Y0213904D01*
X0608205Y0213904D01*
X0608205Y0211148D01*
X0608205Y0213904D02*
X0608205Y0216659D01*
X0610961Y0213904D02*
X0610961Y0211148D01*
X0615621Y0209726D02*
X0615621Y0221537D01*
X0631369Y0221537D01*
X0631369Y0209726D01*
X0615621Y0209726D01*
X0619558Y0212482D02*
X0621920Y0214844D01*
X0621920Y0216419D01*
X0619558Y0218781D01*
X0621920Y0218781D02*
X0621920Y0216419D01*
X0621920Y0214844D02*
X0621920Y0212482D01*
X0620346Y0212482D02*
X0619558Y0212482D01*
X0619558Y0213270D01*
X0623495Y0214057D02*
X0625070Y0214057D01*
X0625070Y0212482D01*
X0625070Y0214057D02*
X0626645Y0214057D01*
X0625070Y0216419D01*
X0625070Y0218781D01*
X0625070Y0216419D02*
X0623495Y0214057D01*
X0623495Y0216419D02*
X0625070Y0216419D01*
X0626645Y0216419D01*
X0590493Y0214798D02*
X0590493Y0212042D01*
X0582733Y0208705D02*
X0580064Y0208705D01*
X0579531Y0209239D01*
X0579531Y0210306D01*
X0580064Y0210840D01*
X0398009Y0307423D02*
X0397322Y0306605D01*
X0396570Y0306539D01*
X0395984Y0305010D02*
X0394612Y0303374D01*
X0395298Y0304192D02*
X0392845Y0306251D01*
X0394349Y0306382D01*
X0394935Y0307911D02*
X0394869Y0308663D01*
X0395555Y0309481D01*
X0396307Y0309547D01*
X0397943Y0308175D01*
X0398009Y0307423D01*
X0394878Y0311511D02*
X0393107Y0309400D01*
X0390996Y0311171D01*
X0392767Y0313282D01*
X0390996Y0311171D02*
X0389224Y0309060D01*
X0391335Y0307289D02*
X0393107Y0309400D01*
X0391981Y0303561D02*
X0390477Y0303429D01*
X0392931Y0301371D01*
X0393617Y0302189D02*
X0392244Y0300553D01*
X0390840Y0299710D02*
X0390906Y0298958D01*
X0390220Y0298140D01*
X0389468Y0298075D01*
X0387832Y0299447D01*
X0387767Y0300199D01*
X0388453Y0301017D01*
X0389205Y0301083D01*
X0389614Y0300740D01*
X0389679Y0299988D01*
X0388650Y0298761D01*
X0359177Y0287844D02*
X0357799Y0287844D01*
X0357799Y0284695D01*
X0354250Y0285241D02*
X0351494Y0285241D01*
X0351494Y0282485D01*
X0350070Y0283485D02*
X0350070Y0285087D01*
X0349536Y0285621D01*
X0348468Y0285621D01*
X0347934Y0285087D01*
X0347934Y0283485D01*
X0346867Y0283485D02*
X0350070Y0283485D01*
X0351494Y0285241D02*
X0351494Y0287997D01*
X0350070Y0287169D02*
X0348468Y0287169D01*
X0349002Y0288236D01*
X0349002Y0288770D01*
X0348468Y0289304D01*
X0347401Y0289304D01*
X0346867Y0288770D01*
X0346867Y0287702D01*
X0347401Y0287169D01*
X0346867Y0285621D02*
X0347934Y0284553D01*
X0350070Y0287169D02*
X0350070Y0289304D01*
X0349536Y0290852D02*
X0350070Y0291386D01*
X0350070Y0292453D01*
X0349536Y0292987D01*
X0347401Y0290852D01*
X0346867Y0291386D01*
X0346867Y0292453D01*
X0347401Y0292987D01*
X0349536Y0292987D01*
X0349536Y0294535D02*
X0350070Y0295069D01*
X0350070Y0296136D01*
X0349536Y0296670D01*
X0349002Y0296670D01*
X0346867Y0294535D01*
X0346867Y0296670D01*
X0347401Y0290852D02*
X0349536Y0290852D01*
X0354250Y0287997D02*
X0354250Y0285241D01*
X0354250Y0282485D01*
X0357799Y0277608D02*
X0357799Y0274459D01*
X0359177Y0274459D01*
X0360161Y0270325D02*
X0360161Y0267569D01*
X0362917Y0267569D01*
X0362917Y0264813D01*
X0360161Y0264813D02*
X0360161Y0267569D01*
X0362917Y0267569D02*
X0362917Y0270325D01*
X0356028Y0269734D02*
X0356028Y0266978D01*
X0353272Y0266978D01*
X0353272Y0264222D01*
X0353136Y0262956D02*
X0353136Y0260821D01*
X0353136Y0261889D02*
X0356339Y0261889D01*
X0355271Y0260821D01*
X0355271Y0259273D02*
X0354738Y0258739D01*
X0354204Y0259273D01*
X0353670Y0259273D01*
X0353136Y0258739D01*
X0353136Y0257672D01*
X0353670Y0257138D01*
X0354738Y0258206D02*
X0354738Y0258739D01*
X0355271Y0259273D02*
X0355805Y0259273D01*
X0356339Y0258739D01*
X0356339Y0257672D01*
X0355805Y0257138D01*
X0356339Y0254522D02*
X0353136Y0254522D01*
X0353136Y0253455D02*
X0353136Y0255590D01*
X0350588Y0254969D02*
X0350588Y0252833D01*
X0350054Y0252300D01*
X0348987Y0252300D01*
X0348453Y0252833D01*
X0346905Y0252300D02*
X0344770Y0252300D01*
X0345837Y0252300D02*
X0345837Y0255502D01*
X0346905Y0254435D01*
X0348453Y0254969D02*
X0348987Y0255502D01*
X0350054Y0255502D01*
X0350588Y0254969D01*
X0348744Y0257333D02*
X0345988Y0257333D01*
X0345988Y0260089D01*
X0343232Y0260089D01*
X0345988Y0260089D02*
X0348744Y0260089D01*
X0345988Y0257333D02*
X0343232Y0257333D01*
X0342154Y0255502D02*
X0342154Y0252300D01*
X0341087Y0252300D02*
X0343222Y0252300D01*
X0343222Y0254435D02*
X0342154Y0255502D01*
X0339539Y0253901D02*
X0337937Y0253901D01*
X0337404Y0253367D01*
X0337404Y0252833D01*
X0337937Y0252300D01*
X0339005Y0252300D01*
X0339539Y0252833D01*
X0339539Y0253901D01*
X0338471Y0254969D01*
X0337404Y0255502D01*
X0353136Y0251907D02*
X0354204Y0250839D01*
X0354204Y0251373D02*
X0354204Y0249772D01*
X0353136Y0249772D02*
X0356339Y0249772D01*
X0356339Y0251373D01*
X0355805Y0251907D01*
X0354738Y0251907D01*
X0354204Y0251373D01*
X0355271Y0253455D02*
X0356339Y0254522D01*
X0360026Y0254859D02*
X0360026Y0253792D01*
X0360560Y0253258D01*
X0361627Y0253258D02*
X0362161Y0254326D01*
X0362161Y0254859D01*
X0361627Y0255393D01*
X0360560Y0255393D01*
X0360026Y0254859D01*
X0360560Y0256941D02*
X0362695Y0259076D01*
X0360560Y0259076D01*
X0360026Y0258543D01*
X0360026Y0257475D01*
X0360560Y0256941D01*
X0362695Y0256941D01*
X0363229Y0257475D01*
X0363229Y0258543D01*
X0362695Y0259076D01*
X0362161Y0260624D02*
X0363229Y0261692D01*
X0360026Y0261692D01*
X0360026Y0262759D02*
X0360026Y0260624D01*
X0356028Y0264222D02*
X0356028Y0266978D01*
X0353272Y0266978D02*
X0353272Y0269734D01*
X0363229Y0255393D02*
X0363229Y0253258D01*
X0361627Y0253258D01*
X0361627Y0251710D02*
X0361094Y0251176D01*
X0361094Y0249575D01*
X0361094Y0250642D02*
X0360026Y0251710D01*
X0361627Y0251710D02*
X0362695Y0251710D01*
X0363229Y0251176D01*
X0363229Y0249575D01*
X0360026Y0249575D01*
X0321300Y0248984D02*
X0321300Y0250586D01*
X0320766Y0251119D01*
X0319698Y0251119D01*
X0319164Y0250586D01*
X0319164Y0248984D01*
X0318097Y0248984D02*
X0321300Y0248984D01*
X0319164Y0250052D02*
X0318097Y0251119D01*
X0318097Y0252667D02*
X0318097Y0254803D01*
X0318097Y0253735D02*
X0321300Y0253735D01*
X0320232Y0252667D01*
X0320766Y0256351D02*
X0321300Y0256884D01*
X0321300Y0257952D01*
X0320766Y0258486D01*
X0320232Y0258486D01*
X0319698Y0257952D01*
X0319164Y0258486D01*
X0318631Y0258486D01*
X0318097Y0257952D01*
X0318097Y0256884D01*
X0318631Y0256351D01*
X0319698Y0257418D02*
X0319698Y0257952D01*
X0319698Y0260034D02*
X0319698Y0262169D01*
X0318097Y0261635D02*
X0321300Y0261635D01*
X0319698Y0260034D01*
X0318626Y0264222D02*
X0318626Y0266978D01*
X0321382Y0266978D01*
X0321382Y0269734D01*
X0321382Y0266978D02*
X0321382Y0264222D01*
X0318626Y0266978D02*
X0318626Y0269734D01*
X0318626Y0272884D02*
X0318626Y0275640D01*
X0321382Y0275640D01*
X0321382Y0278396D01*
X0321914Y0280489D02*
X0321914Y0282090D01*
X0321380Y0282624D01*
X0320312Y0282624D01*
X0319779Y0282090D01*
X0319779Y0280489D01*
X0319779Y0281556D02*
X0318711Y0282624D01*
X0318711Y0284172D02*
X0318711Y0286307D01*
X0318711Y0285239D02*
X0321914Y0285239D01*
X0320846Y0284172D01*
X0321380Y0287855D02*
X0321914Y0288389D01*
X0321914Y0289456D01*
X0321380Y0289990D01*
X0320846Y0289990D01*
X0320312Y0289456D01*
X0319779Y0289990D01*
X0319245Y0289990D01*
X0318711Y0289456D01*
X0318711Y0288389D01*
X0319245Y0287855D01*
X0320312Y0288922D02*
X0320312Y0289456D01*
X0319245Y0291538D02*
X0321380Y0293673D01*
X0319245Y0293673D01*
X0318711Y0293139D01*
X0318711Y0292072D01*
X0319245Y0291538D01*
X0321380Y0291538D01*
X0321914Y0292072D01*
X0321914Y0293139D01*
X0321380Y0293673D01*
X0313971Y0286017D02*
X0314505Y0285483D01*
X0314505Y0283348D01*
X0313971Y0282814D01*
X0312903Y0282814D01*
X0312370Y0283348D01*
X0310822Y0282814D02*
X0308686Y0284949D01*
X0308686Y0285483D01*
X0309220Y0286017D01*
X0310288Y0286017D01*
X0310822Y0285483D01*
X0312370Y0285483D02*
X0312903Y0286017D01*
X0313971Y0286017D01*
X0310822Y0282814D02*
X0308686Y0282814D01*
X0307138Y0283348D02*
X0305003Y0285483D01*
X0305003Y0283348D01*
X0305537Y0282814D01*
X0306605Y0282814D01*
X0307138Y0283348D01*
X0307138Y0285483D01*
X0306605Y0286017D01*
X0305537Y0286017D01*
X0305003Y0285483D01*
X0303455Y0284949D02*
X0302388Y0286017D01*
X0302388Y0282814D01*
X0303455Y0282814D02*
X0301320Y0282814D01*
X0307269Y0281543D02*
X0310024Y0281543D01*
X0310024Y0278787D01*
X0312780Y0278787D01*
X0310024Y0278787D02*
X0307269Y0278787D01*
X0310024Y0281543D02*
X0312780Y0281543D01*
X0318711Y0280489D02*
X0321914Y0280489D01*
X0318626Y0278396D02*
X0318626Y0275640D01*
X0321382Y0275640D02*
X0321382Y0272884D01*
X0330772Y0283993D02*
X0331840Y0283993D01*
X0332373Y0284526D01*
X0332373Y0285594D02*
X0331306Y0286128D01*
X0330772Y0286128D01*
X0330238Y0285594D01*
X0330238Y0284526D01*
X0330772Y0283993D01*
X0332373Y0285594D02*
X0332373Y0287195D01*
X0330238Y0287195D01*
X0333921Y0286661D02*
X0336057Y0284526D01*
X0335523Y0283993D01*
X0334455Y0283993D01*
X0333921Y0284526D01*
X0333921Y0286661D01*
X0334455Y0287195D01*
X0335523Y0287195D01*
X0336057Y0286661D01*
X0336057Y0284526D01*
X0337605Y0283993D02*
X0339740Y0283993D01*
X0338672Y0283993D02*
X0338672Y0287195D01*
X0339740Y0286128D01*
X0341288Y0287195D02*
X0341288Y0284526D01*
X0341821Y0283993D01*
X0342889Y0283993D01*
X0343423Y0284526D01*
X0343423Y0287195D01*
X0313483Y0258833D02*
X0313483Y0256164D01*
X0312950Y0255630D01*
X0311882Y0255630D01*
X0311348Y0256164D01*
X0311348Y0258833D01*
X0309800Y0258299D02*
X0309267Y0258833D01*
X0308199Y0258833D01*
X0307665Y0258299D01*
X0307665Y0257765D01*
X0309800Y0255630D01*
X0307665Y0255630D01*
X0306117Y0256164D02*
X0303982Y0258299D01*
X0303982Y0256164D01*
X0304516Y0255630D01*
X0305583Y0255630D01*
X0306117Y0256164D01*
X0306117Y0258299D01*
X0305583Y0258833D01*
X0304516Y0258833D01*
X0303982Y0258299D01*
X0302434Y0257765D02*
X0301366Y0258833D01*
X0301366Y0255630D01*
X0300299Y0255630D02*
X0302434Y0255630D01*
X0295848Y0264492D02*
X0295848Y0267248D01*
X0293092Y0267248D01*
X0293092Y0264492D01*
X0291936Y0263710D02*
X0291936Y0262643D01*
X0291402Y0262109D01*
X0289267Y0262109D01*
X0288733Y0262643D01*
X0288733Y0263710D01*
X0289267Y0264244D01*
X0288733Y0265792D02*
X0290868Y0267927D01*
X0291402Y0267927D01*
X0291936Y0267394D01*
X0291936Y0266326D01*
X0291402Y0265792D01*
X0291402Y0264244D02*
X0291936Y0263710D01*
X0293092Y0267248D02*
X0293092Y0270004D01*
X0291936Y0270009D02*
X0291402Y0269475D01*
X0289267Y0269475D01*
X0291402Y0271610D01*
X0289267Y0271610D01*
X0288733Y0271077D01*
X0288733Y0270009D01*
X0289267Y0269475D01*
X0288733Y0267927D02*
X0288733Y0265792D01*
X0291936Y0270009D02*
X0291936Y0271077D01*
X0291402Y0271610D01*
X0291936Y0273158D02*
X0290334Y0273158D01*
X0290868Y0274226D01*
X0290868Y0274760D01*
X0290334Y0275294D01*
X0289267Y0275294D01*
X0288733Y0274760D01*
X0288733Y0273692D01*
X0289267Y0273158D01*
X0291936Y0273158D02*
X0291936Y0275294D01*
X0295848Y0270004D02*
X0295848Y0267248D01*
X0269666Y0258395D02*
X0268162Y0258526D01*
X0279254Y0223159D02*
X0279254Y0221024D01*
X0281389Y0223159D01*
X0281923Y0223159D01*
X0286476Y0222063D02*
X0286476Y0219307D01*
X0289232Y0219307D01*
X0289232Y0216552D01*
X0289232Y0219307D02*
X0289232Y0222063D01*
X0286476Y0219307D02*
X0286476Y0216552D01*
X0275663Y0205828D02*
X0275129Y0206362D01*
X0274061Y0206362D01*
X0273528Y0205828D01*
X0275663Y0203693D01*
X0275129Y0203159D01*
X0274061Y0203159D01*
X0273528Y0203693D01*
X0273528Y0205828D01*
X0271980Y0205828D02*
X0271446Y0206362D01*
X0270378Y0206362D01*
X0269845Y0205828D01*
X0269845Y0205295D01*
X0271980Y0203159D01*
X0269845Y0203159D01*
X0267879Y0204124D02*
X0267879Y0205192D01*
X0267345Y0205726D01*
X0266812Y0205726D01*
X0266278Y0205192D01*
X0265744Y0205726D01*
X0265210Y0205726D01*
X0264676Y0205192D01*
X0264676Y0204124D01*
X0265210Y0203591D01*
X0266278Y0204658D02*
X0266278Y0205192D01*
X0267345Y0203591D02*
X0267879Y0204124D01*
X0267345Y0202043D02*
X0266278Y0202043D01*
X0265744Y0201509D01*
X0265744Y0199907D01*
X0264676Y0199907D02*
X0267879Y0199907D01*
X0267879Y0201509D01*
X0267345Y0202043D01*
X0265744Y0200975D02*
X0264676Y0202043D01*
X0262933Y0200935D02*
X0262400Y0201469D01*
X0261332Y0201469D01*
X0260798Y0200935D01*
X0260798Y0199333D01*
X0259731Y0199333D02*
X0262933Y0199333D01*
X0262933Y0200935D01*
X0262400Y0203017D02*
X0262933Y0203550D01*
X0262933Y0204618D01*
X0262400Y0205152D01*
X0261866Y0205152D01*
X0261332Y0204618D01*
X0260798Y0205152D01*
X0260264Y0205152D01*
X0259731Y0204618D01*
X0259731Y0203550D01*
X0260264Y0203017D01*
X0261332Y0204084D02*
X0261332Y0204618D01*
X0260264Y0206700D02*
X0262400Y0208835D01*
X0260264Y0208835D01*
X0259731Y0208301D01*
X0259731Y0207234D01*
X0260264Y0206700D01*
X0262400Y0206700D01*
X0262933Y0207234D01*
X0262933Y0208301D01*
X0262400Y0208835D01*
X0261332Y0210383D02*
X0261332Y0212518D01*
X0259731Y0211984D02*
X0262933Y0211984D01*
X0261332Y0210383D01*
X0264676Y0210957D02*
X0266812Y0213092D01*
X0267345Y0213092D01*
X0267879Y0212558D01*
X0267879Y0211491D01*
X0267345Y0210957D01*
X0267345Y0209409D02*
X0265210Y0207274D01*
X0264676Y0207808D01*
X0264676Y0208875D01*
X0265210Y0209409D01*
X0267345Y0209409D01*
X0267879Y0208875D01*
X0267879Y0207808D01*
X0267345Y0207274D01*
X0265210Y0207274D01*
X0264676Y0210957D02*
X0264676Y0213092D01*
X0275663Y0205828D02*
X0275663Y0203693D01*
X0266755Y0196378D02*
X0266755Y0193622D01*
X0263999Y0193622D01*
X0263999Y0190867D01*
X0263039Y0191441D02*
X0260283Y0191441D01*
X0260283Y0188685D01*
X0260283Y0191441D02*
X0260283Y0194196D01*
X0263039Y0194196D02*
X0263039Y0191441D01*
X0263039Y0188685D01*
X0266755Y0190867D02*
X0266755Y0193622D01*
X0263999Y0193622D02*
X0263999Y0196378D01*
X0260798Y0200401D02*
X0259731Y0201469D01*
X0256418Y0199485D02*
X0253215Y0199485D01*
X0242894Y0200148D02*
X0242894Y0197393D01*
X0250276Y0188522D02*
X0253032Y0188522D01*
X0253032Y0185766D02*
X0250276Y0185766D01*
X0250180Y0184806D02*
X0252936Y0184806D01*
X0250180Y0182050D02*
X0247424Y0182050D01*
X0247343Y0181134D02*
X0250099Y0181134D01*
X0250099Y0178378D02*
X0247343Y0178378D01*
X0247374Y0176034D02*
X0250130Y0176034D01*
X0250130Y0173278D02*
X0252886Y0173278D01*
X0253739Y0168191D02*
X0253739Y0165435D01*
X0256495Y0165435D01*
X0256495Y0168191D01*
X0257655Y0168199D02*
X0257655Y0165443D01*
X0260411Y0165443D01*
X0260411Y0168199D01*
X0260411Y0165443D02*
X0260411Y0162687D01*
X0260477Y0160948D02*
X0261011Y0160415D01*
X0261011Y0159347D01*
X0260477Y0158813D01*
X0260477Y0160948D02*
X0259943Y0160948D01*
X0257808Y0158813D01*
X0257808Y0160948D01*
X0256265Y0160956D02*
X0256265Y0158821D01*
X0255731Y0157273D02*
X0253596Y0155138D01*
X0253062Y0155672D01*
X0253062Y0156739D01*
X0253596Y0157273D01*
X0255731Y0157273D01*
X0256265Y0156739D01*
X0256265Y0155672D01*
X0255731Y0155138D01*
X0253596Y0155138D01*
X0253596Y0153590D02*
X0253062Y0153056D01*
X0253062Y0151989D01*
X0253596Y0151455D01*
X0254664Y0152522D02*
X0254664Y0153056D01*
X0254130Y0153590D01*
X0253596Y0153590D01*
X0254664Y0153056D02*
X0255197Y0153590D01*
X0255731Y0153590D01*
X0256265Y0153056D01*
X0256265Y0151989D01*
X0255731Y0151455D01*
X0255731Y0149907D02*
X0256265Y0149373D01*
X0256265Y0148306D01*
X0255731Y0147772D01*
X0253596Y0147772D01*
X0253062Y0148306D01*
X0253062Y0149373D01*
X0253596Y0149907D01*
X0257808Y0149899D02*
X0258875Y0148831D01*
X0258875Y0149365D02*
X0258875Y0147764D01*
X0257808Y0147764D02*
X0261011Y0147764D01*
X0261011Y0149365D01*
X0260477Y0149899D01*
X0259409Y0149899D01*
X0258875Y0149365D01*
X0258342Y0151447D02*
X0257808Y0151981D01*
X0257808Y0153048D01*
X0258342Y0153582D01*
X0258875Y0153582D01*
X0259409Y0153048D01*
X0259409Y0152515D01*
X0259409Y0153048D02*
X0259943Y0153582D01*
X0260477Y0153582D01*
X0261011Y0153048D01*
X0261011Y0151981D01*
X0260477Y0151447D01*
X0259943Y0155130D02*
X0261011Y0156198D01*
X0257808Y0156198D01*
X0257808Y0157265D02*
X0257808Y0155130D01*
X0253596Y0158821D02*
X0255731Y0160956D01*
X0256265Y0160956D01*
X0256495Y0162679D02*
X0256495Y0165435D01*
X0257655Y0165443D02*
X0257655Y0162687D01*
X0253739Y0162679D02*
X0253739Y0165435D01*
X0251284Y0163799D02*
X0250217Y0162732D01*
X0253062Y0158821D02*
X0253596Y0158821D01*
X0265388Y0159650D02*
X0265922Y0159116D01*
X0265388Y0159650D02*
X0265388Y0160718D01*
X0265922Y0161252D01*
X0266990Y0161252D01*
X0267523Y0160718D01*
X0267523Y0160184D01*
X0266990Y0159116D01*
X0268591Y0159116D01*
X0268591Y0161252D01*
X0268280Y0162911D02*
X0268280Y0165667D01*
X0265524Y0165667D01*
X0265524Y0162911D01*
X0265524Y0165667D02*
X0265524Y0168423D01*
X0268280Y0168423D02*
X0268280Y0165667D01*
X0272369Y0161487D02*
X0272369Y0158284D01*
X0273436Y0158284D02*
X0271301Y0158284D01*
X0268591Y0157035D02*
X0268057Y0157568D01*
X0265922Y0155433D01*
X0265388Y0155967D01*
X0265388Y0157035D01*
X0265922Y0157568D01*
X0268057Y0157568D01*
X0268591Y0157035D02*
X0268591Y0155967D01*
X0268057Y0155433D01*
X0265922Y0155433D01*
X0265922Y0153885D02*
X0265388Y0153352D01*
X0265388Y0152284D01*
X0265922Y0151750D01*
X0266990Y0152818D02*
X0266990Y0153352D01*
X0266456Y0153885D01*
X0265922Y0153885D01*
X0266990Y0153352D02*
X0267523Y0153885D01*
X0268057Y0153885D01*
X0268591Y0153352D01*
X0268591Y0152284D01*
X0268057Y0151750D01*
X0268057Y0150202D02*
X0266990Y0150202D01*
X0266456Y0149668D01*
X0266456Y0148067D01*
X0266456Y0149135D02*
X0265388Y0150202D01*
X0265388Y0148067D02*
X0268591Y0148067D01*
X0268591Y0149668D01*
X0268057Y0150202D01*
X0275518Y0158284D02*
X0276586Y0158284D01*
X0277120Y0158818D01*
X0274984Y0160953D01*
X0274984Y0158818D01*
X0275518Y0158284D01*
X0277120Y0158818D02*
X0277120Y0160953D01*
X0276586Y0161487D01*
X0275518Y0161487D01*
X0274984Y0160953D01*
X0273436Y0160419D02*
X0272369Y0161487D01*
X0278668Y0160953D02*
X0278668Y0160419D01*
X0279201Y0159885D01*
X0278668Y0159351D01*
X0278668Y0158818D01*
X0279201Y0158284D01*
X0280269Y0158284D01*
X0280803Y0158818D01*
X0279735Y0159885D02*
X0279201Y0159885D01*
X0278668Y0160953D02*
X0279201Y0161487D01*
X0280269Y0161487D01*
X0280803Y0160953D01*
X0282351Y0161487D02*
X0282351Y0158818D01*
X0282884Y0158284D01*
X0283952Y0158284D01*
X0284486Y0158818D01*
X0284486Y0161487D01*
X0285917Y0161285D02*
X0286450Y0160751D01*
X0285917Y0161285D02*
X0285917Y0162352D01*
X0286450Y0162886D01*
X0286984Y0162886D01*
X0287518Y0162352D01*
X0287518Y0161819D01*
X0287518Y0162352D02*
X0288052Y0162886D01*
X0288585Y0162886D01*
X0289119Y0162352D01*
X0289119Y0161285D01*
X0288585Y0160751D01*
X0288585Y0159203D02*
X0289119Y0158669D01*
X0289119Y0157602D01*
X0288585Y0157068D01*
X0286450Y0157068D01*
X0285917Y0157602D01*
X0285917Y0158669D01*
X0286450Y0159203D01*
X0286450Y0164434D02*
X0288585Y0166569D01*
X0286450Y0166569D01*
X0285917Y0166035D01*
X0285917Y0164968D01*
X0286450Y0164434D01*
X0288585Y0164434D01*
X0289119Y0164968D01*
X0289119Y0166035D01*
X0288585Y0166569D01*
X0287518Y0168117D02*
X0287518Y0169719D01*
X0286984Y0170252D01*
X0286450Y0170252D01*
X0285917Y0169719D01*
X0285917Y0168651D01*
X0286450Y0168117D01*
X0287518Y0168117D01*
X0288585Y0169185D01*
X0289119Y0170252D01*
X0292736Y0170064D02*
X0294871Y0167929D01*
X0294337Y0167395D01*
X0293270Y0167395D01*
X0292736Y0167929D01*
X0292736Y0170064D01*
X0293270Y0170598D01*
X0294337Y0170598D01*
X0294871Y0170064D01*
X0294871Y0167929D01*
X0296419Y0167929D02*
X0296953Y0167395D01*
X0298020Y0167395D01*
X0298554Y0167929D01*
X0297487Y0168996D02*
X0296953Y0168996D01*
X0296419Y0168462D01*
X0296419Y0167929D01*
X0296953Y0168996D02*
X0296419Y0169530D01*
X0296419Y0170064D01*
X0296953Y0170598D01*
X0298020Y0170598D01*
X0298554Y0170064D01*
X0297951Y0166249D02*
X0298485Y0165715D01*
X0297951Y0166249D02*
X0296884Y0166249D01*
X0296350Y0165715D01*
X0296350Y0165181D01*
X0298485Y0163046D01*
X0296350Y0163046D01*
X0294802Y0163580D02*
X0294268Y0163046D01*
X0293200Y0163046D01*
X0292667Y0163580D01*
X0292667Y0165715D01*
X0293200Y0166249D01*
X0294268Y0166249D01*
X0294802Y0165715D01*
X0294802Y0165181D01*
X0294268Y0164647D01*
X0292667Y0164647D01*
X0284871Y0165219D02*
X0284871Y0167975D01*
X0282115Y0167975D01*
X0282115Y0165219D01*
X0282115Y0167975D02*
X0282115Y0170731D01*
X0281577Y0173287D02*
X0281043Y0173821D01*
X0281043Y0174889D01*
X0281577Y0175423D01*
X0281577Y0176971D02*
X0281043Y0177504D01*
X0281043Y0178572D01*
X0281577Y0179106D01*
X0282111Y0179106D01*
X0282645Y0178572D01*
X0282645Y0178038D01*
X0282645Y0178572D02*
X0283178Y0179106D01*
X0283712Y0179106D01*
X0284246Y0178572D01*
X0284246Y0177504D01*
X0283712Y0176971D01*
X0283712Y0175423D02*
X0284246Y0174889D01*
X0284246Y0173821D01*
X0283712Y0173287D01*
X0281577Y0173287D01*
X0284871Y0170731D02*
X0284871Y0167975D01*
X0279695Y0178896D02*
X0279695Y0181652D01*
X0276939Y0181652D01*
X0276939Y0184407D01*
X0276011Y0184364D02*
X0276011Y0181608D01*
X0273255Y0181608D01*
X0273255Y0184364D01*
X0273255Y0181608D02*
X0273255Y0178852D01*
X0276011Y0178852D02*
X0276011Y0181608D01*
X0276939Y0181652D02*
X0276939Y0178896D01*
X0279695Y0181652D02*
X0279695Y0184407D01*
X0281043Y0184871D02*
X0281577Y0184337D01*
X0281043Y0184871D02*
X0281043Y0185938D01*
X0281577Y0186472D01*
X0282111Y0186472D01*
X0282645Y0185938D01*
X0282645Y0185404D01*
X0282645Y0185938D02*
X0283178Y0186472D01*
X0283712Y0186472D01*
X0284246Y0185938D01*
X0284246Y0184871D01*
X0283712Y0184337D01*
X0283712Y0182789D02*
X0281577Y0180654D01*
X0281043Y0181188D01*
X0281043Y0182255D01*
X0281577Y0182789D01*
X0283712Y0182789D01*
X0284246Y0182255D01*
X0284246Y0181188D01*
X0283712Y0180654D01*
X0281577Y0180654D01*
X0314044Y0189767D02*
X0314044Y0192522D01*
X0316800Y0192522D01*
X0316800Y0189767D01*
X0317828Y0192052D02*
X0317828Y0194807D01*
X0320584Y0194807D01*
X0320584Y0192052D01*
X0320584Y0194807D02*
X0320584Y0197563D01*
X0317828Y0197563D02*
X0317828Y0194807D01*
X0316800Y0195278D02*
X0316800Y0192522D01*
X0314044Y0192522D02*
X0314044Y0195278D01*
X0319208Y0169530D02*
X0319208Y0166774D01*
X0321964Y0166774D02*
X0321964Y0169530D01*
X0246890Y0215318D02*
X0244754Y0217454D01*
X0244754Y0215318D01*
X0245288Y0214785D01*
X0246356Y0214785D01*
X0246890Y0215318D01*
X0246890Y0217454D01*
X0246356Y0217987D01*
X0245288Y0217987D01*
X0244754Y0217454D01*
X0243206Y0217454D02*
X0242673Y0217987D01*
X0241605Y0217987D01*
X0241071Y0217454D01*
X0241071Y0216920D01*
X0243206Y0214785D01*
X0241071Y0214785D01*
X0120022Y0213579D02*
X0118420Y0211977D01*
X0118420Y0214112D01*
X0116819Y0213579D02*
X0120022Y0213579D01*
X0119488Y0215660D02*
X0117353Y0215660D01*
X0119488Y0217796D01*
X0117353Y0217796D01*
X0116819Y0217262D01*
X0116819Y0216194D01*
X0117353Y0215660D01*
X0119488Y0215660D02*
X0120022Y0216194D01*
X0120022Y0217262D01*
X0119488Y0217796D01*
X0120022Y0219344D02*
X0120022Y0221479D01*
X0119488Y0221479D01*
X0117353Y0219344D01*
X0116819Y0219344D01*
X0115339Y0218589D02*
X0114805Y0219123D01*
X0112670Y0216988D01*
X0112136Y0217522D01*
X0112136Y0218589D01*
X0112670Y0219123D01*
X0114805Y0219123D01*
X0115339Y0218589D02*
X0115339Y0217522D01*
X0114805Y0216988D01*
X0112670Y0216988D01*
X0113738Y0215440D02*
X0113738Y0213305D01*
X0115339Y0214906D01*
X0112136Y0214906D01*
X0110472Y0214762D02*
X0108871Y0213161D01*
X0108871Y0215296D01*
X0110472Y0214762D02*
X0107269Y0214762D01*
X0107803Y0216844D02*
X0109938Y0218979D01*
X0107803Y0218979D01*
X0107269Y0218445D01*
X0107269Y0217378D01*
X0107803Y0216844D01*
X0109938Y0216844D01*
X0110472Y0217378D01*
X0110472Y0218445D01*
X0109938Y0218979D01*
X0109938Y0220527D02*
X0110472Y0221061D01*
X0110472Y0222128D01*
X0109938Y0222662D01*
X0109404Y0222662D01*
X0107269Y0220527D01*
X0107269Y0222662D01*
X0112136Y0222806D02*
X0112136Y0220671D01*
X0114271Y0222806D01*
X0114805Y0222806D01*
X0115339Y0222272D01*
X0115339Y0221205D01*
X0114805Y0220671D01*
X0115339Y0211757D02*
X0112670Y0211757D01*
X0112136Y0211223D01*
X0112136Y0210155D01*
X0112670Y0209622D01*
X0115339Y0209622D01*
X0116819Y0209895D02*
X0117353Y0210429D01*
X0116819Y0209895D02*
X0116819Y0208828D01*
X0117353Y0208294D01*
X0119488Y0208294D01*
X0120022Y0208828D01*
X0120022Y0209895D01*
X0119488Y0210429D01*
X0110472Y0211079D02*
X0109938Y0211613D01*
X0108871Y0211613D01*
X0108337Y0211079D01*
X0108337Y0209478D01*
X0108337Y0210545D02*
X0107269Y0211613D01*
X0107269Y0209478D02*
X0110472Y0209478D01*
X0110472Y0211079D01*
X0104376Y0212007D02*
X0104376Y0214763D01*
X0101620Y0214763D02*
X0101620Y0212007D01*
X0104376Y0212007D01*
X0104376Y0209252D01*
X0101620Y0209252D02*
X0101620Y0212007D01*
X0099062Y0211691D02*
X0097461Y0211691D01*
X0096927Y0211157D01*
X0096927Y0210089D01*
X0097461Y0209555D01*
X0099062Y0209555D01*
X0099062Y0208488D02*
X0099062Y0211691D01*
X0095379Y0211691D02*
X0094311Y0211691D01*
X0094845Y0211691D02*
X0094845Y0208488D01*
X0095379Y0208488D02*
X0094311Y0208488D01*
X0092924Y0210089D02*
X0090788Y0210089D01*
X0091322Y0208488D02*
X0091322Y0211691D01*
X0092924Y0210089D01*
X0089240Y0209022D02*
X0088707Y0208488D01*
X0087639Y0208488D01*
X0087105Y0209022D01*
X0087105Y0211157D01*
X0089240Y0209022D01*
X0089240Y0211157D01*
X0088707Y0211691D01*
X0087639Y0211691D01*
X0087105Y0211157D01*
X0085557Y0210623D02*
X0084490Y0211691D01*
X0084490Y0208488D01*
X0085557Y0208488D02*
X0083422Y0208488D01*
X0080171Y0209663D02*
X0080171Y0221474D01*
X0064423Y0221474D01*
X0064423Y0209663D01*
X0080171Y0209663D01*
X0076234Y0212419D02*
X0073872Y0214781D01*
X0073872Y0212419D01*
X0073872Y0214781D02*
X0073872Y0216356D01*
X0076234Y0218718D01*
X0075446Y0218718D01*
X0076234Y0218718D02*
X0076234Y0217930D01*
X0073872Y0218718D02*
X0073872Y0216356D01*
X0072297Y0217143D02*
X0070722Y0217143D01*
X0070722Y0218718D01*
X0070722Y0217143D02*
X0069147Y0217143D01*
X0070722Y0214781D01*
X0070722Y0212419D01*
X0070722Y0214781D02*
X0069147Y0214781D01*
X0070722Y0214781D02*
X0072297Y0217143D01*
X0072297Y0214781D02*
X0070722Y0214781D01*
X0084350Y0214471D02*
X0084350Y0217227D01*
X0087106Y0217227D01*
X0087106Y0219983D01*
X0087106Y0217227D02*
X0087106Y0214471D01*
X0084350Y0217227D02*
X0084350Y0219983D01*
X0368573Y0356929D02*
X0368573Y0357997D01*
X0369107Y0358531D01*
X0371776Y0358531D01*
X0370708Y0360079D02*
X0371776Y0361146D01*
X0368573Y0361146D01*
X0368573Y0360079D02*
X0368573Y0362214D01*
X0369107Y0363762D02*
X0368573Y0364296D01*
X0368573Y0365363D01*
X0369107Y0365897D01*
X0371242Y0365897D01*
X0369107Y0363762D01*
X0371242Y0363762D01*
X0371776Y0364296D01*
X0371776Y0365363D01*
X0371242Y0365897D01*
X0371242Y0367445D02*
X0371776Y0367979D01*
X0371776Y0369046D01*
X0371242Y0369580D01*
X0370708Y0369580D01*
X0370175Y0369046D01*
X0369641Y0369580D01*
X0369107Y0369580D01*
X0368573Y0369046D01*
X0368573Y0367979D01*
X0369107Y0367445D01*
X0370175Y0368513D02*
X0370175Y0369046D01*
X0370631Y0371470D02*
X0370631Y0374226D01*
X0373387Y0374226D01*
X0373387Y0376981D01*
X0373387Y0374226D02*
X0373387Y0371470D01*
X0370631Y0374226D02*
X0370631Y0376981D01*
X0366044Y0377272D02*
X0362842Y0377272D01*
X0362842Y0376204D02*
X0362842Y0378340D01*
X0363376Y0379888D02*
X0365511Y0382023D01*
X0363376Y0382023D01*
X0362842Y0381489D01*
X0362842Y0380421D01*
X0363376Y0379888D01*
X0365511Y0379888D01*
X0366044Y0380421D01*
X0366044Y0381489D01*
X0365511Y0382023D01*
X0366044Y0377272D02*
X0364977Y0376204D01*
X0362842Y0374656D02*
X0362842Y0372521D01*
X0362842Y0373589D02*
X0366044Y0373589D01*
X0364977Y0372521D01*
X0365511Y0370973D02*
X0366044Y0370440D01*
X0366044Y0369372D01*
X0365511Y0368838D01*
X0363376Y0368838D01*
X0362842Y0369372D01*
X0362842Y0370440D01*
X0363376Y0370973D01*
X0368573Y0356929D02*
X0369107Y0356396D01*
X0371776Y0356396D01*
X0371103Y0354520D02*
X0371103Y0351317D01*
X0372170Y0351317D02*
X0370035Y0351317D01*
X0372170Y0353452D02*
X0371103Y0354520D01*
X0374786Y0354520D02*
X0374786Y0351317D01*
X0375853Y0351317D02*
X0373718Y0351317D01*
X0375853Y0353452D02*
X0374786Y0354520D01*
X0375955Y0357134D02*
X0378711Y0357134D01*
X0378711Y0359890D01*
X0381467Y0359890D01*
X0381467Y0357134D02*
X0378711Y0357134D01*
X0378469Y0354520D02*
X0378469Y0351317D01*
X0379537Y0351317D02*
X0377401Y0351317D01*
X0379537Y0353452D02*
X0378469Y0354520D01*
X0381085Y0353986D02*
X0381618Y0354520D01*
X0382686Y0354520D01*
X0383220Y0353986D01*
X0383220Y0351851D01*
X0382686Y0351317D01*
X0381618Y0351317D01*
X0381085Y0351851D01*
X0378711Y0359890D02*
X0375955Y0359890D01*
D11*
X0376047Y0360917D02*
X0380969Y0360917D01*
X0380969Y0368988D01*
X0376047Y0368988D01*
X0376047Y0360917D01*
X0379151Y0367413D02*
X0379153Y0367455D01*
X0379159Y0367496D01*
X0379169Y0367537D01*
X0379183Y0367577D01*
X0379200Y0367615D01*
X0379221Y0367651D01*
X0379245Y0367685D01*
X0379273Y0367717D01*
X0379303Y0367746D01*
X0379336Y0367771D01*
X0379371Y0367794D01*
X0379408Y0367813D01*
X0379447Y0367829D01*
X0379487Y0367841D01*
X0379528Y0367849D01*
X0379570Y0367853D01*
X0379612Y0367853D01*
X0379654Y0367849D01*
X0379695Y0367841D01*
X0379735Y0367829D01*
X0379774Y0367813D01*
X0379811Y0367794D01*
X0379846Y0367771D01*
X0379879Y0367746D01*
X0379909Y0367717D01*
X0379937Y0367685D01*
X0379961Y0367651D01*
X0379982Y0367615D01*
X0379999Y0367577D01*
X0380013Y0367537D01*
X0380023Y0367496D01*
X0380029Y0367455D01*
X0380031Y0367413D01*
X0380029Y0367371D01*
X0380023Y0367330D01*
X0380013Y0367289D01*
X0379999Y0367249D01*
X0379982Y0367211D01*
X0379961Y0367175D01*
X0379937Y0367141D01*
X0379909Y0367109D01*
X0379879Y0367080D01*
X0379846Y0367055D01*
X0379811Y0367032D01*
X0379774Y0367013D01*
X0379735Y0366997D01*
X0379695Y0366985D01*
X0379654Y0366977D01*
X0379612Y0366973D01*
X0379570Y0366973D01*
X0379528Y0366977D01*
X0379487Y0366985D01*
X0379447Y0366997D01*
X0379408Y0367013D01*
X0379371Y0367032D01*
X0379336Y0367055D01*
X0379303Y0367080D01*
X0379273Y0367109D01*
X0379245Y0367141D01*
X0379221Y0367175D01*
X0379200Y0367211D01*
X0379183Y0367249D01*
X0379169Y0367289D01*
X0379159Y0367330D01*
X0379153Y0367371D01*
X0379151Y0367413D01*
X0349335Y0281860D02*
X0325713Y0281860D01*
X0325713Y0262175D01*
X0349335Y0262175D01*
X0349335Y0281860D01*
X0335517Y0262175D02*
X0335519Y0262264D01*
X0335525Y0262354D01*
X0335535Y0262443D01*
X0335549Y0262531D01*
X0335567Y0262618D01*
X0335588Y0262705D01*
X0335614Y0262791D01*
X0335643Y0262875D01*
X0335676Y0262959D01*
X0335713Y0263040D01*
X0335753Y0263120D01*
X0335797Y0263198D01*
X0335844Y0263274D01*
X0335895Y0263347D01*
X0335949Y0263419D01*
X0336006Y0263488D01*
X0336066Y0263554D01*
X0336129Y0263618D01*
X0336194Y0263678D01*
X0336263Y0263736D01*
X0336333Y0263791D01*
X0336407Y0263842D01*
X0336482Y0263890D01*
X0336559Y0263935D01*
X0336639Y0263976D01*
X0336720Y0264014D01*
X0336803Y0264048D01*
X0336887Y0264078D01*
X0336972Y0264105D01*
X0337059Y0264127D01*
X0337146Y0264146D01*
X0337234Y0264161D01*
X0337323Y0264172D01*
X0337412Y0264179D01*
X0337502Y0264182D01*
X0337591Y0264181D01*
X0337680Y0264176D01*
X0337769Y0264167D01*
X0337858Y0264154D01*
X0337946Y0264137D01*
X0338033Y0264116D01*
X0338119Y0264092D01*
X0338203Y0264063D01*
X0338287Y0264031D01*
X0338369Y0263996D01*
X0338449Y0263956D01*
X0338527Y0263913D01*
X0338604Y0263867D01*
X0338678Y0263817D01*
X0338750Y0263764D01*
X0338820Y0263708D01*
X0338887Y0263648D01*
X0338951Y0263586D01*
X0339012Y0263521D01*
X0339071Y0263454D01*
X0339126Y0263383D01*
X0339179Y0263311D01*
X0339228Y0263236D01*
X0339273Y0263159D01*
X0339315Y0263080D01*
X0339354Y0262999D01*
X0339389Y0262917D01*
X0339420Y0262833D01*
X0339447Y0262748D01*
X0339471Y0262662D01*
X0339491Y0262575D01*
X0339507Y0262487D01*
X0339519Y0262398D01*
X0339527Y0262309D01*
X0339531Y0262220D01*
X0339531Y0262130D01*
X0339527Y0262041D01*
X0339519Y0261952D01*
X0339507Y0261863D01*
X0339491Y0261775D01*
X0339471Y0261688D01*
X0339447Y0261602D01*
X0339420Y0261517D01*
X0339389Y0261433D01*
X0339354Y0261351D01*
X0339315Y0261270D01*
X0339273Y0261191D01*
X0339228Y0261114D01*
X0339179Y0261039D01*
X0339126Y0260967D01*
X0339071Y0260896D01*
X0339012Y0260829D01*
X0338951Y0260764D01*
X0338887Y0260702D01*
X0338820Y0260642D01*
X0338750Y0260586D01*
X0338678Y0260533D01*
X0338604Y0260483D01*
X0338528Y0260437D01*
X0338449Y0260394D01*
X0338369Y0260354D01*
X0338287Y0260319D01*
X0338203Y0260287D01*
X0338119Y0260258D01*
X0338033Y0260234D01*
X0337946Y0260213D01*
X0337858Y0260196D01*
X0337769Y0260183D01*
X0337680Y0260174D01*
X0337591Y0260169D01*
X0337502Y0260168D01*
X0337412Y0260171D01*
X0337323Y0260178D01*
X0337234Y0260189D01*
X0337146Y0260204D01*
X0337059Y0260223D01*
X0336972Y0260245D01*
X0336887Y0260272D01*
X0336803Y0260302D01*
X0336720Y0260336D01*
X0336639Y0260374D01*
X0336559Y0260415D01*
X0336482Y0260460D01*
X0336407Y0260508D01*
X0336333Y0260559D01*
X0336263Y0260614D01*
X0336194Y0260672D01*
X0336129Y0260732D01*
X0336066Y0260796D01*
X0336006Y0260862D01*
X0335949Y0260931D01*
X0335895Y0261003D01*
X0335844Y0261076D01*
X0335797Y0261152D01*
X0335753Y0261230D01*
X0335713Y0261310D01*
X0335676Y0261391D01*
X0335643Y0261475D01*
X0335614Y0261559D01*
X0335588Y0261645D01*
X0335567Y0261732D01*
X0335549Y0261819D01*
X0335535Y0261907D01*
X0335525Y0261996D01*
X0335519Y0262086D01*
X0335517Y0262175D01*
X0314904Y0261207D02*
X0314904Y0276955D01*
X0299156Y0276955D01*
X0299156Y0261207D01*
X0314904Y0261207D01*
X0306046Y0261207D02*
X0306048Y0261269D01*
X0306054Y0261332D01*
X0306064Y0261393D01*
X0306078Y0261454D01*
X0306095Y0261514D01*
X0306116Y0261573D01*
X0306142Y0261630D01*
X0306170Y0261685D01*
X0306202Y0261739D01*
X0306238Y0261790D01*
X0306276Y0261840D01*
X0306318Y0261886D01*
X0306362Y0261930D01*
X0306410Y0261971D01*
X0306459Y0262009D01*
X0306511Y0262043D01*
X0306565Y0262074D01*
X0306621Y0262102D01*
X0306679Y0262126D01*
X0306738Y0262147D01*
X0306798Y0262163D01*
X0306859Y0262176D01*
X0306921Y0262185D01*
X0306983Y0262190D01*
X0307046Y0262191D01*
X0307108Y0262188D01*
X0307170Y0262181D01*
X0307232Y0262170D01*
X0307292Y0262155D01*
X0307352Y0262137D01*
X0307410Y0262115D01*
X0307467Y0262089D01*
X0307522Y0262059D01*
X0307575Y0262026D01*
X0307626Y0261990D01*
X0307674Y0261951D01*
X0307720Y0261908D01*
X0307763Y0261863D01*
X0307803Y0261815D01*
X0307840Y0261765D01*
X0307874Y0261712D01*
X0307905Y0261658D01*
X0307931Y0261602D01*
X0307955Y0261544D01*
X0307974Y0261484D01*
X0307990Y0261424D01*
X0308002Y0261362D01*
X0308010Y0261301D01*
X0308014Y0261238D01*
X0308014Y0261176D01*
X0308010Y0261113D01*
X0308002Y0261052D01*
X0307990Y0260990D01*
X0307974Y0260930D01*
X0307955Y0260870D01*
X0307931Y0260812D01*
X0307905Y0260756D01*
X0307874Y0260702D01*
X0307840Y0260649D01*
X0307803Y0260599D01*
X0307763Y0260551D01*
X0307720Y0260506D01*
X0307674Y0260463D01*
X0307626Y0260424D01*
X0307575Y0260388D01*
X0307522Y0260355D01*
X0307467Y0260325D01*
X0307410Y0260299D01*
X0307352Y0260277D01*
X0307292Y0260259D01*
X0307232Y0260244D01*
X0307170Y0260233D01*
X0307108Y0260226D01*
X0307046Y0260223D01*
X0306983Y0260224D01*
X0306921Y0260229D01*
X0306859Y0260238D01*
X0306798Y0260251D01*
X0306738Y0260267D01*
X0306679Y0260288D01*
X0306621Y0260312D01*
X0306565Y0260340D01*
X0306511Y0260371D01*
X0306459Y0260405D01*
X0306410Y0260443D01*
X0306362Y0260484D01*
X0306318Y0260528D01*
X0306276Y0260574D01*
X0306238Y0260624D01*
X0306202Y0260675D01*
X0306170Y0260729D01*
X0306142Y0260784D01*
X0306116Y0260841D01*
X0306095Y0260900D01*
X0306078Y0260960D01*
X0306064Y0261021D01*
X0306054Y0261082D01*
X0306048Y0261145D01*
X0306046Y0261207D01*
X0309170Y0229155D02*
X0293422Y0229155D01*
X0293422Y0213407D01*
X0309170Y0213407D01*
X0309170Y0229155D01*
X0300312Y0213407D02*
X0300314Y0213469D01*
X0300320Y0213532D01*
X0300330Y0213593D01*
X0300344Y0213654D01*
X0300361Y0213714D01*
X0300382Y0213773D01*
X0300408Y0213830D01*
X0300436Y0213885D01*
X0300468Y0213939D01*
X0300504Y0213990D01*
X0300542Y0214040D01*
X0300584Y0214086D01*
X0300628Y0214130D01*
X0300676Y0214171D01*
X0300725Y0214209D01*
X0300777Y0214243D01*
X0300831Y0214274D01*
X0300887Y0214302D01*
X0300945Y0214326D01*
X0301004Y0214347D01*
X0301064Y0214363D01*
X0301125Y0214376D01*
X0301187Y0214385D01*
X0301249Y0214390D01*
X0301312Y0214391D01*
X0301374Y0214388D01*
X0301436Y0214381D01*
X0301498Y0214370D01*
X0301558Y0214355D01*
X0301618Y0214337D01*
X0301676Y0214315D01*
X0301733Y0214289D01*
X0301788Y0214259D01*
X0301841Y0214226D01*
X0301892Y0214190D01*
X0301940Y0214151D01*
X0301986Y0214108D01*
X0302029Y0214063D01*
X0302069Y0214015D01*
X0302106Y0213965D01*
X0302140Y0213912D01*
X0302171Y0213858D01*
X0302197Y0213802D01*
X0302221Y0213744D01*
X0302240Y0213684D01*
X0302256Y0213624D01*
X0302268Y0213562D01*
X0302276Y0213501D01*
X0302280Y0213438D01*
X0302280Y0213376D01*
X0302276Y0213313D01*
X0302268Y0213252D01*
X0302256Y0213190D01*
X0302240Y0213130D01*
X0302221Y0213070D01*
X0302197Y0213012D01*
X0302171Y0212956D01*
X0302140Y0212902D01*
X0302106Y0212849D01*
X0302069Y0212799D01*
X0302029Y0212751D01*
X0301986Y0212706D01*
X0301940Y0212663D01*
X0301892Y0212624D01*
X0301841Y0212588D01*
X0301788Y0212555D01*
X0301733Y0212525D01*
X0301676Y0212499D01*
X0301618Y0212477D01*
X0301558Y0212459D01*
X0301498Y0212444D01*
X0301436Y0212433D01*
X0301374Y0212426D01*
X0301312Y0212423D01*
X0301249Y0212424D01*
X0301187Y0212429D01*
X0301125Y0212438D01*
X0301064Y0212451D01*
X0301004Y0212467D01*
X0300945Y0212488D01*
X0300887Y0212512D01*
X0300831Y0212540D01*
X0300777Y0212571D01*
X0300725Y0212605D01*
X0300676Y0212643D01*
X0300628Y0212684D01*
X0300584Y0212728D01*
X0300542Y0212774D01*
X0300504Y0212824D01*
X0300468Y0212875D01*
X0300436Y0212929D01*
X0300408Y0212984D01*
X0300382Y0213041D01*
X0300361Y0213100D01*
X0300344Y0213160D01*
X0300330Y0213221D01*
X0300320Y0213282D01*
X0300314Y0213345D01*
X0300312Y0213407D01*
X0282996Y0200443D02*
X0282996Y0188632D01*
X0271185Y0188632D01*
X0271185Y0200443D01*
X0282996Y0200443D01*
X0275122Y0200443D02*
X0275124Y0200531D01*
X0275130Y0200619D01*
X0275140Y0200707D01*
X0275154Y0200795D01*
X0275171Y0200881D01*
X0275193Y0200967D01*
X0275218Y0201051D01*
X0275248Y0201135D01*
X0275280Y0201217D01*
X0275317Y0201297D01*
X0275357Y0201376D01*
X0275401Y0201453D01*
X0275448Y0201528D01*
X0275498Y0201600D01*
X0275552Y0201671D01*
X0275608Y0201738D01*
X0275668Y0201804D01*
X0275730Y0201866D01*
X0275796Y0201926D01*
X0275863Y0201982D01*
X0275934Y0202036D01*
X0276006Y0202086D01*
X0276081Y0202133D01*
X0276158Y0202177D01*
X0276237Y0202217D01*
X0276317Y0202254D01*
X0276399Y0202286D01*
X0276483Y0202316D01*
X0276567Y0202341D01*
X0276653Y0202363D01*
X0276739Y0202380D01*
X0276827Y0202394D01*
X0276915Y0202404D01*
X0277003Y0202410D01*
X0277091Y0202412D01*
X0277179Y0202410D01*
X0277267Y0202404D01*
X0277355Y0202394D01*
X0277443Y0202380D01*
X0277529Y0202363D01*
X0277615Y0202341D01*
X0277699Y0202316D01*
X0277783Y0202286D01*
X0277865Y0202254D01*
X0277945Y0202217D01*
X0278024Y0202177D01*
X0278101Y0202133D01*
X0278176Y0202086D01*
X0278248Y0202036D01*
X0278319Y0201982D01*
X0278386Y0201926D01*
X0278452Y0201866D01*
X0278514Y0201804D01*
X0278574Y0201738D01*
X0278630Y0201671D01*
X0278684Y0201600D01*
X0278734Y0201528D01*
X0278781Y0201453D01*
X0278825Y0201376D01*
X0278865Y0201297D01*
X0278902Y0201217D01*
X0278934Y0201135D01*
X0278964Y0201051D01*
X0278989Y0200967D01*
X0279011Y0200881D01*
X0279028Y0200795D01*
X0279042Y0200707D01*
X0279052Y0200619D01*
X0279058Y0200531D01*
X0279060Y0200443D01*
X0279058Y0200355D01*
X0279052Y0200267D01*
X0279042Y0200179D01*
X0279028Y0200091D01*
X0279011Y0200005D01*
X0278989Y0199919D01*
X0278964Y0199835D01*
X0278934Y0199751D01*
X0278902Y0199669D01*
X0278865Y0199589D01*
X0278825Y0199510D01*
X0278781Y0199433D01*
X0278734Y0199358D01*
X0278684Y0199286D01*
X0278630Y0199215D01*
X0278574Y0199148D01*
X0278514Y0199082D01*
X0278452Y0199020D01*
X0278386Y0198960D01*
X0278319Y0198904D01*
X0278248Y0198850D01*
X0278176Y0198800D01*
X0278101Y0198753D01*
X0278024Y0198709D01*
X0277945Y0198669D01*
X0277865Y0198632D01*
X0277783Y0198600D01*
X0277699Y0198570D01*
X0277615Y0198545D01*
X0277529Y0198523D01*
X0277443Y0198506D01*
X0277355Y0198492D01*
X0277267Y0198482D01*
X0277179Y0198476D01*
X0277091Y0198474D01*
X0277003Y0198476D01*
X0276915Y0198482D01*
X0276827Y0198492D01*
X0276739Y0198506D01*
X0276653Y0198523D01*
X0276567Y0198545D01*
X0276483Y0198570D01*
X0276399Y0198600D01*
X0276317Y0198632D01*
X0276237Y0198669D01*
X0276158Y0198709D01*
X0276081Y0198753D01*
X0276006Y0198800D01*
X0275934Y0198850D01*
X0275863Y0198904D01*
X0275796Y0198960D01*
X0275730Y0199020D01*
X0275668Y0199082D01*
X0275608Y0199148D01*
X0275552Y0199215D01*
X0275498Y0199286D01*
X0275448Y0199358D01*
X0275401Y0199433D01*
X0275357Y0199510D01*
X0275317Y0199589D01*
X0275280Y0199669D01*
X0275248Y0199751D01*
X0275218Y0199835D01*
X0275193Y0199919D01*
X0275171Y0200005D01*
X0275154Y0200091D01*
X0275140Y0200179D01*
X0275130Y0200267D01*
X0275124Y0200355D01*
X0275122Y0200443D01*
X0270831Y0186421D02*
X0270831Y0170673D01*
X0255083Y0170673D01*
X0255083Y0186421D01*
X0270831Y0186421D01*
X0268539Y0184846D02*
X0268541Y0184899D01*
X0268547Y0184952D01*
X0268557Y0185004D01*
X0268570Y0185055D01*
X0268587Y0185105D01*
X0268608Y0185154D01*
X0268633Y0185201D01*
X0268661Y0185246D01*
X0268692Y0185289D01*
X0268726Y0185329D01*
X0268763Y0185367D01*
X0268803Y0185402D01*
X0268845Y0185434D01*
X0268890Y0185462D01*
X0268936Y0185488D01*
X0268985Y0185510D01*
X0269034Y0185528D01*
X0269085Y0185542D01*
X0269137Y0185553D01*
X0269190Y0185560D01*
X0269243Y0185563D01*
X0269296Y0185562D01*
X0269348Y0185557D01*
X0269401Y0185548D01*
X0269452Y0185536D01*
X0269503Y0185519D01*
X0269552Y0185499D01*
X0269599Y0185476D01*
X0269645Y0185449D01*
X0269688Y0185418D01*
X0269729Y0185385D01*
X0269768Y0185348D01*
X0269803Y0185309D01*
X0269836Y0185267D01*
X0269866Y0185223D01*
X0269892Y0185177D01*
X0269915Y0185130D01*
X0269934Y0185080D01*
X0269949Y0185029D01*
X0269961Y0184978D01*
X0269969Y0184925D01*
X0269973Y0184872D01*
X0269973Y0184820D01*
X0269969Y0184767D01*
X0269961Y0184714D01*
X0269949Y0184663D01*
X0269934Y0184612D01*
X0269915Y0184562D01*
X0269892Y0184515D01*
X0269866Y0184469D01*
X0269836Y0184425D01*
X0269803Y0184383D01*
X0269768Y0184344D01*
X0269729Y0184307D01*
X0269688Y0184274D01*
X0269645Y0184243D01*
X0269599Y0184216D01*
X0269552Y0184193D01*
X0269503Y0184173D01*
X0269452Y0184156D01*
X0269401Y0184144D01*
X0269348Y0184135D01*
X0269296Y0184130D01*
X0269243Y0184129D01*
X0269190Y0184132D01*
X0269137Y0184139D01*
X0269085Y0184150D01*
X0269034Y0184164D01*
X0268985Y0184182D01*
X0268936Y0184204D01*
X0268890Y0184230D01*
X0268845Y0184258D01*
X0268803Y0184290D01*
X0268763Y0184325D01*
X0268726Y0184363D01*
X0268692Y0184403D01*
X0268661Y0184446D01*
X0268633Y0184491D01*
X0268608Y0184538D01*
X0268587Y0184587D01*
X0268570Y0184637D01*
X0268557Y0184688D01*
X0268547Y0184740D01*
X0268541Y0184793D01*
X0268539Y0184846D01*
X0272327Y0173750D02*
X0280201Y0173750D01*
X0280201Y0164695D01*
X0272327Y0164695D01*
X0272327Y0173750D01*
X0277720Y0166663D02*
X0277722Y0166716D01*
X0277728Y0166769D01*
X0277738Y0166821D01*
X0277751Y0166872D01*
X0277769Y0166922D01*
X0277790Y0166971D01*
X0277815Y0167018D01*
X0277843Y0167062D01*
X0277875Y0167105D01*
X0277909Y0167145D01*
X0277947Y0167183D01*
X0277987Y0167217D01*
X0278030Y0167249D01*
X0278075Y0167277D01*
X0278121Y0167302D01*
X0278170Y0167323D01*
X0278220Y0167341D01*
X0278271Y0167354D01*
X0278323Y0167364D01*
X0278376Y0167370D01*
X0278429Y0167372D01*
X0278482Y0167370D01*
X0278535Y0167364D01*
X0278587Y0167354D01*
X0278638Y0167341D01*
X0278688Y0167323D01*
X0278737Y0167302D01*
X0278784Y0167277D01*
X0278828Y0167249D01*
X0278871Y0167217D01*
X0278911Y0167183D01*
X0278949Y0167145D01*
X0278983Y0167105D01*
X0279015Y0167062D01*
X0279043Y0167017D01*
X0279068Y0166971D01*
X0279089Y0166922D01*
X0279107Y0166872D01*
X0279120Y0166821D01*
X0279130Y0166769D01*
X0279136Y0166716D01*
X0279138Y0166663D01*
X0279136Y0166610D01*
X0279130Y0166557D01*
X0279120Y0166505D01*
X0279107Y0166454D01*
X0279089Y0166404D01*
X0279068Y0166355D01*
X0279043Y0166308D01*
X0279015Y0166264D01*
X0278983Y0166221D01*
X0278949Y0166181D01*
X0278911Y0166143D01*
X0278871Y0166109D01*
X0278828Y0166077D01*
X0278783Y0166049D01*
X0278737Y0166024D01*
X0278688Y0166003D01*
X0278638Y0165985D01*
X0278587Y0165972D01*
X0278535Y0165962D01*
X0278482Y0165956D01*
X0278429Y0165954D01*
X0278376Y0165956D01*
X0278323Y0165962D01*
X0278271Y0165972D01*
X0278220Y0165985D01*
X0278170Y0166003D01*
X0278121Y0166024D01*
X0278074Y0166049D01*
X0278030Y0166077D01*
X0277987Y0166109D01*
X0277947Y0166143D01*
X0277909Y0166181D01*
X0277875Y0166221D01*
X0277843Y0166264D01*
X0277815Y0166309D01*
X0277790Y0166355D01*
X0277769Y0166404D01*
X0277751Y0166454D01*
X0277738Y0166505D01*
X0277728Y0166557D01*
X0277722Y0166610D01*
X0277720Y0166663D01*
X0286539Y0172490D02*
X0286539Y0184301D01*
X0298350Y0184301D01*
X0298350Y0172490D01*
X0286539Y0172490D01*
X0296381Y0178396D02*
X0296383Y0178484D01*
X0296389Y0178572D01*
X0296399Y0178660D01*
X0296413Y0178748D01*
X0296430Y0178834D01*
X0296452Y0178920D01*
X0296477Y0179004D01*
X0296507Y0179088D01*
X0296539Y0179170D01*
X0296576Y0179250D01*
X0296616Y0179329D01*
X0296660Y0179406D01*
X0296707Y0179481D01*
X0296757Y0179553D01*
X0296811Y0179624D01*
X0296867Y0179691D01*
X0296927Y0179757D01*
X0296989Y0179819D01*
X0297055Y0179879D01*
X0297122Y0179935D01*
X0297193Y0179989D01*
X0297265Y0180039D01*
X0297340Y0180086D01*
X0297417Y0180130D01*
X0297496Y0180170D01*
X0297576Y0180207D01*
X0297658Y0180239D01*
X0297742Y0180269D01*
X0297826Y0180294D01*
X0297912Y0180316D01*
X0297998Y0180333D01*
X0298086Y0180347D01*
X0298174Y0180357D01*
X0298262Y0180363D01*
X0298350Y0180365D01*
X0298438Y0180363D01*
X0298526Y0180357D01*
X0298614Y0180347D01*
X0298702Y0180333D01*
X0298788Y0180316D01*
X0298874Y0180294D01*
X0298958Y0180269D01*
X0299042Y0180239D01*
X0299124Y0180207D01*
X0299204Y0180170D01*
X0299283Y0180130D01*
X0299360Y0180086D01*
X0299435Y0180039D01*
X0299507Y0179989D01*
X0299578Y0179935D01*
X0299645Y0179879D01*
X0299711Y0179819D01*
X0299773Y0179757D01*
X0299833Y0179691D01*
X0299889Y0179624D01*
X0299943Y0179553D01*
X0299993Y0179481D01*
X0300040Y0179406D01*
X0300084Y0179329D01*
X0300124Y0179250D01*
X0300161Y0179170D01*
X0300193Y0179088D01*
X0300223Y0179004D01*
X0300248Y0178920D01*
X0300270Y0178834D01*
X0300287Y0178748D01*
X0300301Y0178660D01*
X0300311Y0178572D01*
X0300317Y0178484D01*
X0300319Y0178396D01*
X0300317Y0178308D01*
X0300311Y0178220D01*
X0300301Y0178132D01*
X0300287Y0178044D01*
X0300270Y0177958D01*
X0300248Y0177872D01*
X0300223Y0177788D01*
X0300193Y0177704D01*
X0300161Y0177622D01*
X0300124Y0177542D01*
X0300084Y0177463D01*
X0300040Y0177386D01*
X0299993Y0177311D01*
X0299943Y0177239D01*
X0299889Y0177168D01*
X0299833Y0177101D01*
X0299773Y0177035D01*
X0299711Y0176973D01*
X0299645Y0176913D01*
X0299578Y0176857D01*
X0299507Y0176803D01*
X0299435Y0176753D01*
X0299360Y0176706D01*
X0299283Y0176662D01*
X0299204Y0176622D01*
X0299124Y0176585D01*
X0299042Y0176553D01*
X0298958Y0176523D01*
X0298874Y0176498D01*
X0298788Y0176476D01*
X0298702Y0176459D01*
X0298614Y0176445D01*
X0298526Y0176435D01*
X0298438Y0176429D01*
X0298350Y0176427D01*
X0298262Y0176429D01*
X0298174Y0176435D01*
X0298086Y0176445D01*
X0297998Y0176459D01*
X0297912Y0176476D01*
X0297826Y0176498D01*
X0297742Y0176523D01*
X0297658Y0176553D01*
X0297576Y0176585D01*
X0297496Y0176622D01*
X0297417Y0176662D01*
X0297340Y0176706D01*
X0297265Y0176753D01*
X0297193Y0176803D01*
X0297122Y0176857D01*
X0297055Y0176913D01*
X0296989Y0176973D01*
X0296927Y0177035D01*
X0296867Y0177101D01*
X0296811Y0177168D01*
X0296757Y0177239D01*
X0296707Y0177311D01*
X0296660Y0177386D01*
X0296616Y0177463D01*
X0296576Y0177542D01*
X0296539Y0177622D01*
X0296507Y0177704D01*
X0296477Y0177788D01*
X0296452Y0177872D01*
X0296430Y0177958D01*
X0296413Y0178044D01*
X0296399Y0178132D01*
X0296389Y0178220D01*
X0296383Y0178308D01*
X0296381Y0178396D01*
X0308855Y0171860D02*
X0324603Y0171860D01*
X0324603Y0187608D01*
X0308855Y0187608D01*
X0308855Y0171860D01*
X0326303Y0174498D02*
X0326303Y0165443D01*
X0334177Y0165443D01*
X0334177Y0174498D01*
X0326303Y0174498D01*
X0331697Y0167411D02*
X0331699Y0167464D01*
X0331705Y0167517D01*
X0331715Y0167569D01*
X0331728Y0167620D01*
X0331746Y0167670D01*
X0331767Y0167719D01*
X0331792Y0167766D01*
X0331820Y0167810D01*
X0331852Y0167853D01*
X0331886Y0167893D01*
X0331924Y0167931D01*
X0331964Y0167965D01*
X0332007Y0167997D01*
X0332052Y0168025D01*
X0332098Y0168050D01*
X0332147Y0168071D01*
X0332197Y0168089D01*
X0332248Y0168102D01*
X0332300Y0168112D01*
X0332353Y0168118D01*
X0332406Y0168120D01*
X0332459Y0168118D01*
X0332512Y0168112D01*
X0332564Y0168102D01*
X0332615Y0168089D01*
X0332665Y0168071D01*
X0332714Y0168050D01*
X0332761Y0168025D01*
X0332805Y0167997D01*
X0332848Y0167965D01*
X0332888Y0167931D01*
X0332926Y0167893D01*
X0332960Y0167853D01*
X0332992Y0167810D01*
X0333020Y0167765D01*
X0333045Y0167719D01*
X0333066Y0167670D01*
X0333084Y0167620D01*
X0333097Y0167569D01*
X0333107Y0167517D01*
X0333113Y0167464D01*
X0333115Y0167411D01*
X0333113Y0167358D01*
X0333107Y0167305D01*
X0333097Y0167253D01*
X0333084Y0167202D01*
X0333066Y0167152D01*
X0333045Y0167103D01*
X0333020Y0167056D01*
X0332992Y0167012D01*
X0332960Y0166969D01*
X0332926Y0166929D01*
X0332888Y0166891D01*
X0332848Y0166857D01*
X0332805Y0166825D01*
X0332760Y0166797D01*
X0332714Y0166772D01*
X0332665Y0166751D01*
X0332615Y0166733D01*
X0332564Y0166720D01*
X0332512Y0166710D01*
X0332459Y0166704D01*
X0332406Y0166702D01*
X0332353Y0166704D01*
X0332300Y0166710D01*
X0332248Y0166720D01*
X0332197Y0166733D01*
X0332147Y0166751D01*
X0332098Y0166772D01*
X0332051Y0166797D01*
X0332007Y0166825D01*
X0331964Y0166857D01*
X0331924Y0166891D01*
X0331886Y0166929D01*
X0331852Y0166969D01*
X0331820Y0167012D01*
X0331792Y0167057D01*
X0331767Y0167103D01*
X0331746Y0167152D01*
X0331728Y0167202D01*
X0331715Y0167253D01*
X0331705Y0167305D01*
X0331699Y0167358D01*
X0331697Y0167411D01*
X0322311Y0186033D02*
X0322313Y0186086D01*
X0322319Y0186139D01*
X0322329Y0186191D01*
X0322342Y0186242D01*
X0322359Y0186292D01*
X0322380Y0186341D01*
X0322405Y0186388D01*
X0322433Y0186433D01*
X0322464Y0186476D01*
X0322498Y0186516D01*
X0322535Y0186554D01*
X0322575Y0186589D01*
X0322617Y0186621D01*
X0322662Y0186649D01*
X0322708Y0186675D01*
X0322757Y0186697D01*
X0322806Y0186715D01*
X0322857Y0186729D01*
X0322909Y0186740D01*
X0322962Y0186747D01*
X0323015Y0186750D01*
X0323068Y0186749D01*
X0323120Y0186744D01*
X0323173Y0186735D01*
X0323224Y0186723D01*
X0323275Y0186706D01*
X0323324Y0186686D01*
X0323371Y0186663D01*
X0323417Y0186636D01*
X0323460Y0186605D01*
X0323501Y0186572D01*
X0323540Y0186535D01*
X0323575Y0186496D01*
X0323608Y0186454D01*
X0323638Y0186410D01*
X0323664Y0186364D01*
X0323687Y0186317D01*
X0323706Y0186267D01*
X0323721Y0186216D01*
X0323733Y0186165D01*
X0323741Y0186112D01*
X0323745Y0186059D01*
X0323745Y0186007D01*
X0323741Y0185954D01*
X0323733Y0185901D01*
X0323721Y0185850D01*
X0323706Y0185799D01*
X0323687Y0185749D01*
X0323664Y0185702D01*
X0323638Y0185656D01*
X0323608Y0185612D01*
X0323575Y0185570D01*
X0323540Y0185531D01*
X0323501Y0185494D01*
X0323460Y0185461D01*
X0323417Y0185430D01*
X0323371Y0185403D01*
X0323324Y0185380D01*
X0323275Y0185360D01*
X0323224Y0185343D01*
X0323173Y0185331D01*
X0323120Y0185322D01*
X0323068Y0185317D01*
X0323015Y0185316D01*
X0322962Y0185319D01*
X0322909Y0185326D01*
X0322857Y0185337D01*
X0322806Y0185351D01*
X0322757Y0185369D01*
X0322708Y0185391D01*
X0322662Y0185417D01*
X0322617Y0185445D01*
X0322575Y0185477D01*
X0322535Y0185512D01*
X0322498Y0185550D01*
X0322464Y0185590D01*
X0322433Y0185633D01*
X0322405Y0185678D01*
X0322380Y0185725D01*
X0322359Y0185774D01*
X0322342Y0185824D01*
X0322329Y0185875D01*
X0322319Y0185927D01*
X0322313Y0185980D01*
X0322311Y0186033D01*
X0325516Y0189026D02*
X0337327Y0189026D01*
X0337327Y0200837D01*
X0325516Y0200837D01*
X0325516Y0189026D01*
X0329452Y0200837D02*
X0329454Y0200925D01*
X0329460Y0201013D01*
X0329470Y0201101D01*
X0329484Y0201189D01*
X0329501Y0201275D01*
X0329523Y0201361D01*
X0329548Y0201445D01*
X0329578Y0201529D01*
X0329610Y0201611D01*
X0329647Y0201691D01*
X0329687Y0201770D01*
X0329731Y0201847D01*
X0329778Y0201922D01*
X0329828Y0201994D01*
X0329882Y0202065D01*
X0329938Y0202132D01*
X0329998Y0202198D01*
X0330060Y0202260D01*
X0330126Y0202320D01*
X0330193Y0202376D01*
X0330264Y0202430D01*
X0330336Y0202480D01*
X0330411Y0202527D01*
X0330488Y0202571D01*
X0330567Y0202611D01*
X0330647Y0202648D01*
X0330729Y0202680D01*
X0330813Y0202710D01*
X0330897Y0202735D01*
X0330983Y0202757D01*
X0331069Y0202774D01*
X0331157Y0202788D01*
X0331245Y0202798D01*
X0331333Y0202804D01*
X0331421Y0202806D01*
X0331509Y0202804D01*
X0331597Y0202798D01*
X0331685Y0202788D01*
X0331773Y0202774D01*
X0331859Y0202757D01*
X0331945Y0202735D01*
X0332029Y0202710D01*
X0332113Y0202680D01*
X0332195Y0202648D01*
X0332275Y0202611D01*
X0332354Y0202571D01*
X0332431Y0202527D01*
X0332506Y0202480D01*
X0332578Y0202430D01*
X0332649Y0202376D01*
X0332716Y0202320D01*
X0332782Y0202260D01*
X0332844Y0202198D01*
X0332904Y0202132D01*
X0332960Y0202065D01*
X0333014Y0201994D01*
X0333064Y0201922D01*
X0333111Y0201847D01*
X0333155Y0201770D01*
X0333195Y0201691D01*
X0333232Y0201611D01*
X0333264Y0201529D01*
X0333294Y0201445D01*
X0333319Y0201361D01*
X0333341Y0201275D01*
X0333358Y0201189D01*
X0333372Y0201101D01*
X0333382Y0201013D01*
X0333388Y0200925D01*
X0333390Y0200837D01*
X0333388Y0200749D01*
X0333382Y0200661D01*
X0333372Y0200573D01*
X0333358Y0200485D01*
X0333341Y0200399D01*
X0333319Y0200313D01*
X0333294Y0200229D01*
X0333264Y0200145D01*
X0333232Y0200063D01*
X0333195Y0199983D01*
X0333155Y0199904D01*
X0333111Y0199827D01*
X0333064Y0199752D01*
X0333014Y0199680D01*
X0332960Y0199609D01*
X0332904Y0199542D01*
X0332844Y0199476D01*
X0332782Y0199414D01*
X0332716Y0199354D01*
X0332649Y0199298D01*
X0332578Y0199244D01*
X0332506Y0199194D01*
X0332431Y0199147D01*
X0332354Y0199103D01*
X0332275Y0199063D01*
X0332195Y0199026D01*
X0332113Y0198994D01*
X0332029Y0198964D01*
X0331945Y0198939D01*
X0331859Y0198917D01*
X0331773Y0198900D01*
X0331685Y0198886D01*
X0331597Y0198876D01*
X0331509Y0198870D01*
X0331421Y0198868D01*
X0331333Y0198870D01*
X0331245Y0198876D01*
X0331157Y0198886D01*
X0331069Y0198900D01*
X0330983Y0198917D01*
X0330897Y0198939D01*
X0330813Y0198964D01*
X0330729Y0198994D01*
X0330647Y0199026D01*
X0330567Y0199063D01*
X0330488Y0199103D01*
X0330411Y0199147D01*
X0330336Y0199194D01*
X0330264Y0199244D01*
X0330193Y0199298D01*
X0330126Y0199354D01*
X0330060Y0199414D01*
X0329998Y0199476D01*
X0329938Y0199542D01*
X0329882Y0199609D01*
X0329828Y0199680D01*
X0329778Y0199752D01*
X0329731Y0199827D01*
X0329687Y0199904D01*
X0329647Y0199983D01*
X0329610Y0200063D01*
X0329578Y0200145D01*
X0329548Y0200229D01*
X0329523Y0200313D01*
X0329501Y0200399D01*
X0329484Y0200485D01*
X0329470Y0200573D01*
X0329460Y0200661D01*
X0329454Y0200749D01*
X0329452Y0200837D01*
X0358193Y0185876D02*
X0358193Y0174065D01*
X0370004Y0174065D01*
X0370004Y0185876D01*
X0358193Y0185876D01*
X0362129Y0174065D02*
X0362131Y0174153D01*
X0362137Y0174241D01*
X0362147Y0174329D01*
X0362161Y0174417D01*
X0362178Y0174503D01*
X0362200Y0174589D01*
X0362225Y0174673D01*
X0362255Y0174757D01*
X0362287Y0174839D01*
X0362324Y0174919D01*
X0362364Y0174998D01*
X0362408Y0175075D01*
X0362455Y0175150D01*
X0362505Y0175222D01*
X0362559Y0175293D01*
X0362615Y0175360D01*
X0362675Y0175426D01*
X0362737Y0175488D01*
X0362803Y0175548D01*
X0362870Y0175604D01*
X0362941Y0175658D01*
X0363013Y0175708D01*
X0363088Y0175755D01*
X0363165Y0175799D01*
X0363244Y0175839D01*
X0363324Y0175876D01*
X0363406Y0175908D01*
X0363490Y0175938D01*
X0363574Y0175963D01*
X0363660Y0175985D01*
X0363746Y0176002D01*
X0363834Y0176016D01*
X0363922Y0176026D01*
X0364010Y0176032D01*
X0364098Y0176034D01*
X0364186Y0176032D01*
X0364274Y0176026D01*
X0364362Y0176016D01*
X0364450Y0176002D01*
X0364536Y0175985D01*
X0364622Y0175963D01*
X0364706Y0175938D01*
X0364790Y0175908D01*
X0364872Y0175876D01*
X0364952Y0175839D01*
X0365031Y0175799D01*
X0365108Y0175755D01*
X0365183Y0175708D01*
X0365255Y0175658D01*
X0365326Y0175604D01*
X0365393Y0175548D01*
X0365459Y0175488D01*
X0365521Y0175426D01*
X0365581Y0175360D01*
X0365637Y0175293D01*
X0365691Y0175222D01*
X0365741Y0175150D01*
X0365788Y0175075D01*
X0365832Y0174998D01*
X0365872Y0174919D01*
X0365909Y0174839D01*
X0365941Y0174757D01*
X0365971Y0174673D01*
X0365996Y0174589D01*
X0366018Y0174503D01*
X0366035Y0174417D01*
X0366049Y0174329D01*
X0366059Y0174241D01*
X0366065Y0174153D01*
X0366067Y0174065D01*
X0366065Y0173977D01*
X0366059Y0173889D01*
X0366049Y0173801D01*
X0366035Y0173713D01*
X0366018Y0173627D01*
X0365996Y0173541D01*
X0365971Y0173457D01*
X0365941Y0173373D01*
X0365909Y0173291D01*
X0365872Y0173211D01*
X0365832Y0173132D01*
X0365788Y0173055D01*
X0365741Y0172980D01*
X0365691Y0172908D01*
X0365637Y0172837D01*
X0365581Y0172770D01*
X0365521Y0172704D01*
X0365459Y0172642D01*
X0365393Y0172582D01*
X0365326Y0172526D01*
X0365255Y0172472D01*
X0365183Y0172422D01*
X0365108Y0172375D01*
X0365031Y0172331D01*
X0364952Y0172291D01*
X0364872Y0172254D01*
X0364790Y0172222D01*
X0364706Y0172192D01*
X0364622Y0172167D01*
X0364536Y0172145D01*
X0364450Y0172128D01*
X0364362Y0172114D01*
X0364274Y0172104D01*
X0364186Y0172098D01*
X0364098Y0172096D01*
X0364010Y0172098D01*
X0363922Y0172104D01*
X0363834Y0172114D01*
X0363746Y0172128D01*
X0363660Y0172145D01*
X0363574Y0172167D01*
X0363490Y0172192D01*
X0363406Y0172222D01*
X0363324Y0172254D01*
X0363244Y0172291D01*
X0363165Y0172331D01*
X0363088Y0172375D01*
X0363013Y0172422D01*
X0362941Y0172472D01*
X0362870Y0172526D01*
X0362803Y0172582D01*
X0362737Y0172642D01*
X0362675Y0172704D01*
X0362615Y0172770D01*
X0362559Y0172837D01*
X0362505Y0172908D01*
X0362455Y0172980D01*
X0362408Y0173055D01*
X0362364Y0173132D01*
X0362324Y0173211D01*
X0362287Y0173291D01*
X0362255Y0173373D01*
X0362225Y0173457D01*
X0362200Y0173541D01*
X0362178Y0173627D01*
X0362161Y0173713D01*
X0362147Y0173801D01*
X0362137Y0173889D01*
X0362131Y0173977D01*
X0362129Y0174065D01*
X0380883Y0167049D02*
X0396631Y0167049D01*
X0396631Y0182797D01*
X0380883Y0182797D01*
X0380883Y0167049D01*
X0394339Y0181222D02*
X0394341Y0181275D01*
X0394347Y0181328D01*
X0394357Y0181380D01*
X0394370Y0181431D01*
X0394387Y0181481D01*
X0394408Y0181530D01*
X0394433Y0181577D01*
X0394461Y0181622D01*
X0394492Y0181665D01*
X0394526Y0181705D01*
X0394563Y0181743D01*
X0394603Y0181778D01*
X0394645Y0181810D01*
X0394690Y0181838D01*
X0394736Y0181864D01*
X0394785Y0181886D01*
X0394834Y0181904D01*
X0394885Y0181918D01*
X0394937Y0181929D01*
X0394990Y0181936D01*
X0395043Y0181939D01*
X0395096Y0181938D01*
X0395148Y0181933D01*
X0395201Y0181924D01*
X0395252Y0181912D01*
X0395303Y0181895D01*
X0395352Y0181875D01*
X0395399Y0181852D01*
X0395445Y0181825D01*
X0395488Y0181794D01*
X0395529Y0181761D01*
X0395568Y0181724D01*
X0395603Y0181685D01*
X0395636Y0181643D01*
X0395666Y0181599D01*
X0395692Y0181553D01*
X0395715Y0181506D01*
X0395734Y0181456D01*
X0395749Y0181405D01*
X0395761Y0181354D01*
X0395769Y0181301D01*
X0395773Y0181248D01*
X0395773Y0181196D01*
X0395769Y0181143D01*
X0395761Y0181090D01*
X0395749Y0181039D01*
X0395734Y0180988D01*
X0395715Y0180938D01*
X0395692Y0180891D01*
X0395666Y0180845D01*
X0395636Y0180801D01*
X0395603Y0180759D01*
X0395568Y0180720D01*
X0395529Y0180683D01*
X0395488Y0180650D01*
X0395445Y0180619D01*
X0395399Y0180592D01*
X0395352Y0180569D01*
X0395303Y0180549D01*
X0395252Y0180532D01*
X0395201Y0180520D01*
X0395148Y0180511D01*
X0395096Y0180506D01*
X0395043Y0180505D01*
X0394990Y0180508D01*
X0394937Y0180515D01*
X0394885Y0180526D01*
X0394834Y0180540D01*
X0394785Y0180558D01*
X0394736Y0180580D01*
X0394690Y0180606D01*
X0394645Y0180634D01*
X0394603Y0180666D01*
X0394563Y0180701D01*
X0394526Y0180739D01*
X0394492Y0180779D01*
X0394461Y0180822D01*
X0394433Y0180867D01*
X0394408Y0180914D01*
X0394387Y0180963D01*
X0394370Y0181013D01*
X0394357Y0181064D01*
X0394347Y0181116D01*
X0394341Y0181169D01*
X0394339Y0181222D01*
X0397760Y0184498D02*
X0409571Y0184498D01*
X0409571Y0196309D01*
X0397760Y0196309D01*
X0397760Y0184498D01*
X0401696Y0196309D02*
X0401698Y0196397D01*
X0401704Y0196485D01*
X0401714Y0196573D01*
X0401728Y0196661D01*
X0401745Y0196747D01*
X0401767Y0196833D01*
X0401792Y0196917D01*
X0401822Y0197001D01*
X0401854Y0197083D01*
X0401891Y0197163D01*
X0401931Y0197242D01*
X0401975Y0197319D01*
X0402022Y0197394D01*
X0402072Y0197466D01*
X0402126Y0197537D01*
X0402182Y0197604D01*
X0402242Y0197670D01*
X0402304Y0197732D01*
X0402370Y0197792D01*
X0402437Y0197848D01*
X0402508Y0197902D01*
X0402580Y0197952D01*
X0402655Y0197999D01*
X0402732Y0198043D01*
X0402811Y0198083D01*
X0402891Y0198120D01*
X0402973Y0198152D01*
X0403057Y0198182D01*
X0403141Y0198207D01*
X0403227Y0198229D01*
X0403313Y0198246D01*
X0403401Y0198260D01*
X0403489Y0198270D01*
X0403577Y0198276D01*
X0403665Y0198278D01*
X0403753Y0198276D01*
X0403841Y0198270D01*
X0403929Y0198260D01*
X0404017Y0198246D01*
X0404103Y0198229D01*
X0404189Y0198207D01*
X0404273Y0198182D01*
X0404357Y0198152D01*
X0404439Y0198120D01*
X0404519Y0198083D01*
X0404598Y0198043D01*
X0404675Y0197999D01*
X0404750Y0197952D01*
X0404822Y0197902D01*
X0404893Y0197848D01*
X0404960Y0197792D01*
X0405026Y0197732D01*
X0405088Y0197670D01*
X0405148Y0197604D01*
X0405204Y0197537D01*
X0405258Y0197466D01*
X0405308Y0197394D01*
X0405355Y0197319D01*
X0405399Y0197242D01*
X0405439Y0197163D01*
X0405476Y0197083D01*
X0405508Y0197001D01*
X0405538Y0196917D01*
X0405563Y0196833D01*
X0405585Y0196747D01*
X0405602Y0196661D01*
X0405616Y0196573D01*
X0405626Y0196485D01*
X0405632Y0196397D01*
X0405634Y0196309D01*
X0405632Y0196221D01*
X0405626Y0196133D01*
X0405616Y0196045D01*
X0405602Y0195957D01*
X0405585Y0195871D01*
X0405563Y0195785D01*
X0405538Y0195701D01*
X0405508Y0195617D01*
X0405476Y0195535D01*
X0405439Y0195455D01*
X0405399Y0195376D01*
X0405355Y0195299D01*
X0405308Y0195224D01*
X0405258Y0195152D01*
X0405204Y0195081D01*
X0405148Y0195014D01*
X0405088Y0194948D01*
X0405026Y0194886D01*
X0404960Y0194826D01*
X0404893Y0194770D01*
X0404822Y0194716D01*
X0404750Y0194666D01*
X0404675Y0194619D01*
X0404598Y0194575D01*
X0404519Y0194535D01*
X0404439Y0194498D01*
X0404357Y0194466D01*
X0404273Y0194436D01*
X0404189Y0194411D01*
X0404103Y0194389D01*
X0404017Y0194372D01*
X0403929Y0194358D01*
X0403841Y0194348D01*
X0403753Y0194342D01*
X0403665Y0194340D01*
X0403577Y0194342D01*
X0403489Y0194348D01*
X0403401Y0194358D01*
X0403313Y0194372D01*
X0403227Y0194389D01*
X0403141Y0194411D01*
X0403057Y0194436D01*
X0402973Y0194466D01*
X0402891Y0194498D01*
X0402811Y0194535D01*
X0402732Y0194575D01*
X0402655Y0194619D01*
X0402580Y0194666D01*
X0402508Y0194716D01*
X0402437Y0194770D01*
X0402370Y0194826D01*
X0402304Y0194886D01*
X0402242Y0194948D01*
X0402182Y0195014D01*
X0402126Y0195081D01*
X0402072Y0195152D01*
X0402022Y0195224D01*
X0401975Y0195299D01*
X0401931Y0195376D01*
X0401891Y0195455D01*
X0401854Y0195535D01*
X0401822Y0195617D01*
X0401792Y0195701D01*
X0401767Y0195785D01*
X0401745Y0195871D01*
X0401728Y0195957D01*
X0401714Y0196045D01*
X0401704Y0196133D01*
X0401698Y0196221D01*
X0401696Y0196309D01*
X0398783Y0169341D02*
X0406657Y0169341D01*
X0406657Y0160285D01*
X0398783Y0160285D01*
X0398783Y0169341D01*
X0404177Y0162254D02*
X0404179Y0162307D01*
X0404185Y0162360D01*
X0404195Y0162412D01*
X0404208Y0162463D01*
X0404226Y0162513D01*
X0404247Y0162562D01*
X0404272Y0162609D01*
X0404300Y0162653D01*
X0404332Y0162696D01*
X0404366Y0162736D01*
X0404404Y0162774D01*
X0404444Y0162808D01*
X0404487Y0162840D01*
X0404532Y0162868D01*
X0404578Y0162893D01*
X0404627Y0162914D01*
X0404677Y0162932D01*
X0404728Y0162945D01*
X0404780Y0162955D01*
X0404833Y0162961D01*
X0404886Y0162963D01*
X0404939Y0162961D01*
X0404992Y0162955D01*
X0405044Y0162945D01*
X0405095Y0162932D01*
X0405145Y0162914D01*
X0405194Y0162893D01*
X0405241Y0162868D01*
X0405285Y0162840D01*
X0405328Y0162808D01*
X0405368Y0162774D01*
X0405406Y0162736D01*
X0405440Y0162696D01*
X0405472Y0162653D01*
X0405500Y0162608D01*
X0405525Y0162562D01*
X0405546Y0162513D01*
X0405564Y0162463D01*
X0405577Y0162412D01*
X0405587Y0162360D01*
X0405593Y0162307D01*
X0405595Y0162254D01*
X0405593Y0162201D01*
X0405587Y0162148D01*
X0405577Y0162096D01*
X0405564Y0162045D01*
X0405546Y0161995D01*
X0405525Y0161946D01*
X0405500Y0161899D01*
X0405472Y0161855D01*
X0405440Y0161812D01*
X0405406Y0161772D01*
X0405368Y0161734D01*
X0405328Y0161700D01*
X0405285Y0161668D01*
X0405240Y0161640D01*
X0405194Y0161615D01*
X0405145Y0161594D01*
X0405095Y0161576D01*
X0405044Y0161563D01*
X0404992Y0161553D01*
X0404939Y0161547D01*
X0404886Y0161545D01*
X0404833Y0161547D01*
X0404780Y0161553D01*
X0404728Y0161563D01*
X0404677Y0161576D01*
X0404627Y0161594D01*
X0404578Y0161615D01*
X0404531Y0161640D01*
X0404487Y0161668D01*
X0404444Y0161700D01*
X0404404Y0161734D01*
X0404366Y0161772D01*
X0404332Y0161812D01*
X0404300Y0161855D01*
X0404272Y0161900D01*
X0404247Y0161946D01*
X0404226Y0161995D01*
X0404208Y0162045D01*
X0404195Y0162096D01*
X0404185Y0162148D01*
X0404179Y0162201D01*
X0404177Y0162254D01*
X0244020Y0177608D02*
X0232209Y0177608D01*
X0232209Y0189419D01*
X0244020Y0189419D01*
X0244020Y0177608D01*
X0236145Y0177608D02*
X0236147Y0177696D01*
X0236153Y0177784D01*
X0236163Y0177872D01*
X0236177Y0177960D01*
X0236194Y0178046D01*
X0236216Y0178132D01*
X0236241Y0178216D01*
X0236271Y0178300D01*
X0236303Y0178382D01*
X0236340Y0178462D01*
X0236380Y0178541D01*
X0236424Y0178618D01*
X0236471Y0178693D01*
X0236521Y0178765D01*
X0236575Y0178836D01*
X0236631Y0178903D01*
X0236691Y0178969D01*
X0236753Y0179031D01*
X0236819Y0179091D01*
X0236886Y0179147D01*
X0236957Y0179201D01*
X0237029Y0179251D01*
X0237104Y0179298D01*
X0237181Y0179342D01*
X0237260Y0179382D01*
X0237340Y0179419D01*
X0237422Y0179451D01*
X0237506Y0179481D01*
X0237590Y0179506D01*
X0237676Y0179528D01*
X0237762Y0179545D01*
X0237850Y0179559D01*
X0237938Y0179569D01*
X0238026Y0179575D01*
X0238114Y0179577D01*
X0238202Y0179575D01*
X0238290Y0179569D01*
X0238378Y0179559D01*
X0238466Y0179545D01*
X0238552Y0179528D01*
X0238638Y0179506D01*
X0238722Y0179481D01*
X0238806Y0179451D01*
X0238888Y0179419D01*
X0238968Y0179382D01*
X0239047Y0179342D01*
X0239124Y0179298D01*
X0239199Y0179251D01*
X0239271Y0179201D01*
X0239342Y0179147D01*
X0239409Y0179091D01*
X0239475Y0179031D01*
X0239537Y0178969D01*
X0239597Y0178903D01*
X0239653Y0178836D01*
X0239707Y0178765D01*
X0239757Y0178693D01*
X0239804Y0178618D01*
X0239848Y0178541D01*
X0239888Y0178462D01*
X0239925Y0178382D01*
X0239957Y0178300D01*
X0239987Y0178216D01*
X0240012Y0178132D01*
X0240034Y0178046D01*
X0240051Y0177960D01*
X0240065Y0177872D01*
X0240075Y0177784D01*
X0240081Y0177696D01*
X0240083Y0177608D01*
X0240081Y0177520D01*
X0240075Y0177432D01*
X0240065Y0177344D01*
X0240051Y0177256D01*
X0240034Y0177170D01*
X0240012Y0177084D01*
X0239987Y0177000D01*
X0239957Y0176916D01*
X0239925Y0176834D01*
X0239888Y0176754D01*
X0239848Y0176675D01*
X0239804Y0176598D01*
X0239757Y0176523D01*
X0239707Y0176451D01*
X0239653Y0176380D01*
X0239597Y0176313D01*
X0239537Y0176247D01*
X0239475Y0176185D01*
X0239409Y0176125D01*
X0239342Y0176069D01*
X0239271Y0176015D01*
X0239199Y0175965D01*
X0239124Y0175918D01*
X0239047Y0175874D01*
X0238968Y0175834D01*
X0238888Y0175797D01*
X0238806Y0175765D01*
X0238722Y0175735D01*
X0238638Y0175710D01*
X0238552Y0175688D01*
X0238466Y0175671D01*
X0238378Y0175657D01*
X0238290Y0175647D01*
X0238202Y0175641D01*
X0238114Y0175639D01*
X0238026Y0175641D01*
X0237938Y0175647D01*
X0237850Y0175657D01*
X0237762Y0175671D01*
X0237676Y0175688D01*
X0237590Y0175710D01*
X0237506Y0175735D01*
X0237422Y0175765D01*
X0237340Y0175797D01*
X0237260Y0175834D01*
X0237181Y0175874D01*
X0237104Y0175918D01*
X0237029Y0175965D01*
X0236957Y0176015D01*
X0236886Y0176069D01*
X0236819Y0176125D01*
X0236753Y0176185D01*
X0236691Y0176247D01*
X0236631Y0176313D01*
X0236575Y0176380D01*
X0236521Y0176451D01*
X0236471Y0176523D01*
X0236424Y0176598D01*
X0236380Y0176675D01*
X0236340Y0176754D01*
X0236303Y0176834D01*
X0236271Y0176916D01*
X0236241Y0177000D01*
X0236216Y0177084D01*
X0236194Y0177170D01*
X0236177Y0177256D01*
X0236163Y0177344D01*
X0236153Y0177432D01*
X0236147Y0177520D01*
X0236145Y0177608D01*
X0240043Y0195089D02*
X0228232Y0195089D01*
X0228232Y0206900D01*
X0240043Y0206900D01*
X0240043Y0195089D01*
X0244842Y0219347D02*
X0249763Y0219347D01*
X0249763Y0227418D01*
X0244842Y0227418D01*
X0244842Y0219347D01*
X0245780Y0220922D02*
X0245782Y0220964D01*
X0245788Y0221005D01*
X0245798Y0221046D01*
X0245812Y0221086D01*
X0245829Y0221124D01*
X0245850Y0221160D01*
X0245874Y0221194D01*
X0245902Y0221226D01*
X0245932Y0221255D01*
X0245965Y0221280D01*
X0246000Y0221303D01*
X0246037Y0221322D01*
X0246076Y0221338D01*
X0246116Y0221350D01*
X0246157Y0221358D01*
X0246199Y0221362D01*
X0246241Y0221362D01*
X0246283Y0221358D01*
X0246324Y0221350D01*
X0246364Y0221338D01*
X0246403Y0221322D01*
X0246440Y0221303D01*
X0246475Y0221280D01*
X0246508Y0221255D01*
X0246538Y0221226D01*
X0246566Y0221194D01*
X0246590Y0221160D01*
X0246611Y0221124D01*
X0246628Y0221086D01*
X0246642Y0221046D01*
X0246652Y0221005D01*
X0246658Y0220964D01*
X0246660Y0220922D01*
X0246658Y0220880D01*
X0246652Y0220839D01*
X0246642Y0220798D01*
X0246628Y0220758D01*
X0246611Y0220720D01*
X0246590Y0220684D01*
X0246566Y0220650D01*
X0246538Y0220618D01*
X0246508Y0220589D01*
X0246475Y0220564D01*
X0246440Y0220541D01*
X0246403Y0220522D01*
X0246364Y0220506D01*
X0246324Y0220494D01*
X0246283Y0220486D01*
X0246241Y0220482D01*
X0246199Y0220482D01*
X0246157Y0220486D01*
X0246116Y0220494D01*
X0246076Y0220506D01*
X0246037Y0220522D01*
X0246000Y0220541D01*
X0245965Y0220564D01*
X0245932Y0220589D01*
X0245902Y0220618D01*
X0245874Y0220650D01*
X0245850Y0220684D01*
X0245829Y0220720D01*
X0245812Y0220758D01*
X0245798Y0220798D01*
X0245788Y0220839D01*
X0245782Y0220880D01*
X0245780Y0220922D01*
X0096776Y0220995D02*
X0096776Y0212924D01*
X0091854Y0212924D01*
X0091854Y0220995D01*
X0096776Y0220995D01*
X0092792Y0214499D02*
X0092794Y0214541D01*
X0092800Y0214582D01*
X0092810Y0214623D01*
X0092824Y0214663D01*
X0092841Y0214701D01*
X0092862Y0214737D01*
X0092886Y0214771D01*
X0092914Y0214803D01*
X0092944Y0214832D01*
X0092977Y0214857D01*
X0093012Y0214880D01*
X0093049Y0214899D01*
X0093088Y0214915D01*
X0093128Y0214927D01*
X0093169Y0214935D01*
X0093211Y0214939D01*
X0093253Y0214939D01*
X0093295Y0214935D01*
X0093336Y0214927D01*
X0093376Y0214915D01*
X0093415Y0214899D01*
X0093452Y0214880D01*
X0093487Y0214857D01*
X0093520Y0214832D01*
X0093550Y0214803D01*
X0093578Y0214771D01*
X0093602Y0214737D01*
X0093623Y0214701D01*
X0093640Y0214663D01*
X0093654Y0214623D01*
X0093664Y0214582D01*
X0093670Y0214541D01*
X0093672Y0214499D01*
X0093670Y0214457D01*
X0093664Y0214416D01*
X0093654Y0214375D01*
X0093640Y0214335D01*
X0093623Y0214297D01*
X0093602Y0214261D01*
X0093578Y0214227D01*
X0093550Y0214195D01*
X0093520Y0214166D01*
X0093487Y0214141D01*
X0093452Y0214118D01*
X0093415Y0214099D01*
X0093376Y0214083D01*
X0093336Y0214071D01*
X0093295Y0214063D01*
X0093253Y0214059D01*
X0093211Y0214059D01*
X0093169Y0214063D01*
X0093128Y0214071D01*
X0093088Y0214083D01*
X0093049Y0214099D01*
X0093012Y0214118D01*
X0092977Y0214141D01*
X0092944Y0214166D01*
X0092914Y0214195D01*
X0092886Y0214227D01*
X0092862Y0214261D01*
X0092841Y0214297D01*
X0092824Y0214335D01*
X0092810Y0214375D01*
X0092800Y0214416D01*
X0092794Y0214457D01*
X0092792Y0214499D01*
X0597635Y0210470D02*
X0602556Y0210470D01*
X0602556Y0218541D01*
X0597635Y0218541D01*
X0597635Y0210470D01*
X0600738Y0216967D02*
X0600740Y0217009D01*
X0600746Y0217050D01*
X0600756Y0217091D01*
X0600770Y0217131D01*
X0600787Y0217169D01*
X0600808Y0217205D01*
X0600832Y0217239D01*
X0600860Y0217271D01*
X0600890Y0217300D01*
X0600923Y0217325D01*
X0600958Y0217348D01*
X0600995Y0217367D01*
X0601034Y0217383D01*
X0601074Y0217395D01*
X0601115Y0217403D01*
X0601157Y0217407D01*
X0601199Y0217407D01*
X0601241Y0217403D01*
X0601282Y0217395D01*
X0601322Y0217383D01*
X0601361Y0217367D01*
X0601398Y0217348D01*
X0601433Y0217325D01*
X0601466Y0217300D01*
X0601496Y0217271D01*
X0601524Y0217239D01*
X0601548Y0217205D01*
X0601569Y0217169D01*
X0601586Y0217131D01*
X0601600Y0217091D01*
X0601610Y0217050D01*
X0601616Y0217009D01*
X0601618Y0216967D01*
X0601616Y0216925D01*
X0601610Y0216884D01*
X0601600Y0216843D01*
X0601586Y0216803D01*
X0601569Y0216765D01*
X0601548Y0216729D01*
X0601524Y0216695D01*
X0601496Y0216663D01*
X0601466Y0216634D01*
X0601433Y0216609D01*
X0601398Y0216586D01*
X0601361Y0216567D01*
X0601322Y0216551D01*
X0601282Y0216539D01*
X0601241Y0216531D01*
X0601199Y0216527D01*
X0601157Y0216527D01*
X0601115Y0216531D01*
X0601074Y0216539D01*
X0601034Y0216551D01*
X0600995Y0216567D01*
X0600958Y0216586D01*
X0600923Y0216609D01*
X0600890Y0216634D01*
X0600860Y0216663D01*
X0600832Y0216695D01*
X0600808Y0216729D01*
X0600787Y0216765D01*
X0600770Y0216803D01*
X0600756Y0216843D01*
X0600746Y0216884D01*
X0600740Y0216925D01*
X0600738Y0216967D01*
D12*
X0441890Y0231511D02*
X0441890Y0233213D01*
X0441322Y0233780D01*
X0440188Y0233780D01*
X0439621Y0233213D01*
X0439621Y0231511D01*
X0438487Y0231511D02*
X0441890Y0231511D01*
X0439621Y0232646D02*
X0438487Y0233780D01*
X0438487Y0235195D02*
X0438487Y0237463D01*
X0438487Y0236329D02*
X0441890Y0236329D01*
X0440755Y0235195D01*
X0440188Y0238878D02*
X0440188Y0241146D01*
X0438487Y0240579D02*
X0441890Y0240579D01*
X0440188Y0238878D01*
X0439054Y0242561D02*
X0441322Y0244829D01*
X0439054Y0244829D01*
X0438487Y0244262D01*
X0438487Y0243128D01*
X0439054Y0242561D01*
X0441322Y0242561D01*
X0441890Y0243128D01*
X0441890Y0244262D01*
X0441322Y0244829D01*
D13*
X0370200Y0272293D02*
X0370202Y0272332D01*
X0370208Y0272371D01*
X0370218Y0272409D01*
X0370231Y0272446D01*
X0370248Y0272481D01*
X0370268Y0272515D01*
X0370292Y0272546D01*
X0370319Y0272575D01*
X0370348Y0272601D01*
X0370380Y0272624D01*
X0370414Y0272644D01*
X0370450Y0272660D01*
X0370487Y0272672D01*
X0370526Y0272681D01*
X0370565Y0272686D01*
X0370604Y0272687D01*
X0370643Y0272684D01*
X0370682Y0272677D01*
X0370719Y0272666D01*
X0370756Y0272652D01*
X0370791Y0272634D01*
X0370824Y0272613D01*
X0370855Y0272588D01*
X0370883Y0272561D01*
X0370908Y0272531D01*
X0370930Y0272498D01*
X0370949Y0272464D01*
X0370964Y0272428D01*
X0370976Y0272390D01*
X0370984Y0272352D01*
X0370988Y0272313D01*
X0370988Y0272273D01*
X0370984Y0272234D01*
X0370976Y0272196D01*
X0370964Y0272158D01*
X0370949Y0272122D01*
X0370930Y0272088D01*
X0370908Y0272055D01*
X0370883Y0272025D01*
X0370855Y0271998D01*
X0370824Y0271973D01*
X0370791Y0271952D01*
X0370756Y0271934D01*
X0370719Y0271920D01*
X0370682Y0271909D01*
X0370643Y0271902D01*
X0370604Y0271899D01*
X0370565Y0271900D01*
X0370526Y0271905D01*
X0370487Y0271914D01*
X0370450Y0271926D01*
X0370414Y0271942D01*
X0370380Y0271962D01*
X0370348Y0271985D01*
X0370319Y0272011D01*
X0370292Y0272040D01*
X0370268Y0272071D01*
X0370248Y0272105D01*
X0370231Y0272140D01*
X0370218Y0272177D01*
X0370208Y0272215D01*
X0370202Y0272254D01*
X0370200Y0272293D01*
D14*
X0281811Y0292271D02*
X0281858Y0292212D01*
X0281903Y0292150D01*
X0281944Y0292086D01*
X0281982Y0292020D01*
X0282016Y0291952D01*
X0282047Y0291883D01*
X0282074Y0291812D01*
X0282098Y0291740D01*
X0282118Y0291667D01*
X0282135Y0291592D01*
X0282147Y0291517D01*
X0282156Y0291442D01*
X0282161Y0291366D01*
X0282162Y0291290D01*
X0282159Y0291214D01*
X0282153Y0291138D01*
X0282142Y0291063D01*
X0282128Y0290989D01*
X0282110Y0290915D01*
X0282088Y0290842D01*
X0282063Y0290770D01*
X0282034Y0290700D01*
X0282001Y0290631D01*
X0281965Y0290564D01*
X0281926Y0290499D01*
X0281883Y0290436D01*
X0281838Y0290376D01*
X0281789Y0290317D01*
X0281737Y0290261D01*
X0281683Y0290208D01*
X0281626Y0290158D01*
X0281567Y0290111D01*
X0281505Y0290066D01*
X0281441Y0290025D01*
X0281375Y0289987D01*
X0281307Y0289953D01*
X0281238Y0289922D01*
X0281167Y0289895D01*
X0281095Y0289871D01*
X0281022Y0289851D01*
X0280947Y0289834D01*
X0280872Y0289822D01*
X0280797Y0289813D01*
X0280721Y0289808D01*
X0280645Y0289807D01*
X0280569Y0289810D01*
X0280493Y0289816D01*
X0280418Y0289827D01*
X0280344Y0289841D01*
X0280270Y0289859D01*
X0280197Y0289881D01*
X0280125Y0289906D01*
X0280055Y0289935D01*
X0279986Y0289968D01*
X0279919Y0290004D01*
X0279854Y0290043D01*
X0279791Y0290086D01*
X0279731Y0290131D01*
X0279672Y0290180D01*
X0279616Y0290232D01*
X0279563Y0290286D01*
X0279513Y0290343D01*
X0279466Y0290402D01*
X0279421Y0290464D01*
X0279380Y0290528D01*
X0279342Y0290594D01*
X0279308Y0290662D01*
X0279277Y0290731D01*
X0279250Y0290802D01*
X0279226Y0290874D01*
X0279206Y0290947D01*
X0279189Y0291022D01*
X0279177Y0291097D01*
X0279168Y0291172D01*
X0279163Y0291248D01*
X0279162Y0291324D01*
X0279165Y0291400D01*
X0279171Y0291476D01*
X0279182Y0291551D01*
X0279196Y0291625D01*
X0279214Y0291699D01*
X0279236Y0291772D01*
X0279261Y0291844D01*
X0279290Y0291914D01*
X0279323Y0291983D01*
X0279359Y0292050D01*
X0279398Y0292115D01*
X0279441Y0292178D01*
X0279486Y0292238D01*
X0279535Y0292297D01*
X0279587Y0292353D01*
X0279641Y0292406D01*
X0279698Y0292456D01*
X0279757Y0292503D01*
X0279819Y0292548D01*
X0279883Y0292589D01*
X0279949Y0292627D01*
X0280017Y0292661D01*
X0280086Y0292692D01*
X0280157Y0292719D01*
X0280229Y0292743D01*
X0280302Y0292763D01*
X0280377Y0292780D01*
X0280452Y0292792D01*
X0280527Y0292801D01*
X0280603Y0292806D01*
X0280679Y0292807D01*
X0280755Y0292804D01*
X0280831Y0292798D01*
X0280906Y0292787D01*
X0280980Y0292773D01*
X0281054Y0292755D01*
X0281127Y0292733D01*
X0281199Y0292708D01*
X0281269Y0292679D01*
X0281338Y0292646D01*
X0281405Y0292610D01*
X0281470Y0292571D01*
X0281533Y0292528D01*
X0281593Y0292483D01*
X0281652Y0292434D01*
X0281708Y0292382D01*
X0281761Y0292328D01*
X0281811Y0292271D01*
D15*
X0233638Y0206994D02*
X0233640Y0207038D01*
X0233646Y0207082D01*
X0233656Y0207125D01*
X0233669Y0207167D01*
X0233686Y0207208D01*
X0233707Y0207247D01*
X0233731Y0207284D01*
X0233758Y0207319D01*
X0233788Y0207351D01*
X0233821Y0207381D01*
X0233857Y0207407D01*
X0233894Y0207431D01*
X0233934Y0207450D01*
X0233975Y0207467D01*
X0234018Y0207479D01*
X0234061Y0207488D01*
X0234105Y0207493D01*
X0234149Y0207494D01*
X0234193Y0207491D01*
X0234237Y0207484D01*
X0234280Y0207473D01*
X0234322Y0207459D01*
X0234362Y0207441D01*
X0234401Y0207419D01*
X0234437Y0207395D01*
X0234471Y0207367D01*
X0234503Y0207336D01*
X0234532Y0207302D01*
X0234558Y0207266D01*
X0234580Y0207228D01*
X0234599Y0207188D01*
X0234614Y0207146D01*
X0234626Y0207104D01*
X0234634Y0207060D01*
X0234638Y0207016D01*
X0234638Y0206972D01*
X0234634Y0206928D01*
X0234626Y0206884D01*
X0234614Y0206842D01*
X0234599Y0206800D01*
X0234580Y0206760D01*
X0234558Y0206722D01*
X0234532Y0206686D01*
X0234503Y0206652D01*
X0234471Y0206621D01*
X0234437Y0206593D01*
X0234401Y0206569D01*
X0234362Y0206547D01*
X0234322Y0206529D01*
X0234280Y0206515D01*
X0234237Y0206504D01*
X0234193Y0206497D01*
X0234149Y0206494D01*
X0234105Y0206495D01*
X0234061Y0206500D01*
X0234018Y0206509D01*
X0233975Y0206521D01*
X0233934Y0206538D01*
X0233894Y0206557D01*
X0233857Y0206581D01*
X0233821Y0206607D01*
X0233788Y0206637D01*
X0233758Y0206669D01*
X0233731Y0206704D01*
X0233707Y0206741D01*
X0233686Y0206780D01*
X0233669Y0206821D01*
X0233656Y0206863D01*
X0233646Y0206906D01*
X0233640Y0206950D01*
X0233638Y0206994D01*
M02*
