G75*
%MOIN*%
%OFA0B0*%
%FSLAX25Y25*%
%IPPOS*%
%LPD*%
%AMOC8*
5,1,8,0,0,1.08239X$1,22.5*
%
%ADD10R,0.00280X0.00070*%
%ADD11R,0.01190X0.00070*%
%ADD12R,0.00490X0.00070*%
%ADD13R,0.00490X0.00070*%
%ADD14R,0.00560X0.00070*%
%ADD15R,0.00630X0.00070*%
%ADD16R,0.00350X0.00070*%
%ADD17R,0.00280X0.00070*%
%ADD18R,0.00070X0.00070*%
%ADD19R,0.01680X0.00070*%
%ADD20R,0.00700X0.00070*%
%ADD21R,0.02380X0.00070*%
%ADD22R,0.00770X0.00070*%
%ADD23R,0.00840X0.00070*%
%ADD24R,0.00770X0.00070*%
%ADD25R,0.02660X0.00070*%
%ADD26R,0.00980X0.00070*%
%ADD27R,0.02520X0.00070*%
%ADD28R,0.02940X0.00070*%
%ADD29R,0.00910X0.00070*%
%ADD30R,0.02380X0.00070*%
%ADD31R,0.00980X0.00070*%
%ADD32R,0.00840X0.00070*%
%ADD33R,0.02660X0.00070*%
%ADD34R,0.02450X0.00070*%
%ADD35R,0.00770X0.00070*%
%ADD36R,0.03010X0.00070*%
%ADD37R,0.00070X0.00070*%
%ADD38R,0.01960X0.00070*%
%ADD39R,0.01820X0.00070*%
%ADD40R,0.01120X0.00070*%
%ADD41R,0.00910X0.00070*%
%ADD42R,0.01050X0.00070*%
%ADD43R,0.01120X0.00070*%
%ADD44R,0.02730X0.00070*%
%ADD45R,0.00630X0.00070*%
%ADD46R,0.00560X0.00070*%
%ADD47R,0.01750X0.00070*%
%ADD48R,0.01540X0.00070*%
%ADD49R,0.01470X0.00070*%
%ADD50R,0.01540X0.00070*%
%ADD51R,0.01190X0.00070*%
%ADD52R,0.01190X0.00070*%
%ADD53R,0.00490X0.00070*%
%ADD54R,0.01400X0.00070*%
%ADD55R,0.01260X0.00070*%
%ADD56R,0.01050X0.00070*%
%ADD57R,0.01120X0.00070*%
%ADD58R,0.01400X0.00070*%
%ADD59R,0.01330X0.00070*%
%ADD60R,0.02590X0.00070*%
%ADD61R,0.01120X0.00070*%
%ADD62R,0.01260X0.00070*%
%ADD63R,0.01330X0.00070*%
%ADD64R,0.00840X0.00070*%
%ADD65R,0.02520X0.00070*%
%ADD66R,0.00490X0.00070*%
%ADD67R,0.01190X0.00070*%
%ADD68R,0.01470X0.00070*%
%ADD69R,0.02520X0.00070*%
%ADD70R,0.02520X0.00070*%
%ADD71R,0.02450X0.00070*%
%ADD72R,0.00210X0.00070*%
%ADD73R,0.00350X0.00070*%
%ADD74R,0.00210X0.00070*%
%ADD75R,0.00770X0.00070*%
%ADD76R,0.00840X0.00070*%
%ADD77R,0.02310X0.00070*%
%ADD78R,0.00700X0.00070*%
%ADD79R,0.00140X0.00070*%
%ADD80R,0.00140X0.00070*%
%ADD81R,0.02240X0.00070*%
%ADD82R,0.02240X0.00070*%
%ADD83R,0.00420X0.00070*%
%ADD84R,0.00420X0.00070*%
%ADD85R,0.00420X0.00070*%
%ADD86R,0.00140X0.00070*%
%ADD87R,0.00420X0.00070*%
%ADD88R,0.00070X0.00070*%
%ADD89R,0.02100X0.00070*%
%ADD90R,0.01540X0.00070*%
%ADD91R,0.03990X0.00070*%
%ADD92R,0.03990X0.00070*%
%ADD93R,0.01540X0.00070*%
%ADD94R,0.04060X0.00070*%
%ADD95R,0.04060X0.00070*%
%ADD96R,0.01470X0.00070*%
%ADD97R,0.01470X0.00070*%
%ADD98R,0.00070X0.00070*%
%ADD99R,0.01890X0.00070*%
%ADD100R,0.01890X0.00070*%
%ADD101R,0.02030X0.00070*%
%ADD102R,0.01750X0.00070*%
%ADD103R,0.01610X0.00070*%
%ADD104R,0.02100X0.00070*%
%ADD105R,0.00140X0.00070*%
%ADD106R,0.01610X0.00070*%
%ADD107R,0.01820X0.00070*%
%ADD108R,0.01960X0.00070*%
%ADD109R,0.02170X0.00070*%
%ADD110R,0.01680X0.00070*%
%ADD111R,0.02590X0.00070*%
%ADD112R,0.02800X0.00070*%
%ADD113R,0.02800X0.00070*%
%ADD114R,0.02940X0.00070*%
%ADD115C,0.00500*%
%ADD116C,0.00600*%
%ADD117C,0.00400*%
%ADD118C,0.00800*%
%ADD119C,0.01000*%
%ADD120R,0.03150X0.01969*%
%ADD121C,0.02000*%
D10*
X0252530Y0204510D03*
X0252880Y0205910D03*
X0265900Y0205000D03*
X0268420Y0206960D03*
X0271150Y0205210D03*
X0271920Y0207660D03*
X0274720Y0205000D03*
X0268070Y0213960D03*
X0265970Y0213960D03*
X0261560Y0216900D03*
X0276610Y0217460D03*
X0280390Y0217460D03*
X0280390Y0217600D03*
D11*
X0277485Y0213960D03*
X0273985Y0216200D03*
X0274825Y0217250D03*
X0274825Y0217600D03*
X0274685Y0217950D03*
X0272795Y0218160D03*
X0271675Y0213960D03*
X0267825Y0216550D03*
X0263765Y0209060D03*
X0262575Y0205000D03*
X0255575Y0206050D03*
X0254385Y0204510D03*
X0254175Y0208010D03*
X0256275Y0209200D03*
X0257465Y0213960D03*
X0254385Y0214660D03*
X0259145Y0216760D03*
X0281965Y0208710D03*
X0284275Y0204650D03*
X0287985Y0204860D03*
X0294565Y0205000D03*
X0297435Y0204650D03*
X0303875Y0205000D03*
X0306745Y0204860D03*
X0310035Y0204860D03*
X0302685Y0208710D03*
D12*
X0308355Y0209550D03*
X0296805Y0205000D03*
X0285955Y0209200D03*
X0276855Y0217810D03*
X0269155Y0206960D03*
X0257255Y0204510D03*
D13*
X0252915Y0205560D03*
X0256625Y0209410D03*
X0258935Y0213960D03*
X0266145Y0209550D03*
X0265165Y0204510D03*
X0270275Y0204510D03*
X0273985Y0204510D03*
X0274965Y0209550D03*
X0280565Y0206050D03*
X0283645Y0205000D03*
X0289595Y0209550D03*
X0294565Y0204510D03*
X0299115Y0209200D03*
X0301285Y0206050D03*
X0303875Y0204510D03*
X0311645Y0209550D03*
X0268315Y0217600D03*
X0268315Y0218510D03*
D14*
X0258340Y0216550D03*
X0258200Y0216410D03*
X0256450Y0208710D03*
X0271850Y0204510D03*
X0280810Y0206260D03*
X0280950Y0206400D03*
X0281160Y0206610D03*
X0280320Y0208850D03*
X0283680Y0204860D03*
X0286060Y0208850D03*
X0285990Y0209060D03*
X0296840Y0204860D03*
X0299220Y0208850D03*
X0299150Y0209060D03*
X0301040Y0208850D03*
X0301880Y0206610D03*
X0301670Y0206400D03*
X0301530Y0206260D03*
D15*
X0301985Y0206750D03*
X0302195Y0206960D03*
X0303875Y0205560D03*
X0298135Y0205000D03*
X0297995Y0204860D03*
X0297365Y0204510D03*
X0296735Y0205210D03*
X0294565Y0205560D03*
X0293445Y0209060D03*
X0293375Y0209200D03*
X0297925Y0209200D03*
X0284765Y0209200D03*
X0281475Y0206960D03*
X0281265Y0206750D03*
X0283575Y0205210D03*
X0284205Y0204510D03*
X0284835Y0204860D03*
X0284975Y0205000D03*
X0280355Y0217950D03*
X0271185Y0207660D03*
X0269225Y0207800D03*
X0262575Y0216760D03*
X0254035Y0213960D03*
X0256415Y0208850D03*
X0257255Y0205560D03*
D16*
X0256485Y0208360D03*
X0256485Y0208500D03*
X0253895Y0213610D03*
X0255085Y0215010D03*
X0255225Y0215150D03*
X0255435Y0215360D03*
X0255505Y0215500D03*
X0255715Y0215710D03*
X0255855Y0215850D03*
X0255995Y0216060D03*
X0256135Y0216200D03*
X0256275Y0216410D03*
X0256415Y0216550D03*
X0256625Y0216760D03*
X0256905Y0217110D03*
X0257045Y0217250D03*
X0257185Y0217460D03*
X0257325Y0217600D03*
X0259145Y0214100D03*
X0272585Y0205000D03*
X0280075Y0205560D03*
X0281895Y0205560D03*
X0280145Y0208710D03*
X0276715Y0217600D03*
X0290785Y0204510D03*
X0300795Y0205560D03*
X0302615Y0205560D03*
X0300865Y0208710D03*
D17*
X0300830Y0208640D03*
X0302650Y0205630D03*
X0281930Y0205630D03*
X0280110Y0208640D03*
X0274790Y0205070D03*
X0272690Y0205070D03*
X0271220Y0205280D03*
X0269190Y0206820D03*
X0268490Y0207030D03*
X0268350Y0206820D03*
X0268210Y0207940D03*
X0265970Y0205070D03*
X0266040Y0214030D03*
X0264570Y0214240D03*
X0264500Y0214170D03*
X0262540Y0215780D03*
X0261840Y0215990D03*
X0261770Y0215920D03*
X0261700Y0215780D03*
X0259320Y0214240D03*
X0259250Y0214170D03*
X0253860Y0213540D03*
X0256450Y0208290D03*
X0252880Y0205980D03*
X0252600Y0204580D03*
X0268140Y0214030D03*
X0266810Y0218580D03*
X0276680Y0217530D03*
X0280390Y0217530D03*
D18*
X0278465Y0213680D03*
X0274895Y0208570D03*
X0272445Y0207870D03*
X0271465Y0207940D03*
X0272865Y0205420D03*
X0266215Y0208570D03*
X0262295Y0207240D03*
X0262155Y0207240D03*
X0262015Y0207240D03*
X0261595Y0207240D03*
X0261455Y0207240D03*
X0261315Y0207240D03*
X0263555Y0204720D03*
X0255295Y0209620D03*
X0254945Y0209620D03*
X0252915Y0206330D03*
X0253405Y0204580D03*
X0270555Y0213680D03*
X0268245Y0217530D03*
X0285465Y0209620D03*
X0287005Y0204720D03*
X0288965Y0204720D03*
X0302055Y0209620D03*
X0302195Y0209620D03*
X0305765Y0204720D03*
X0309055Y0204720D03*
X0311015Y0204720D03*
X0308495Y0209620D03*
D19*
X0255190Y0209480D03*
X0254350Y0204580D03*
D20*
X0252950Y0205280D03*
X0257290Y0204580D03*
X0263660Y0213540D03*
X0264220Y0216340D03*
X0264360Y0216480D03*
X0264640Y0216690D03*
X0264920Y0216830D03*
X0258830Y0215290D03*
X0258690Y0215220D03*
X0257920Y0216130D03*
X0258060Y0216270D03*
X0270870Y0207380D03*
X0271010Y0207520D03*
X0270310Y0204580D03*
X0281650Y0207170D03*
X0281790Y0207380D03*
X0281860Y0207520D03*
X0283540Y0205420D03*
X0285010Y0205070D03*
X0285080Y0205140D03*
X0286060Y0208570D03*
X0286060Y0208640D03*
X0286060Y0208780D03*
X0284940Y0209340D03*
X0284590Y0208990D03*
X0289490Y0209480D03*
X0292150Y0209340D03*
X0293480Y0208990D03*
X0293480Y0208920D03*
X0297750Y0208990D03*
X0298100Y0209340D03*
X0299220Y0208780D03*
X0299220Y0208640D03*
X0299220Y0208570D03*
X0302370Y0207170D03*
X0302510Y0207380D03*
X0302580Y0207520D03*
X0303910Y0204580D03*
X0298240Y0205140D03*
X0298170Y0205070D03*
X0296700Y0205420D03*
X0294600Y0204580D03*
X0290960Y0204580D03*
X0308250Y0209480D03*
X0311540Y0209480D03*
D21*
X0302020Y0208920D03*
X0301390Y0205140D03*
X0281300Y0208920D03*
X0280670Y0205140D03*
X0272900Y0215990D03*
X0262540Y0204580D03*
X0259600Y0204580D03*
D22*
X0256415Y0208920D03*
X0259005Y0215430D03*
X0259145Y0215570D03*
X0259215Y0215640D03*
X0259495Y0216270D03*
X0259495Y0216480D03*
X0261105Y0216270D03*
X0261105Y0216130D03*
X0260965Y0215640D03*
X0260965Y0215570D03*
X0260895Y0215430D03*
X0260895Y0215290D03*
X0262505Y0216690D03*
X0264115Y0216130D03*
X0268315Y0217670D03*
X0268315Y0218440D03*
X0266145Y0209480D03*
X0266005Y0207870D03*
X0267755Y0207240D03*
X0267755Y0207170D03*
X0267615Y0206680D03*
X0267545Y0206470D03*
X0267545Y0206330D03*
X0269155Y0207730D03*
X0270765Y0207240D03*
X0270765Y0207170D03*
X0274965Y0209480D03*
X0281895Y0207590D03*
X0281965Y0207730D03*
X0284415Y0208640D03*
X0284555Y0208920D03*
X0286095Y0208430D03*
X0292045Y0209270D03*
X0293515Y0208780D03*
X0293515Y0208640D03*
X0291905Y0205070D03*
X0291695Y0204930D03*
X0291415Y0204790D03*
X0298345Y0205280D03*
X0299255Y0208430D03*
X0297715Y0208920D03*
X0297645Y0208780D03*
X0302615Y0207590D03*
X0265165Y0204580D03*
X0257745Y0215920D03*
X0257815Y0215990D03*
D23*
X0257570Y0215570D03*
X0257500Y0215430D03*
X0259390Y0215920D03*
X0259390Y0215990D03*
X0259460Y0216130D03*
X0259460Y0216620D03*
X0261140Y0216340D03*
X0261000Y0215780D03*
X0262470Y0216620D03*
X0263870Y0215780D03*
X0263800Y0215640D03*
X0263800Y0215570D03*
X0264010Y0215990D03*
X0265620Y0215570D03*
X0265690Y0215780D03*
X0265760Y0215990D03*
X0266040Y0216970D03*
X0266040Y0217040D03*
X0266250Y0217740D03*
X0268350Y0217740D03*
X0268350Y0218370D03*
X0265340Y0214520D03*
X0265270Y0214380D03*
X0265270Y0214240D03*
X0265200Y0214030D03*
X0260510Y0213540D03*
X0257850Y0213470D03*
X0254210Y0214240D03*
X0257710Y0218230D03*
X0257290Y0205490D03*
X0253020Y0205140D03*
X0267160Y0204580D03*
X0267650Y0206820D03*
X0267790Y0207380D03*
X0270450Y0206680D03*
X0270520Y0206820D03*
X0270590Y0206890D03*
X0271990Y0205490D03*
X0271920Y0205280D03*
X0271850Y0205140D03*
X0272550Y0207520D03*
X0272620Y0207730D03*
X0275000Y0208780D03*
X0282000Y0207870D03*
X0284310Y0208430D03*
X0286060Y0208290D03*
X0286060Y0208220D03*
X0286060Y0208080D03*
X0285290Y0205490D03*
X0285220Y0205420D03*
X0283610Y0205840D03*
X0283540Y0205770D03*
X0283610Y0205980D03*
X0291310Y0204720D03*
X0292010Y0205140D03*
X0292150Y0205280D03*
X0292360Y0205490D03*
X0291940Y0206470D03*
X0291450Y0207240D03*
X0291800Y0208920D03*
X0291870Y0208990D03*
X0291940Y0209130D03*
X0293550Y0208570D03*
X0293550Y0208430D03*
X0294600Y0205490D03*
X0296700Y0205770D03*
X0296770Y0205840D03*
X0296770Y0205980D03*
X0298450Y0205490D03*
X0299220Y0208080D03*
X0299220Y0208220D03*
X0299220Y0208290D03*
X0297540Y0208570D03*
X0297470Y0208430D03*
X0302720Y0207870D03*
X0303910Y0205490D03*
X0277100Y0218020D03*
D24*
X0280285Y0218020D03*
X0284485Y0208780D03*
X0283575Y0205630D03*
X0283575Y0205490D03*
X0285185Y0205280D03*
X0274825Y0207870D03*
X0273985Y0204580D03*
X0271885Y0204580D03*
X0270625Y0207030D03*
X0267685Y0207030D03*
X0267685Y0206890D03*
X0267475Y0206190D03*
X0267335Y0213540D03*
X0265235Y0213540D03*
X0263975Y0215920D03*
X0264185Y0216270D03*
X0261035Y0215990D03*
X0261035Y0215920D03*
X0260825Y0215220D03*
X0259285Y0215780D03*
X0257675Y0215780D03*
X0254175Y0214170D03*
X0268175Y0216830D03*
X0297575Y0208640D03*
X0296735Y0205630D03*
X0296735Y0205490D03*
X0302685Y0207730D03*
D25*
X0301110Y0204790D03*
X0301040Y0204580D03*
X0280390Y0204790D03*
X0280320Y0204580D03*
D26*
X0283680Y0206470D03*
X0283680Y0206540D03*
X0283750Y0206680D03*
X0283750Y0206820D03*
X0283820Y0207030D03*
X0283960Y0207520D03*
X0284030Y0207730D03*
X0284100Y0207870D03*
X0284100Y0207940D03*
X0284170Y0208080D03*
X0285920Y0207520D03*
X0285920Y0207380D03*
X0285850Y0207240D03*
X0285850Y0207170D03*
X0285780Y0206890D03*
X0285710Y0206680D03*
X0285570Y0206190D03*
X0285500Y0206120D03*
X0285500Y0205980D03*
X0285430Y0205840D03*
X0284240Y0204580D03*
X0288020Y0205070D03*
X0288090Y0205140D03*
X0288160Y0205420D03*
X0288230Y0205630D03*
X0288370Y0206120D03*
X0288370Y0206190D03*
X0288510Y0206680D03*
X0288580Y0206820D03*
X0288580Y0206890D03*
X0288720Y0207380D03*
X0288790Y0207590D03*
X0288860Y0207870D03*
X0288930Y0208080D03*
X0289000Y0208290D03*
X0289070Y0208570D03*
X0289070Y0208640D03*
X0291520Y0208220D03*
X0291520Y0208080D03*
X0291450Y0207870D03*
X0291450Y0207730D03*
X0291450Y0207520D03*
X0291590Y0208430D03*
X0291660Y0208570D03*
X0293480Y0207940D03*
X0293480Y0207870D03*
X0293410Y0207520D03*
X0292850Y0206120D03*
X0292640Y0205840D03*
X0294600Y0204720D03*
X0297400Y0204580D03*
X0298590Y0205840D03*
X0298660Y0205980D03*
X0298660Y0206120D03*
X0298730Y0206190D03*
X0298870Y0206680D03*
X0298940Y0206890D03*
X0299010Y0207170D03*
X0299010Y0207240D03*
X0299080Y0207380D03*
X0299080Y0207520D03*
X0297330Y0208080D03*
X0297260Y0207940D03*
X0297260Y0207870D03*
X0297190Y0207730D03*
X0297120Y0207520D03*
X0296980Y0207030D03*
X0296910Y0206820D03*
X0296910Y0206680D03*
X0296840Y0206540D03*
X0296840Y0206470D03*
X0302790Y0208220D03*
X0302790Y0208290D03*
X0302790Y0208430D03*
X0303910Y0204720D03*
X0306780Y0205070D03*
X0306850Y0205140D03*
X0306920Y0205420D03*
X0306990Y0205630D03*
X0307130Y0206120D03*
X0307130Y0206190D03*
X0307270Y0206680D03*
X0307340Y0206820D03*
X0307340Y0206890D03*
X0307480Y0207380D03*
X0307550Y0207590D03*
X0307620Y0207870D03*
X0307690Y0208080D03*
X0307760Y0208290D03*
X0307830Y0208570D03*
X0307830Y0208640D03*
X0310910Y0207870D03*
X0310980Y0208080D03*
X0311050Y0208290D03*
X0311120Y0208570D03*
X0311120Y0208640D03*
X0310840Y0207590D03*
X0310770Y0207380D03*
X0310630Y0206890D03*
X0310630Y0206820D03*
X0310560Y0206680D03*
X0310420Y0206190D03*
X0310420Y0206120D03*
X0310280Y0205630D03*
X0310210Y0205420D03*
X0310140Y0205140D03*
X0310070Y0205070D03*
X0282070Y0208220D03*
X0282070Y0208290D03*
X0282070Y0208430D03*
X0274580Y0207380D03*
X0274510Y0207170D03*
X0274440Y0206890D03*
X0274370Y0206680D03*
X0274230Y0206190D03*
X0274160Y0205980D03*
X0274020Y0205490D03*
X0272130Y0206190D03*
X0272060Y0205980D03*
X0271990Y0205840D03*
X0272410Y0207170D03*
X0272410Y0207240D03*
X0270170Y0205420D03*
X0270170Y0205280D03*
X0269050Y0207380D03*
X0267580Y0206120D03*
X0267510Y0205980D03*
X0267510Y0205840D03*
X0265410Y0206190D03*
X0265340Y0205980D03*
X0265200Y0205490D03*
X0265550Y0206680D03*
X0265620Y0206890D03*
X0265690Y0207170D03*
X0265760Y0207380D03*
X0267300Y0214170D03*
X0267510Y0214870D03*
X0267510Y0214940D03*
X0267720Y0215640D03*
X0267860Y0216130D03*
X0267930Y0216340D03*
X0265830Y0216340D03*
X0265410Y0214940D03*
X0263520Y0214730D03*
X0263520Y0214520D03*
X0263520Y0214240D03*
X0262400Y0216340D03*
X0260930Y0215080D03*
X0260860Y0214940D03*
X0260860Y0214870D03*
X0259180Y0216830D03*
X0257290Y0214730D03*
X0257290Y0214590D03*
X0257290Y0214520D03*
X0257290Y0214380D03*
X0254280Y0214380D03*
X0254350Y0209130D03*
X0254210Y0208920D03*
X0254140Y0208780D03*
X0254070Y0208570D03*
X0256310Y0209130D03*
X0255610Y0205490D03*
X0255610Y0205420D03*
X0255540Y0205280D03*
X0255470Y0205140D03*
X0255400Y0205070D03*
X0257290Y0204720D03*
X0253020Y0205070D03*
X0266320Y0218020D03*
X0266320Y0218090D03*
X0266390Y0218440D03*
X0277170Y0218090D03*
D27*
X0287950Y0204580D03*
X0301250Y0204930D03*
X0306710Y0204580D03*
X0310000Y0204580D03*
D28*
X0253930Y0204650D03*
D29*
X0255365Y0205000D03*
X0255575Y0205350D03*
X0257255Y0204650D03*
X0256345Y0209060D03*
X0254315Y0209060D03*
X0254175Y0208850D03*
X0254245Y0214310D03*
X0257325Y0214800D03*
X0257395Y0215150D03*
X0257465Y0215360D03*
X0257535Y0215500D03*
X0260685Y0214310D03*
X0260755Y0214450D03*
X0260615Y0214100D03*
X0260615Y0213960D03*
X0260545Y0213750D03*
X0261105Y0216410D03*
X0262505Y0216550D03*
X0263765Y0215500D03*
X0263695Y0215360D03*
X0263625Y0215150D03*
X0263555Y0215010D03*
X0263555Y0214800D03*
X0263485Y0214450D03*
X0263695Y0213610D03*
X0265235Y0213960D03*
X0265235Y0214100D03*
X0265305Y0214450D03*
X0265585Y0215360D03*
X0265585Y0215500D03*
X0265655Y0215710D03*
X0265725Y0215850D03*
X0265795Y0216200D03*
X0266005Y0216900D03*
X0266075Y0217110D03*
X0266215Y0217600D03*
X0266285Y0217810D03*
X0266285Y0217950D03*
X0264885Y0216760D03*
X0267825Y0216060D03*
X0267895Y0216200D03*
X0267755Y0215710D03*
X0267685Y0215500D03*
X0267615Y0215360D03*
X0267545Y0215010D03*
X0267475Y0214800D03*
X0267335Y0214310D03*
X0267265Y0214100D03*
X0268315Y0217810D03*
X0268315Y0218300D03*
X0266145Y0208850D03*
X0265725Y0207310D03*
X0265655Y0207100D03*
X0265655Y0206960D03*
X0265585Y0206750D03*
X0265515Y0206610D03*
X0265445Y0206400D03*
X0265445Y0206260D03*
X0265375Y0206050D03*
X0265235Y0205560D03*
X0265165Y0205350D03*
X0267195Y0204860D03*
X0267265Y0205000D03*
X0267335Y0205210D03*
X0267335Y0205350D03*
X0267405Y0205560D03*
X0267755Y0207450D03*
X0270275Y0206260D03*
X0270345Y0206400D03*
X0270205Y0206050D03*
X0270205Y0205910D03*
X0270135Y0205560D03*
X0270135Y0205350D03*
X0270345Y0204650D03*
X0271885Y0205000D03*
X0271885Y0205210D03*
X0272095Y0206050D03*
X0272165Y0206260D03*
X0272235Y0206400D03*
X0272305Y0206750D03*
X0272375Y0206960D03*
X0274265Y0206400D03*
X0274265Y0206260D03*
X0274195Y0206050D03*
X0274055Y0205560D03*
X0273985Y0205350D03*
X0274335Y0206610D03*
X0274405Y0206750D03*
X0274475Y0206960D03*
X0274475Y0207100D03*
X0274545Y0207310D03*
X0274965Y0208850D03*
X0281335Y0209550D03*
X0282105Y0208150D03*
X0282035Y0208010D03*
X0284275Y0208360D03*
X0284345Y0208500D03*
X0286025Y0208010D03*
X0285325Y0205700D03*
X0283575Y0205910D03*
X0283575Y0206050D03*
X0288125Y0205350D03*
X0288195Y0205560D03*
X0288335Y0206050D03*
X0288405Y0206260D03*
X0288545Y0206750D03*
X0288615Y0206960D03*
X0288755Y0207450D03*
X0288825Y0207660D03*
X0288895Y0208010D03*
X0288965Y0208150D03*
X0289035Y0208500D03*
X0289105Y0208710D03*
X0291485Y0208010D03*
X0291625Y0208500D03*
X0291695Y0208710D03*
X0291765Y0208850D03*
X0291415Y0207450D03*
X0291415Y0207310D03*
X0291485Y0207100D03*
X0291555Y0206960D03*
X0292535Y0205700D03*
X0294565Y0204650D03*
X0296735Y0205910D03*
X0296735Y0206050D03*
X0298485Y0205700D03*
X0299185Y0208010D03*
X0297505Y0208500D03*
X0297435Y0208360D03*
X0293515Y0208150D03*
X0293515Y0208010D03*
X0302055Y0209550D03*
X0302825Y0208150D03*
X0302755Y0208010D03*
X0303875Y0204650D03*
X0306885Y0205350D03*
X0306955Y0205560D03*
X0307095Y0206050D03*
X0307165Y0206260D03*
X0307305Y0206750D03*
X0307375Y0206960D03*
X0307515Y0207450D03*
X0307585Y0207660D03*
X0307655Y0208010D03*
X0307725Y0208150D03*
X0307795Y0208500D03*
X0307865Y0208710D03*
X0310945Y0208010D03*
X0311015Y0208150D03*
X0311085Y0208500D03*
X0311155Y0208710D03*
X0310875Y0207660D03*
X0310805Y0207450D03*
X0310665Y0206960D03*
X0310595Y0206750D03*
X0310455Y0206260D03*
X0310385Y0206050D03*
X0310245Y0205560D03*
X0310175Y0205350D03*
D30*
X0301460Y0205210D03*
X0280740Y0205210D03*
X0262540Y0204650D03*
X0259670Y0204650D03*
X0260930Y0209410D03*
D31*
X0265760Y0207450D03*
X0265340Y0205910D03*
X0265270Y0205700D03*
X0265130Y0205210D03*
X0265130Y0205000D03*
X0265200Y0204650D03*
X0267440Y0205700D03*
X0267510Y0205910D03*
X0267580Y0206050D03*
X0270170Y0205700D03*
X0270170Y0205210D03*
X0271920Y0204650D03*
X0272060Y0205910D03*
X0272410Y0207100D03*
X0272410Y0207310D03*
X0274580Y0207450D03*
X0274160Y0205910D03*
X0274090Y0205700D03*
X0273950Y0205210D03*
X0273950Y0205000D03*
X0274020Y0204650D03*
X0282070Y0208360D03*
X0283890Y0207310D03*
X0284170Y0208010D03*
X0284170Y0208150D03*
X0283680Y0206400D03*
X0283610Y0206260D03*
X0285430Y0205910D03*
X0285500Y0206050D03*
X0285570Y0206260D03*
X0285640Y0206400D03*
X0285850Y0207100D03*
X0285920Y0207450D03*
X0285990Y0207660D03*
X0285990Y0207800D03*
X0288650Y0207100D03*
X0288720Y0207310D03*
X0288860Y0207800D03*
X0289000Y0208360D03*
X0289280Y0209410D03*
X0291590Y0208360D03*
X0291520Y0208150D03*
X0291450Y0207800D03*
X0291450Y0207660D03*
X0291730Y0206750D03*
X0292780Y0206050D03*
X0292710Y0205910D03*
X0292920Y0206260D03*
X0292990Y0206400D03*
X0292430Y0205560D03*
X0293480Y0207800D03*
X0297050Y0207310D03*
X0297330Y0208010D03*
X0297330Y0208150D03*
X0296840Y0206400D03*
X0296770Y0206260D03*
X0298590Y0205910D03*
X0298660Y0206050D03*
X0298730Y0206260D03*
X0298800Y0206400D03*
X0299010Y0207100D03*
X0299080Y0207450D03*
X0299150Y0207660D03*
X0299150Y0207800D03*
X0302790Y0208360D03*
X0307410Y0207100D03*
X0307480Y0207310D03*
X0307620Y0207800D03*
X0307760Y0208360D03*
X0308040Y0209410D03*
X0307270Y0206610D03*
X0307200Y0206400D03*
X0307060Y0205910D03*
X0306990Y0205700D03*
X0306850Y0205210D03*
X0310140Y0205210D03*
X0310280Y0205700D03*
X0310350Y0205910D03*
X0310490Y0206400D03*
X0310560Y0206610D03*
X0310700Y0207100D03*
X0310770Y0207310D03*
X0310910Y0207800D03*
X0311050Y0208360D03*
X0311330Y0209410D03*
X0288510Y0206610D03*
X0288440Y0206400D03*
X0288300Y0205910D03*
X0288230Y0205700D03*
X0288090Y0205210D03*
X0267370Y0213610D03*
X0267300Y0213960D03*
X0267370Y0214450D03*
X0267440Y0214660D03*
X0267580Y0215150D03*
X0267790Y0215850D03*
X0267930Y0216410D03*
X0265830Y0216410D03*
X0265480Y0215150D03*
X0265410Y0215010D03*
X0265340Y0214800D03*
X0265270Y0213610D03*
X0263520Y0214310D03*
X0263520Y0214660D03*
X0260930Y0215010D03*
X0260860Y0214800D03*
X0260790Y0214660D03*
X0257290Y0214660D03*
X0257290Y0214450D03*
X0257290Y0214310D03*
X0254280Y0214450D03*
X0254140Y0208710D03*
X0255540Y0205210D03*
X0266320Y0218160D03*
D32*
X0266110Y0217250D03*
X0265970Y0216760D03*
X0265760Y0216060D03*
X0265270Y0214310D03*
X0263870Y0215710D03*
X0263940Y0215850D03*
X0261070Y0216060D03*
X0261210Y0216760D03*
X0259460Y0216550D03*
X0259460Y0216200D03*
X0259460Y0216060D03*
X0259320Y0215850D03*
X0259250Y0215710D03*
X0257710Y0215850D03*
X0257640Y0215710D03*
X0260510Y0213610D03*
X0267860Y0207800D03*
X0267720Y0207100D03*
X0269120Y0207660D03*
X0270590Y0206960D03*
X0270520Y0206750D03*
X0270450Y0206610D03*
X0271500Y0207800D03*
X0272620Y0207800D03*
X0272620Y0207660D03*
X0272270Y0206610D03*
X0271920Y0205350D03*
X0267160Y0204650D03*
X0275000Y0209410D03*
X0282000Y0207800D03*
X0284450Y0208710D03*
X0286060Y0208360D03*
X0286060Y0208150D03*
X0285290Y0205560D03*
X0291590Y0204860D03*
X0291800Y0205000D03*
X0292220Y0205350D03*
X0293550Y0208360D03*
X0293550Y0208500D03*
X0297610Y0208710D03*
X0299220Y0208360D03*
X0299220Y0208150D03*
X0298450Y0205560D03*
X0302650Y0207660D03*
X0302720Y0207800D03*
D33*
X0301040Y0204650D03*
X0280320Y0204650D03*
X0278010Y0218160D03*
D34*
X0277485Y0213610D03*
X0272935Y0216060D03*
X0271605Y0213610D03*
X0263835Y0209410D03*
X0287985Y0204650D03*
X0306745Y0204650D03*
X0310035Y0204650D03*
D35*
X0298275Y0205210D03*
X0296735Y0205560D03*
X0296735Y0205700D03*
X0291135Y0204650D03*
X0291975Y0209200D03*
X0285185Y0205350D03*
X0283575Y0205560D03*
X0283575Y0205700D03*
X0281825Y0207450D03*
X0270835Y0207310D03*
X0267685Y0206960D03*
X0267475Y0206260D03*
X0260825Y0215150D03*
X0261035Y0215850D03*
X0259075Y0215500D03*
X0257885Y0216060D03*
X0257675Y0218160D03*
X0252985Y0205210D03*
D36*
X0253965Y0204720D03*
D37*
X0258585Y0204720D03*
X0261525Y0204720D03*
X0261735Y0207240D03*
X0261875Y0207240D03*
X0262435Y0207240D03*
X0262575Y0207240D03*
X0261175Y0207240D03*
X0261035Y0207240D03*
X0266075Y0208570D03*
X0272585Y0207870D03*
X0275035Y0208570D03*
X0276435Y0213680D03*
X0281335Y0209620D03*
X0281475Y0209620D03*
X0285325Y0209620D03*
X0289735Y0209620D03*
X0292325Y0209620D03*
X0298485Y0209620D03*
X0298625Y0209620D03*
X0307725Y0204720D03*
X0311785Y0209620D03*
X0268385Y0217530D03*
X0265585Y0218230D03*
X0258235Y0214940D03*
D38*
X0259670Y0204720D03*
X0271640Y0213680D03*
D39*
X0263870Y0209340D03*
X0260930Y0209340D03*
X0262540Y0204720D03*
D40*
X0262610Y0205140D03*
X0262750Y0205420D03*
X0262750Y0205490D03*
X0262960Y0206190D03*
X0263100Y0206680D03*
X0263100Y0206820D03*
X0263310Y0207380D03*
X0263310Y0207520D03*
X0263450Y0207870D03*
X0263450Y0207940D03*
X0263660Y0208570D03*
X0263660Y0208640D03*
X0260860Y0208990D03*
X0260650Y0208290D03*
X0260650Y0208220D03*
X0260510Y0207870D03*
X0260510Y0207730D03*
X0260160Y0206680D03*
X0260160Y0206540D03*
X0259950Y0205840D03*
X0259950Y0205770D03*
X0259810Y0205490D03*
X0259810Y0205420D03*
X0259810Y0205280D03*
X0255610Y0205840D03*
X0255610Y0205980D03*
X0255050Y0204790D03*
X0254350Y0214590D03*
X0254350Y0215080D03*
X0254350Y0215220D03*
X0254350Y0215290D03*
X0254350Y0215430D03*
X0254350Y0215640D03*
X0254350Y0215780D03*
X0266250Y0218230D03*
X0272550Y0217040D03*
X0272760Y0217740D03*
X0274650Y0218020D03*
X0273600Y0215780D03*
X0273810Y0215080D03*
X0273950Y0214590D03*
X0272060Y0215290D03*
X0272200Y0215780D03*
X0271850Y0214590D03*
X0271710Y0214170D03*
X0271710Y0214030D03*
X0277660Y0214380D03*
X0277660Y0214520D03*
X0277800Y0214870D03*
X0277800Y0214940D03*
X0278010Y0215570D03*
X0278010Y0215640D03*
X0278150Y0216130D03*
X0278360Y0216830D03*
X0278500Y0217320D03*
X0278710Y0218020D03*
X0282000Y0208640D03*
X0294600Y0205280D03*
X0303910Y0205280D03*
X0265200Y0204720D03*
D41*
X0265095Y0205070D03*
X0265095Y0205140D03*
X0265165Y0205280D03*
X0265165Y0205420D03*
X0265235Y0205630D03*
X0265305Y0205770D03*
X0265305Y0205840D03*
X0265375Y0206120D03*
X0265445Y0206330D03*
X0265515Y0206470D03*
X0265515Y0206540D03*
X0265585Y0206820D03*
X0265655Y0207030D03*
X0265725Y0207240D03*
X0267755Y0207520D03*
X0269085Y0207520D03*
X0269155Y0207590D03*
X0270415Y0206540D03*
X0270345Y0206330D03*
X0270275Y0206190D03*
X0270275Y0206120D03*
X0270205Y0205980D03*
X0270205Y0205840D03*
X0270135Y0205770D03*
X0270135Y0205630D03*
X0270135Y0205490D03*
X0271885Y0205070D03*
X0271955Y0205420D03*
X0272095Y0206120D03*
X0272165Y0206330D03*
X0272235Y0206470D03*
X0272235Y0206540D03*
X0272305Y0206680D03*
X0272305Y0206820D03*
X0272375Y0206890D03*
X0272375Y0207030D03*
X0272585Y0207590D03*
X0274475Y0207030D03*
X0274405Y0206820D03*
X0274335Y0206540D03*
X0274335Y0206470D03*
X0274265Y0206330D03*
X0274195Y0206120D03*
X0274125Y0205840D03*
X0274125Y0205770D03*
X0274055Y0205630D03*
X0273985Y0205420D03*
X0273985Y0205280D03*
X0273915Y0205140D03*
X0273915Y0205070D03*
X0274545Y0207240D03*
X0274965Y0209340D03*
X0282035Y0208080D03*
X0282035Y0207940D03*
X0284205Y0208220D03*
X0284275Y0208290D03*
X0285955Y0207730D03*
X0285955Y0207590D03*
X0286025Y0207870D03*
X0286025Y0207940D03*
X0285395Y0205770D03*
X0285325Y0205630D03*
X0283645Y0206120D03*
X0283645Y0206190D03*
X0283645Y0206330D03*
X0288125Y0205280D03*
X0288195Y0205490D03*
X0288265Y0205770D03*
X0288265Y0205840D03*
X0288335Y0205980D03*
X0288405Y0206330D03*
X0288475Y0206470D03*
X0288475Y0206540D03*
X0288615Y0207030D03*
X0288685Y0207170D03*
X0288685Y0207240D03*
X0288755Y0207520D03*
X0288825Y0207730D03*
X0288895Y0207940D03*
X0288965Y0208220D03*
X0289035Y0208430D03*
X0291485Y0207940D03*
X0291415Y0207590D03*
X0291415Y0207380D03*
X0291485Y0207170D03*
X0291485Y0207030D03*
X0291555Y0206890D03*
X0291625Y0206820D03*
X0292605Y0205770D03*
X0292465Y0205630D03*
X0292325Y0205420D03*
X0294565Y0205420D03*
X0296805Y0206120D03*
X0296805Y0206190D03*
X0296805Y0206330D03*
X0298485Y0205630D03*
X0298555Y0205770D03*
X0299115Y0207590D03*
X0299115Y0207730D03*
X0299185Y0207870D03*
X0299185Y0207940D03*
X0297435Y0208290D03*
X0297365Y0208220D03*
X0293515Y0208220D03*
X0293515Y0208290D03*
X0293515Y0208080D03*
X0291765Y0208780D03*
X0291695Y0208640D03*
X0291555Y0208290D03*
X0302755Y0208080D03*
X0302755Y0207940D03*
X0303875Y0205420D03*
X0306885Y0205280D03*
X0306955Y0205490D03*
X0307025Y0205770D03*
X0307025Y0205840D03*
X0307095Y0205980D03*
X0307165Y0206330D03*
X0307235Y0206470D03*
X0307235Y0206540D03*
X0307375Y0207030D03*
X0307445Y0207170D03*
X0307445Y0207240D03*
X0307515Y0207520D03*
X0307585Y0207730D03*
X0307655Y0207940D03*
X0307725Y0208220D03*
X0307795Y0208430D03*
X0310805Y0207520D03*
X0310875Y0207730D03*
X0310945Y0207940D03*
X0311015Y0208220D03*
X0311085Y0208430D03*
X0310735Y0207240D03*
X0310735Y0207170D03*
X0310665Y0207030D03*
X0310525Y0206540D03*
X0310525Y0206470D03*
X0310455Y0206330D03*
X0310385Y0205980D03*
X0310315Y0205840D03*
X0310315Y0205770D03*
X0310245Y0205490D03*
X0310175Y0205280D03*
X0280215Y0218090D03*
X0267895Y0216270D03*
X0267825Y0215990D03*
X0267825Y0215920D03*
X0267755Y0215780D03*
X0267685Y0215570D03*
X0267685Y0215430D03*
X0267615Y0215290D03*
X0267615Y0215220D03*
X0267545Y0215080D03*
X0267475Y0214730D03*
X0267405Y0214590D03*
X0267405Y0214520D03*
X0267335Y0214380D03*
X0267335Y0214240D03*
X0267265Y0214030D03*
X0265235Y0214170D03*
X0265445Y0215080D03*
X0265515Y0215220D03*
X0265515Y0215290D03*
X0265585Y0215430D03*
X0265655Y0215640D03*
X0265725Y0215920D03*
X0265795Y0216130D03*
X0265795Y0216270D03*
X0265935Y0216690D03*
X0266005Y0216830D03*
X0266075Y0217180D03*
X0266145Y0217320D03*
X0266145Y0217390D03*
X0266215Y0217530D03*
X0266215Y0217670D03*
X0266285Y0217880D03*
X0263695Y0215290D03*
X0263625Y0215220D03*
X0263625Y0215080D03*
X0263555Y0214940D03*
X0263555Y0214870D03*
X0263485Y0214590D03*
X0263485Y0214380D03*
X0262435Y0216480D03*
X0261105Y0216480D03*
X0260825Y0214730D03*
X0260755Y0214590D03*
X0260755Y0214520D03*
X0260685Y0214380D03*
X0260685Y0214240D03*
X0260685Y0214170D03*
X0260615Y0214030D03*
X0260545Y0213820D03*
X0260545Y0213680D03*
X0257325Y0214870D03*
X0257395Y0215220D03*
X0257465Y0215290D03*
X0257605Y0215640D03*
X0254245Y0208990D03*
X0255295Y0204930D03*
X0257255Y0205420D03*
X0266145Y0209340D03*
X0267475Y0205770D03*
X0267405Y0205630D03*
X0267405Y0205490D03*
X0267335Y0205420D03*
X0267335Y0205280D03*
X0267265Y0205140D03*
X0267265Y0205070D03*
X0267195Y0204790D03*
X0267195Y0204720D03*
D42*
X0269015Y0207240D03*
X0271465Y0207730D03*
X0272445Y0207380D03*
X0271955Y0205770D03*
X0271885Y0205630D03*
X0271955Y0204720D03*
X0270345Y0204720D03*
X0274545Y0207520D03*
X0274965Y0208920D03*
X0274965Y0208990D03*
X0274965Y0209130D03*
X0274965Y0209270D03*
X0274125Y0214030D03*
X0274055Y0214240D03*
X0273985Y0214520D03*
X0273915Y0214730D03*
X0273845Y0214940D03*
X0273775Y0215220D03*
X0273705Y0215430D03*
X0273635Y0215640D03*
X0273565Y0215920D03*
X0272375Y0216340D03*
X0272375Y0216480D03*
X0272445Y0216620D03*
X0272445Y0216690D03*
X0272515Y0216830D03*
X0272515Y0216970D03*
X0272585Y0217180D03*
X0272655Y0217320D03*
X0272655Y0217390D03*
X0272725Y0217530D03*
X0272725Y0217670D03*
X0272795Y0217880D03*
X0272235Y0215920D03*
X0272165Y0215640D03*
X0272095Y0215430D03*
X0272025Y0215220D03*
X0271955Y0214940D03*
X0271955Y0214870D03*
X0271885Y0214730D03*
X0271815Y0214520D03*
X0271745Y0214240D03*
X0267895Y0216480D03*
X0268315Y0217880D03*
X0268315Y0218020D03*
X0268315Y0218090D03*
X0268315Y0218230D03*
X0265795Y0216480D03*
X0265375Y0214870D03*
X0265305Y0214730D03*
X0265235Y0214590D03*
X0265305Y0213680D03*
X0263695Y0213680D03*
X0263555Y0214170D03*
X0262365Y0216270D03*
X0257325Y0214240D03*
X0257325Y0214170D03*
X0254315Y0214520D03*
X0254385Y0215570D03*
X0254385Y0215920D03*
X0254385Y0215990D03*
X0254385Y0216130D03*
X0254385Y0216270D03*
X0254385Y0216340D03*
X0254385Y0216690D03*
X0254385Y0216830D03*
X0254455Y0217320D03*
X0254455Y0217670D03*
X0254595Y0209270D03*
X0254105Y0208640D03*
X0254105Y0208430D03*
X0255645Y0205770D03*
X0255645Y0205630D03*
X0257255Y0204790D03*
X0259985Y0205980D03*
X0260125Y0206470D03*
X0260545Y0207940D03*
X0260755Y0208640D03*
X0263555Y0208290D03*
X0262995Y0206330D03*
X0262925Y0206120D03*
X0262785Y0205630D03*
X0265725Y0207520D03*
X0266145Y0208920D03*
X0266145Y0208990D03*
X0266145Y0209130D03*
X0266145Y0209270D03*
X0278115Y0215990D03*
X0278325Y0216690D03*
X0278465Y0217180D03*
X0278535Y0217390D03*
X0278675Y0217880D03*
X0278745Y0218090D03*
X0282035Y0208570D03*
X0283995Y0207590D03*
X0283925Y0207380D03*
X0283855Y0207240D03*
X0283855Y0207170D03*
X0283785Y0206890D03*
X0285605Y0206330D03*
X0285675Y0206470D03*
X0285675Y0206540D03*
X0285745Y0206820D03*
X0285815Y0207030D03*
X0285395Y0209480D03*
X0289105Y0208920D03*
X0289105Y0208780D03*
X0293445Y0207730D03*
X0293445Y0207590D03*
X0293375Y0207380D03*
X0293305Y0207240D03*
X0293305Y0207170D03*
X0293235Y0206890D03*
X0293165Y0206820D03*
X0293025Y0206470D03*
X0292955Y0206330D03*
X0292885Y0206190D03*
X0292745Y0205980D03*
X0294565Y0204790D03*
X0296945Y0206890D03*
X0297015Y0207170D03*
X0297015Y0207240D03*
X0297085Y0207380D03*
X0297155Y0207590D03*
X0298975Y0207030D03*
X0298905Y0206820D03*
X0298835Y0206540D03*
X0298835Y0206470D03*
X0298765Y0206330D03*
X0298555Y0209480D03*
X0302755Y0208570D03*
X0303875Y0204790D03*
X0307865Y0208780D03*
X0307865Y0208920D03*
X0311155Y0208920D03*
X0311155Y0208780D03*
D43*
X0310070Y0204930D03*
X0306780Y0204930D03*
X0302720Y0208640D03*
X0293270Y0207030D03*
X0288020Y0204930D03*
X0277590Y0214170D03*
X0277590Y0214240D03*
X0277730Y0214590D03*
X0277730Y0214730D03*
X0277870Y0215080D03*
X0277870Y0215220D03*
X0277940Y0215290D03*
X0277940Y0215430D03*
X0278080Y0215780D03*
X0278080Y0215920D03*
X0278220Y0216270D03*
X0278220Y0216340D03*
X0278290Y0216480D03*
X0278290Y0216620D03*
X0278430Y0216970D03*
X0278430Y0217040D03*
X0278570Y0217530D03*
X0278640Y0217670D03*
X0278640Y0217740D03*
X0274790Y0217740D03*
X0274790Y0217670D03*
X0274720Y0217880D03*
X0274790Y0217040D03*
X0274720Y0216830D03*
X0274580Y0216620D03*
X0274440Y0216480D03*
X0273670Y0215570D03*
X0273740Y0215290D03*
X0273880Y0214870D03*
X0274020Y0214380D03*
X0274090Y0214170D03*
X0274230Y0213820D03*
X0271780Y0214380D03*
X0271990Y0215080D03*
X0272130Y0215570D03*
X0272340Y0216270D03*
X0272830Y0218020D03*
X0272830Y0218090D03*
X0267370Y0213680D03*
X0262330Y0216130D03*
X0257430Y0214030D03*
X0254420Y0216480D03*
X0254420Y0216620D03*
X0254420Y0216970D03*
X0254420Y0217040D03*
X0254420Y0217180D03*
X0254420Y0217390D03*
X0254420Y0217530D03*
X0254420Y0217740D03*
X0254490Y0217880D03*
X0254490Y0218020D03*
X0260790Y0208780D03*
X0260720Y0208570D03*
X0260720Y0208430D03*
X0260580Y0208080D03*
X0260440Y0207590D03*
X0260440Y0207520D03*
X0260370Y0207380D03*
X0260370Y0207240D03*
X0260230Y0206890D03*
X0260230Y0206820D03*
X0260090Y0206330D03*
X0260020Y0206190D03*
X0260020Y0206120D03*
X0259880Y0205630D03*
X0259740Y0205140D03*
X0257290Y0205280D03*
X0253090Y0204930D03*
X0254140Y0208080D03*
X0254140Y0208220D03*
X0254070Y0208290D03*
X0262820Y0205840D03*
X0262820Y0205770D03*
X0262890Y0205980D03*
X0263030Y0206470D03*
X0263030Y0206540D03*
X0263170Y0206890D03*
X0263240Y0207240D03*
X0263380Y0207590D03*
X0263380Y0207730D03*
X0263520Y0208080D03*
X0263520Y0208220D03*
X0263590Y0208430D03*
X0263730Y0208780D03*
X0263730Y0208920D03*
X0262680Y0205280D03*
X0267720Y0207590D03*
X0268980Y0207170D03*
X0270240Y0205140D03*
X0274020Y0204720D03*
D44*
X0280355Y0204720D03*
X0301075Y0204720D03*
X0255505Y0209340D03*
D45*
X0252915Y0205420D03*
X0254105Y0214030D03*
X0258095Y0216340D03*
X0261385Y0216830D03*
X0262505Y0215990D03*
X0264535Y0216620D03*
X0276925Y0217880D03*
X0284835Y0209270D03*
X0284695Y0209130D03*
X0286025Y0208920D03*
X0284905Y0204930D03*
X0284765Y0204790D03*
X0283855Y0204720D03*
X0283575Y0205140D03*
X0283575Y0205280D03*
X0281685Y0205420D03*
X0281335Y0206820D03*
X0281405Y0206890D03*
X0281545Y0207030D03*
X0281685Y0207240D03*
X0271535Y0207870D03*
X0269155Y0207030D03*
X0268035Y0207870D03*
X0292745Y0209620D03*
X0293445Y0209130D03*
X0297855Y0209130D03*
X0297995Y0209270D03*
X0299185Y0208920D03*
X0302055Y0206820D03*
X0302125Y0206890D03*
X0302265Y0207030D03*
X0302405Y0207240D03*
X0302405Y0205420D03*
X0298065Y0204930D03*
X0297925Y0204790D03*
X0297015Y0204720D03*
X0296735Y0205140D03*
X0296735Y0205280D03*
D46*
X0296770Y0205070D03*
X0297820Y0204720D03*
X0301460Y0206190D03*
X0301600Y0206330D03*
X0301740Y0206470D03*
X0301810Y0206540D03*
X0301950Y0206680D03*
X0293340Y0209270D03*
X0293270Y0209340D03*
X0284660Y0204720D03*
X0283610Y0205070D03*
X0281230Y0206680D03*
X0281090Y0206540D03*
X0281020Y0206470D03*
X0280880Y0206330D03*
X0280740Y0206190D03*
X0271080Y0207590D03*
X0256450Y0208780D03*
X0254000Y0213820D03*
X0258270Y0216480D03*
X0258480Y0216620D03*
X0257640Y0218020D03*
X0257640Y0218090D03*
D47*
X0257955Y0213680D03*
X0287985Y0204720D03*
X0306745Y0204720D03*
X0310035Y0204720D03*
D48*
X0260930Y0209270D03*
X0253230Y0204790D03*
D49*
X0255225Y0206680D03*
X0254735Y0207240D03*
X0259635Y0204790D03*
X0263835Y0209270D03*
X0259075Y0216690D03*
X0257675Y0218370D03*
D50*
X0254770Y0207170D03*
X0254910Y0207030D03*
X0255050Y0206890D03*
X0255120Y0206820D03*
X0262540Y0204790D03*
X0270450Y0205070D03*
X0274510Y0213540D03*
X0289000Y0209270D03*
X0307760Y0209270D03*
X0311050Y0209270D03*
D51*
X0303875Y0205140D03*
X0303875Y0205070D03*
X0303875Y0204930D03*
X0294565Y0204930D03*
X0294565Y0205070D03*
X0294565Y0205140D03*
X0274475Y0207590D03*
X0270345Y0204790D03*
X0267685Y0207730D03*
X0265235Y0204790D03*
X0262645Y0205070D03*
X0263765Y0208990D03*
X0260825Y0208920D03*
X0255575Y0206120D03*
X0261035Y0216690D03*
X0265795Y0216620D03*
X0274125Y0216270D03*
X0274265Y0216340D03*
X0274615Y0216690D03*
X0274825Y0217180D03*
X0274825Y0217320D03*
X0274825Y0217390D03*
X0274825Y0217530D03*
X0274545Y0218090D03*
X0274195Y0213890D03*
D52*
X0274755Y0216970D03*
X0277555Y0214030D03*
X0274055Y0204790D03*
X0271955Y0204790D03*
X0265655Y0207590D03*
X0259705Y0205070D03*
X0257255Y0205070D03*
X0257255Y0205140D03*
X0257255Y0204930D03*
D53*
X0256485Y0208640D03*
X0252915Y0205630D03*
X0252915Y0205490D03*
X0254035Y0213890D03*
X0257535Y0217880D03*
X0262575Y0216830D03*
X0265235Y0213470D03*
X0267335Y0213470D03*
X0266145Y0208640D03*
X0269225Y0207870D03*
X0274965Y0208640D03*
X0283645Y0204930D03*
X0283785Y0204790D03*
X0286025Y0208990D03*
X0285885Y0209270D03*
X0285815Y0209340D03*
X0296945Y0204790D03*
X0299185Y0208990D03*
X0299115Y0209130D03*
X0299045Y0209270D03*
X0298975Y0209340D03*
D54*
X0292710Y0209480D03*
X0288020Y0204790D03*
X0274440Y0207730D03*
X0265620Y0207730D03*
X0267790Y0216690D03*
X0257710Y0218440D03*
X0254490Y0218230D03*
X0254490Y0214940D03*
X0254490Y0214870D03*
X0256170Y0209270D03*
X0254420Y0207590D03*
X0254490Y0207520D03*
X0255330Y0206540D03*
X0306780Y0204790D03*
X0310070Y0204790D03*
D55*
X0298520Y0209410D03*
X0293060Y0206750D03*
X0285360Y0209410D03*
X0280040Y0218160D03*
X0274440Y0218160D03*
X0274300Y0213750D03*
X0274090Y0204860D03*
X0271990Y0204860D03*
X0270380Y0204860D03*
X0267650Y0207660D03*
X0265270Y0204860D03*
X0260860Y0209060D03*
X0255470Y0206260D03*
X0254280Y0207800D03*
X0253160Y0204860D03*
X0254490Y0218160D03*
D56*
X0254455Y0217600D03*
X0254455Y0217460D03*
X0254385Y0216550D03*
X0254385Y0216410D03*
X0254385Y0216200D03*
X0254385Y0216060D03*
X0254385Y0215850D03*
X0254385Y0215710D03*
X0254315Y0215150D03*
X0254315Y0215010D03*
X0254455Y0209200D03*
X0254105Y0208500D03*
X0254105Y0208360D03*
X0255645Y0205700D03*
X0255645Y0205560D03*
X0255225Y0204860D03*
X0257255Y0205350D03*
X0260055Y0206260D03*
X0260195Y0206750D03*
X0260405Y0207450D03*
X0260615Y0208150D03*
X0263415Y0207800D03*
X0265795Y0207800D03*
X0266145Y0209060D03*
X0266145Y0209200D03*
X0269085Y0207450D03*
X0269015Y0207310D03*
X0271955Y0205700D03*
X0271885Y0205560D03*
X0272445Y0207450D03*
X0274615Y0207800D03*
X0274965Y0209060D03*
X0274965Y0209200D03*
X0273985Y0214450D03*
X0273915Y0214660D03*
X0273845Y0215010D03*
X0273775Y0215150D03*
X0273705Y0215360D03*
X0273705Y0215500D03*
X0273635Y0215710D03*
X0273565Y0215850D03*
X0272305Y0216200D03*
X0272375Y0216410D03*
X0272515Y0216900D03*
X0272585Y0217110D03*
X0272725Y0217600D03*
X0272795Y0217810D03*
X0272235Y0215850D03*
X0272165Y0215710D03*
X0272095Y0215500D03*
X0272095Y0215360D03*
X0272025Y0215150D03*
X0271955Y0215010D03*
X0271885Y0214660D03*
X0271815Y0214450D03*
X0267965Y0216760D03*
X0268315Y0217950D03*
X0268315Y0218160D03*
X0265795Y0216550D03*
X0265305Y0214660D03*
X0262365Y0216200D03*
X0262435Y0216410D03*
X0253055Y0205000D03*
X0277765Y0214800D03*
X0277975Y0215500D03*
X0282035Y0208500D03*
X0283995Y0207660D03*
X0284065Y0207800D03*
X0283925Y0207450D03*
X0283855Y0207100D03*
X0283785Y0206960D03*
X0283715Y0206750D03*
X0283715Y0206610D03*
X0285675Y0206610D03*
X0285745Y0206750D03*
X0285815Y0206960D03*
X0285885Y0207310D03*
X0288055Y0205000D03*
X0289105Y0208850D03*
X0293375Y0207450D03*
X0293375Y0207310D03*
X0293305Y0207100D03*
X0293235Y0206960D03*
X0293445Y0207660D03*
X0294565Y0205350D03*
X0296875Y0206610D03*
X0296875Y0206750D03*
X0296945Y0206960D03*
X0297015Y0207100D03*
X0297085Y0207450D03*
X0297155Y0207660D03*
X0297225Y0207800D03*
X0299045Y0207310D03*
X0298975Y0206960D03*
X0298905Y0206750D03*
X0298835Y0206610D03*
X0302755Y0208500D03*
X0303875Y0205350D03*
X0306815Y0205000D03*
X0310105Y0205000D03*
X0311155Y0208850D03*
X0307865Y0208850D03*
D57*
X0278570Y0217460D03*
X0278570Y0217600D03*
X0278640Y0217810D03*
X0278430Y0217110D03*
X0278290Y0216550D03*
X0278220Y0216410D03*
X0278080Y0215850D03*
X0277940Y0215360D03*
X0277870Y0215150D03*
X0277730Y0214660D03*
X0277590Y0214310D03*
X0274090Y0214100D03*
X0274020Y0214310D03*
X0273880Y0214800D03*
X0274370Y0216410D03*
X0274720Y0216900D03*
X0274790Y0217110D03*
X0274790Y0217810D03*
X0272830Y0217950D03*
X0272690Y0217460D03*
X0272620Y0217250D03*
X0272480Y0216760D03*
X0271920Y0214800D03*
X0271780Y0214310D03*
X0265340Y0213750D03*
X0263730Y0213750D03*
X0261070Y0216550D03*
X0254420Y0216760D03*
X0254420Y0216900D03*
X0254420Y0217110D03*
X0254420Y0217250D03*
X0254490Y0217810D03*
X0255120Y0209550D03*
X0254140Y0208150D03*
X0257290Y0205210D03*
X0257290Y0204860D03*
X0259740Y0205210D03*
X0259880Y0205560D03*
X0259880Y0205700D03*
X0260020Y0206050D03*
X0260090Y0206400D03*
X0260370Y0207310D03*
X0260440Y0207660D03*
X0260580Y0208010D03*
X0260720Y0208500D03*
X0260790Y0208710D03*
X0260790Y0208850D03*
X0263520Y0208150D03*
X0263590Y0208360D03*
X0263590Y0208500D03*
X0263730Y0208850D03*
X0263380Y0207660D03*
X0263240Y0207310D03*
X0263030Y0206400D03*
X0262890Y0206050D03*
X0262890Y0205910D03*
X0262820Y0205700D03*
X0262680Y0205350D03*
X0262680Y0205210D03*
D58*
X0259670Y0204860D03*
X0266180Y0218300D03*
X0289000Y0209060D03*
X0307760Y0209060D03*
X0311050Y0209060D03*
D59*
X0302545Y0208850D03*
X0281825Y0208850D03*
X0263835Y0209200D03*
X0260895Y0209200D03*
X0262575Y0204860D03*
X0255435Y0206400D03*
X0254385Y0207660D03*
X0254455Y0214800D03*
D60*
X0280425Y0204860D03*
X0301145Y0204860D03*
D61*
X0303910Y0204860D03*
X0303910Y0205210D03*
X0294600Y0205210D03*
X0294600Y0204860D03*
X0292710Y0209550D03*
X0278500Y0217250D03*
X0278360Y0216900D03*
X0278360Y0216760D03*
X0278150Y0216200D03*
X0278150Y0216060D03*
X0278010Y0215710D03*
X0277800Y0215010D03*
X0277660Y0214450D03*
X0274160Y0213960D03*
X0271710Y0214100D03*
X0272410Y0216550D03*
X0274510Y0216550D03*
X0274650Y0216760D03*
X0274860Y0217460D03*
X0278710Y0217950D03*
X0268910Y0207100D03*
X0263660Y0208710D03*
X0263450Y0208010D03*
X0263310Y0207450D03*
X0263100Y0206750D03*
X0263100Y0206610D03*
X0262960Y0206260D03*
X0262750Y0205560D03*
X0260160Y0206610D03*
X0259950Y0205910D03*
X0259810Y0205350D03*
X0260510Y0207800D03*
X0260650Y0208360D03*
X0255610Y0205910D03*
X0257360Y0214100D03*
X0254350Y0215360D03*
X0254350Y0215500D03*
X0257710Y0218300D03*
X0262260Y0216060D03*
D62*
X0261000Y0216620D03*
X0257500Y0214940D03*
X0254420Y0214730D03*
X0254490Y0218090D03*
X0263730Y0213820D03*
X0265340Y0213820D03*
X0265410Y0213890D03*
X0267440Y0213820D03*
X0271640Y0213890D03*
X0277520Y0213890D03*
X0281370Y0209480D03*
X0281930Y0208780D03*
X0289070Y0208990D03*
X0289140Y0209340D03*
X0302090Y0209480D03*
X0302650Y0208780D03*
X0307830Y0208990D03*
X0307900Y0209340D03*
X0311120Y0208990D03*
X0311190Y0209340D03*
X0272060Y0204930D03*
X0263800Y0209130D03*
X0260930Y0209130D03*
X0259670Y0204930D03*
X0262610Y0204930D03*
X0255540Y0206190D03*
X0255470Y0206330D03*
X0254210Y0207940D03*
D63*
X0254245Y0207870D03*
X0254315Y0207730D03*
X0255365Y0206470D03*
X0257885Y0213540D03*
X0263765Y0213890D03*
X0267475Y0213890D03*
X0271605Y0213820D03*
X0277485Y0213820D03*
X0274125Y0204930D03*
X0270415Y0204930D03*
X0265305Y0204930D03*
X0266215Y0218370D03*
D64*
X0263730Y0215430D03*
X0260580Y0213890D03*
X0259530Y0216340D03*
X0256380Y0208990D03*
X0266180Y0208780D03*
X0267580Y0206540D03*
X0267230Y0204930D03*
X0270380Y0206470D03*
X0284380Y0208570D03*
X0298380Y0205420D03*
D65*
X0280530Y0204930D03*
X0263870Y0209480D03*
D66*
X0262505Y0215920D03*
X0280355Y0217880D03*
X0285955Y0209130D03*
X0296805Y0204930D03*
D67*
X0277555Y0214100D03*
X0267405Y0213750D03*
X0259705Y0205000D03*
X0257255Y0205000D03*
X0254455Y0217950D03*
D68*
X0263765Y0213960D03*
X0270415Y0205000D03*
X0274405Y0207660D03*
X0271605Y0213750D03*
X0255295Y0206610D03*
X0255155Y0206750D03*
X0254665Y0207310D03*
X0302055Y0209410D03*
D69*
X0280530Y0205000D03*
D70*
X0301250Y0205000D03*
D71*
X0301355Y0205070D03*
X0292465Y0206680D03*
X0280635Y0205070D03*
X0277415Y0213540D03*
X0260965Y0209480D03*
D72*
X0256485Y0208220D03*
X0256485Y0208080D03*
X0252915Y0206190D03*
X0252915Y0206120D03*
X0253825Y0213470D03*
X0261385Y0215220D03*
X0261455Y0215290D03*
X0261525Y0215430D03*
X0261595Y0215570D03*
X0261595Y0215640D03*
X0264675Y0214380D03*
X0264745Y0214520D03*
X0266145Y0214170D03*
X0266215Y0214240D03*
X0268245Y0214170D03*
X0268315Y0214240D03*
X0268385Y0214380D03*
X0266215Y0207940D03*
X0268245Y0206680D03*
X0268175Y0206540D03*
X0268175Y0206470D03*
X0268105Y0206330D03*
X0268035Y0206190D03*
X0268385Y0206890D03*
X0266215Y0205420D03*
X0266145Y0205280D03*
X0266005Y0205140D03*
X0271325Y0205420D03*
X0271395Y0205490D03*
X0272725Y0205140D03*
X0272865Y0205280D03*
X0274825Y0205140D03*
X0274965Y0205280D03*
X0275035Y0205420D03*
X0275035Y0207940D03*
X0271955Y0207590D03*
X0271955Y0207520D03*
X0280005Y0208430D03*
X0280075Y0208570D03*
X0282035Y0205770D03*
X0280355Y0217320D03*
X0276575Y0217320D03*
X0276575Y0217390D03*
X0300725Y0208430D03*
X0300795Y0208570D03*
X0302755Y0205770D03*
D73*
X0302545Y0205490D03*
X0303875Y0205630D03*
X0300865Y0205630D03*
X0300725Y0205490D03*
X0300655Y0205420D03*
X0294565Y0205630D03*
X0281825Y0205490D03*
X0280145Y0205630D03*
X0280005Y0205490D03*
X0279935Y0205420D03*
X0271045Y0205140D03*
X0259075Y0214030D03*
X0256275Y0216340D03*
X0256205Y0216270D03*
X0256065Y0216130D03*
X0255925Y0215990D03*
X0255855Y0215920D03*
X0255785Y0215780D03*
X0255645Y0215640D03*
X0255575Y0215570D03*
X0255435Y0215430D03*
X0255365Y0215290D03*
X0255295Y0215220D03*
X0255155Y0215080D03*
X0256345Y0216480D03*
X0256485Y0216620D03*
X0256555Y0216690D03*
X0256695Y0216830D03*
X0256765Y0216970D03*
X0256835Y0217040D03*
X0256975Y0217180D03*
X0257115Y0217320D03*
X0257255Y0217530D03*
X0257395Y0217670D03*
X0256765Y0209480D03*
X0256485Y0208430D03*
X0257255Y0205630D03*
X0252915Y0205770D03*
X0252915Y0205840D03*
X0265235Y0216690D03*
X0280425Y0217670D03*
D74*
X0287985Y0209060D03*
X0281965Y0205700D03*
X0280005Y0208500D03*
X0274895Y0205210D03*
X0272795Y0205210D03*
X0271255Y0205350D03*
X0268315Y0206750D03*
X0268245Y0206610D03*
X0268105Y0206400D03*
X0268035Y0206260D03*
X0266075Y0205210D03*
X0266075Y0214100D03*
X0266215Y0214310D03*
X0264605Y0214310D03*
X0261665Y0215710D03*
X0261735Y0215850D03*
X0261525Y0215500D03*
X0261455Y0215360D03*
X0261385Y0215150D03*
X0259425Y0214310D03*
X0256835Y0209550D03*
X0256485Y0208150D03*
X0252915Y0206260D03*
X0252915Y0206050D03*
X0268175Y0214100D03*
X0268385Y0216900D03*
X0300725Y0208500D03*
X0302685Y0205700D03*
X0306745Y0209060D03*
X0310035Y0209060D03*
D75*
X0302545Y0207450D03*
X0298555Y0209550D03*
X0298345Y0205350D03*
X0293515Y0208710D03*
X0293515Y0208850D03*
X0292255Y0209410D03*
X0291905Y0209060D03*
X0285395Y0209550D03*
X0285115Y0205210D03*
X0274965Y0208710D03*
X0270695Y0207100D03*
X0267755Y0207310D03*
X0267615Y0206750D03*
X0267615Y0206610D03*
X0267545Y0206400D03*
X0266145Y0208710D03*
X0264045Y0216060D03*
X0261105Y0216200D03*
X0260965Y0215710D03*
X0260895Y0215360D03*
X0258515Y0215150D03*
D76*
X0259530Y0216410D03*
X0260930Y0215500D03*
X0266180Y0217460D03*
X0266180Y0209410D03*
X0281930Y0207660D03*
X0292080Y0205210D03*
D77*
X0280775Y0205280D03*
X0281335Y0208990D03*
X0271605Y0213540D03*
X0302055Y0208990D03*
X0301495Y0205280D03*
D78*
X0302300Y0207100D03*
X0302440Y0207310D03*
X0299220Y0208500D03*
X0299220Y0208710D03*
X0297820Y0209060D03*
X0297680Y0208850D03*
X0296700Y0205350D03*
X0293130Y0209410D03*
X0286060Y0208710D03*
X0286060Y0208500D03*
X0284660Y0209060D03*
X0284520Y0208850D03*
X0281720Y0207310D03*
X0281580Y0207100D03*
X0283540Y0205350D03*
X0270940Y0207450D03*
X0264150Y0216200D03*
X0264290Y0216410D03*
X0264430Y0216550D03*
X0266600Y0218510D03*
X0258900Y0215360D03*
X0257990Y0216200D03*
X0254140Y0214100D03*
X0252950Y0205350D03*
X0276960Y0217950D03*
D79*
X0266180Y0205350D03*
D80*
X0272900Y0205350D03*
X0275000Y0205350D03*
X0282070Y0205910D03*
X0280390Y0217250D03*
X0276540Y0217250D03*
X0268350Y0214310D03*
X0264710Y0214450D03*
X0262610Y0216900D03*
X0259250Y0216900D03*
X0256450Y0208010D03*
X0302790Y0205910D03*
D81*
X0302020Y0209060D03*
X0292500Y0206610D03*
X0281300Y0209060D03*
X0280810Y0205350D03*
D82*
X0301530Y0205350D03*
D83*
X0300970Y0205700D03*
X0301180Y0205910D03*
X0280390Y0217810D03*
X0262540Y0215850D03*
X0257570Y0217950D03*
X0256730Y0216900D03*
X0252880Y0205700D03*
D84*
X0254000Y0213750D03*
X0257500Y0217810D03*
X0280250Y0205700D03*
X0280460Y0205910D03*
D85*
X0280390Y0205840D03*
X0280320Y0205770D03*
X0280530Y0205980D03*
X0280670Y0206120D03*
X0269190Y0206890D03*
X0276820Y0217740D03*
X0280390Y0217740D03*
X0300970Y0208780D03*
X0301390Y0206120D03*
X0301040Y0205770D03*
X0257430Y0217740D03*
X0253930Y0213680D03*
D86*
X0255120Y0209620D03*
X0256870Y0209620D03*
X0259460Y0214380D03*
X0268350Y0218580D03*
X0276470Y0217180D03*
X0280320Y0217180D03*
X0280390Y0217390D03*
X0275000Y0209620D03*
X0271640Y0207940D03*
X0269260Y0207940D03*
X0282070Y0205840D03*
X0302790Y0205840D03*
D87*
X0301250Y0205980D03*
X0301110Y0205840D03*
X0280250Y0208780D03*
X0272900Y0207870D03*
X0276750Y0217670D03*
X0263660Y0213470D03*
X0257150Y0217390D03*
X0256450Y0208570D03*
D88*
X0265165Y0207800D03*
X0265095Y0216900D03*
X0264955Y0216900D03*
X0264815Y0216900D03*
X0288195Y0209060D03*
X0291905Y0206400D03*
X0292045Y0206400D03*
X0306955Y0209060D03*
X0310245Y0209060D03*
D89*
X0302020Y0209130D03*
X0292500Y0206540D03*
X0281300Y0209130D03*
X0257990Y0213820D03*
X0254490Y0218370D03*
X0254560Y0218440D03*
D90*
X0254980Y0206960D03*
D91*
X0261735Y0206960D03*
X0278745Y0218300D03*
D92*
X0278745Y0218370D03*
X0278815Y0218440D03*
X0278745Y0218230D03*
X0261735Y0207030D03*
D93*
X0254840Y0207100D03*
X0257920Y0213610D03*
X0263800Y0214100D03*
X0277450Y0213750D03*
D94*
X0261770Y0207100D03*
D95*
X0261770Y0207170D03*
D96*
X0263765Y0214030D03*
X0267755Y0216620D03*
X0274405Y0213680D03*
X0254595Y0207380D03*
D97*
X0254525Y0207450D03*
X0265585Y0207660D03*
X0281335Y0209410D03*
D98*
X0273985Y0207800D03*
X0267335Y0216760D03*
X0259425Y0216900D03*
X0259075Y0216900D03*
D99*
X0288755Y0209130D03*
X0302055Y0209270D03*
X0310805Y0209130D03*
D100*
X0307515Y0209130D03*
X0281335Y0209270D03*
D101*
X0281335Y0209200D03*
X0302055Y0209200D03*
D102*
X0307585Y0209200D03*
X0310875Y0209200D03*
X0288825Y0209200D03*
D103*
X0281335Y0209340D03*
X0302055Y0209340D03*
D104*
X0255260Y0209410D03*
D105*
X0266180Y0209620D03*
D106*
X0274475Y0213610D03*
X0254525Y0218300D03*
D107*
X0257850Y0215080D03*
X0277450Y0213680D03*
D108*
X0257990Y0213750D03*
D109*
X0258025Y0213890D03*
D110*
X0257710Y0215010D03*
D111*
X0273075Y0216130D03*
X0273075Y0218440D03*
D112*
X0273600Y0218230D03*
D113*
X0273460Y0218300D03*
D114*
X0273180Y0218370D03*
D115*
X0266166Y0219378D02*
X0252500Y0235664D01*
X0286279Y0264008D01*
X0299944Y0247722D01*
X0266166Y0219378D01*
X0252500Y0235664D02*
X0250982Y0237474D01*
X0284760Y0265817D01*
X0286279Y0264008D01*
X0295412Y0268428D02*
X0299349Y0268428D01*
X0297380Y0270396D02*
X0297380Y0266459D01*
X0299743Y0265278D02*
X0316278Y0265278D01*
X0316278Y0293625D01*
X0299743Y0293625D01*
X0299743Y0265278D01*
X0332449Y0266482D02*
X0332449Y0268451D01*
X0333827Y0268451D01*
X0334811Y0267467D01*
X0333827Y0266482D01*
X0332449Y0266482D01*
X0333827Y0266482D02*
X0336386Y0266482D01*
X0336386Y0268451D01*
X0333827Y0268451D01*
X0333857Y0264067D02*
X0334842Y0263082D01*
X0333857Y0262098D01*
X0332480Y0262098D01*
X0332480Y0264067D01*
X0333857Y0264067D01*
X0336417Y0264067D01*
X0336417Y0262098D01*
X0333857Y0262098D01*
X0360387Y0281685D02*
X0360387Y0283654D01*
X0361765Y0283654D01*
X0362750Y0282670D01*
X0361765Y0281685D01*
X0360387Y0281685D01*
X0361765Y0281685D02*
X0364324Y0281685D01*
X0364324Y0283654D01*
X0361765Y0283654D01*
X0361732Y0285801D02*
X0362717Y0286785D01*
X0361732Y0287770D01*
X0364291Y0287770D01*
X0364291Y0285801D01*
X0361732Y0285801D01*
X0360354Y0285801D01*
X0360354Y0287770D01*
X0361732Y0287770D01*
X0361717Y0290001D02*
X0362701Y0290985D01*
X0361717Y0291970D01*
X0364276Y0291970D01*
X0364276Y0290001D01*
X0361717Y0290001D01*
X0360339Y0290001D01*
X0360339Y0291970D01*
X0361717Y0291970D01*
X0361701Y0294101D02*
X0362685Y0295085D01*
X0361701Y0296070D01*
X0364260Y0296070D01*
X0364260Y0294101D01*
X0361701Y0294101D01*
X0360323Y0294101D01*
X0360323Y0296070D01*
X0361701Y0296070D01*
X0380751Y0286783D02*
X0380751Y0263161D01*
X0392169Y0263161D01*
X0392169Y0286783D01*
X0380751Y0286783D01*
X0385188Y0300486D02*
X0385067Y0301873D01*
X0383680Y0301751D01*
X0385188Y0300486D01*
X0389800Y0300470D02*
X0398911Y0311328D01*
X0387450Y0320944D01*
X0378340Y0310087D01*
X0389800Y0300470D01*
X0390494Y0299907D02*
X0399604Y0310764D01*
X0414081Y0298617D01*
X0404970Y0287760D01*
X0390494Y0299907D01*
X0393431Y0293771D02*
X0393433Y0293810D01*
X0393439Y0293849D01*
X0393449Y0293887D01*
X0393462Y0293924D01*
X0393479Y0293959D01*
X0393499Y0293993D01*
X0393523Y0294024D01*
X0393550Y0294053D01*
X0393579Y0294079D01*
X0393611Y0294102D01*
X0393645Y0294122D01*
X0393681Y0294138D01*
X0393718Y0294150D01*
X0393757Y0294159D01*
X0393796Y0294164D01*
X0393835Y0294165D01*
X0393874Y0294162D01*
X0393913Y0294155D01*
X0393950Y0294144D01*
X0393987Y0294130D01*
X0394022Y0294112D01*
X0394055Y0294091D01*
X0394086Y0294066D01*
X0394114Y0294039D01*
X0394139Y0294009D01*
X0394161Y0293976D01*
X0394180Y0293942D01*
X0394195Y0293906D01*
X0394207Y0293868D01*
X0394215Y0293830D01*
X0394219Y0293791D01*
X0394219Y0293751D01*
X0394215Y0293712D01*
X0394207Y0293674D01*
X0394195Y0293636D01*
X0394180Y0293600D01*
X0394161Y0293566D01*
X0394139Y0293533D01*
X0394114Y0293503D01*
X0394086Y0293476D01*
X0394055Y0293451D01*
X0394022Y0293430D01*
X0393987Y0293412D01*
X0393950Y0293398D01*
X0393913Y0293387D01*
X0393874Y0293380D01*
X0393835Y0293377D01*
X0393796Y0293378D01*
X0393757Y0293383D01*
X0393718Y0293392D01*
X0393681Y0293404D01*
X0393645Y0293420D01*
X0393611Y0293440D01*
X0393579Y0293463D01*
X0393550Y0293489D01*
X0393523Y0293518D01*
X0393499Y0293549D01*
X0393479Y0293583D01*
X0393462Y0293618D01*
X0393449Y0293655D01*
X0393439Y0293693D01*
X0393433Y0293732D01*
X0393431Y0293771D01*
X0398850Y0289041D02*
X0400358Y0287775D01*
X0400237Y0289162D01*
X0398850Y0289041D01*
X0406116Y0286858D02*
X0415226Y0297715D01*
X0441766Y0275445D01*
X0432656Y0264588D01*
X0406116Y0286858D01*
X0413577Y0276926D02*
X0413579Y0276965D01*
X0413585Y0277004D01*
X0413595Y0277042D01*
X0413608Y0277079D01*
X0413625Y0277114D01*
X0413645Y0277148D01*
X0413669Y0277179D01*
X0413696Y0277208D01*
X0413725Y0277234D01*
X0413757Y0277257D01*
X0413791Y0277277D01*
X0413827Y0277293D01*
X0413864Y0277305D01*
X0413903Y0277314D01*
X0413942Y0277319D01*
X0413981Y0277320D01*
X0414020Y0277317D01*
X0414059Y0277310D01*
X0414096Y0277299D01*
X0414133Y0277285D01*
X0414168Y0277267D01*
X0414201Y0277246D01*
X0414232Y0277221D01*
X0414260Y0277194D01*
X0414285Y0277164D01*
X0414307Y0277131D01*
X0414326Y0277097D01*
X0414341Y0277061D01*
X0414353Y0277023D01*
X0414361Y0276985D01*
X0414365Y0276946D01*
X0414365Y0276906D01*
X0414361Y0276867D01*
X0414353Y0276829D01*
X0414341Y0276791D01*
X0414326Y0276755D01*
X0414307Y0276721D01*
X0414285Y0276688D01*
X0414260Y0276658D01*
X0414232Y0276631D01*
X0414201Y0276606D01*
X0414168Y0276585D01*
X0414133Y0276567D01*
X0414096Y0276553D01*
X0414059Y0276542D01*
X0414020Y0276535D01*
X0413981Y0276532D01*
X0413942Y0276533D01*
X0413903Y0276538D01*
X0413864Y0276547D01*
X0413827Y0276559D01*
X0413791Y0276575D01*
X0413757Y0276595D01*
X0413725Y0276618D01*
X0413696Y0276644D01*
X0413669Y0276673D01*
X0413645Y0276704D01*
X0413625Y0276738D01*
X0413608Y0276773D01*
X0413595Y0276810D01*
X0413585Y0276848D01*
X0413579Y0276887D01*
X0413577Y0276926D01*
X0421117Y0270599D02*
X0421119Y0270638D01*
X0421125Y0270677D01*
X0421135Y0270715D01*
X0421148Y0270752D01*
X0421165Y0270787D01*
X0421185Y0270821D01*
X0421209Y0270852D01*
X0421236Y0270881D01*
X0421265Y0270907D01*
X0421297Y0270930D01*
X0421331Y0270950D01*
X0421367Y0270966D01*
X0421404Y0270978D01*
X0421443Y0270987D01*
X0421482Y0270992D01*
X0421521Y0270993D01*
X0421560Y0270990D01*
X0421599Y0270983D01*
X0421636Y0270972D01*
X0421673Y0270958D01*
X0421708Y0270940D01*
X0421741Y0270919D01*
X0421772Y0270894D01*
X0421800Y0270867D01*
X0421825Y0270837D01*
X0421847Y0270804D01*
X0421866Y0270770D01*
X0421881Y0270734D01*
X0421893Y0270696D01*
X0421901Y0270658D01*
X0421905Y0270619D01*
X0421905Y0270579D01*
X0421901Y0270540D01*
X0421893Y0270502D01*
X0421881Y0270464D01*
X0421866Y0270428D01*
X0421847Y0270394D01*
X0421825Y0270361D01*
X0421800Y0270331D01*
X0421772Y0270304D01*
X0421741Y0270279D01*
X0421708Y0270258D01*
X0421673Y0270240D01*
X0421636Y0270226D01*
X0421599Y0270215D01*
X0421560Y0270208D01*
X0421521Y0270205D01*
X0421482Y0270206D01*
X0421443Y0270211D01*
X0421404Y0270220D01*
X0421367Y0270232D01*
X0421331Y0270248D01*
X0421297Y0270268D01*
X0421265Y0270291D01*
X0421236Y0270317D01*
X0421209Y0270346D01*
X0421185Y0270377D01*
X0421165Y0270411D01*
X0421148Y0270446D01*
X0421135Y0270483D01*
X0421125Y0270521D01*
X0421119Y0270560D01*
X0421117Y0270599D01*
X0416149Y0265192D02*
X0416151Y0265254D01*
X0416157Y0265317D01*
X0416167Y0265378D01*
X0416181Y0265439D01*
X0416198Y0265499D01*
X0416219Y0265558D01*
X0416245Y0265615D01*
X0416273Y0265670D01*
X0416305Y0265724D01*
X0416341Y0265775D01*
X0416379Y0265825D01*
X0416421Y0265871D01*
X0416465Y0265915D01*
X0416513Y0265956D01*
X0416562Y0265994D01*
X0416614Y0266028D01*
X0416668Y0266059D01*
X0416724Y0266087D01*
X0416782Y0266111D01*
X0416841Y0266132D01*
X0416901Y0266148D01*
X0416962Y0266161D01*
X0417024Y0266170D01*
X0417086Y0266175D01*
X0417149Y0266176D01*
X0417211Y0266173D01*
X0417273Y0266166D01*
X0417335Y0266155D01*
X0417395Y0266140D01*
X0417455Y0266122D01*
X0417513Y0266100D01*
X0417570Y0266074D01*
X0417625Y0266044D01*
X0417678Y0266011D01*
X0417729Y0265975D01*
X0417777Y0265936D01*
X0417823Y0265893D01*
X0417866Y0265848D01*
X0417906Y0265800D01*
X0417943Y0265750D01*
X0417977Y0265697D01*
X0418008Y0265643D01*
X0418034Y0265587D01*
X0418058Y0265529D01*
X0418077Y0265469D01*
X0418093Y0265409D01*
X0418105Y0265347D01*
X0418113Y0265286D01*
X0418117Y0265223D01*
X0418117Y0265161D01*
X0418113Y0265098D01*
X0418105Y0265037D01*
X0418093Y0264975D01*
X0418077Y0264915D01*
X0418058Y0264855D01*
X0418034Y0264797D01*
X0418008Y0264741D01*
X0417977Y0264687D01*
X0417943Y0264634D01*
X0417906Y0264584D01*
X0417866Y0264536D01*
X0417823Y0264491D01*
X0417777Y0264448D01*
X0417729Y0264409D01*
X0417678Y0264373D01*
X0417625Y0264340D01*
X0417570Y0264310D01*
X0417513Y0264284D01*
X0417455Y0264262D01*
X0417395Y0264244D01*
X0417335Y0264229D01*
X0417273Y0264218D01*
X0417211Y0264211D01*
X0417149Y0264208D01*
X0417086Y0264209D01*
X0417024Y0264214D01*
X0416962Y0264223D01*
X0416901Y0264236D01*
X0416841Y0264252D01*
X0416782Y0264273D01*
X0416724Y0264297D01*
X0416668Y0264325D01*
X0416614Y0264356D01*
X0416562Y0264390D01*
X0416513Y0264428D01*
X0416465Y0264469D01*
X0416421Y0264513D01*
X0416379Y0264559D01*
X0416341Y0264609D01*
X0416305Y0264660D01*
X0416273Y0264714D01*
X0416245Y0264769D01*
X0416219Y0264826D01*
X0416198Y0264885D01*
X0416181Y0264945D01*
X0416167Y0265006D01*
X0416157Y0265067D01*
X0416151Y0265130D01*
X0416149Y0265192D01*
X0406307Y0265192D02*
X0406309Y0265254D01*
X0406315Y0265317D01*
X0406325Y0265378D01*
X0406339Y0265439D01*
X0406356Y0265499D01*
X0406377Y0265558D01*
X0406403Y0265615D01*
X0406431Y0265670D01*
X0406463Y0265724D01*
X0406499Y0265775D01*
X0406537Y0265825D01*
X0406579Y0265871D01*
X0406623Y0265915D01*
X0406671Y0265956D01*
X0406720Y0265994D01*
X0406772Y0266028D01*
X0406826Y0266059D01*
X0406882Y0266087D01*
X0406940Y0266111D01*
X0406999Y0266132D01*
X0407059Y0266148D01*
X0407120Y0266161D01*
X0407182Y0266170D01*
X0407244Y0266175D01*
X0407307Y0266176D01*
X0407369Y0266173D01*
X0407431Y0266166D01*
X0407493Y0266155D01*
X0407553Y0266140D01*
X0407613Y0266122D01*
X0407671Y0266100D01*
X0407728Y0266074D01*
X0407783Y0266044D01*
X0407836Y0266011D01*
X0407887Y0265975D01*
X0407935Y0265936D01*
X0407981Y0265893D01*
X0408024Y0265848D01*
X0408064Y0265800D01*
X0408101Y0265750D01*
X0408135Y0265697D01*
X0408166Y0265643D01*
X0408192Y0265587D01*
X0408216Y0265529D01*
X0408235Y0265469D01*
X0408251Y0265409D01*
X0408263Y0265347D01*
X0408271Y0265286D01*
X0408275Y0265223D01*
X0408275Y0265161D01*
X0408271Y0265098D01*
X0408263Y0265037D01*
X0408251Y0264975D01*
X0408235Y0264915D01*
X0408216Y0264855D01*
X0408192Y0264797D01*
X0408166Y0264741D01*
X0408135Y0264687D01*
X0408101Y0264634D01*
X0408064Y0264584D01*
X0408024Y0264536D01*
X0407981Y0264491D01*
X0407935Y0264448D01*
X0407887Y0264409D01*
X0407836Y0264373D01*
X0407783Y0264340D01*
X0407728Y0264310D01*
X0407671Y0264284D01*
X0407613Y0264262D01*
X0407553Y0264244D01*
X0407493Y0264229D01*
X0407431Y0264218D01*
X0407369Y0264211D01*
X0407307Y0264208D01*
X0407244Y0264209D01*
X0407182Y0264214D01*
X0407120Y0264223D01*
X0407059Y0264236D01*
X0406999Y0264252D01*
X0406940Y0264273D01*
X0406882Y0264297D01*
X0406826Y0264325D01*
X0406772Y0264356D01*
X0406720Y0264390D01*
X0406671Y0264428D01*
X0406623Y0264469D01*
X0406579Y0264513D01*
X0406537Y0264559D01*
X0406499Y0264609D01*
X0406463Y0264660D01*
X0406431Y0264714D01*
X0406403Y0264769D01*
X0406377Y0264826D01*
X0406356Y0264885D01*
X0406339Y0264945D01*
X0406325Y0265006D01*
X0406315Y0265067D01*
X0406309Y0265130D01*
X0406307Y0265192D01*
X0396464Y0265192D02*
X0396466Y0265254D01*
X0396472Y0265317D01*
X0396482Y0265378D01*
X0396496Y0265439D01*
X0396513Y0265499D01*
X0396534Y0265558D01*
X0396560Y0265615D01*
X0396588Y0265670D01*
X0396620Y0265724D01*
X0396656Y0265775D01*
X0396694Y0265825D01*
X0396736Y0265871D01*
X0396780Y0265915D01*
X0396828Y0265956D01*
X0396877Y0265994D01*
X0396929Y0266028D01*
X0396983Y0266059D01*
X0397039Y0266087D01*
X0397097Y0266111D01*
X0397156Y0266132D01*
X0397216Y0266148D01*
X0397277Y0266161D01*
X0397339Y0266170D01*
X0397401Y0266175D01*
X0397464Y0266176D01*
X0397526Y0266173D01*
X0397588Y0266166D01*
X0397650Y0266155D01*
X0397710Y0266140D01*
X0397770Y0266122D01*
X0397828Y0266100D01*
X0397885Y0266074D01*
X0397940Y0266044D01*
X0397993Y0266011D01*
X0398044Y0265975D01*
X0398092Y0265936D01*
X0398138Y0265893D01*
X0398181Y0265848D01*
X0398221Y0265800D01*
X0398258Y0265750D01*
X0398292Y0265697D01*
X0398323Y0265643D01*
X0398349Y0265587D01*
X0398373Y0265529D01*
X0398392Y0265469D01*
X0398408Y0265409D01*
X0398420Y0265347D01*
X0398428Y0265286D01*
X0398432Y0265223D01*
X0398432Y0265161D01*
X0398428Y0265098D01*
X0398420Y0265037D01*
X0398408Y0264975D01*
X0398392Y0264915D01*
X0398373Y0264855D01*
X0398349Y0264797D01*
X0398323Y0264741D01*
X0398292Y0264687D01*
X0398258Y0264634D01*
X0398221Y0264584D01*
X0398181Y0264536D01*
X0398138Y0264491D01*
X0398092Y0264448D01*
X0398044Y0264409D01*
X0397993Y0264373D01*
X0397940Y0264340D01*
X0397885Y0264310D01*
X0397828Y0264284D01*
X0397770Y0264262D01*
X0397710Y0264244D01*
X0397650Y0264229D01*
X0397588Y0264218D01*
X0397526Y0264211D01*
X0397464Y0264208D01*
X0397401Y0264209D01*
X0397339Y0264214D01*
X0397277Y0264223D01*
X0397216Y0264236D01*
X0397156Y0264252D01*
X0397097Y0264273D01*
X0397039Y0264297D01*
X0396983Y0264325D01*
X0396929Y0264356D01*
X0396877Y0264390D01*
X0396828Y0264428D01*
X0396780Y0264469D01*
X0396736Y0264513D01*
X0396694Y0264559D01*
X0396656Y0264609D01*
X0396620Y0264660D01*
X0396588Y0264714D01*
X0396560Y0264769D01*
X0396534Y0264826D01*
X0396513Y0264885D01*
X0396496Y0264945D01*
X0396482Y0265006D01*
X0396472Y0265067D01*
X0396466Y0265130D01*
X0396464Y0265192D01*
X0397877Y0268082D02*
X0397877Y0270051D01*
X0396893Y0269067D01*
X0397877Y0268082D01*
X0393511Y0255349D02*
X0448629Y0255349D01*
X0448629Y0204168D01*
X0444692Y0200231D01*
X0393511Y0200231D01*
X0393511Y0255349D01*
X0382685Y0243538D02*
X0382687Y0243600D01*
X0382693Y0243663D01*
X0382703Y0243724D01*
X0382717Y0243785D01*
X0382734Y0243845D01*
X0382755Y0243904D01*
X0382781Y0243961D01*
X0382809Y0244016D01*
X0382841Y0244070D01*
X0382877Y0244121D01*
X0382915Y0244171D01*
X0382957Y0244217D01*
X0383001Y0244261D01*
X0383049Y0244302D01*
X0383098Y0244340D01*
X0383150Y0244374D01*
X0383204Y0244405D01*
X0383260Y0244433D01*
X0383318Y0244457D01*
X0383377Y0244478D01*
X0383437Y0244494D01*
X0383498Y0244507D01*
X0383560Y0244516D01*
X0383622Y0244521D01*
X0383685Y0244522D01*
X0383747Y0244519D01*
X0383809Y0244512D01*
X0383871Y0244501D01*
X0383931Y0244486D01*
X0383991Y0244468D01*
X0384049Y0244446D01*
X0384106Y0244420D01*
X0384161Y0244390D01*
X0384214Y0244357D01*
X0384265Y0244321D01*
X0384313Y0244282D01*
X0384359Y0244239D01*
X0384402Y0244194D01*
X0384442Y0244146D01*
X0384479Y0244096D01*
X0384513Y0244043D01*
X0384544Y0243989D01*
X0384570Y0243933D01*
X0384594Y0243875D01*
X0384613Y0243815D01*
X0384629Y0243755D01*
X0384641Y0243693D01*
X0384649Y0243632D01*
X0384653Y0243569D01*
X0384653Y0243507D01*
X0384649Y0243444D01*
X0384641Y0243383D01*
X0384629Y0243321D01*
X0384613Y0243261D01*
X0384594Y0243201D01*
X0384570Y0243143D01*
X0384544Y0243087D01*
X0384513Y0243033D01*
X0384479Y0242980D01*
X0384442Y0242930D01*
X0384402Y0242882D01*
X0384359Y0242837D01*
X0384313Y0242794D01*
X0384265Y0242755D01*
X0384214Y0242719D01*
X0384161Y0242686D01*
X0384106Y0242656D01*
X0384049Y0242630D01*
X0383991Y0242608D01*
X0383931Y0242590D01*
X0383871Y0242575D01*
X0383809Y0242564D01*
X0383747Y0242557D01*
X0383685Y0242554D01*
X0383622Y0242555D01*
X0383560Y0242560D01*
X0383498Y0242569D01*
X0383437Y0242582D01*
X0383377Y0242598D01*
X0383318Y0242619D01*
X0383260Y0242643D01*
X0383204Y0242671D01*
X0383150Y0242702D01*
X0383098Y0242736D01*
X0383049Y0242774D01*
X0383001Y0242815D01*
X0382957Y0242859D01*
X0382915Y0242905D01*
X0382877Y0242955D01*
X0382841Y0243006D01*
X0382809Y0243060D01*
X0382781Y0243115D01*
X0382755Y0243172D01*
X0382734Y0243231D01*
X0382717Y0243291D01*
X0382703Y0243352D01*
X0382693Y0243413D01*
X0382687Y0243476D01*
X0382685Y0243538D01*
X0382685Y0233696D02*
X0382687Y0233758D01*
X0382693Y0233821D01*
X0382703Y0233882D01*
X0382717Y0233943D01*
X0382734Y0234003D01*
X0382755Y0234062D01*
X0382781Y0234119D01*
X0382809Y0234174D01*
X0382841Y0234228D01*
X0382877Y0234279D01*
X0382915Y0234329D01*
X0382957Y0234375D01*
X0383001Y0234419D01*
X0383049Y0234460D01*
X0383098Y0234498D01*
X0383150Y0234532D01*
X0383204Y0234563D01*
X0383260Y0234591D01*
X0383318Y0234615D01*
X0383377Y0234636D01*
X0383437Y0234652D01*
X0383498Y0234665D01*
X0383560Y0234674D01*
X0383622Y0234679D01*
X0383685Y0234680D01*
X0383747Y0234677D01*
X0383809Y0234670D01*
X0383871Y0234659D01*
X0383931Y0234644D01*
X0383991Y0234626D01*
X0384049Y0234604D01*
X0384106Y0234578D01*
X0384161Y0234548D01*
X0384214Y0234515D01*
X0384265Y0234479D01*
X0384313Y0234440D01*
X0384359Y0234397D01*
X0384402Y0234352D01*
X0384442Y0234304D01*
X0384479Y0234254D01*
X0384513Y0234201D01*
X0384544Y0234147D01*
X0384570Y0234091D01*
X0384594Y0234033D01*
X0384613Y0233973D01*
X0384629Y0233913D01*
X0384641Y0233851D01*
X0384649Y0233790D01*
X0384653Y0233727D01*
X0384653Y0233665D01*
X0384649Y0233602D01*
X0384641Y0233541D01*
X0384629Y0233479D01*
X0384613Y0233419D01*
X0384594Y0233359D01*
X0384570Y0233301D01*
X0384544Y0233245D01*
X0384513Y0233191D01*
X0384479Y0233138D01*
X0384442Y0233088D01*
X0384402Y0233040D01*
X0384359Y0232995D01*
X0384313Y0232952D01*
X0384265Y0232913D01*
X0384214Y0232877D01*
X0384161Y0232844D01*
X0384106Y0232814D01*
X0384049Y0232788D01*
X0383991Y0232766D01*
X0383931Y0232748D01*
X0383871Y0232733D01*
X0383809Y0232722D01*
X0383747Y0232715D01*
X0383685Y0232712D01*
X0383622Y0232713D01*
X0383560Y0232718D01*
X0383498Y0232727D01*
X0383437Y0232740D01*
X0383377Y0232756D01*
X0383318Y0232777D01*
X0383260Y0232801D01*
X0383204Y0232829D01*
X0383150Y0232860D01*
X0383098Y0232894D01*
X0383049Y0232932D01*
X0383001Y0232973D01*
X0382957Y0233017D01*
X0382915Y0233063D01*
X0382877Y0233113D01*
X0382841Y0233164D01*
X0382809Y0233218D01*
X0382781Y0233273D01*
X0382755Y0233330D01*
X0382734Y0233389D01*
X0382717Y0233449D01*
X0382703Y0233510D01*
X0382693Y0233571D01*
X0382687Y0233634D01*
X0382685Y0233696D01*
X0372957Y0231348D02*
X0375713Y0220719D01*
X0375713Y0210876D01*
X0372957Y0200246D01*
X0363902Y0200246D01*
X0363902Y0231348D01*
X0372957Y0231348D01*
X0372957Y0200246D01*
X0380430Y0196826D02*
X0380430Y0190920D01*
X0392241Y0190920D01*
X0392241Y0196826D01*
X0380430Y0196826D01*
X0381580Y0192692D02*
X0381582Y0192741D01*
X0381588Y0192791D01*
X0381598Y0192839D01*
X0381611Y0192887D01*
X0381629Y0192933D01*
X0381649Y0192978D01*
X0381674Y0193021D01*
X0381702Y0193062D01*
X0381733Y0193100D01*
X0381767Y0193136D01*
X0381803Y0193169D01*
X0381842Y0193200D01*
X0381884Y0193226D01*
X0381927Y0193250D01*
X0381973Y0193270D01*
X0382019Y0193287D01*
X0382067Y0193299D01*
X0382116Y0193308D01*
X0382165Y0193313D01*
X0382214Y0193314D01*
X0382264Y0193311D01*
X0382313Y0193304D01*
X0382361Y0193293D01*
X0382408Y0193279D01*
X0382454Y0193261D01*
X0382499Y0193239D01*
X0382541Y0193213D01*
X0382581Y0193185D01*
X0382619Y0193153D01*
X0382655Y0193119D01*
X0382687Y0193081D01*
X0382717Y0193041D01*
X0382743Y0192999D01*
X0382765Y0192955D01*
X0382785Y0192910D01*
X0382800Y0192863D01*
X0382812Y0192815D01*
X0382820Y0192766D01*
X0382824Y0192717D01*
X0382824Y0192667D01*
X0382820Y0192618D01*
X0382812Y0192569D01*
X0382800Y0192521D01*
X0382785Y0192474D01*
X0382765Y0192429D01*
X0382743Y0192385D01*
X0382717Y0192343D01*
X0382687Y0192303D01*
X0382655Y0192265D01*
X0382619Y0192231D01*
X0382581Y0192199D01*
X0382541Y0192171D01*
X0382499Y0192145D01*
X0382454Y0192123D01*
X0382408Y0192105D01*
X0382361Y0192091D01*
X0382313Y0192080D01*
X0382264Y0192073D01*
X0382214Y0192070D01*
X0382165Y0192071D01*
X0382116Y0192076D01*
X0382067Y0192085D01*
X0382019Y0192097D01*
X0381973Y0192114D01*
X0381927Y0192134D01*
X0381884Y0192158D01*
X0381842Y0192184D01*
X0381803Y0192215D01*
X0381767Y0192248D01*
X0381733Y0192284D01*
X0381702Y0192322D01*
X0381674Y0192363D01*
X0381649Y0192406D01*
X0381629Y0192451D01*
X0381611Y0192497D01*
X0381598Y0192545D01*
X0381588Y0192593D01*
X0381582Y0192643D01*
X0381580Y0192692D01*
X0378492Y0187244D02*
X0378492Y0158897D01*
X0361957Y0158897D01*
X0361957Y0187244D01*
X0378492Y0187244D01*
X0382685Y0204168D02*
X0382687Y0204230D01*
X0382693Y0204293D01*
X0382703Y0204354D01*
X0382717Y0204415D01*
X0382734Y0204475D01*
X0382755Y0204534D01*
X0382781Y0204591D01*
X0382809Y0204646D01*
X0382841Y0204700D01*
X0382877Y0204751D01*
X0382915Y0204801D01*
X0382957Y0204847D01*
X0383001Y0204891D01*
X0383049Y0204932D01*
X0383098Y0204970D01*
X0383150Y0205004D01*
X0383204Y0205035D01*
X0383260Y0205063D01*
X0383318Y0205087D01*
X0383377Y0205108D01*
X0383437Y0205124D01*
X0383498Y0205137D01*
X0383560Y0205146D01*
X0383622Y0205151D01*
X0383685Y0205152D01*
X0383747Y0205149D01*
X0383809Y0205142D01*
X0383871Y0205131D01*
X0383931Y0205116D01*
X0383991Y0205098D01*
X0384049Y0205076D01*
X0384106Y0205050D01*
X0384161Y0205020D01*
X0384214Y0204987D01*
X0384265Y0204951D01*
X0384313Y0204912D01*
X0384359Y0204869D01*
X0384402Y0204824D01*
X0384442Y0204776D01*
X0384479Y0204726D01*
X0384513Y0204673D01*
X0384544Y0204619D01*
X0384570Y0204563D01*
X0384594Y0204505D01*
X0384613Y0204445D01*
X0384629Y0204385D01*
X0384641Y0204323D01*
X0384649Y0204262D01*
X0384653Y0204199D01*
X0384653Y0204137D01*
X0384649Y0204074D01*
X0384641Y0204013D01*
X0384629Y0203951D01*
X0384613Y0203891D01*
X0384594Y0203831D01*
X0384570Y0203773D01*
X0384544Y0203717D01*
X0384513Y0203663D01*
X0384479Y0203610D01*
X0384442Y0203560D01*
X0384402Y0203512D01*
X0384359Y0203467D01*
X0384313Y0203424D01*
X0384265Y0203385D01*
X0384214Y0203349D01*
X0384161Y0203316D01*
X0384106Y0203286D01*
X0384049Y0203260D01*
X0383991Y0203238D01*
X0383931Y0203220D01*
X0383871Y0203205D01*
X0383809Y0203194D01*
X0383747Y0203187D01*
X0383685Y0203184D01*
X0383622Y0203185D01*
X0383560Y0203190D01*
X0383498Y0203199D01*
X0383437Y0203212D01*
X0383377Y0203228D01*
X0383318Y0203249D01*
X0383260Y0203273D01*
X0383204Y0203301D01*
X0383150Y0203332D01*
X0383098Y0203366D01*
X0383049Y0203404D01*
X0383001Y0203445D01*
X0382957Y0203489D01*
X0382915Y0203535D01*
X0382877Y0203585D01*
X0382841Y0203636D01*
X0382809Y0203690D01*
X0382781Y0203745D01*
X0382755Y0203802D01*
X0382734Y0203861D01*
X0382717Y0203921D01*
X0382703Y0203982D01*
X0382693Y0204043D01*
X0382687Y0204106D01*
X0382685Y0204168D01*
X0382685Y0214011D02*
X0382687Y0214073D01*
X0382693Y0214136D01*
X0382703Y0214197D01*
X0382717Y0214258D01*
X0382734Y0214318D01*
X0382755Y0214377D01*
X0382781Y0214434D01*
X0382809Y0214489D01*
X0382841Y0214543D01*
X0382877Y0214594D01*
X0382915Y0214644D01*
X0382957Y0214690D01*
X0383001Y0214734D01*
X0383049Y0214775D01*
X0383098Y0214813D01*
X0383150Y0214847D01*
X0383204Y0214878D01*
X0383260Y0214906D01*
X0383318Y0214930D01*
X0383377Y0214951D01*
X0383437Y0214967D01*
X0383498Y0214980D01*
X0383560Y0214989D01*
X0383622Y0214994D01*
X0383685Y0214995D01*
X0383747Y0214992D01*
X0383809Y0214985D01*
X0383871Y0214974D01*
X0383931Y0214959D01*
X0383991Y0214941D01*
X0384049Y0214919D01*
X0384106Y0214893D01*
X0384161Y0214863D01*
X0384214Y0214830D01*
X0384265Y0214794D01*
X0384313Y0214755D01*
X0384359Y0214712D01*
X0384402Y0214667D01*
X0384442Y0214619D01*
X0384479Y0214569D01*
X0384513Y0214516D01*
X0384544Y0214462D01*
X0384570Y0214406D01*
X0384594Y0214348D01*
X0384613Y0214288D01*
X0384629Y0214228D01*
X0384641Y0214166D01*
X0384649Y0214105D01*
X0384653Y0214042D01*
X0384653Y0213980D01*
X0384649Y0213917D01*
X0384641Y0213856D01*
X0384629Y0213794D01*
X0384613Y0213734D01*
X0384594Y0213674D01*
X0384570Y0213616D01*
X0384544Y0213560D01*
X0384513Y0213506D01*
X0384479Y0213453D01*
X0384442Y0213403D01*
X0384402Y0213355D01*
X0384359Y0213310D01*
X0384313Y0213267D01*
X0384265Y0213228D01*
X0384214Y0213192D01*
X0384161Y0213159D01*
X0384106Y0213129D01*
X0384049Y0213103D01*
X0383991Y0213081D01*
X0383931Y0213063D01*
X0383871Y0213048D01*
X0383809Y0213037D01*
X0383747Y0213030D01*
X0383685Y0213027D01*
X0383622Y0213028D01*
X0383560Y0213033D01*
X0383498Y0213042D01*
X0383437Y0213055D01*
X0383377Y0213071D01*
X0383318Y0213092D01*
X0383260Y0213116D01*
X0383204Y0213144D01*
X0383150Y0213175D01*
X0383098Y0213209D01*
X0383049Y0213247D01*
X0383001Y0213288D01*
X0382957Y0213332D01*
X0382915Y0213378D01*
X0382877Y0213428D01*
X0382841Y0213479D01*
X0382809Y0213533D01*
X0382781Y0213588D01*
X0382755Y0213645D01*
X0382734Y0213704D01*
X0382717Y0213764D01*
X0382703Y0213825D01*
X0382693Y0213886D01*
X0382687Y0213949D01*
X0382685Y0214011D01*
X0382685Y0223853D02*
X0382687Y0223915D01*
X0382693Y0223978D01*
X0382703Y0224039D01*
X0382717Y0224100D01*
X0382734Y0224160D01*
X0382755Y0224219D01*
X0382781Y0224276D01*
X0382809Y0224331D01*
X0382841Y0224385D01*
X0382877Y0224436D01*
X0382915Y0224486D01*
X0382957Y0224532D01*
X0383001Y0224576D01*
X0383049Y0224617D01*
X0383098Y0224655D01*
X0383150Y0224689D01*
X0383204Y0224720D01*
X0383260Y0224748D01*
X0383318Y0224772D01*
X0383377Y0224793D01*
X0383437Y0224809D01*
X0383498Y0224822D01*
X0383560Y0224831D01*
X0383622Y0224836D01*
X0383685Y0224837D01*
X0383747Y0224834D01*
X0383809Y0224827D01*
X0383871Y0224816D01*
X0383931Y0224801D01*
X0383991Y0224783D01*
X0384049Y0224761D01*
X0384106Y0224735D01*
X0384161Y0224705D01*
X0384214Y0224672D01*
X0384265Y0224636D01*
X0384313Y0224597D01*
X0384359Y0224554D01*
X0384402Y0224509D01*
X0384442Y0224461D01*
X0384479Y0224411D01*
X0384513Y0224358D01*
X0384544Y0224304D01*
X0384570Y0224248D01*
X0384594Y0224190D01*
X0384613Y0224130D01*
X0384629Y0224070D01*
X0384641Y0224008D01*
X0384649Y0223947D01*
X0384653Y0223884D01*
X0384653Y0223822D01*
X0384649Y0223759D01*
X0384641Y0223698D01*
X0384629Y0223636D01*
X0384613Y0223576D01*
X0384594Y0223516D01*
X0384570Y0223458D01*
X0384544Y0223402D01*
X0384513Y0223348D01*
X0384479Y0223295D01*
X0384442Y0223245D01*
X0384402Y0223197D01*
X0384359Y0223152D01*
X0384313Y0223109D01*
X0384265Y0223070D01*
X0384214Y0223034D01*
X0384161Y0223001D01*
X0384106Y0222971D01*
X0384049Y0222945D01*
X0383991Y0222923D01*
X0383931Y0222905D01*
X0383871Y0222890D01*
X0383809Y0222879D01*
X0383747Y0222872D01*
X0383685Y0222869D01*
X0383622Y0222870D01*
X0383560Y0222875D01*
X0383498Y0222884D01*
X0383437Y0222897D01*
X0383377Y0222913D01*
X0383318Y0222934D01*
X0383260Y0222958D01*
X0383204Y0222986D01*
X0383150Y0223017D01*
X0383098Y0223051D01*
X0383049Y0223089D01*
X0383001Y0223130D01*
X0382957Y0223174D01*
X0382915Y0223220D01*
X0382877Y0223270D01*
X0382841Y0223321D01*
X0382809Y0223375D01*
X0382781Y0223430D01*
X0382755Y0223487D01*
X0382734Y0223546D01*
X0382717Y0223606D01*
X0382703Y0223667D01*
X0382693Y0223728D01*
X0382687Y0223791D01*
X0382685Y0223853D01*
X0358587Y0220719D02*
X0357602Y0219734D01*
X0357602Y0221703D01*
X0358587Y0220719D01*
X0357799Y0212844D02*
X0357801Y0212883D01*
X0357807Y0212922D01*
X0357817Y0212960D01*
X0357830Y0212997D01*
X0357847Y0213032D01*
X0357867Y0213066D01*
X0357891Y0213097D01*
X0357918Y0213126D01*
X0357947Y0213152D01*
X0357979Y0213175D01*
X0358013Y0213195D01*
X0358049Y0213211D01*
X0358086Y0213223D01*
X0358125Y0213232D01*
X0358164Y0213237D01*
X0358203Y0213238D01*
X0358242Y0213235D01*
X0358281Y0213228D01*
X0358318Y0213217D01*
X0358355Y0213203D01*
X0358390Y0213185D01*
X0358423Y0213164D01*
X0358454Y0213139D01*
X0358482Y0213112D01*
X0358507Y0213082D01*
X0358529Y0213049D01*
X0358548Y0213015D01*
X0358563Y0212979D01*
X0358575Y0212941D01*
X0358583Y0212903D01*
X0358587Y0212864D01*
X0358587Y0212824D01*
X0358583Y0212785D01*
X0358575Y0212747D01*
X0358563Y0212709D01*
X0358548Y0212673D01*
X0358529Y0212639D01*
X0358507Y0212606D01*
X0358482Y0212576D01*
X0358454Y0212549D01*
X0358423Y0212524D01*
X0358390Y0212503D01*
X0358355Y0212485D01*
X0358318Y0212471D01*
X0358281Y0212460D01*
X0358242Y0212453D01*
X0358203Y0212450D01*
X0358164Y0212451D01*
X0358125Y0212456D01*
X0358086Y0212465D01*
X0358049Y0212477D01*
X0358013Y0212493D01*
X0357979Y0212513D01*
X0357947Y0212536D01*
X0357918Y0212562D01*
X0357891Y0212591D01*
X0357867Y0212622D01*
X0357847Y0212656D01*
X0357830Y0212691D01*
X0357817Y0212728D01*
X0357807Y0212766D01*
X0357801Y0212805D01*
X0357799Y0212844D01*
X0332095Y0192555D02*
X0320678Y0192555D01*
X0320678Y0176807D01*
X0332095Y0176807D01*
X0332095Y0192555D01*
X0315954Y0186649D02*
X0314969Y0185665D01*
X0314969Y0187633D01*
X0315954Y0186649D01*
X0326360Y0165352D02*
X0299588Y0165352D01*
X0299588Y0153541D01*
X0326360Y0153541D01*
X0326360Y0165352D01*
X0303919Y0145470D02*
X0301950Y0145470D01*
X0302935Y0146455D01*
X0303919Y0145470D01*
X0288587Y0152285D02*
X0272052Y0152285D01*
X0272052Y0180632D01*
X0288587Y0180632D01*
X0288587Y0152285D01*
X0271658Y0155435D02*
X0267721Y0155435D01*
X0269690Y0153467D02*
X0269690Y0157404D01*
X0253970Y0151151D02*
X0253970Y0149182D01*
X0251411Y0149182D01*
X0252395Y0150167D01*
X0251411Y0151151D01*
X0253970Y0151151D01*
X0251411Y0151151D02*
X0250033Y0151151D01*
X0250033Y0149182D01*
X0251411Y0149182D01*
X0243193Y0187451D02*
X0239256Y0187451D01*
X0239256Y0191388D01*
X0240240Y0191388D01*
X0240240Y0194144D01*
X0228429Y0194144D01*
X0228429Y0191388D01*
X0229413Y0191388D01*
X0229413Y0187451D01*
X0225476Y0187451D01*
X0225476Y0199065D01*
X0227248Y0200837D01*
X0227248Y0206348D01*
X0241421Y0206348D01*
X0241421Y0200837D01*
X0243193Y0199065D01*
X0243193Y0187451D01*
X0231972Y0208711D02*
X0233154Y0209892D01*
X0230791Y0209892D01*
X0231972Y0208711D01*
X0232532Y0231128D02*
X0234040Y0232394D01*
X0232653Y0232515D01*
X0232532Y0231128D01*
X0231289Y0240878D02*
X0223697Y0249926D01*
X0217062Y0244359D01*
X0215543Y0246168D01*
X0211924Y0243131D01*
X0213443Y0241322D01*
X0217062Y0244359D01*
X0217363Y0244612D02*
X0219135Y0242500D01*
X0210087Y0234908D01*
X0208316Y0237020D01*
X0213443Y0241322D01*
X0208316Y0237020D02*
X0201982Y0231705D01*
X0209574Y0222657D01*
X0231289Y0240878D01*
X0206869Y0219297D02*
X0206869Y0207486D01*
X0200964Y0207486D01*
X0200964Y0219297D01*
X0206869Y0219297D01*
X0204476Y0209258D02*
X0204478Y0209307D01*
X0204484Y0209357D01*
X0204494Y0209405D01*
X0204507Y0209453D01*
X0204525Y0209499D01*
X0204545Y0209544D01*
X0204570Y0209587D01*
X0204598Y0209628D01*
X0204629Y0209666D01*
X0204663Y0209702D01*
X0204699Y0209735D01*
X0204738Y0209766D01*
X0204780Y0209792D01*
X0204823Y0209816D01*
X0204869Y0209836D01*
X0204915Y0209853D01*
X0204963Y0209865D01*
X0205012Y0209874D01*
X0205061Y0209879D01*
X0205110Y0209880D01*
X0205160Y0209877D01*
X0205209Y0209870D01*
X0205257Y0209859D01*
X0205304Y0209845D01*
X0205350Y0209827D01*
X0205395Y0209805D01*
X0205437Y0209779D01*
X0205477Y0209751D01*
X0205515Y0209719D01*
X0205551Y0209685D01*
X0205583Y0209647D01*
X0205613Y0209607D01*
X0205639Y0209565D01*
X0205661Y0209521D01*
X0205681Y0209476D01*
X0205696Y0209429D01*
X0205708Y0209381D01*
X0205716Y0209332D01*
X0205720Y0209283D01*
X0205720Y0209233D01*
X0205716Y0209184D01*
X0205708Y0209135D01*
X0205696Y0209087D01*
X0205681Y0209040D01*
X0205661Y0208995D01*
X0205639Y0208951D01*
X0205613Y0208909D01*
X0205583Y0208869D01*
X0205551Y0208831D01*
X0205515Y0208797D01*
X0205477Y0208765D01*
X0205437Y0208737D01*
X0205395Y0208711D01*
X0205350Y0208689D01*
X0205304Y0208671D01*
X0205257Y0208657D01*
X0205209Y0208646D01*
X0205160Y0208639D01*
X0205110Y0208636D01*
X0205061Y0208637D01*
X0205012Y0208642D01*
X0204963Y0208651D01*
X0204915Y0208663D01*
X0204869Y0208680D01*
X0204823Y0208700D01*
X0204780Y0208724D01*
X0204738Y0208750D01*
X0204699Y0208781D01*
X0204663Y0208814D01*
X0204629Y0208850D01*
X0204598Y0208888D01*
X0204570Y0208929D01*
X0204545Y0208972D01*
X0204525Y0209017D01*
X0204507Y0209063D01*
X0204494Y0209111D01*
X0204484Y0209159D01*
X0204478Y0209209D01*
X0204476Y0209258D01*
X0296300Y0215127D02*
X0296300Y0231663D01*
X0324646Y0231663D01*
X0324646Y0215127D01*
X0296300Y0215127D01*
X0299450Y0232056D02*
X0299450Y0235993D01*
X0297481Y0234025D02*
X0301418Y0234025D01*
X0359594Y0164015D02*
X0359594Y0160078D01*
X0357626Y0162047D02*
X0361563Y0162047D01*
X0385781Y0165565D02*
X0385781Y0153754D01*
X0412553Y0153754D01*
X0412553Y0165565D01*
X0385781Y0165565D01*
X0389128Y0146667D02*
X0388143Y0145683D01*
X0390112Y0145683D01*
X0389128Y0146667D01*
X0404338Y0190389D02*
X0404340Y0190451D01*
X0404346Y0190514D01*
X0404356Y0190575D01*
X0404370Y0190636D01*
X0404387Y0190696D01*
X0404408Y0190755D01*
X0404434Y0190812D01*
X0404462Y0190867D01*
X0404494Y0190921D01*
X0404530Y0190972D01*
X0404568Y0191022D01*
X0404610Y0191068D01*
X0404654Y0191112D01*
X0404702Y0191153D01*
X0404751Y0191191D01*
X0404803Y0191225D01*
X0404857Y0191256D01*
X0404913Y0191284D01*
X0404971Y0191308D01*
X0405030Y0191329D01*
X0405090Y0191345D01*
X0405151Y0191358D01*
X0405213Y0191367D01*
X0405275Y0191372D01*
X0405338Y0191373D01*
X0405400Y0191370D01*
X0405462Y0191363D01*
X0405524Y0191352D01*
X0405584Y0191337D01*
X0405644Y0191319D01*
X0405702Y0191297D01*
X0405759Y0191271D01*
X0405814Y0191241D01*
X0405867Y0191208D01*
X0405918Y0191172D01*
X0405966Y0191133D01*
X0406012Y0191090D01*
X0406055Y0191045D01*
X0406095Y0190997D01*
X0406132Y0190947D01*
X0406166Y0190894D01*
X0406197Y0190840D01*
X0406223Y0190784D01*
X0406247Y0190726D01*
X0406266Y0190666D01*
X0406282Y0190606D01*
X0406294Y0190544D01*
X0406302Y0190483D01*
X0406306Y0190420D01*
X0406306Y0190358D01*
X0406302Y0190295D01*
X0406294Y0190234D01*
X0406282Y0190172D01*
X0406266Y0190112D01*
X0406247Y0190052D01*
X0406223Y0189994D01*
X0406197Y0189938D01*
X0406166Y0189884D01*
X0406132Y0189831D01*
X0406095Y0189781D01*
X0406055Y0189733D01*
X0406012Y0189688D01*
X0405966Y0189645D01*
X0405918Y0189606D01*
X0405867Y0189570D01*
X0405814Y0189537D01*
X0405759Y0189507D01*
X0405702Y0189481D01*
X0405644Y0189459D01*
X0405584Y0189441D01*
X0405524Y0189426D01*
X0405462Y0189415D01*
X0405400Y0189408D01*
X0405338Y0189405D01*
X0405275Y0189406D01*
X0405213Y0189411D01*
X0405151Y0189420D01*
X0405090Y0189433D01*
X0405030Y0189449D01*
X0404971Y0189470D01*
X0404913Y0189494D01*
X0404857Y0189522D01*
X0404803Y0189553D01*
X0404751Y0189587D01*
X0404702Y0189625D01*
X0404654Y0189666D01*
X0404610Y0189710D01*
X0404568Y0189756D01*
X0404530Y0189806D01*
X0404494Y0189857D01*
X0404462Y0189911D01*
X0404434Y0189966D01*
X0404408Y0190023D01*
X0404387Y0190082D01*
X0404370Y0190142D01*
X0404356Y0190203D01*
X0404346Y0190264D01*
X0404340Y0190327D01*
X0404338Y0190389D01*
X0414181Y0190389D02*
X0414183Y0190451D01*
X0414189Y0190514D01*
X0414199Y0190575D01*
X0414213Y0190636D01*
X0414230Y0190696D01*
X0414251Y0190755D01*
X0414277Y0190812D01*
X0414305Y0190867D01*
X0414337Y0190921D01*
X0414373Y0190972D01*
X0414411Y0191022D01*
X0414453Y0191068D01*
X0414497Y0191112D01*
X0414545Y0191153D01*
X0414594Y0191191D01*
X0414646Y0191225D01*
X0414700Y0191256D01*
X0414756Y0191284D01*
X0414814Y0191308D01*
X0414873Y0191329D01*
X0414933Y0191345D01*
X0414994Y0191358D01*
X0415056Y0191367D01*
X0415118Y0191372D01*
X0415181Y0191373D01*
X0415243Y0191370D01*
X0415305Y0191363D01*
X0415367Y0191352D01*
X0415427Y0191337D01*
X0415487Y0191319D01*
X0415545Y0191297D01*
X0415602Y0191271D01*
X0415657Y0191241D01*
X0415710Y0191208D01*
X0415761Y0191172D01*
X0415809Y0191133D01*
X0415855Y0191090D01*
X0415898Y0191045D01*
X0415938Y0190997D01*
X0415975Y0190947D01*
X0416009Y0190894D01*
X0416040Y0190840D01*
X0416066Y0190784D01*
X0416090Y0190726D01*
X0416109Y0190666D01*
X0416125Y0190606D01*
X0416137Y0190544D01*
X0416145Y0190483D01*
X0416149Y0190420D01*
X0416149Y0190358D01*
X0416145Y0190295D01*
X0416137Y0190234D01*
X0416125Y0190172D01*
X0416109Y0190112D01*
X0416090Y0190052D01*
X0416066Y0189994D01*
X0416040Y0189938D01*
X0416009Y0189884D01*
X0415975Y0189831D01*
X0415938Y0189781D01*
X0415898Y0189733D01*
X0415855Y0189688D01*
X0415809Y0189645D01*
X0415761Y0189606D01*
X0415710Y0189570D01*
X0415657Y0189537D01*
X0415602Y0189507D01*
X0415545Y0189481D01*
X0415487Y0189459D01*
X0415427Y0189441D01*
X0415367Y0189426D01*
X0415305Y0189415D01*
X0415243Y0189408D01*
X0415181Y0189405D01*
X0415118Y0189406D01*
X0415056Y0189411D01*
X0414994Y0189420D01*
X0414933Y0189433D01*
X0414873Y0189449D01*
X0414814Y0189470D01*
X0414756Y0189494D01*
X0414700Y0189522D01*
X0414646Y0189553D01*
X0414594Y0189587D01*
X0414545Y0189625D01*
X0414497Y0189666D01*
X0414453Y0189710D01*
X0414411Y0189756D01*
X0414373Y0189806D01*
X0414337Y0189857D01*
X0414305Y0189911D01*
X0414277Y0189966D01*
X0414251Y0190023D01*
X0414230Y0190082D01*
X0414213Y0190142D01*
X0414199Y0190203D01*
X0414189Y0190264D01*
X0414183Y0190327D01*
X0414181Y0190389D01*
X0424023Y0190389D02*
X0424025Y0190451D01*
X0424031Y0190514D01*
X0424041Y0190575D01*
X0424055Y0190636D01*
X0424072Y0190696D01*
X0424093Y0190755D01*
X0424119Y0190812D01*
X0424147Y0190867D01*
X0424179Y0190921D01*
X0424215Y0190972D01*
X0424253Y0191022D01*
X0424295Y0191068D01*
X0424339Y0191112D01*
X0424387Y0191153D01*
X0424436Y0191191D01*
X0424488Y0191225D01*
X0424542Y0191256D01*
X0424598Y0191284D01*
X0424656Y0191308D01*
X0424715Y0191329D01*
X0424775Y0191345D01*
X0424836Y0191358D01*
X0424898Y0191367D01*
X0424960Y0191372D01*
X0425023Y0191373D01*
X0425085Y0191370D01*
X0425147Y0191363D01*
X0425209Y0191352D01*
X0425269Y0191337D01*
X0425329Y0191319D01*
X0425387Y0191297D01*
X0425444Y0191271D01*
X0425499Y0191241D01*
X0425552Y0191208D01*
X0425603Y0191172D01*
X0425651Y0191133D01*
X0425697Y0191090D01*
X0425740Y0191045D01*
X0425780Y0190997D01*
X0425817Y0190947D01*
X0425851Y0190894D01*
X0425882Y0190840D01*
X0425908Y0190784D01*
X0425932Y0190726D01*
X0425951Y0190666D01*
X0425967Y0190606D01*
X0425979Y0190544D01*
X0425987Y0190483D01*
X0425991Y0190420D01*
X0425991Y0190358D01*
X0425987Y0190295D01*
X0425979Y0190234D01*
X0425967Y0190172D01*
X0425951Y0190112D01*
X0425932Y0190052D01*
X0425908Y0189994D01*
X0425882Y0189938D01*
X0425851Y0189884D01*
X0425817Y0189831D01*
X0425780Y0189781D01*
X0425740Y0189733D01*
X0425697Y0189688D01*
X0425651Y0189645D01*
X0425603Y0189606D01*
X0425552Y0189570D01*
X0425499Y0189537D01*
X0425444Y0189507D01*
X0425387Y0189481D01*
X0425329Y0189459D01*
X0425269Y0189441D01*
X0425209Y0189426D01*
X0425147Y0189415D01*
X0425085Y0189408D01*
X0425023Y0189405D01*
X0424960Y0189406D01*
X0424898Y0189411D01*
X0424836Y0189420D01*
X0424775Y0189433D01*
X0424715Y0189449D01*
X0424656Y0189470D01*
X0424598Y0189494D01*
X0424542Y0189522D01*
X0424488Y0189553D01*
X0424436Y0189587D01*
X0424387Y0189625D01*
X0424339Y0189666D01*
X0424295Y0189710D01*
X0424253Y0189756D01*
X0424215Y0189806D01*
X0424179Y0189857D01*
X0424147Y0189911D01*
X0424119Y0189966D01*
X0424093Y0190023D01*
X0424072Y0190082D01*
X0424055Y0190142D01*
X0424041Y0190203D01*
X0424031Y0190264D01*
X0424025Y0190327D01*
X0424023Y0190389D01*
X0433866Y0190389D02*
X0433868Y0190451D01*
X0433874Y0190514D01*
X0433884Y0190575D01*
X0433898Y0190636D01*
X0433915Y0190696D01*
X0433936Y0190755D01*
X0433962Y0190812D01*
X0433990Y0190867D01*
X0434022Y0190921D01*
X0434058Y0190972D01*
X0434096Y0191022D01*
X0434138Y0191068D01*
X0434182Y0191112D01*
X0434230Y0191153D01*
X0434279Y0191191D01*
X0434331Y0191225D01*
X0434385Y0191256D01*
X0434441Y0191284D01*
X0434499Y0191308D01*
X0434558Y0191329D01*
X0434618Y0191345D01*
X0434679Y0191358D01*
X0434741Y0191367D01*
X0434803Y0191372D01*
X0434866Y0191373D01*
X0434928Y0191370D01*
X0434990Y0191363D01*
X0435052Y0191352D01*
X0435112Y0191337D01*
X0435172Y0191319D01*
X0435230Y0191297D01*
X0435287Y0191271D01*
X0435342Y0191241D01*
X0435395Y0191208D01*
X0435446Y0191172D01*
X0435494Y0191133D01*
X0435540Y0191090D01*
X0435583Y0191045D01*
X0435623Y0190997D01*
X0435660Y0190947D01*
X0435694Y0190894D01*
X0435725Y0190840D01*
X0435751Y0190784D01*
X0435775Y0190726D01*
X0435794Y0190666D01*
X0435810Y0190606D01*
X0435822Y0190544D01*
X0435830Y0190483D01*
X0435834Y0190420D01*
X0435834Y0190358D01*
X0435830Y0190295D01*
X0435822Y0190234D01*
X0435810Y0190172D01*
X0435794Y0190112D01*
X0435775Y0190052D01*
X0435751Y0189994D01*
X0435725Y0189938D01*
X0435694Y0189884D01*
X0435660Y0189831D01*
X0435623Y0189781D01*
X0435583Y0189733D01*
X0435540Y0189688D01*
X0435494Y0189645D01*
X0435446Y0189606D01*
X0435395Y0189570D01*
X0435342Y0189537D01*
X0435287Y0189507D01*
X0435230Y0189481D01*
X0435172Y0189459D01*
X0435112Y0189441D01*
X0435052Y0189426D01*
X0434990Y0189415D01*
X0434928Y0189408D01*
X0434866Y0189405D01*
X0434803Y0189406D01*
X0434741Y0189411D01*
X0434679Y0189420D01*
X0434618Y0189433D01*
X0434558Y0189449D01*
X0434499Y0189470D01*
X0434441Y0189494D01*
X0434385Y0189522D01*
X0434331Y0189553D01*
X0434279Y0189587D01*
X0434230Y0189625D01*
X0434182Y0189666D01*
X0434138Y0189710D01*
X0434096Y0189756D01*
X0434058Y0189806D01*
X0434022Y0189857D01*
X0433990Y0189911D01*
X0433962Y0189966D01*
X0433936Y0190023D01*
X0433915Y0190082D01*
X0433898Y0190142D01*
X0433884Y0190203D01*
X0433874Y0190264D01*
X0433868Y0190327D01*
X0433866Y0190389D01*
X0443708Y0190389D02*
X0443710Y0190451D01*
X0443716Y0190514D01*
X0443726Y0190575D01*
X0443740Y0190636D01*
X0443757Y0190696D01*
X0443778Y0190755D01*
X0443804Y0190812D01*
X0443832Y0190867D01*
X0443864Y0190921D01*
X0443900Y0190972D01*
X0443938Y0191022D01*
X0443980Y0191068D01*
X0444024Y0191112D01*
X0444072Y0191153D01*
X0444121Y0191191D01*
X0444173Y0191225D01*
X0444227Y0191256D01*
X0444283Y0191284D01*
X0444341Y0191308D01*
X0444400Y0191329D01*
X0444460Y0191345D01*
X0444521Y0191358D01*
X0444583Y0191367D01*
X0444645Y0191372D01*
X0444708Y0191373D01*
X0444770Y0191370D01*
X0444832Y0191363D01*
X0444894Y0191352D01*
X0444954Y0191337D01*
X0445014Y0191319D01*
X0445072Y0191297D01*
X0445129Y0191271D01*
X0445184Y0191241D01*
X0445237Y0191208D01*
X0445288Y0191172D01*
X0445336Y0191133D01*
X0445382Y0191090D01*
X0445425Y0191045D01*
X0445465Y0190997D01*
X0445502Y0190947D01*
X0445536Y0190894D01*
X0445567Y0190840D01*
X0445593Y0190784D01*
X0445617Y0190726D01*
X0445636Y0190666D01*
X0445652Y0190606D01*
X0445664Y0190544D01*
X0445672Y0190483D01*
X0445676Y0190420D01*
X0445676Y0190358D01*
X0445672Y0190295D01*
X0445664Y0190234D01*
X0445652Y0190172D01*
X0445636Y0190112D01*
X0445617Y0190052D01*
X0445593Y0189994D01*
X0445567Y0189938D01*
X0445536Y0189884D01*
X0445502Y0189831D01*
X0445465Y0189781D01*
X0445425Y0189733D01*
X0445382Y0189688D01*
X0445336Y0189645D01*
X0445288Y0189606D01*
X0445237Y0189570D01*
X0445184Y0189537D01*
X0445129Y0189507D01*
X0445072Y0189481D01*
X0445014Y0189459D01*
X0444954Y0189441D01*
X0444894Y0189426D01*
X0444832Y0189415D01*
X0444770Y0189408D01*
X0444708Y0189405D01*
X0444645Y0189406D01*
X0444583Y0189411D01*
X0444521Y0189420D01*
X0444460Y0189433D01*
X0444400Y0189449D01*
X0444341Y0189470D01*
X0444283Y0189494D01*
X0444227Y0189522D01*
X0444173Y0189553D01*
X0444121Y0189587D01*
X0444072Y0189625D01*
X0444024Y0189666D01*
X0443980Y0189710D01*
X0443938Y0189756D01*
X0443900Y0189806D01*
X0443864Y0189857D01*
X0443832Y0189911D01*
X0443804Y0189966D01*
X0443778Y0190023D01*
X0443757Y0190082D01*
X0443740Y0190142D01*
X0443726Y0190203D01*
X0443716Y0190264D01*
X0443710Y0190327D01*
X0443708Y0190389D01*
X0457488Y0212042D02*
X0457490Y0212104D01*
X0457496Y0212167D01*
X0457506Y0212228D01*
X0457520Y0212289D01*
X0457537Y0212349D01*
X0457558Y0212408D01*
X0457584Y0212465D01*
X0457612Y0212520D01*
X0457644Y0212574D01*
X0457680Y0212625D01*
X0457718Y0212675D01*
X0457760Y0212721D01*
X0457804Y0212765D01*
X0457852Y0212806D01*
X0457901Y0212844D01*
X0457953Y0212878D01*
X0458007Y0212909D01*
X0458063Y0212937D01*
X0458121Y0212961D01*
X0458180Y0212982D01*
X0458240Y0212998D01*
X0458301Y0213011D01*
X0458363Y0213020D01*
X0458425Y0213025D01*
X0458488Y0213026D01*
X0458550Y0213023D01*
X0458612Y0213016D01*
X0458674Y0213005D01*
X0458734Y0212990D01*
X0458794Y0212972D01*
X0458852Y0212950D01*
X0458909Y0212924D01*
X0458964Y0212894D01*
X0459017Y0212861D01*
X0459068Y0212825D01*
X0459116Y0212786D01*
X0459162Y0212743D01*
X0459205Y0212698D01*
X0459245Y0212650D01*
X0459282Y0212600D01*
X0459316Y0212547D01*
X0459347Y0212493D01*
X0459373Y0212437D01*
X0459397Y0212379D01*
X0459416Y0212319D01*
X0459432Y0212259D01*
X0459444Y0212197D01*
X0459452Y0212136D01*
X0459456Y0212073D01*
X0459456Y0212011D01*
X0459452Y0211948D01*
X0459444Y0211887D01*
X0459432Y0211825D01*
X0459416Y0211765D01*
X0459397Y0211705D01*
X0459373Y0211647D01*
X0459347Y0211591D01*
X0459316Y0211537D01*
X0459282Y0211484D01*
X0459245Y0211434D01*
X0459205Y0211386D01*
X0459162Y0211341D01*
X0459116Y0211298D01*
X0459068Y0211259D01*
X0459017Y0211223D01*
X0458964Y0211190D01*
X0458909Y0211160D01*
X0458852Y0211134D01*
X0458794Y0211112D01*
X0458734Y0211094D01*
X0458674Y0211079D01*
X0458612Y0211068D01*
X0458550Y0211061D01*
X0458488Y0211058D01*
X0458425Y0211059D01*
X0458363Y0211064D01*
X0458301Y0211073D01*
X0458240Y0211086D01*
X0458180Y0211102D01*
X0458121Y0211123D01*
X0458063Y0211147D01*
X0458007Y0211175D01*
X0457953Y0211206D01*
X0457901Y0211240D01*
X0457852Y0211278D01*
X0457804Y0211319D01*
X0457760Y0211363D01*
X0457718Y0211409D01*
X0457680Y0211459D01*
X0457644Y0211510D01*
X0457612Y0211564D01*
X0457584Y0211619D01*
X0457558Y0211676D01*
X0457537Y0211735D01*
X0457520Y0211795D01*
X0457506Y0211856D01*
X0457496Y0211917D01*
X0457490Y0211980D01*
X0457488Y0212042D01*
X0457488Y0221885D02*
X0457490Y0221947D01*
X0457496Y0222010D01*
X0457506Y0222071D01*
X0457520Y0222132D01*
X0457537Y0222192D01*
X0457558Y0222251D01*
X0457584Y0222308D01*
X0457612Y0222363D01*
X0457644Y0222417D01*
X0457680Y0222468D01*
X0457718Y0222518D01*
X0457760Y0222564D01*
X0457804Y0222608D01*
X0457852Y0222649D01*
X0457901Y0222687D01*
X0457953Y0222721D01*
X0458007Y0222752D01*
X0458063Y0222780D01*
X0458121Y0222804D01*
X0458180Y0222825D01*
X0458240Y0222841D01*
X0458301Y0222854D01*
X0458363Y0222863D01*
X0458425Y0222868D01*
X0458488Y0222869D01*
X0458550Y0222866D01*
X0458612Y0222859D01*
X0458674Y0222848D01*
X0458734Y0222833D01*
X0458794Y0222815D01*
X0458852Y0222793D01*
X0458909Y0222767D01*
X0458964Y0222737D01*
X0459017Y0222704D01*
X0459068Y0222668D01*
X0459116Y0222629D01*
X0459162Y0222586D01*
X0459205Y0222541D01*
X0459245Y0222493D01*
X0459282Y0222443D01*
X0459316Y0222390D01*
X0459347Y0222336D01*
X0459373Y0222280D01*
X0459397Y0222222D01*
X0459416Y0222162D01*
X0459432Y0222102D01*
X0459444Y0222040D01*
X0459452Y0221979D01*
X0459456Y0221916D01*
X0459456Y0221854D01*
X0459452Y0221791D01*
X0459444Y0221730D01*
X0459432Y0221668D01*
X0459416Y0221608D01*
X0459397Y0221548D01*
X0459373Y0221490D01*
X0459347Y0221434D01*
X0459316Y0221380D01*
X0459282Y0221327D01*
X0459245Y0221277D01*
X0459205Y0221229D01*
X0459162Y0221184D01*
X0459116Y0221141D01*
X0459068Y0221102D01*
X0459017Y0221066D01*
X0458964Y0221033D01*
X0458909Y0221003D01*
X0458852Y0220977D01*
X0458794Y0220955D01*
X0458734Y0220937D01*
X0458674Y0220922D01*
X0458612Y0220911D01*
X0458550Y0220904D01*
X0458488Y0220901D01*
X0458425Y0220902D01*
X0458363Y0220907D01*
X0458301Y0220916D01*
X0458240Y0220929D01*
X0458180Y0220945D01*
X0458121Y0220966D01*
X0458063Y0220990D01*
X0458007Y0221018D01*
X0457953Y0221049D01*
X0457901Y0221083D01*
X0457852Y0221121D01*
X0457804Y0221162D01*
X0457760Y0221206D01*
X0457718Y0221252D01*
X0457680Y0221302D01*
X0457644Y0221353D01*
X0457612Y0221407D01*
X0457584Y0221462D01*
X0457558Y0221519D01*
X0457537Y0221578D01*
X0457520Y0221638D01*
X0457506Y0221699D01*
X0457496Y0221760D01*
X0457490Y0221823D01*
X0457488Y0221885D01*
X0457488Y0231727D02*
X0457490Y0231789D01*
X0457496Y0231852D01*
X0457506Y0231913D01*
X0457520Y0231974D01*
X0457537Y0232034D01*
X0457558Y0232093D01*
X0457584Y0232150D01*
X0457612Y0232205D01*
X0457644Y0232259D01*
X0457680Y0232310D01*
X0457718Y0232360D01*
X0457760Y0232406D01*
X0457804Y0232450D01*
X0457852Y0232491D01*
X0457901Y0232529D01*
X0457953Y0232563D01*
X0458007Y0232594D01*
X0458063Y0232622D01*
X0458121Y0232646D01*
X0458180Y0232667D01*
X0458240Y0232683D01*
X0458301Y0232696D01*
X0458363Y0232705D01*
X0458425Y0232710D01*
X0458488Y0232711D01*
X0458550Y0232708D01*
X0458612Y0232701D01*
X0458674Y0232690D01*
X0458734Y0232675D01*
X0458794Y0232657D01*
X0458852Y0232635D01*
X0458909Y0232609D01*
X0458964Y0232579D01*
X0459017Y0232546D01*
X0459068Y0232510D01*
X0459116Y0232471D01*
X0459162Y0232428D01*
X0459205Y0232383D01*
X0459245Y0232335D01*
X0459282Y0232285D01*
X0459316Y0232232D01*
X0459347Y0232178D01*
X0459373Y0232122D01*
X0459397Y0232064D01*
X0459416Y0232004D01*
X0459432Y0231944D01*
X0459444Y0231882D01*
X0459452Y0231821D01*
X0459456Y0231758D01*
X0459456Y0231696D01*
X0459452Y0231633D01*
X0459444Y0231572D01*
X0459432Y0231510D01*
X0459416Y0231450D01*
X0459397Y0231390D01*
X0459373Y0231332D01*
X0459347Y0231276D01*
X0459316Y0231222D01*
X0459282Y0231169D01*
X0459245Y0231119D01*
X0459205Y0231071D01*
X0459162Y0231026D01*
X0459116Y0230983D01*
X0459068Y0230944D01*
X0459017Y0230908D01*
X0458964Y0230875D01*
X0458909Y0230845D01*
X0458852Y0230819D01*
X0458794Y0230797D01*
X0458734Y0230779D01*
X0458674Y0230764D01*
X0458612Y0230753D01*
X0458550Y0230746D01*
X0458488Y0230743D01*
X0458425Y0230744D01*
X0458363Y0230749D01*
X0458301Y0230758D01*
X0458240Y0230771D01*
X0458180Y0230787D01*
X0458121Y0230808D01*
X0458063Y0230832D01*
X0458007Y0230860D01*
X0457953Y0230891D01*
X0457901Y0230925D01*
X0457852Y0230963D01*
X0457804Y0231004D01*
X0457760Y0231048D01*
X0457718Y0231094D01*
X0457680Y0231144D01*
X0457644Y0231195D01*
X0457612Y0231249D01*
X0457584Y0231304D01*
X0457558Y0231361D01*
X0457537Y0231420D01*
X0457520Y0231480D01*
X0457506Y0231541D01*
X0457496Y0231602D01*
X0457490Y0231665D01*
X0457488Y0231727D01*
X0462628Y0232432D02*
X0471536Y0241340D01*
X0478218Y0234659D01*
X0469309Y0225750D01*
X0462628Y0232432D01*
X0457488Y0241570D02*
X0457490Y0241632D01*
X0457496Y0241695D01*
X0457506Y0241756D01*
X0457520Y0241817D01*
X0457537Y0241877D01*
X0457558Y0241936D01*
X0457584Y0241993D01*
X0457612Y0242048D01*
X0457644Y0242102D01*
X0457680Y0242153D01*
X0457718Y0242203D01*
X0457760Y0242249D01*
X0457804Y0242293D01*
X0457852Y0242334D01*
X0457901Y0242372D01*
X0457953Y0242406D01*
X0458007Y0242437D01*
X0458063Y0242465D01*
X0458121Y0242489D01*
X0458180Y0242510D01*
X0458240Y0242526D01*
X0458301Y0242539D01*
X0458363Y0242548D01*
X0458425Y0242553D01*
X0458488Y0242554D01*
X0458550Y0242551D01*
X0458612Y0242544D01*
X0458674Y0242533D01*
X0458734Y0242518D01*
X0458794Y0242500D01*
X0458852Y0242478D01*
X0458909Y0242452D01*
X0458964Y0242422D01*
X0459017Y0242389D01*
X0459068Y0242353D01*
X0459116Y0242314D01*
X0459162Y0242271D01*
X0459205Y0242226D01*
X0459245Y0242178D01*
X0459282Y0242128D01*
X0459316Y0242075D01*
X0459347Y0242021D01*
X0459373Y0241965D01*
X0459397Y0241907D01*
X0459416Y0241847D01*
X0459432Y0241787D01*
X0459444Y0241725D01*
X0459452Y0241664D01*
X0459456Y0241601D01*
X0459456Y0241539D01*
X0459452Y0241476D01*
X0459444Y0241415D01*
X0459432Y0241353D01*
X0459416Y0241293D01*
X0459397Y0241233D01*
X0459373Y0241175D01*
X0459347Y0241119D01*
X0459316Y0241065D01*
X0459282Y0241012D01*
X0459245Y0240962D01*
X0459205Y0240914D01*
X0459162Y0240869D01*
X0459116Y0240826D01*
X0459068Y0240787D01*
X0459017Y0240751D01*
X0458964Y0240718D01*
X0458909Y0240688D01*
X0458852Y0240662D01*
X0458794Y0240640D01*
X0458734Y0240622D01*
X0458674Y0240607D01*
X0458612Y0240596D01*
X0458550Y0240589D01*
X0458488Y0240586D01*
X0458425Y0240587D01*
X0458363Y0240592D01*
X0458301Y0240601D01*
X0458240Y0240614D01*
X0458180Y0240630D01*
X0458121Y0240651D01*
X0458063Y0240675D01*
X0458007Y0240703D01*
X0457953Y0240734D01*
X0457901Y0240768D01*
X0457852Y0240806D01*
X0457804Y0240847D01*
X0457760Y0240891D01*
X0457718Y0240937D01*
X0457680Y0240987D01*
X0457644Y0241038D01*
X0457612Y0241092D01*
X0457584Y0241147D01*
X0457558Y0241204D01*
X0457537Y0241263D01*
X0457520Y0241323D01*
X0457506Y0241384D01*
X0457496Y0241445D01*
X0457490Y0241508D01*
X0457488Y0241570D01*
X0457488Y0251412D02*
X0457490Y0251474D01*
X0457496Y0251537D01*
X0457506Y0251598D01*
X0457520Y0251659D01*
X0457537Y0251719D01*
X0457558Y0251778D01*
X0457584Y0251835D01*
X0457612Y0251890D01*
X0457644Y0251944D01*
X0457680Y0251995D01*
X0457718Y0252045D01*
X0457760Y0252091D01*
X0457804Y0252135D01*
X0457852Y0252176D01*
X0457901Y0252214D01*
X0457953Y0252248D01*
X0458007Y0252279D01*
X0458063Y0252307D01*
X0458121Y0252331D01*
X0458180Y0252352D01*
X0458240Y0252368D01*
X0458301Y0252381D01*
X0458363Y0252390D01*
X0458425Y0252395D01*
X0458488Y0252396D01*
X0458550Y0252393D01*
X0458612Y0252386D01*
X0458674Y0252375D01*
X0458734Y0252360D01*
X0458794Y0252342D01*
X0458852Y0252320D01*
X0458909Y0252294D01*
X0458964Y0252264D01*
X0459017Y0252231D01*
X0459068Y0252195D01*
X0459116Y0252156D01*
X0459162Y0252113D01*
X0459205Y0252068D01*
X0459245Y0252020D01*
X0459282Y0251970D01*
X0459316Y0251917D01*
X0459347Y0251863D01*
X0459373Y0251807D01*
X0459397Y0251749D01*
X0459416Y0251689D01*
X0459432Y0251629D01*
X0459444Y0251567D01*
X0459452Y0251506D01*
X0459456Y0251443D01*
X0459456Y0251381D01*
X0459452Y0251318D01*
X0459444Y0251257D01*
X0459432Y0251195D01*
X0459416Y0251135D01*
X0459397Y0251075D01*
X0459373Y0251017D01*
X0459347Y0250961D01*
X0459316Y0250907D01*
X0459282Y0250854D01*
X0459245Y0250804D01*
X0459205Y0250756D01*
X0459162Y0250711D01*
X0459116Y0250668D01*
X0459068Y0250629D01*
X0459017Y0250593D01*
X0458964Y0250560D01*
X0458909Y0250530D01*
X0458852Y0250504D01*
X0458794Y0250482D01*
X0458734Y0250464D01*
X0458674Y0250449D01*
X0458612Y0250438D01*
X0458550Y0250431D01*
X0458488Y0250428D01*
X0458425Y0250429D01*
X0458363Y0250434D01*
X0458301Y0250443D01*
X0458240Y0250456D01*
X0458180Y0250472D01*
X0458121Y0250493D01*
X0458063Y0250517D01*
X0458007Y0250545D01*
X0457953Y0250576D01*
X0457901Y0250610D01*
X0457852Y0250648D01*
X0457804Y0250689D01*
X0457760Y0250733D01*
X0457718Y0250779D01*
X0457680Y0250829D01*
X0457644Y0250880D01*
X0457612Y0250934D01*
X0457584Y0250989D01*
X0457558Y0251046D01*
X0457537Y0251105D01*
X0457520Y0251165D01*
X0457506Y0251226D01*
X0457496Y0251287D01*
X0457490Y0251350D01*
X0457488Y0251412D01*
X0435834Y0265192D02*
X0435836Y0265254D01*
X0435842Y0265317D01*
X0435852Y0265378D01*
X0435866Y0265439D01*
X0435883Y0265499D01*
X0435904Y0265558D01*
X0435930Y0265615D01*
X0435958Y0265670D01*
X0435990Y0265724D01*
X0436026Y0265775D01*
X0436064Y0265825D01*
X0436106Y0265871D01*
X0436150Y0265915D01*
X0436198Y0265956D01*
X0436247Y0265994D01*
X0436299Y0266028D01*
X0436353Y0266059D01*
X0436409Y0266087D01*
X0436467Y0266111D01*
X0436526Y0266132D01*
X0436586Y0266148D01*
X0436647Y0266161D01*
X0436709Y0266170D01*
X0436771Y0266175D01*
X0436834Y0266176D01*
X0436896Y0266173D01*
X0436958Y0266166D01*
X0437020Y0266155D01*
X0437080Y0266140D01*
X0437140Y0266122D01*
X0437198Y0266100D01*
X0437255Y0266074D01*
X0437310Y0266044D01*
X0437363Y0266011D01*
X0437414Y0265975D01*
X0437462Y0265936D01*
X0437508Y0265893D01*
X0437551Y0265848D01*
X0437591Y0265800D01*
X0437628Y0265750D01*
X0437662Y0265697D01*
X0437693Y0265643D01*
X0437719Y0265587D01*
X0437743Y0265529D01*
X0437762Y0265469D01*
X0437778Y0265409D01*
X0437790Y0265347D01*
X0437798Y0265286D01*
X0437802Y0265223D01*
X0437802Y0265161D01*
X0437798Y0265098D01*
X0437790Y0265037D01*
X0437778Y0264975D01*
X0437762Y0264915D01*
X0437743Y0264855D01*
X0437719Y0264797D01*
X0437693Y0264741D01*
X0437662Y0264687D01*
X0437628Y0264634D01*
X0437591Y0264584D01*
X0437551Y0264536D01*
X0437508Y0264491D01*
X0437462Y0264448D01*
X0437414Y0264409D01*
X0437363Y0264373D01*
X0437310Y0264340D01*
X0437255Y0264310D01*
X0437198Y0264284D01*
X0437140Y0264262D01*
X0437080Y0264244D01*
X0437020Y0264229D01*
X0436958Y0264218D01*
X0436896Y0264211D01*
X0436834Y0264208D01*
X0436771Y0264209D01*
X0436709Y0264214D01*
X0436647Y0264223D01*
X0436586Y0264236D01*
X0436526Y0264252D01*
X0436467Y0264273D01*
X0436409Y0264297D01*
X0436353Y0264325D01*
X0436299Y0264356D01*
X0436247Y0264390D01*
X0436198Y0264428D01*
X0436150Y0264469D01*
X0436106Y0264513D01*
X0436064Y0264559D01*
X0436026Y0264609D01*
X0435990Y0264660D01*
X0435958Y0264714D01*
X0435930Y0264769D01*
X0435904Y0264826D01*
X0435883Y0264885D01*
X0435866Y0264945D01*
X0435852Y0265006D01*
X0435842Y0265067D01*
X0435836Y0265130D01*
X0435834Y0265192D01*
X0428043Y0264604D02*
X0427922Y0265990D01*
X0426536Y0265869D01*
X0428043Y0264604D01*
X0425992Y0265192D02*
X0425994Y0265254D01*
X0426000Y0265317D01*
X0426010Y0265378D01*
X0426024Y0265439D01*
X0426041Y0265499D01*
X0426062Y0265558D01*
X0426088Y0265615D01*
X0426116Y0265670D01*
X0426148Y0265724D01*
X0426184Y0265775D01*
X0426222Y0265825D01*
X0426264Y0265871D01*
X0426308Y0265915D01*
X0426356Y0265956D01*
X0426405Y0265994D01*
X0426457Y0266028D01*
X0426511Y0266059D01*
X0426567Y0266087D01*
X0426625Y0266111D01*
X0426684Y0266132D01*
X0426744Y0266148D01*
X0426805Y0266161D01*
X0426867Y0266170D01*
X0426929Y0266175D01*
X0426992Y0266176D01*
X0427054Y0266173D01*
X0427116Y0266166D01*
X0427178Y0266155D01*
X0427238Y0266140D01*
X0427298Y0266122D01*
X0427356Y0266100D01*
X0427413Y0266074D01*
X0427468Y0266044D01*
X0427521Y0266011D01*
X0427572Y0265975D01*
X0427620Y0265936D01*
X0427666Y0265893D01*
X0427709Y0265848D01*
X0427749Y0265800D01*
X0427786Y0265750D01*
X0427820Y0265697D01*
X0427851Y0265643D01*
X0427877Y0265587D01*
X0427901Y0265529D01*
X0427920Y0265469D01*
X0427936Y0265409D01*
X0427948Y0265347D01*
X0427956Y0265286D01*
X0427960Y0265223D01*
X0427960Y0265161D01*
X0427956Y0265098D01*
X0427948Y0265037D01*
X0427936Y0264975D01*
X0427920Y0264915D01*
X0427901Y0264855D01*
X0427877Y0264797D01*
X0427851Y0264741D01*
X0427820Y0264687D01*
X0427786Y0264634D01*
X0427749Y0264584D01*
X0427709Y0264536D01*
X0427666Y0264491D01*
X0427620Y0264448D01*
X0427572Y0264409D01*
X0427521Y0264373D01*
X0427468Y0264340D01*
X0427413Y0264310D01*
X0427356Y0264284D01*
X0427298Y0264262D01*
X0427238Y0264244D01*
X0427178Y0264229D01*
X0427116Y0264218D01*
X0427054Y0264211D01*
X0426992Y0264208D01*
X0426929Y0264209D01*
X0426867Y0264214D01*
X0426805Y0264223D01*
X0426744Y0264236D01*
X0426684Y0264252D01*
X0426625Y0264273D01*
X0426567Y0264297D01*
X0426511Y0264325D01*
X0426457Y0264356D01*
X0426405Y0264390D01*
X0426356Y0264428D01*
X0426308Y0264469D01*
X0426264Y0264513D01*
X0426222Y0264559D01*
X0426184Y0264609D01*
X0426148Y0264660D01*
X0426116Y0264714D01*
X0426088Y0264769D01*
X0426062Y0264826D01*
X0426041Y0264885D01*
X0426024Y0264945D01*
X0426010Y0265006D01*
X0426000Y0265067D01*
X0425994Y0265130D01*
X0425992Y0265192D01*
X0388233Y0326998D02*
X0375177Y0318192D01*
X0364169Y0334511D01*
X0380489Y0345519D01*
X0389295Y0332463D01*
X0388233Y0326998D01*
X0324259Y0323133D02*
X0318354Y0323133D01*
X0318354Y0334944D01*
X0324259Y0334944D01*
X0324259Y0323133D01*
X0319503Y0333173D02*
X0319505Y0333222D01*
X0319511Y0333272D01*
X0319521Y0333320D01*
X0319534Y0333368D01*
X0319552Y0333414D01*
X0319572Y0333459D01*
X0319597Y0333502D01*
X0319625Y0333543D01*
X0319656Y0333581D01*
X0319690Y0333617D01*
X0319726Y0333650D01*
X0319765Y0333681D01*
X0319807Y0333707D01*
X0319850Y0333731D01*
X0319896Y0333751D01*
X0319942Y0333768D01*
X0319990Y0333780D01*
X0320039Y0333789D01*
X0320088Y0333794D01*
X0320137Y0333795D01*
X0320187Y0333792D01*
X0320236Y0333785D01*
X0320284Y0333774D01*
X0320331Y0333760D01*
X0320377Y0333742D01*
X0320422Y0333720D01*
X0320464Y0333694D01*
X0320504Y0333666D01*
X0320542Y0333634D01*
X0320578Y0333600D01*
X0320610Y0333562D01*
X0320640Y0333522D01*
X0320666Y0333480D01*
X0320688Y0333436D01*
X0320708Y0333391D01*
X0320723Y0333344D01*
X0320735Y0333296D01*
X0320743Y0333247D01*
X0320747Y0333198D01*
X0320747Y0333148D01*
X0320743Y0333099D01*
X0320735Y0333050D01*
X0320723Y0333002D01*
X0320708Y0332955D01*
X0320688Y0332910D01*
X0320666Y0332866D01*
X0320640Y0332824D01*
X0320610Y0332784D01*
X0320578Y0332746D01*
X0320542Y0332712D01*
X0320504Y0332680D01*
X0320464Y0332652D01*
X0320422Y0332626D01*
X0320377Y0332604D01*
X0320331Y0332586D01*
X0320284Y0332572D01*
X0320236Y0332561D01*
X0320187Y0332554D01*
X0320137Y0332551D01*
X0320088Y0332552D01*
X0320039Y0332557D01*
X0319990Y0332566D01*
X0319942Y0332578D01*
X0319896Y0332595D01*
X0319850Y0332615D01*
X0319807Y0332639D01*
X0319765Y0332665D01*
X0319726Y0332696D01*
X0319690Y0332729D01*
X0319656Y0332765D01*
X0319625Y0332803D01*
X0319597Y0332844D01*
X0319572Y0332887D01*
X0319552Y0332932D01*
X0319534Y0332978D01*
X0319521Y0333026D01*
X0319511Y0333074D01*
X0319505Y0333124D01*
X0319503Y0333173D01*
X0488841Y0223379D02*
X0488841Y0211568D01*
X0494746Y0211568D01*
X0494746Y0223379D01*
X0488841Y0223379D01*
X0489991Y0221607D02*
X0489993Y0221656D01*
X0489999Y0221706D01*
X0490009Y0221754D01*
X0490022Y0221802D01*
X0490040Y0221848D01*
X0490060Y0221893D01*
X0490085Y0221936D01*
X0490113Y0221977D01*
X0490144Y0222015D01*
X0490178Y0222051D01*
X0490214Y0222084D01*
X0490253Y0222115D01*
X0490295Y0222141D01*
X0490338Y0222165D01*
X0490384Y0222185D01*
X0490430Y0222202D01*
X0490478Y0222214D01*
X0490527Y0222223D01*
X0490576Y0222228D01*
X0490625Y0222229D01*
X0490675Y0222226D01*
X0490724Y0222219D01*
X0490772Y0222208D01*
X0490819Y0222194D01*
X0490865Y0222176D01*
X0490910Y0222154D01*
X0490952Y0222128D01*
X0490992Y0222100D01*
X0491030Y0222068D01*
X0491066Y0222034D01*
X0491098Y0221996D01*
X0491128Y0221956D01*
X0491154Y0221914D01*
X0491176Y0221870D01*
X0491196Y0221825D01*
X0491211Y0221778D01*
X0491223Y0221730D01*
X0491231Y0221681D01*
X0491235Y0221632D01*
X0491235Y0221582D01*
X0491231Y0221533D01*
X0491223Y0221484D01*
X0491211Y0221436D01*
X0491196Y0221389D01*
X0491176Y0221344D01*
X0491154Y0221300D01*
X0491128Y0221258D01*
X0491098Y0221218D01*
X0491066Y0221180D01*
X0491030Y0221146D01*
X0490992Y0221114D01*
X0490952Y0221086D01*
X0490910Y0221060D01*
X0490865Y0221038D01*
X0490819Y0221020D01*
X0490772Y0221006D01*
X0490724Y0220995D01*
X0490675Y0220988D01*
X0490625Y0220985D01*
X0490576Y0220986D01*
X0490527Y0220991D01*
X0490478Y0221000D01*
X0490430Y0221012D01*
X0490384Y0221029D01*
X0490338Y0221049D01*
X0490295Y0221073D01*
X0490253Y0221099D01*
X0490214Y0221130D01*
X0490178Y0221163D01*
X0490144Y0221199D01*
X0490113Y0221237D01*
X0490085Y0221278D01*
X0490060Y0221321D01*
X0490040Y0221366D01*
X0490022Y0221412D01*
X0490009Y0221460D01*
X0489999Y0221508D01*
X0489993Y0221558D01*
X0489991Y0221607D01*
D116*
X0448413Y0197948D02*
X0448415Y0198047D01*
X0448421Y0198147D01*
X0448431Y0198246D01*
X0448445Y0198344D01*
X0448462Y0198442D01*
X0448484Y0198539D01*
X0448509Y0198635D01*
X0448538Y0198730D01*
X0448571Y0198824D01*
X0448608Y0198916D01*
X0448648Y0199007D01*
X0448692Y0199096D01*
X0448740Y0199184D01*
X0448791Y0199269D01*
X0448845Y0199352D01*
X0448902Y0199434D01*
X0448963Y0199512D01*
X0449027Y0199589D01*
X0449093Y0199662D01*
X0449163Y0199733D01*
X0449235Y0199801D01*
X0449310Y0199867D01*
X0449388Y0199929D01*
X0449468Y0199988D01*
X0449550Y0200044D01*
X0449634Y0200096D01*
X0449721Y0200145D01*
X0449809Y0200191D01*
X0449899Y0200233D01*
X0449991Y0200272D01*
X0450084Y0200307D01*
X0450178Y0200338D01*
X0450274Y0200365D01*
X0450371Y0200388D01*
X0450468Y0200408D01*
X0450566Y0200424D01*
X0450665Y0200436D01*
X0450764Y0200444D01*
X0450863Y0200448D01*
X0450963Y0200448D01*
X0451062Y0200444D01*
X0451161Y0200436D01*
X0451260Y0200424D01*
X0451358Y0200408D01*
X0451455Y0200388D01*
X0451552Y0200365D01*
X0451648Y0200338D01*
X0451742Y0200307D01*
X0451835Y0200272D01*
X0451927Y0200233D01*
X0452017Y0200191D01*
X0452105Y0200145D01*
X0452192Y0200096D01*
X0452276Y0200044D01*
X0452358Y0199988D01*
X0452438Y0199929D01*
X0452516Y0199867D01*
X0452591Y0199801D01*
X0452663Y0199733D01*
X0452733Y0199662D01*
X0452799Y0199589D01*
X0452863Y0199512D01*
X0452924Y0199434D01*
X0452981Y0199352D01*
X0453035Y0199269D01*
X0453086Y0199184D01*
X0453134Y0199096D01*
X0453178Y0199007D01*
X0453218Y0198916D01*
X0453255Y0198824D01*
X0453288Y0198730D01*
X0453317Y0198635D01*
X0453342Y0198539D01*
X0453364Y0198442D01*
X0453381Y0198344D01*
X0453395Y0198246D01*
X0453405Y0198147D01*
X0453411Y0198047D01*
X0453413Y0197948D01*
X0453411Y0197849D01*
X0453405Y0197749D01*
X0453395Y0197650D01*
X0453381Y0197552D01*
X0453364Y0197454D01*
X0453342Y0197357D01*
X0453317Y0197261D01*
X0453288Y0197166D01*
X0453255Y0197072D01*
X0453218Y0196980D01*
X0453178Y0196889D01*
X0453134Y0196800D01*
X0453086Y0196712D01*
X0453035Y0196627D01*
X0452981Y0196544D01*
X0452924Y0196462D01*
X0452863Y0196384D01*
X0452799Y0196307D01*
X0452733Y0196234D01*
X0452663Y0196163D01*
X0452591Y0196095D01*
X0452516Y0196029D01*
X0452438Y0195967D01*
X0452358Y0195908D01*
X0452276Y0195852D01*
X0452192Y0195800D01*
X0452105Y0195751D01*
X0452017Y0195705D01*
X0451927Y0195663D01*
X0451835Y0195624D01*
X0451742Y0195589D01*
X0451648Y0195558D01*
X0451552Y0195531D01*
X0451455Y0195508D01*
X0451358Y0195488D01*
X0451260Y0195472D01*
X0451161Y0195460D01*
X0451062Y0195452D01*
X0450963Y0195448D01*
X0450863Y0195448D01*
X0450764Y0195452D01*
X0450665Y0195460D01*
X0450566Y0195472D01*
X0450468Y0195488D01*
X0450371Y0195508D01*
X0450274Y0195531D01*
X0450178Y0195558D01*
X0450084Y0195589D01*
X0449991Y0195624D01*
X0449899Y0195663D01*
X0449809Y0195705D01*
X0449721Y0195751D01*
X0449634Y0195800D01*
X0449550Y0195852D01*
X0449468Y0195908D01*
X0449388Y0195967D01*
X0449310Y0196029D01*
X0449235Y0196095D01*
X0449163Y0196163D01*
X0449093Y0196234D01*
X0449027Y0196307D01*
X0448963Y0196384D01*
X0448902Y0196462D01*
X0448845Y0196544D01*
X0448791Y0196627D01*
X0448740Y0196712D01*
X0448692Y0196800D01*
X0448648Y0196889D01*
X0448608Y0196980D01*
X0448571Y0197072D01*
X0448538Y0197166D01*
X0448509Y0197261D01*
X0448484Y0197357D01*
X0448462Y0197454D01*
X0448445Y0197552D01*
X0448431Y0197650D01*
X0448421Y0197749D01*
X0448415Y0197849D01*
X0448413Y0197948D01*
X0440539Y0205822D02*
X0440541Y0205921D01*
X0440547Y0206021D01*
X0440557Y0206120D01*
X0440571Y0206218D01*
X0440588Y0206316D01*
X0440610Y0206413D01*
X0440635Y0206509D01*
X0440664Y0206604D01*
X0440697Y0206698D01*
X0440734Y0206790D01*
X0440774Y0206881D01*
X0440818Y0206970D01*
X0440866Y0207058D01*
X0440917Y0207143D01*
X0440971Y0207226D01*
X0441028Y0207308D01*
X0441089Y0207386D01*
X0441153Y0207463D01*
X0441219Y0207536D01*
X0441289Y0207607D01*
X0441361Y0207675D01*
X0441436Y0207741D01*
X0441514Y0207803D01*
X0441594Y0207862D01*
X0441676Y0207918D01*
X0441760Y0207970D01*
X0441847Y0208019D01*
X0441935Y0208065D01*
X0442025Y0208107D01*
X0442117Y0208146D01*
X0442210Y0208181D01*
X0442304Y0208212D01*
X0442400Y0208239D01*
X0442497Y0208262D01*
X0442594Y0208282D01*
X0442692Y0208298D01*
X0442791Y0208310D01*
X0442890Y0208318D01*
X0442989Y0208322D01*
X0443089Y0208322D01*
X0443188Y0208318D01*
X0443287Y0208310D01*
X0443386Y0208298D01*
X0443484Y0208282D01*
X0443581Y0208262D01*
X0443678Y0208239D01*
X0443774Y0208212D01*
X0443868Y0208181D01*
X0443961Y0208146D01*
X0444053Y0208107D01*
X0444143Y0208065D01*
X0444231Y0208019D01*
X0444318Y0207970D01*
X0444402Y0207918D01*
X0444484Y0207862D01*
X0444564Y0207803D01*
X0444642Y0207741D01*
X0444717Y0207675D01*
X0444789Y0207607D01*
X0444859Y0207536D01*
X0444925Y0207463D01*
X0444989Y0207386D01*
X0445050Y0207308D01*
X0445107Y0207226D01*
X0445161Y0207143D01*
X0445212Y0207058D01*
X0445260Y0206970D01*
X0445304Y0206881D01*
X0445344Y0206790D01*
X0445381Y0206698D01*
X0445414Y0206604D01*
X0445443Y0206509D01*
X0445468Y0206413D01*
X0445490Y0206316D01*
X0445507Y0206218D01*
X0445521Y0206120D01*
X0445531Y0206021D01*
X0445537Y0205921D01*
X0445539Y0205822D01*
X0445537Y0205723D01*
X0445531Y0205623D01*
X0445521Y0205524D01*
X0445507Y0205426D01*
X0445490Y0205328D01*
X0445468Y0205231D01*
X0445443Y0205135D01*
X0445414Y0205040D01*
X0445381Y0204946D01*
X0445344Y0204854D01*
X0445304Y0204763D01*
X0445260Y0204674D01*
X0445212Y0204586D01*
X0445161Y0204501D01*
X0445107Y0204418D01*
X0445050Y0204336D01*
X0444989Y0204258D01*
X0444925Y0204181D01*
X0444859Y0204108D01*
X0444789Y0204037D01*
X0444717Y0203969D01*
X0444642Y0203903D01*
X0444564Y0203841D01*
X0444484Y0203782D01*
X0444402Y0203726D01*
X0444318Y0203674D01*
X0444231Y0203625D01*
X0444143Y0203579D01*
X0444053Y0203537D01*
X0443961Y0203498D01*
X0443868Y0203463D01*
X0443774Y0203432D01*
X0443678Y0203405D01*
X0443581Y0203382D01*
X0443484Y0203362D01*
X0443386Y0203346D01*
X0443287Y0203334D01*
X0443188Y0203326D01*
X0443089Y0203322D01*
X0442989Y0203322D01*
X0442890Y0203326D01*
X0442791Y0203334D01*
X0442692Y0203346D01*
X0442594Y0203362D01*
X0442497Y0203382D01*
X0442400Y0203405D01*
X0442304Y0203432D01*
X0442210Y0203463D01*
X0442117Y0203498D01*
X0442025Y0203537D01*
X0441935Y0203579D01*
X0441847Y0203625D01*
X0441760Y0203674D01*
X0441676Y0203726D01*
X0441594Y0203782D01*
X0441514Y0203841D01*
X0441436Y0203903D01*
X0441361Y0203969D01*
X0441289Y0204037D01*
X0441219Y0204108D01*
X0441153Y0204181D01*
X0441089Y0204258D01*
X0441028Y0204336D01*
X0440971Y0204418D01*
X0440917Y0204501D01*
X0440866Y0204586D01*
X0440818Y0204674D01*
X0440774Y0204763D01*
X0440734Y0204854D01*
X0440697Y0204946D01*
X0440664Y0205040D01*
X0440635Y0205135D01*
X0440610Y0205231D01*
X0440588Y0205328D01*
X0440571Y0205426D01*
X0440557Y0205524D01*
X0440547Y0205623D01*
X0440541Y0205723D01*
X0440539Y0205822D01*
X0395794Y0205822D02*
X0395796Y0205947D01*
X0395802Y0206072D01*
X0395812Y0206196D01*
X0395826Y0206320D01*
X0395843Y0206444D01*
X0395865Y0206567D01*
X0395891Y0206689D01*
X0395920Y0206811D01*
X0395953Y0206931D01*
X0395991Y0207050D01*
X0396031Y0207169D01*
X0396076Y0207285D01*
X0396124Y0207400D01*
X0396176Y0207514D01*
X0396232Y0207626D01*
X0396291Y0207736D01*
X0396353Y0207844D01*
X0396419Y0207951D01*
X0396488Y0208055D01*
X0396561Y0208156D01*
X0396636Y0208256D01*
X0396715Y0208353D01*
X0396797Y0208447D01*
X0396882Y0208539D01*
X0396969Y0208628D01*
X0397060Y0208714D01*
X0397153Y0208797D01*
X0397249Y0208878D01*
X0397347Y0208955D01*
X0397447Y0209029D01*
X0397550Y0209100D01*
X0397655Y0209167D01*
X0397763Y0209232D01*
X0397872Y0209292D01*
X0397983Y0209350D01*
X0398096Y0209403D01*
X0398210Y0209453D01*
X0398326Y0209500D01*
X0398443Y0209542D01*
X0398562Y0209581D01*
X0398682Y0209617D01*
X0398803Y0209648D01*
X0398925Y0209676D01*
X0399047Y0209699D01*
X0399171Y0209719D01*
X0399295Y0209735D01*
X0399419Y0209747D01*
X0399544Y0209755D01*
X0399669Y0209759D01*
X0399793Y0209759D01*
X0399918Y0209755D01*
X0400043Y0209747D01*
X0400167Y0209735D01*
X0400291Y0209719D01*
X0400415Y0209699D01*
X0400537Y0209676D01*
X0400659Y0209648D01*
X0400780Y0209617D01*
X0400900Y0209581D01*
X0401019Y0209542D01*
X0401136Y0209500D01*
X0401252Y0209453D01*
X0401366Y0209403D01*
X0401479Y0209350D01*
X0401590Y0209292D01*
X0401700Y0209232D01*
X0401807Y0209167D01*
X0401912Y0209100D01*
X0402015Y0209029D01*
X0402115Y0208955D01*
X0402213Y0208878D01*
X0402309Y0208797D01*
X0402402Y0208714D01*
X0402493Y0208628D01*
X0402580Y0208539D01*
X0402665Y0208447D01*
X0402747Y0208353D01*
X0402826Y0208256D01*
X0402901Y0208156D01*
X0402974Y0208055D01*
X0403043Y0207951D01*
X0403109Y0207844D01*
X0403171Y0207736D01*
X0403230Y0207626D01*
X0403286Y0207514D01*
X0403338Y0207400D01*
X0403386Y0207285D01*
X0403431Y0207169D01*
X0403471Y0207050D01*
X0403509Y0206931D01*
X0403542Y0206811D01*
X0403571Y0206689D01*
X0403597Y0206567D01*
X0403619Y0206444D01*
X0403636Y0206320D01*
X0403650Y0206196D01*
X0403660Y0206072D01*
X0403666Y0205947D01*
X0403668Y0205822D01*
X0403666Y0205697D01*
X0403660Y0205572D01*
X0403650Y0205448D01*
X0403636Y0205324D01*
X0403619Y0205200D01*
X0403597Y0205077D01*
X0403571Y0204955D01*
X0403542Y0204833D01*
X0403509Y0204713D01*
X0403471Y0204594D01*
X0403431Y0204475D01*
X0403386Y0204359D01*
X0403338Y0204244D01*
X0403286Y0204130D01*
X0403230Y0204018D01*
X0403171Y0203908D01*
X0403109Y0203800D01*
X0403043Y0203693D01*
X0402974Y0203589D01*
X0402901Y0203488D01*
X0402826Y0203388D01*
X0402747Y0203291D01*
X0402665Y0203197D01*
X0402580Y0203105D01*
X0402493Y0203016D01*
X0402402Y0202930D01*
X0402309Y0202847D01*
X0402213Y0202766D01*
X0402115Y0202689D01*
X0402015Y0202615D01*
X0401912Y0202544D01*
X0401807Y0202477D01*
X0401699Y0202412D01*
X0401590Y0202352D01*
X0401479Y0202294D01*
X0401366Y0202241D01*
X0401252Y0202191D01*
X0401136Y0202144D01*
X0401019Y0202102D01*
X0400900Y0202063D01*
X0400780Y0202027D01*
X0400659Y0201996D01*
X0400537Y0201968D01*
X0400415Y0201945D01*
X0400291Y0201925D01*
X0400167Y0201909D01*
X0400043Y0201897D01*
X0399918Y0201889D01*
X0399793Y0201885D01*
X0399669Y0201885D01*
X0399544Y0201889D01*
X0399419Y0201897D01*
X0399295Y0201909D01*
X0399171Y0201925D01*
X0399047Y0201945D01*
X0398925Y0201968D01*
X0398803Y0201996D01*
X0398682Y0202027D01*
X0398562Y0202063D01*
X0398443Y0202102D01*
X0398326Y0202144D01*
X0398210Y0202191D01*
X0398096Y0202241D01*
X0397983Y0202294D01*
X0397872Y0202352D01*
X0397762Y0202412D01*
X0397655Y0202477D01*
X0397550Y0202544D01*
X0397447Y0202615D01*
X0397347Y0202689D01*
X0397249Y0202766D01*
X0397153Y0202847D01*
X0397060Y0202930D01*
X0396969Y0203016D01*
X0396882Y0203105D01*
X0396797Y0203197D01*
X0396715Y0203291D01*
X0396636Y0203388D01*
X0396561Y0203488D01*
X0396488Y0203589D01*
X0396419Y0203693D01*
X0396353Y0203800D01*
X0396291Y0203908D01*
X0396232Y0204018D01*
X0396176Y0204130D01*
X0396124Y0204244D01*
X0396076Y0204359D01*
X0396031Y0204475D01*
X0395991Y0204594D01*
X0395953Y0204713D01*
X0395920Y0204833D01*
X0395891Y0204955D01*
X0395865Y0205077D01*
X0395843Y0205200D01*
X0395826Y0205324D01*
X0395812Y0205448D01*
X0395802Y0205572D01*
X0395796Y0205697D01*
X0395794Y0205822D01*
X0439102Y0249129D02*
X0439104Y0249254D01*
X0439110Y0249379D01*
X0439120Y0249503D01*
X0439134Y0249627D01*
X0439151Y0249751D01*
X0439173Y0249874D01*
X0439199Y0249996D01*
X0439228Y0250118D01*
X0439261Y0250238D01*
X0439299Y0250357D01*
X0439339Y0250476D01*
X0439384Y0250592D01*
X0439432Y0250707D01*
X0439484Y0250821D01*
X0439540Y0250933D01*
X0439599Y0251043D01*
X0439661Y0251151D01*
X0439727Y0251258D01*
X0439796Y0251362D01*
X0439869Y0251463D01*
X0439944Y0251563D01*
X0440023Y0251660D01*
X0440105Y0251754D01*
X0440190Y0251846D01*
X0440277Y0251935D01*
X0440368Y0252021D01*
X0440461Y0252104D01*
X0440557Y0252185D01*
X0440655Y0252262D01*
X0440755Y0252336D01*
X0440858Y0252407D01*
X0440963Y0252474D01*
X0441071Y0252539D01*
X0441180Y0252599D01*
X0441291Y0252657D01*
X0441404Y0252710D01*
X0441518Y0252760D01*
X0441634Y0252807D01*
X0441751Y0252849D01*
X0441870Y0252888D01*
X0441990Y0252924D01*
X0442111Y0252955D01*
X0442233Y0252983D01*
X0442355Y0253006D01*
X0442479Y0253026D01*
X0442603Y0253042D01*
X0442727Y0253054D01*
X0442852Y0253062D01*
X0442977Y0253066D01*
X0443101Y0253066D01*
X0443226Y0253062D01*
X0443351Y0253054D01*
X0443475Y0253042D01*
X0443599Y0253026D01*
X0443723Y0253006D01*
X0443845Y0252983D01*
X0443967Y0252955D01*
X0444088Y0252924D01*
X0444208Y0252888D01*
X0444327Y0252849D01*
X0444444Y0252807D01*
X0444560Y0252760D01*
X0444674Y0252710D01*
X0444787Y0252657D01*
X0444898Y0252599D01*
X0445008Y0252539D01*
X0445115Y0252474D01*
X0445220Y0252407D01*
X0445323Y0252336D01*
X0445423Y0252262D01*
X0445521Y0252185D01*
X0445617Y0252104D01*
X0445710Y0252021D01*
X0445801Y0251935D01*
X0445888Y0251846D01*
X0445973Y0251754D01*
X0446055Y0251660D01*
X0446134Y0251563D01*
X0446209Y0251463D01*
X0446282Y0251362D01*
X0446351Y0251258D01*
X0446417Y0251151D01*
X0446479Y0251043D01*
X0446538Y0250933D01*
X0446594Y0250821D01*
X0446646Y0250707D01*
X0446694Y0250592D01*
X0446739Y0250476D01*
X0446779Y0250357D01*
X0446817Y0250238D01*
X0446850Y0250118D01*
X0446879Y0249996D01*
X0446905Y0249874D01*
X0446927Y0249751D01*
X0446944Y0249627D01*
X0446958Y0249503D01*
X0446968Y0249379D01*
X0446974Y0249254D01*
X0446976Y0249129D01*
X0446974Y0249004D01*
X0446968Y0248879D01*
X0446958Y0248755D01*
X0446944Y0248631D01*
X0446927Y0248507D01*
X0446905Y0248384D01*
X0446879Y0248262D01*
X0446850Y0248140D01*
X0446817Y0248020D01*
X0446779Y0247901D01*
X0446739Y0247782D01*
X0446694Y0247666D01*
X0446646Y0247551D01*
X0446594Y0247437D01*
X0446538Y0247325D01*
X0446479Y0247215D01*
X0446417Y0247107D01*
X0446351Y0247000D01*
X0446282Y0246896D01*
X0446209Y0246795D01*
X0446134Y0246695D01*
X0446055Y0246598D01*
X0445973Y0246504D01*
X0445888Y0246412D01*
X0445801Y0246323D01*
X0445710Y0246237D01*
X0445617Y0246154D01*
X0445521Y0246073D01*
X0445423Y0245996D01*
X0445323Y0245922D01*
X0445220Y0245851D01*
X0445115Y0245784D01*
X0445007Y0245719D01*
X0444898Y0245659D01*
X0444787Y0245601D01*
X0444674Y0245548D01*
X0444560Y0245498D01*
X0444444Y0245451D01*
X0444327Y0245409D01*
X0444208Y0245370D01*
X0444088Y0245334D01*
X0443967Y0245303D01*
X0443845Y0245275D01*
X0443723Y0245252D01*
X0443599Y0245232D01*
X0443475Y0245216D01*
X0443351Y0245204D01*
X0443226Y0245196D01*
X0443101Y0245192D01*
X0442977Y0245192D01*
X0442852Y0245196D01*
X0442727Y0245204D01*
X0442603Y0245216D01*
X0442479Y0245232D01*
X0442355Y0245252D01*
X0442233Y0245275D01*
X0442111Y0245303D01*
X0441990Y0245334D01*
X0441870Y0245370D01*
X0441751Y0245409D01*
X0441634Y0245451D01*
X0441518Y0245498D01*
X0441404Y0245548D01*
X0441291Y0245601D01*
X0441180Y0245659D01*
X0441070Y0245719D01*
X0440963Y0245784D01*
X0440858Y0245851D01*
X0440755Y0245922D01*
X0440655Y0245996D01*
X0440557Y0246073D01*
X0440461Y0246154D01*
X0440368Y0246237D01*
X0440277Y0246323D01*
X0440190Y0246412D01*
X0440105Y0246504D01*
X0440023Y0246598D01*
X0439944Y0246695D01*
X0439869Y0246795D01*
X0439796Y0246896D01*
X0439727Y0247000D01*
X0439661Y0247107D01*
X0439599Y0247215D01*
X0439540Y0247325D01*
X0439484Y0247437D01*
X0439432Y0247551D01*
X0439384Y0247666D01*
X0439339Y0247782D01*
X0439299Y0247901D01*
X0439261Y0248020D01*
X0439228Y0248140D01*
X0439199Y0248262D01*
X0439173Y0248384D01*
X0439151Y0248507D01*
X0439134Y0248631D01*
X0439120Y0248755D01*
X0439110Y0248879D01*
X0439104Y0249004D01*
X0439102Y0249129D01*
X0306723Y0306411D02*
X0297450Y0317462D01*
X0276635Y0299996D01*
X0285908Y0288945D01*
X0306723Y0306411D01*
D117*
X0051522Y0153950D02*
X0050755Y0154717D01*
X0051522Y0153950D02*
X0053057Y0153950D01*
X0053824Y0154717D01*
X0053824Y0155485D01*
X0053057Y0156252D01*
X0051522Y0156252D01*
X0050755Y0157019D01*
X0050755Y0157787D01*
X0051522Y0158554D01*
X0053057Y0158554D01*
X0053824Y0157787D01*
X0055359Y0157019D02*
X0056894Y0158554D01*
X0056894Y0153950D01*
X0058428Y0153950D02*
X0055359Y0153950D01*
X0149180Y0174402D02*
X0149948Y0173635D01*
X0151482Y0173635D01*
X0152250Y0174402D01*
X0152250Y0175170D01*
X0151482Y0175937D01*
X0149948Y0175937D01*
X0149180Y0176704D01*
X0149180Y0177472D01*
X0149948Y0178239D01*
X0151482Y0178239D01*
X0152250Y0177472D01*
X0153784Y0178239D02*
X0153784Y0175937D01*
X0155319Y0176704D01*
X0156086Y0176704D01*
X0156854Y0175937D01*
X0156854Y0174402D01*
X0156086Y0173635D01*
X0154552Y0173635D01*
X0153784Y0174402D01*
X0153784Y0178239D02*
X0156854Y0178239D01*
X0082346Y0385170D02*
X0080811Y0385170D01*
X0080044Y0385938D01*
X0078509Y0385938D02*
X0077742Y0385170D01*
X0076207Y0385170D01*
X0075440Y0385938D01*
X0076207Y0387472D02*
X0077742Y0387472D01*
X0078509Y0386705D01*
X0078509Y0385938D01*
X0076207Y0387472D02*
X0075440Y0388240D01*
X0075440Y0389007D01*
X0076207Y0389774D01*
X0077742Y0389774D01*
X0078509Y0389007D01*
X0080044Y0389007D02*
X0080811Y0389774D01*
X0082346Y0389774D01*
X0083113Y0389007D01*
X0083113Y0388240D01*
X0082346Y0387472D01*
X0083113Y0386705D01*
X0083113Y0385938D01*
X0082346Y0385170D01*
X0082346Y0387472D02*
X0081579Y0387472D01*
X0382802Y0258735D02*
X0384336Y0257200D01*
X0385104Y0255666D02*
X0386638Y0255666D01*
X0387406Y0254898D01*
X0387406Y0253364D01*
X0386638Y0252596D01*
X0385104Y0252596D02*
X0384336Y0254131D01*
X0384336Y0254898D01*
X0385104Y0255666D01*
X0382802Y0255666D02*
X0382802Y0252596D01*
X0385104Y0252596D01*
X0387406Y0257200D02*
X0387406Y0260270D01*
X0387406Y0258735D02*
X0382802Y0258735D01*
X0444543Y0261376D02*
X0447612Y0264445D01*
X0447612Y0265213D01*
X0446844Y0265980D01*
X0445310Y0265980D01*
X0444543Y0265213D01*
X0444543Y0261376D02*
X0447612Y0261376D01*
X0449146Y0262143D02*
X0449914Y0261376D01*
X0451448Y0261376D01*
X0452216Y0262143D01*
X0452216Y0262911D01*
X0451448Y0263678D01*
X0449146Y0263678D01*
X0449146Y0262143D01*
X0449146Y0263678D02*
X0450681Y0265213D01*
X0452216Y0265980D01*
X0460240Y0203500D02*
X0460240Y0200431D01*
X0460240Y0201966D02*
X0455636Y0201966D01*
X0457171Y0200431D01*
X0396463Y0194208D02*
X0394928Y0193441D01*
X0393394Y0191906D01*
X0395696Y0191906D01*
X0396463Y0191139D01*
X0396463Y0190372D01*
X0395696Y0189604D01*
X0394161Y0189604D01*
X0393394Y0190372D01*
X0393394Y0191906D01*
X0391859Y0193441D02*
X0388790Y0190372D01*
X0388790Y0189604D01*
X0388790Y0194208D02*
X0391859Y0194208D01*
X0391859Y0193441D01*
X0562566Y0177472D02*
X0562566Y0176704D01*
X0563333Y0175937D01*
X0564868Y0175937D01*
X0565635Y0175170D01*
X0565635Y0174402D01*
X0564868Y0173635D01*
X0563333Y0173635D01*
X0562566Y0174402D01*
X0562566Y0177472D02*
X0563333Y0178239D01*
X0564868Y0178239D01*
X0565635Y0177472D01*
X0567170Y0175937D02*
X0569472Y0175937D01*
X0570239Y0175170D01*
X0570239Y0174402D01*
X0569472Y0173635D01*
X0567937Y0173635D01*
X0567170Y0174402D01*
X0567170Y0175937D01*
X0568705Y0177472D01*
X0570239Y0178239D01*
X0606936Y0172472D02*
X0606936Y0171704D01*
X0607704Y0170937D01*
X0609238Y0170937D01*
X0610005Y0170170D01*
X0610005Y0169402D01*
X0609238Y0168635D01*
X0607704Y0168635D01*
X0606936Y0169402D01*
X0606936Y0172472D02*
X0607704Y0173239D01*
X0609238Y0173239D01*
X0610005Y0172472D01*
X0611540Y0170937D02*
X0614609Y0170937D01*
X0613842Y0168635D02*
X0613842Y0173239D01*
X0611540Y0170937D01*
X0429375Y0390170D02*
X0429375Y0390938D01*
X0432444Y0394007D01*
X0432444Y0394774D01*
X0429375Y0394774D01*
X0427840Y0394007D02*
X0427073Y0394774D01*
X0425538Y0394774D01*
X0424771Y0394007D01*
X0424771Y0393240D01*
X0425538Y0392472D01*
X0427073Y0392472D01*
X0427840Y0391705D01*
X0427840Y0390938D01*
X0427073Y0390170D01*
X0425538Y0390170D01*
X0424771Y0390938D01*
X0625558Y0414560D02*
X0626326Y0413793D01*
X0627860Y0413793D01*
X0628628Y0414560D01*
X0628628Y0415327D01*
X0627860Y0416094D01*
X0626326Y0416094D01*
X0625558Y0416862D01*
X0625558Y0417629D01*
X0626326Y0418396D01*
X0627860Y0418396D01*
X0628628Y0417629D01*
X0630162Y0417629D02*
X0630930Y0418396D01*
X0632464Y0418396D01*
X0633231Y0417629D01*
X0633231Y0416862D01*
X0630162Y0413793D01*
X0633231Y0413793D01*
D118*
X0459008Y0259754D02*
X0457407Y0258152D01*
X0459542Y0258152D01*
X0459008Y0256551D02*
X0459008Y0259754D01*
X0455859Y0259220D02*
X0453724Y0257085D01*
X0454258Y0256551D01*
X0455325Y0256551D01*
X0455859Y0257085D01*
X0455859Y0259220D01*
X0455325Y0259754D01*
X0454258Y0259754D01*
X0453724Y0259220D01*
X0453724Y0257085D01*
X0452176Y0256551D02*
X0450041Y0256551D01*
X0451108Y0256551D02*
X0451108Y0259754D01*
X0450041Y0258686D01*
X0448493Y0259754D02*
X0448493Y0257085D01*
X0447959Y0256551D01*
X0446891Y0256551D01*
X0446357Y0257085D01*
X0446357Y0259754D01*
X0447340Y0263837D02*
X0446806Y0264370D01*
X0447340Y0263837D02*
X0448407Y0263837D01*
X0448941Y0264370D01*
X0448941Y0265438D01*
X0448407Y0265972D01*
X0447874Y0265972D01*
X0446806Y0265438D01*
X0446806Y0267039D01*
X0448941Y0267039D01*
X0444191Y0267039D02*
X0444191Y0263837D01*
X0445258Y0263837D02*
X0443123Y0263837D01*
X0441575Y0263837D02*
X0439440Y0263837D01*
X0440507Y0263837D02*
X0440507Y0267039D01*
X0439440Y0265972D01*
X0437892Y0266506D02*
X0437358Y0267039D01*
X0436290Y0267039D01*
X0435757Y0266506D01*
X0435757Y0264370D01*
X0436290Y0263837D01*
X0437358Y0263837D01*
X0437892Y0264370D01*
X0443123Y0265972D02*
X0444191Y0267039D01*
X0426423Y0266662D02*
X0423667Y0266662D01*
X0423667Y0263906D01*
X0420911Y0263906D01*
X0420911Y0266662D02*
X0423667Y0266662D01*
X0423667Y0263906D02*
X0426423Y0263906D01*
X0419261Y0269269D02*
X0417150Y0271041D01*
X0418921Y0273152D01*
X0421032Y0271381D01*
X0418921Y0273152D02*
X0416810Y0274923D01*
X0415039Y0272812D02*
X0417150Y0271041D01*
X0416559Y0270396D02*
X0414787Y0268285D01*
X0416899Y0266514D01*
X0418670Y0268625D02*
X0416559Y0270396D01*
X0414448Y0272168D01*
X0413196Y0273746D02*
X0411560Y0275118D01*
X0412378Y0274432D02*
X0414437Y0276885D01*
X0412933Y0276754D01*
X0412090Y0278158D02*
X0409082Y0277895D01*
X0409148Y0277143D01*
X0409965Y0276456D01*
X0410717Y0276522D01*
X0412090Y0278158D01*
X0412024Y0278910D01*
X0411206Y0279596D01*
X0410454Y0279530D01*
X0409082Y0277895D01*
X0407553Y0278481D02*
X0405917Y0279853D01*
X0406735Y0279167D02*
X0408794Y0281620D01*
X0407290Y0281489D01*
X0406790Y0283302D02*
X0405972Y0283988D01*
X0406381Y0283645D02*
X0404666Y0281600D01*
X0403914Y0281534D01*
X0403505Y0281878D01*
X0403439Y0282630D01*
X0402208Y0283864D02*
X0402551Y0284273D01*
X0402485Y0285025D01*
X0401259Y0286054D01*
X0400572Y0285237D01*
X0400638Y0284485D01*
X0401456Y0283798D01*
X0402208Y0283864D01*
X0401259Y0286054D02*
X0402763Y0286186D01*
X0403924Y0285909D01*
X0400759Y0287867D02*
X0400693Y0288619D01*
X0399875Y0289306D01*
X0399123Y0289240D01*
X0397751Y0287604D01*
X0400759Y0287867D01*
X0399387Y0286232D01*
X0398635Y0286166D01*
X0397817Y0286852D01*
X0397751Y0287604D01*
X0396222Y0288190D02*
X0394586Y0289563D01*
X0395404Y0288876D02*
X0397463Y0291330D01*
X0395959Y0291198D01*
X0395459Y0293011D02*
X0394642Y0293697D01*
X0395050Y0293354D02*
X0393335Y0291310D01*
X0392583Y0291244D01*
X0392174Y0291587D01*
X0392108Y0292339D01*
X0390794Y0291133D02*
X0391612Y0290447D01*
X0391678Y0289695D01*
X0388669Y0289431D01*
X0388735Y0288679D01*
X0389553Y0287993D01*
X0390305Y0288059D01*
X0391678Y0289695D01*
X0390794Y0291133D02*
X0390042Y0291067D01*
X0388669Y0289431D01*
X0387141Y0290018D02*
X0385505Y0291390D01*
X0388513Y0291653D01*
X0388856Y0292062D01*
X0388790Y0292814D01*
X0387973Y0293500D01*
X0387221Y0293435D01*
X0389271Y0294854D02*
X0387160Y0296625D01*
X0388932Y0298737D01*
X0386820Y0300508D01*
X0385049Y0298397D02*
X0387160Y0296625D01*
X0385560Y0295525D02*
X0383501Y0293071D01*
X0382684Y0293758D02*
X0384319Y0292385D01*
X0384056Y0295393D02*
X0385560Y0295525D01*
X0383213Y0296797D02*
X0383147Y0297549D01*
X0382330Y0298235D01*
X0381578Y0298170D01*
X0380205Y0296534D01*
X0380271Y0295782D01*
X0381089Y0295096D01*
X0381841Y0295161D01*
X0379518Y0297825D02*
X0378984Y0297291D01*
X0377916Y0297291D01*
X0377383Y0297825D01*
X0378450Y0298892D02*
X0378984Y0298892D01*
X0379518Y0298359D01*
X0379518Y0297825D01*
X0378984Y0298892D02*
X0379518Y0299426D01*
X0379518Y0299960D01*
X0378984Y0300494D01*
X0377916Y0300494D01*
X0377383Y0299960D01*
X0375835Y0299960D02*
X0373700Y0297825D01*
X0374233Y0297291D01*
X0375301Y0297291D01*
X0375835Y0297825D01*
X0375835Y0299960D01*
X0375301Y0300494D01*
X0374233Y0300494D01*
X0373700Y0299960D01*
X0373700Y0297825D01*
X0372152Y0297291D02*
X0370016Y0297291D01*
X0371084Y0297291D02*
X0371084Y0300494D01*
X0370016Y0299426D01*
X0368468Y0299960D02*
X0367935Y0300494D01*
X0366333Y0300494D01*
X0366333Y0297291D01*
X0367935Y0297291D01*
X0368468Y0297825D01*
X0368468Y0299960D01*
X0367919Y0301785D02*
X0368453Y0302318D01*
X0368453Y0304454D01*
X0367919Y0304987D01*
X0366317Y0304987D01*
X0366317Y0301785D01*
X0367919Y0301785D01*
X0370001Y0301785D02*
X0372136Y0301785D01*
X0371068Y0301785D02*
X0371068Y0304987D01*
X0370001Y0303920D01*
X0373684Y0304454D02*
X0374218Y0304987D01*
X0375285Y0304987D01*
X0375819Y0304454D01*
X0373684Y0302318D01*
X0374218Y0301785D01*
X0375285Y0301785D01*
X0375819Y0302318D01*
X0375819Y0304454D01*
X0377367Y0303386D02*
X0379502Y0303386D01*
X0378968Y0301785D02*
X0378968Y0304987D01*
X0377367Y0303386D01*
X0373684Y0302318D02*
X0373684Y0304454D01*
X0376402Y0311161D02*
X0375584Y0311847D01*
X0375518Y0312599D01*
X0376205Y0313417D02*
X0377365Y0313140D01*
X0377774Y0312796D01*
X0377840Y0312044D01*
X0377154Y0311227D01*
X0376402Y0311161D01*
X0376205Y0313417D02*
X0377234Y0314644D01*
X0378869Y0313271D01*
X0375705Y0315230D02*
X0372697Y0314966D01*
X0372763Y0314214D01*
X0373580Y0313528D01*
X0374332Y0313594D01*
X0375705Y0315230D01*
X0375639Y0315982D01*
X0374821Y0316668D01*
X0374069Y0316602D01*
X0372697Y0314966D01*
X0371168Y0315553D02*
X0369532Y0316925D01*
X0370350Y0316239D02*
X0372409Y0318692D01*
X0370905Y0318561D01*
X0370405Y0320374D02*
X0369587Y0321060D01*
X0369996Y0320717D02*
X0368281Y0318672D01*
X0367529Y0318606D01*
X0367120Y0318949D01*
X0367054Y0319701D01*
X0366001Y0324006D02*
X0364807Y0325776D01*
X0365404Y0324891D02*
X0368059Y0326682D01*
X0366577Y0326970D01*
X0366154Y0328552D02*
X0363190Y0329128D01*
X0363046Y0328387D01*
X0363643Y0327502D01*
X0364384Y0327358D01*
X0366154Y0328552D01*
X0366298Y0329293D01*
X0365701Y0330178D01*
X0364960Y0330322D01*
X0363190Y0329128D01*
X0361882Y0330113D02*
X0360688Y0331883D01*
X0361285Y0330998D02*
X0363940Y0332789D01*
X0362458Y0333077D01*
X0361593Y0334360D02*
X0362035Y0334659D01*
X0362179Y0335400D01*
X0361284Y0336727D01*
X0358628Y0334936D01*
X0359524Y0333609D01*
X0360265Y0333465D01*
X0360707Y0333763D01*
X0360852Y0334504D01*
X0359956Y0335832D01*
X0360852Y0334504D02*
X0361593Y0334360D01*
X0367640Y0342600D02*
X0371577Y0346537D01*
X0371577Y0381970D01*
X0367640Y0385907D01*
X0336144Y0385907D01*
X0324333Y0374096D01*
X0324333Y0354411D01*
X0336144Y0342600D01*
X0367640Y0342600D01*
X0338777Y0339487D02*
X0338243Y0340021D01*
X0337175Y0340021D01*
X0336642Y0339487D01*
X0338777Y0339487D02*
X0338777Y0338954D01*
X0336642Y0336819D01*
X0338777Y0336819D01*
X0335094Y0336819D02*
X0332958Y0336819D01*
X0334026Y0336819D02*
X0334026Y0340021D01*
X0332958Y0338954D01*
X0331410Y0336819D02*
X0329275Y0336819D01*
X0330343Y0336819D02*
X0330343Y0340021D01*
X0329275Y0338954D01*
X0327727Y0339487D02*
X0327727Y0338420D01*
X0327193Y0337886D01*
X0325592Y0337886D01*
X0325592Y0336819D02*
X0325592Y0340021D01*
X0327193Y0340021D01*
X0327727Y0339487D01*
X0326660Y0337886D02*
X0327727Y0336819D01*
X0330059Y0334167D02*
X0333262Y0334167D01*
X0333262Y0333099D02*
X0333262Y0335235D01*
X0331127Y0333099D02*
X0330059Y0334167D01*
X0330593Y0331551D02*
X0332728Y0329416D01*
X0333262Y0329950D01*
X0333262Y0331018D01*
X0332728Y0331551D01*
X0330593Y0331551D01*
X0330059Y0331018D01*
X0330059Y0329950D01*
X0330593Y0329416D01*
X0332728Y0329416D01*
X0333262Y0327868D02*
X0333262Y0325733D01*
X0333262Y0326801D02*
X0330059Y0326801D01*
X0331127Y0325733D01*
X0330059Y0324185D02*
X0332728Y0324185D01*
X0333262Y0323651D01*
X0333262Y0322584D01*
X0332728Y0322050D01*
X0330059Y0322050D01*
X0330366Y0317089D02*
X0329299Y0316555D01*
X0328231Y0315488D01*
X0329833Y0315488D01*
X0330366Y0314954D01*
X0330366Y0314420D01*
X0329833Y0313886D01*
X0328765Y0313886D01*
X0328231Y0314420D01*
X0328231Y0315488D01*
X0326683Y0316555D02*
X0324548Y0314420D01*
X0325082Y0313886D01*
X0326150Y0313886D01*
X0326683Y0314420D01*
X0326683Y0316555D01*
X0326150Y0317089D01*
X0325082Y0317089D01*
X0324548Y0316555D01*
X0324548Y0314420D01*
X0323000Y0313886D02*
X0320865Y0313886D01*
X0321933Y0313886D02*
X0321933Y0317089D01*
X0320865Y0316021D01*
X0319317Y0316555D02*
X0318783Y0317089D01*
X0317716Y0317089D01*
X0317182Y0316555D01*
X0317182Y0314420D01*
X0317716Y0313886D01*
X0318783Y0313886D01*
X0319317Y0314420D01*
X0318632Y0318132D02*
X0321388Y0318132D01*
X0321388Y0320888D01*
X0324144Y0320888D01*
X0321388Y0320888D02*
X0318632Y0320888D01*
X0321388Y0318132D02*
X0324144Y0318132D01*
X0311329Y0308316D02*
X0311263Y0307564D01*
X0308255Y0307827D01*
X0308189Y0307075D01*
X0308875Y0306257D01*
X0309627Y0306191D01*
X0311263Y0307564D01*
X0311329Y0308316D02*
X0310642Y0309134D01*
X0309890Y0309199D01*
X0308255Y0307827D01*
X0306851Y0308670D02*
X0305478Y0310305D01*
X0306165Y0309488D02*
X0308618Y0311546D01*
X0307114Y0311678D01*
X0306937Y0313550D02*
X0306251Y0314368D01*
X0306594Y0313959D02*
X0304549Y0312243D01*
X0303797Y0312309D01*
X0303454Y0312718D01*
X0303520Y0313470D01*
X0310622Y0305006D02*
X0310556Y0304254D01*
X0311243Y0303436D01*
X0311995Y0303370D01*
X0312404Y0303713D01*
X0312469Y0304465D01*
X0312126Y0304874D01*
X0312469Y0304465D02*
X0313221Y0304399D01*
X0313630Y0304742D01*
X0313696Y0305494D01*
X0313010Y0306312D01*
X0312258Y0306378D01*
X0312160Y0300055D02*
X0312694Y0299521D01*
X0310558Y0297386D01*
X0311092Y0296852D01*
X0312160Y0296852D01*
X0312694Y0297386D01*
X0312694Y0299521D01*
X0312160Y0300055D02*
X0311092Y0300055D01*
X0310558Y0299521D01*
X0310558Y0297386D01*
X0309010Y0296852D02*
X0306875Y0296852D01*
X0309010Y0298988D01*
X0309010Y0299521D01*
X0308477Y0300055D01*
X0307409Y0300055D01*
X0306875Y0299521D01*
X0305327Y0299521D02*
X0304793Y0300055D01*
X0303726Y0300055D01*
X0303192Y0299521D01*
X0303192Y0297386D01*
X0303726Y0296852D01*
X0304793Y0296852D01*
X0305327Y0297386D01*
X0314242Y0297386D02*
X0314775Y0296852D01*
X0315843Y0296852D01*
X0316377Y0297386D01*
X0316377Y0297920D01*
X0315843Y0298454D01*
X0315309Y0298454D01*
X0315843Y0298454D02*
X0316377Y0298988D01*
X0316377Y0299521D01*
X0315843Y0300055D01*
X0314775Y0300055D01*
X0314242Y0299521D01*
X0296733Y0285306D02*
X0296733Y0282550D01*
X0293977Y0282550D01*
X0293977Y0279794D01*
X0293837Y0278102D02*
X0294371Y0277568D01*
X0294371Y0276500D01*
X0293837Y0275966D01*
X0292770Y0277034D02*
X0292770Y0277568D01*
X0293303Y0278102D01*
X0293837Y0278102D01*
X0292770Y0277568D02*
X0292236Y0278102D01*
X0291702Y0278102D01*
X0291168Y0277568D01*
X0291168Y0276500D01*
X0291702Y0275966D01*
X0289741Y0274418D02*
X0289741Y0272283D01*
X0289741Y0273351D02*
X0286538Y0273351D01*
X0287606Y0272283D01*
X0289741Y0270735D02*
X0289741Y0268600D01*
X0289741Y0269668D02*
X0286538Y0269668D01*
X0287606Y0268600D01*
X0288140Y0267052D02*
X0288673Y0266518D01*
X0288673Y0264917D01*
X0288673Y0265984D02*
X0289741Y0267052D01*
X0291168Y0266518D02*
X0291702Y0267052D01*
X0292770Y0267052D01*
X0293303Y0266518D01*
X0293303Y0264917D01*
X0293303Y0265984D02*
X0294371Y0267052D01*
X0294371Y0268600D02*
X0294371Y0270735D01*
X0294371Y0269668D02*
X0291168Y0269668D01*
X0292236Y0268600D01*
X0291168Y0266518D02*
X0291168Y0264917D01*
X0294371Y0264917D01*
X0289741Y0264917D02*
X0286538Y0264917D01*
X0286538Y0266518D01*
X0287072Y0267052D01*
X0288140Y0267052D01*
X0292236Y0272283D02*
X0291168Y0273351D01*
X0294371Y0273351D01*
X0294371Y0274418D02*
X0294371Y0272283D01*
X0289741Y0277568D02*
X0286538Y0277568D01*
X0288140Y0275966D01*
X0288140Y0278102D01*
X0287977Y0279794D02*
X0287977Y0282550D01*
X0290733Y0282550D01*
X0290733Y0279794D01*
X0290733Y0282550D02*
X0290733Y0285306D01*
X0287977Y0285306D02*
X0287977Y0282550D01*
X0293977Y0282550D02*
X0293977Y0285306D01*
X0296733Y0282550D02*
X0296733Y0279794D01*
X0280717Y0278359D02*
X0280031Y0279177D01*
X0279279Y0279243D01*
X0278870Y0278899D01*
X0278804Y0278147D01*
X0279833Y0276921D01*
X0279016Y0276234D02*
X0280651Y0277607D01*
X0280717Y0278359D01*
X0279016Y0276234D02*
X0278264Y0276300D01*
X0277577Y0277118D01*
X0277643Y0277870D01*
X0276648Y0279056D02*
X0275896Y0279122D01*
X0275210Y0279939D01*
X0275276Y0280691D01*
X0278284Y0280428D01*
X0276648Y0279056D01*
X0275276Y0280691D02*
X0276911Y0282064D01*
X0277663Y0281998D01*
X0278349Y0281180D01*
X0278284Y0280428D01*
X0278071Y0283853D02*
X0276300Y0285964D01*
X0278411Y0287736D01*
X0276639Y0289847D01*
X0274528Y0288075D02*
X0276300Y0285964D01*
X0275639Y0284411D02*
X0273185Y0282352D01*
X0272499Y0283170D02*
X0273872Y0281534D01*
X0274135Y0284542D02*
X0275639Y0284411D01*
X0273549Y0286071D02*
X0273615Y0286823D01*
X0272928Y0287641D01*
X0272176Y0287707D01*
X0270541Y0286334D01*
X0270475Y0285582D01*
X0271161Y0284765D01*
X0271913Y0284699D01*
X0278411Y0287736D02*
X0280182Y0285625D01*
X0313571Y0260871D02*
X0315173Y0260871D01*
X0315706Y0260337D01*
X0315706Y0259269D01*
X0315173Y0258736D01*
X0313571Y0258736D01*
X0313571Y0257668D02*
X0313571Y0260871D01*
X0314639Y0258736D02*
X0315706Y0257668D01*
X0315234Y0256261D02*
X0315768Y0255728D01*
X0315768Y0254660D01*
X0315234Y0254126D01*
X0313633Y0254126D01*
X0314700Y0254126D02*
X0315768Y0253059D01*
X0317316Y0253059D02*
X0319451Y0255194D01*
X0319451Y0255728D01*
X0318917Y0256261D01*
X0317850Y0256261D01*
X0317316Y0255728D01*
X0317254Y0257668D02*
X0319390Y0259803D01*
X0319390Y0260337D01*
X0318856Y0260871D01*
X0317788Y0260871D01*
X0317254Y0260337D01*
X0319422Y0261856D02*
X0322178Y0261856D01*
X0322178Y0264611D01*
X0319422Y0264611D01*
X0319361Y0266071D02*
X0322117Y0266071D01*
X0322117Y0268827D01*
X0319361Y0268827D01*
X0322117Y0268827D02*
X0324872Y0268827D01*
X0324872Y0266071D02*
X0322117Y0266071D01*
X0322178Y0264611D02*
X0324934Y0264611D01*
X0324934Y0261856D02*
X0322178Y0261856D01*
X0322539Y0260871D02*
X0323073Y0260337D01*
X0320938Y0258202D01*
X0321471Y0257668D01*
X0322539Y0257668D01*
X0323073Y0258202D01*
X0323073Y0260337D01*
X0322539Y0260871D02*
X0321471Y0260871D01*
X0320938Y0260337D01*
X0320938Y0258202D01*
X0319390Y0257668D02*
X0317254Y0257668D01*
X0315234Y0256261D02*
X0313633Y0256261D01*
X0313633Y0253059D01*
X0317316Y0253059D02*
X0319451Y0253059D01*
X0320999Y0253592D02*
X0323134Y0255728D01*
X0323134Y0253592D01*
X0322600Y0253059D01*
X0321533Y0253059D01*
X0320999Y0253592D01*
X0320999Y0255728D01*
X0321533Y0256261D01*
X0322600Y0256261D01*
X0323134Y0255728D01*
X0324682Y0254660D02*
X0326817Y0254660D01*
X0326284Y0253059D02*
X0326284Y0256261D01*
X0324682Y0254660D01*
X0324621Y0257668D02*
X0326756Y0259803D01*
X0326756Y0260337D01*
X0326222Y0260871D01*
X0325155Y0260871D01*
X0324621Y0260337D01*
X0324621Y0257668D02*
X0326756Y0257668D01*
X0330714Y0270175D02*
X0332849Y0270175D01*
X0334397Y0270175D02*
X0336532Y0270175D01*
X0338080Y0270175D02*
X0339682Y0270175D01*
X0340216Y0270709D01*
X0340216Y0272844D01*
X0339682Y0273378D01*
X0338080Y0273378D01*
X0338080Y0270175D01*
X0335465Y0271777D02*
X0334397Y0271777D01*
X0334397Y0273378D02*
X0334397Y0270175D01*
X0334397Y0273378D02*
X0336532Y0273378D01*
X0336502Y0274953D02*
X0334367Y0274953D01*
X0334367Y0278156D01*
X0336502Y0278156D01*
X0338050Y0278156D02*
X0339651Y0278156D01*
X0340185Y0277622D01*
X0340185Y0275487D01*
X0339651Y0274953D01*
X0338050Y0274953D01*
X0338050Y0278156D01*
X0335434Y0276555D02*
X0334367Y0276555D01*
X0332819Y0274953D02*
X0330683Y0274953D01*
X0330683Y0278156D01*
X0330714Y0273378D02*
X0330714Y0270175D01*
X0341764Y0270175D02*
X0343899Y0272310D01*
X0343899Y0272844D01*
X0343365Y0273378D01*
X0342297Y0273378D01*
X0341764Y0272844D01*
X0341733Y0274953D02*
X0343868Y0277088D01*
X0343868Y0277622D01*
X0343334Y0278156D01*
X0342267Y0278156D01*
X0341733Y0277622D01*
X0341733Y0274953D02*
X0343868Y0274953D01*
X0345416Y0275487D02*
X0347551Y0277622D01*
X0347551Y0275487D01*
X0347017Y0274953D01*
X0345950Y0274953D01*
X0345416Y0275487D01*
X0345416Y0277622D01*
X0345950Y0278156D01*
X0347017Y0278156D01*
X0347551Y0277622D01*
X0349099Y0277088D02*
X0350167Y0278156D01*
X0350167Y0274953D01*
X0351234Y0274953D02*
X0349099Y0274953D01*
X0349664Y0273378D02*
X0350731Y0273378D01*
X0351265Y0272844D01*
X0351265Y0272310D01*
X0350731Y0271777D01*
X0351265Y0271243D01*
X0351265Y0270709D01*
X0350731Y0270175D01*
X0349664Y0270175D01*
X0349130Y0270709D01*
X0350197Y0271777D02*
X0350731Y0271777D01*
X0349130Y0272844D02*
X0349664Y0273378D01*
X0347582Y0272844D02*
X0345447Y0270709D01*
X0345981Y0270175D01*
X0347048Y0270175D01*
X0347582Y0270709D01*
X0347582Y0272844D01*
X0347048Y0273378D01*
X0345981Y0273378D01*
X0345447Y0272844D01*
X0345447Y0270709D01*
X0343899Y0270175D02*
X0341764Y0270175D01*
X0343019Y0282345D02*
X0343019Y0283947D01*
X0343552Y0284480D01*
X0344620Y0284480D01*
X0345154Y0283947D01*
X0345154Y0282345D01*
X0346221Y0282345D02*
X0343019Y0282345D01*
X0345154Y0283413D02*
X0346221Y0284480D01*
X0346221Y0286028D02*
X0346221Y0288164D01*
X0346221Y0287096D02*
X0343019Y0287096D01*
X0344086Y0286028D01*
X0343552Y0289712D02*
X0343019Y0290245D01*
X0343019Y0291313D01*
X0343552Y0291847D01*
X0344086Y0291847D01*
X0346221Y0289712D01*
X0346221Y0291847D01*
X0345687Y0293395D02*
X0346221Y0293928D01*
X0346221Y0294996D01*
X0345687Y0295530D01*
X0344620Y0295530D01*
X0344086Y0294996D01*
X0344086Y0294462D01*
X0344620Y0293395D01*
X0343019Y0293395D01*
X0343019Y0295530D01*
X0348779Y0295095D02*
X0348779Y0282496D01*
X0354881Y0282496D01*
X0354881Y0295095D01*
X0348779Y0295095D01*
X0358967Y0297291D02*
X0361102Y0297291D01*
X0362650Y0297291D02*
X0364785Y0297291D01*
X0363718Y0298892D02*
X0362650Y0298892D01*
X0362650Y0297291D02*
X0362650Y0300494D01*
X0364785Y0300494D01*
X0364769Y0301785D02*
X0362634Y0301785D01*
X0362634Y0304987D01*
X0364769Y0304987D01*
X0363702Y0303386D02*
X0362634Y0303386D01*
X0361086Y0301785D02*
X0358951Y0301785D01*
X0358951Y0304987D01*
X0358967Y0300494D02*
X0358967Y0297291D01*
X0357802Y0280152D02*
X0357802Y0276949D01*
X0359937Y0276949D01*
X0361485Y0276949D02*
X0363620Y0276949D01*
X0363653Y0275642D02*
X0361518Y0275642D01*
X0361518Y0272440D01*
X0363653Y0272440D01*
X0365201Y0272440D02*
X0366802Y0272440D01*
X0367336Y0272974D01*
X0367336Y0275109D01*
X0366802Y0275642D01*
X0365201Y0275642D01*
X0365201Y0272440D01*
X0364952Y0271503D02*
X0364952Y0269368D01*
X0366553Y0269368D01*
X0366019Y0270436D01*
X0366019Y0270969D01*
X0366553Y0271503D01*
X0367621Y0271503D01*
X0368154Y0270969D01*
X0368154Y0269902D01*
X0367621Y0269368D01*
X0368154Y0267820D02*
X0368154Y0265685D01*
X0368154Y0266752D02*
X0364952Y0266752D01*
X0366019Y0265685D01*
X0368154Y0264137D02*
X0368154Y0262002D01*
X0368154Y0263069D02*
X0364952Y0263069D01*
X0366019Y0262002D01*
X0365485Y0260454D02*
X0366553Y0260454D01*
X0367087Y0259920D01*
X0367087Y0258319D01*
X0367087Y0259386D02*
X0368154Y0260454D01*
X0368154Y0258319D02*
X0364952Y0258319D01*
X0364952Y0259920D01*
X0365485Y0260454D01*
X0367044Y0256865D02*
X0367044Y0254109D01*
X0369800Y0254109D01*
X0369800Y0251353D01*
X0370838Y0251368D02*
X0370838Y0254124D01*
X0373594Y0254124D01*
X0373594Y0251368D01*
X0373594Y0254124D02*
X0373594Y0256880D01*
X0373809Y0258304D02*
X0370607Y0258304D01*
X0370607Y0259905D01*
X0371141Y0260439D01*
X0372208Y0260439D01*
X0372742Y0259905D01*
X0372742Y0258304D01*
X0372742Y0259371D02*
X0373809Y0260439D01*
X0373809Y0261987D02*
X0373809Y0264122D01*
X0373809Y0263054D02*
X0370607Y0263054D01*
X0371674Y0261987D01*
X0371674Y0265670D02*
X0370607Y0266737D01*
X0373809Y0266737D01*
X0373809Y0265670D02*
X0373809Y0267805D01*
X0373276Y0269353D02*
X0373809Y0269887D01*
X0373809Y0270954D01*
X0373276Y0271488D01*
X0372742Y0271488D01*
X0372208Y0270954D01*
X0372208Y0269353D01*
X0373276Y0269353D01*
X0372208Y0269353D02*
X0371141Y0270421D01*
X0370607Y0271488D01*
X0371019Y0272440D02*
X0368884Y0272440D01*
X0369952Y0272440D02*
X0369952Y0275642D01*
X0368884Y0274575D01*
X0368851Y0276949D02*
X0370986Y0276949D01*
X0369919Y0276949D02*
X0369919Y0280152D01*
X0368851Y0279084D01*
X0367303Y0279618D02*
X0366769Y0280152D01*
X0365168Y0280152D01*
X0365168Y0276949D01*
X0366769Y0276949D01*
X0367303Y0277483D01*
X0367303Y0279618D01*
X0363620Y0280152D02*
X0361485Y0280152D01*
X0361485Y0276949D01*
X0361485Y0278551D02*
X0362552Y0278551D01*
X0362585Y0274041D02*
X0361518Y0274041D01*
X0359970Y0272440D02*
X0357835Y0272440D01*
X0357835Y0275642D01*
X0372567Y0275109D02*
X0373101Y0275642D01*
X0374169Y0275642D01*
X0374702Y0275109D01*
X0372567Y0272974D01*
X0373101Y0272440D01*
X0374169Y0272440D01*
X0374702Y0272974D01*
X0374702Y0275109D01*
X0376250Y0274575D02*
X0377318Y0275642D01*
X0377318Y0272440D01*
X0376250Y0272440D02*
X0378386Y0272440D01*
X0378776Y0270446D02*
X0378776Y0268311D01*
X0376641Y0270446D01*
X0376107Y0270446D01*
X0375574Y0269913D01*
X0375574Y0268845D01*
X0376107Y0268311D01*
X0376107Y0266763D02*
X0378243Y0264628D01*
X0378776Y0265162D01*
X0378776Y0266229D01*
X0378243Y0266763D01*
X0376107Y0266763D01*
X0375574Y0266229D01*
X0375574Y0265162D01*
X0376107Y0264628D01*
X0378243Y0264628D01*
X0378776Y0263080D02*
X0378776Y0260945D01*
X0378776Y0262013D02*
X0375574Y0262013D01*
X0376641Y0260945D01*
X0375574Y0259397D02*
X0375574Y0258329D01*
X0375574Y0258863D02*
X0378243Y0258863D01*
X0378776Y0258329D01*
X0378776Y0257796D01*
X0378243Y0257262D01*
X0378863Y0256002D02*
X0378329Y0255469D01*
X0378329Y0253333D01*
X0378863Y0252800D01*
X0379930Y0252800D01*
X0380464Y0253333D01*
X0382012Y0252800D02*
X0384147Y0252800D01*
X0383080Y0252800D02*
X0383080Y0256002D01*
X0382012Y0254935D01*
X0380464Y0255469D02*
X0379930Y0256002D01*
X0378863Y0256002D01*
X0385299Y0256872D02*
X0388055Y0256872D01*
X0388055Y0259628D01*
X0385299Y0259628D01*
X0388055Y0259628D02*
X0390811Y0259628D01*
X0390811Y0256872D02*
X0388055Y0256872D01*
X0387296Y0256002D02*
X0387830Y0255469D01*
X0385695Y0253333D01*
X0386229Y0252800D01*
X0387296Y0252800D01*
X0387830Y0253333D01*
X0387830Y0255469D01*
X0387296Y0256002D02*
X0386229Y0256002D01*
X0385695Y0255469D01*
X0385695Y0253333D01*
X0389378Y0253333D02*
X0389912Y0252800D01*
X0390980Y0252800D01*
X0391513Y0253333D01*
X0391513Y0254401D01*
X0390980Y0254935D01*
X0390446Y0254935D01*
X0389378Y0254401D01*
X0389378Y0256002D01*
X0391513Y0256002D01*
X0403562Y0268994D02*
X0403496Y0269746D01*
X0406504Y0270009D01*
X0405132Y0268373D01*
X0404380Y0268307D01*
X0403562Y0268994D01*
X0403496Y0269746D02*
X0404869Y0271381D01*
X0405621Y0271447D01*
X0406438Y0270761D01*
X0406504Y0270009D01*
X0408033Y0269423D02*
X0407004Y0268196D01*
X0408165Y0267919D01*
X0408574Y0267576D01*
X0408640Y0266824D01*
X0407953Y0266006D01*
X0407201Y0265940D01*
X0406383Y0266626D01*
X0406318Y0267378D01*
X0408033Y0269423D02*
X0409669Y0268050D01*
X0409957Y0269483D02*
X0410709Y0269549D01*
X0411052Y0269958D01*
X0410987Y0270710D01*
X0409760Y0271739D01*
X0409074Y0270922D01*
X0409139Y0270170D01*
X0409957Y0269483D01*
X0409760Y0271739D02*
X0411264Y0271871D01*
X0412425Y0271594D01*
X0412676Y0270056D02*
X0414787Y0268285D01*
X0409260Y0273552D02*
X0406252Y0273289D01*
X0406318Y0272537D01*
X0407136Y0271851D01*
X0407888Y0271917D01*
X0409260Y0273552D01*
X0409194Y0274304D01*
X0408377Y0274990D01*
X0407625Y0274925D01*
X0406252Y0273289D01*
X0404723Y0273875D02*
X0403088Y0275248D01*
X0403905Y0274561D02*
X0405964Y0277015D01*
X0404460Y0276883D01*
X0402931Y0277469D02*
X0402179Y0277404D01*
X0400952Y0278433D01*
X0400266Y0277615D02*
X0402325Y0280069D01*
X0403552Y0279039D01*
X0403617Y0278287D01*
X0402931Y0277469D01*
X0401770Y0277747D02*
X0401902Y0276243D01*
X0400796Y0275496D02*
X0399569Y0276525D01*
X0397510Y0274072D01*
X0398196Y0274890D02*
X0399423Y0273860D01*
X0400175Y0273926D01*
X0400861Y0274744D01*
X0400796Y0275496D01*
X0399014Y0274203D02*
X0399146Y0272699D01*
X0400332Y0271704D02*
X0401967Y0270332D01*
X0401149Y0271018D02*
X0403208Y0273472D01*
X0401704Y0273340D01*
X0378352Y0276949D02*
X0376217Y0276949D01*
X0378352Y0279084D01*
X0378352Y0279618D01*
X0377819Y0280152D01*
X0376751Y0280152D01*
X0376217Y0279618D01*
X0374669Y0279618D02*
X0372534Y0277483D01*
X0373068Y0276949D01*
X0374136Y0276949D01*
X0374669Y0277483D01*
X0374669Y0279618D01*
X0374136Y0280152D01*
X0373068Y0280152D01*
X0372534Y0279618D01*
X0372534Y0277483D01*
X0372567Y0275109D02*
X0372567Y0272974D01*
X0370838Y0256880D02*
X0370838Y0254124D01*
X0369800Y0254109D02*
X0369800Y0256865D01*
X0367044Y0254109D02*
X0367044Y0251353D01*
X0377543Y0234618D02*
X0378077Y0233550D01*
X0379144Y0232483D01*
X0379144Y0234084D01*
X0379678Y0234618D01*
X0380212Y0234618D01*
X0380746Y0234084D01*
X0380746Y0233017D01*
X0380212Y0232483D01*
X0379144Y0232483D01*
X0378077Y0230935D02*
X0380212Y0228800D01*
X0380746Y0229334D01*
X0380746Y0230401D01*
X0380212Y0230935D01*
X0378077Y0230935D01*
X0377543Y0230401D01*
X0377543Y0229334D01*
X0378077Y0228800D01*
X0380212Y0228800D01*
X0379144Y0227252D02*
X0379144Y0225117D01*
X0377543Y0226718D01*
X0380746Y0226718D01*
X0380212Y0223569D02*
X0380746Y0223035D01*
X0380746Y0221967D01*
X0380212Y0221433D01*
X0378077Y0221433D01*
X0377543Y0221967D01*
X0377543Y0223035D01*
X0378077Y0223569D01*
X0377681Y0219341D02*
X0377681Y0216585D01*
X0380437Y0216585D01*
X0380437Y0219341D01*
X0380437Y0216585D02*
X0380437Y0213829D01*
X0377681Y0213829D02*
X0377681Y0216585D01*
X0378633Y0196606D02*
X0378633Y0193850D01*
X0375877Y0193850D01*
X0375877Y0196606D01*
X0374010Y0195210D02*
X0374543Y0194676D01*
X0374543Y0194143D01*
X0374010Y0193609D01*
X0372942Y0193609D01*
X0372408Y0194143D01*
X0372408Y0194676D01*
X0372942Y0195210D01*
X0374010Y0195210D01*
X0374010Y0193609D02*
X0374543Y0193075D01*
X0374543Y0192541D01*
X0374010Y0192007D01*
X0372942Y0192007D01*
X0372408Y0192541D01*
X0372408Y0193075D01*
X0372942Y0193609D01*
X0370860Y0194676D02*
X0368725Y0192541D01*
X0369259Y0192007D01*
X0370326Y0192007D01*
X0370860Y0192541D01*
X0370860Y0194676D01*
X0370326Y0195210D01*
X0369259Y0195210D01*
X0368725Y0194676D01*
X0368725Y0192541D01*
X0367177Y0193609D02*
X0365042Y0193609D01*
X0366643Y0195210D01*
X0366643Y0192007D01*
X0363494Y0192541D02*
X0362960Y0192007D01*
X0361893Y0192007D01*
X0361359Y0192541D01*
X0361359Y0194676D01*
X0361893Y0195210D01*
X0362960Y0195210D01*
X0363494Y0194676D01*
X0360612Y0186891D02*
X0360612Y0184756D01*
X0358477Y0186891D01*
X0357943Y0186891D01*
X0357409Y0186357D01*
X0357409Y0185290D01*
X0357943Y0184756D01*
X0357943Y0183208D02*
X0360078Y0181073D01*
X0360612Y0181607D01*
X0360612Y0182674D01*
X0360078Y0183208D01*
X0357943Y0183208D01*
X0357409Y0182674D01*
X0357409Y0181607D01*
X0357943Y0181073D01*
X0360078Y0181073D01*
X0360078Y0179525D02*
X0360612Y0178991D01*
X0360612Y0177924D01*
X0360078Y0177390D01*
X0359010Y0178457D02*
X0359010Y0178991D01*
X0359544Y0179525D01*
X0360078Y0179525D01*
X0359010Y0178991D02*
X0358477Y0179525D01*
X0357943Y0179525D01*
X0357409Y0178991D01*
X0357409Y0177924D01*
X0357943Y0177390D01*
X0357943Y0175842D02*
X0357409Y0175308D01*
X0357409Y0174240D01*
X0357943Y0173707D01*
X0360078Y0173707D01*
X0360612Y0174240D01*
X0360612Y0175308D01*
X0360078Y0175842D01*
X0350222Y0172798D02*
X0350222Y0169595D01*
X0351289Y0169595D02*
X0349154Y0169595D01*
X0347606Y0169595D02*
X0345471Y0169595D01*
X0346539Y0169595D02*
X0346539Y0172798D01*
X0345471Y0171730D01*
X0343923Y0171730D02*
X0343389Y0171196D01*
X0343923Y0170662D01*
X0343923Y0170129D01*
X0343389Y0169595D01*
X0342322Y0169595D01*
X0341788Y0170129D01*
X0342855Y0171196D02*
X0343389Y0171196D01*
X0343923Y0171730D02*
X0343923Y0172264D01*
X0343389Y0172798D01*
X0342322Y0172798D01*
X0341788Y0172264D01*
X0340240Y0172264D02*
X0340240Y0171196D01*
X0339706Y0170662D01*
X0338105Y0170662D01*
X0338105Y0169595D02*
X0338105Y0172798D01*
X0339706Y0172798D01*
X0340240Y0172264D01*
X0339172Y0170662D02*
X0340240Y0169595D01*
X0339757Y0168148D02*
X0340291Y0167614D01*
X0340291Y0166547D01*
X0339757Y0166013D01*
X0338156Y0166013D01*
X0339223Y0166013D02*
X0340291Y0164945D01*
X0341839Y0165479D02*
X0342373Y0164945D01*
X0343440Y0164945D01*
X0343974Y0165479D01*
X0343974Y0166013D01*
X0343440Y0166547D01*
X0342907Y0166547D01*
X0343440Y0166547D02*
X0343974Y0167080D01*
X0343974Y0167614D01*
X0343440Y0168148D01*
X0342373Y0168148D01*
X0341839Y0167614D01*
X0339757Y0168148D02*
X0338156Y0168148D01*
X0338156Y0164945D01*
X0338120Y0163367D02*
X0339722Y0163367D01*
X0340256Y0162833D01*
X0340256Y0161766D01*
X0339722Y0161232D01*
X0338120Y0161232D01*
X0338120Y0160164D02*
X0338120Y0163367D01*
X0339188Y0161232D02*
X0340256Y0160164D01*
X0341804Y0160698D02*
X0342337Y0160164D01*
X0343405Y0160164D01*
X0343939Y0160698D01*
X0343939Y0161232D01*
X0343405Y0161766D01*
X0342871Y0161766D01*
X0343405Y0161766D02*
X0343939Y0162299D01*
X0343939Y0162833D01*
X0343405Y0163367D01*
X0342337Y0163367D01*
X0341804Y0162833D01*
X0345487Y0162833D02*
X0346021Y0163367D01*
X0347088Y0163367D01*
X0347622Y0162833D01*
X0345487Y0160698D01*
X0346021Y0160164D01*
X0347088Y0160164D01*
X0347622Y0160698D01*
X0347622Y0162833D01*
X0349170Y0163367D02*
X0351305Y0163367D01*
X0351305Y0162833D01*
X0349170Y0160698D01*
X0349170Y0160164D01*
X0349653Y0158554D02*
X0349120Y0158021D01*
X0349120Y0157487D01*
X0349653Y0156953D01*
X0351255Y0156953D01*
X0351255Y0158021D02*
X0350721Y0158554D01*
X0349653Y0158554D01*
X0351255Y0158021D02*
X0351255Y0155885D01*
X0350721Y0155352D01*
X0349653Y0155352D01*
X0349120Y0155885D01*
X0347572Y0155885D02*
X0347038Y0155352D01*
X0345970Y0155352D01*
X0345436Y0155885D01*
X0347572Y0158021D01*
X0347572Y0155885D01*
X0347572Y0158021D02*
X0347038Y0158554D01*
X0345970Y0158554D01*
X0345436Y0158021D01*
X0345436Y0155885D01*
X0343888Y0155885D02*
X0343355Y0155352D01*
X0342287Y0155352D01*
X0341753Y0155885D01*
X0342821Y0156953D02*
X0343355Y0156953D01*
X0343888Y0156419D01*
X0343888Y0155885D01*
X0343355Y0156953D02*
X0343888Y0157487D01*
X0343888Y0158021D01*
X0343355Y0158554D01*
X0342287Y0158554D01*
X0341753Y0158021D01*
X0340205Y0158021D02*
X0340205Y0156953D01*
X0339671Y0156419D01*
X0338070Y0156419D01*
X0338070Y0155352D02*
X0338070Y0158554D01*
X0339671Y0158554D01*
X0340205Y0158021D01*
X0339138Y0156419D02*
X0340205Y0155352D01*
X0338778Y0153798D02*
X0338778Y0150595D01*
X0337711Y0150595D02*
X0339846Y0150595D01*
X0337711Y0152730D02*
X0338778Y0153798D01*
X0336163Y0153264D02*
X0335629Y0153798D01*
X0334561Y0153798D01*
X0334028Y0153264D01*
X0334028Y0151129D01*
X0336163Y0153264D01*
X0336163Y0151129D01*
X0335629Y0150595D01*
X0334561Y0150595D01*
X0334028Y0151129D01*
X0332480Y0151129D02*
X0331946Y0150595D01*
X0330878Y0150595D01*
X0330345Y0151129D01*
X0331412Y0152196D02*
X0331946Y0152196D01*
X0332480Y0151662D01*
X0332480Y0151129D01*
X0331946Y0152196D02*
X0332480Y0152730D01*
X0332480Y0153264D01*
X0331946Y0153798D01*
X0330878Y0153798D01*
X0330345Y0153264D01*
X0328797Y0153798D02*
X0327729Y0153798D01*
X0328263Y0153798D02*
X0328263Y0151129D01*
X0327729Y0150595D01*
X0327195Y0150595D01*
X0326661Y0151129D01*
X0329678Y0156841D02*
X0332434Y0156841D01*
X0332434Y0159597D01*
X0335190Y0159597D01*
X0335240Y0160473D02*
X0332484Y0160473D01*
X0332484Y0163229D01*
X0335240Y0163229D01*
X0335276Y0164073D02*
X0332520Y0164073D01*
X0332520Y0166829D01*
X0335276Y0166829D01*
X0335224Y0167541D02*
X0332469Y0167541D01*
X0332469Y0170297D01*
X0335224Y0170297D01*
X0332469Y0170297D02*
X0329713Y0170297D01*
X0329713Y0167541D02*
X0332469Y0167541D01*
X0332520Y0166829D02*
X0329764Y0166829D01*
X0329764Y0164073D02*
X0332520Y0164073D01*
X0332484Y0163229D02*
X0329728Y0163229D01*
X0329728Y0160473D02*
X0332484Y0160473D01*
X0332434Y0159597D02*
X0329678Y0159597D01*
X0332434Y0156841D02*
X0335190Y0156841D01*
X0345487Y0160698D02*
X0345487Y0162833D01*
X0346056Y0164945D02*
X0345522Y0165479D01*
X0347657Y0167614D01*
X0347657Y0165479D01*
X0347124Y0164945D01*
X0346056Y0164945D01*
X0345522Y0165479D02*
X0345522Y0167614D01*
X0346056Y0168148D01*
X0347124Y0168148D01*
X0347657Y0167614D01*
X0349205Y0167614D02*
X0349205Y0167080D01*
X0349739Y0166547D01*
X0350807Y0166547D01*
X0351340Y0166013D01*
X0351340Y0165479D01*
X0350807Y0164945D01*
X0349739Y0164945D01*
X0349205Y0165479D01*
X0349205Y0166013D01*
X0349739Y0166547D01*
X0350807Y0166547D02*
X0351340Y0167080D01*
X0351340Y0167614D01*
X0350807Y0168148D01*
X0349739Y0168148D01*
X0349205Y0167614D01*
X0349154Y0171730D02*
X0350222Y0172798D01*
X0337828Y0178163D02*
X0337294Y0177629D01*
X0337828Y0178163D02*
X0337828Y0178696D01*
X0337294Y0179230D01*
X0334625Y0179230D01*
X0334625Y0178696D02*
X0334625Y0179764D01*
X0335159Y0181312D02*
X0334625Y0181846D01*
X0334625Y0182913D01*
X0335159Y0183447D01*
X0335692Y0183447D01*
X0336226Y0182913D01*
X0336760Y0183447D01*
X0337294Y0183447D01*
X0337828Y0182913D01*
X0337828Y0181846D01*
X0337294Y0181312D01*
X0336226Y0182379D02*
X0336226Y0182913D01*
X0335159Y0184995D02*
X0334625Y0185529D01*
X0334625Y0186596D01*
X0335159Y0187130D01*
X0337294Y0184995D01*
X0337828Y0185529D01*
X0337828Y0186596D01*
X0337294Y0187130D01*
X0335159Y0187130D01*
X0335159Y0188678D02*
X0334625Y0189212D01*
X0334625Y0190280D01*
X0335159Y0190813D01*
X0335692Y0190813D01*
X0336226Y0190280D01*
X0336760Y0190813D01*
X0337294Y0190813D01*
X0337828Y0190280D01*
X0337828Y0189212D01*
X0337294Y0188678D01*
X0336226Y0189746D02*
X0336226Y0190280D01*
X0337294Y0184995D02*
X0335159Y0184995D01*
X0315284Y0184623D02*
X0315284Y0181867D01*
X0312528Y0181867D02*
X0312528Y0184623D01*
X0315284Y0184623D01*
X0315284Y0187379D01*
X0312528Y0187379D02*
X0312528Y0184623D01*
X0311253Y0184664D02*
X0311253Y0183596D01*
X0310719Y0183062D01*
X0309651Y0184130D02*
X0309651Y0184664D01*
X0310185Y0185197D01*
X0310719Y0185197D01*
X0311253Y0184664D01*
X0309651Y0184664D02*
X0309118Y0185197D01*
X0308584Y0185197D01*
X0308050Y0184664D01*
X0308050Y0183596D01*
X0308584Y0183062D01*
X0308584Y0181514D02*
X0308050Y0180980D01*
X0308050Y0179913D01*
X0308584Y0179379D01*
X0310719Y0179379D01*
X0311253Y0179913D01*
X0311253Y0180980D01*
X0310719Y0181514D01*
X0311253Y0186745D02*
X0311253Y0188881D01*
X0311253Y0187813D02*
X0308050Y0187813D01*
X0309118Y0186745D01*
X0308050Y0190429D02*
X0308050Y0192564D01*
X0308584Y0192564D01*
X0310719Y0190429D01*
X0311253Y0190429D01*
X0293281Y0167677D02*
X0290078Y0167677D01*
X0291680Y0166076D01*
X0291680Y0168211D01*
X0290612Y0164528D02*
X0292747Y0164528D01*
X0293281Y0163994D01*
X0293281Y0162926D01*
X0292747Y0162393D01*
X0290612Y0164528D01*
X0290078Y0163994D01*
X0290078Y0162926D01*
X0290612Y0162393D01*
X0292747Y0162393D01*
X0292747Y0160845D02*
X0293281Y0160311D01*
X0293281Y0159243D01*
X0292747Y0158710D01*
X0291680Y0159777D02*
X0291680Y0160311D01*
X0292214Y0160845D01*
X0292747Y0160845D01*
X0291680Y0160311D02*
X0291146Y0160845D01*
X0290612Y0160845D01*
X0290078Y0160311D01*
X0290078Y0159243D01*
X0290612Y0158710D01*
X0290612Y0157162D02*
X0290078Y0156628D01*
X0290078Y0155560D01*
X0290612Y0155026D01*
X0292747Y0155026D01*
X0293281Y0155560D01*
X0293281Y0156628D01*
X0292747Y0157162D01*
X0294673Y0157007D02*
X0294673Y0159763D01*
X0297429Y0159763D01*
X0297429Y0157007D01*
X0297429Y0159763D02*
X0297429Y0162519D01*
X0294673Y0162519D02*
X0294673Y0159763D01*
X0295326Y0150874D02*
X0295326Y0148119D01*
X0292570Y0148119D01*
X0290910Y0147616D02*
X0290910Y0146548D01*
X0290376Y0146015D01*
X0289309Y0146015D01*
X0288775Y0146548D01*
X0288775Y0147616D02*
X0289843Y0148150D01*
X0290376Y0148150D01*
X0290910Y0147616D01*
X0290910Y0149217D02*
X0288775Y0149217D01*
X0288775Y0147616D01*
X0287227Y0148684D02*
X0285092Y0146548D01*
X0285626Y0146015D01*
X0286693Y0146015D01*
X0287227Y0146548D01*
X0287227Y0148684D01*
X0286693Y0149217D01*
X0285626Y0149217D01*
X0285092Y0148684D01*
X0285092Y0146548D01*
X0283544Y0146548D02*
X0283010Y0146015D01*
X0281943Y0146015D01*
X0281409Y0146548D01*
X0282476Y0147616D02*
X0283010Y0147616D01*
X0283544Y0147082D01*
X0283544Y0146548D01*
X0283010Y0147616D02*
X0283544Y0148150D01*
X0283544Y0148684D01*
X0283010Y0149217D01*
X0281943Y0149217D01*
X0281409Y0148684D01*
X0279861Y0148684D02*
X0279327Y0149217D01*
X0278259Y0149217D01*
X0277726Y0148684D01*
X0277726Y0146548D01*
X0278259Y0146015D01*
X0279327Y0146015D01*
X0279861Y0146548D01*
X0292570Y0150874D02*
X0295326Y0150874D01*
X0298082Y0150874D01*
X0298082Y0148119D02*
X0295326Y0148119D01*
X0265275Y0152929D02*
X0263140Y0152929D01*
X0265275Y0155064D01*
X0265275Y0155598D01*
X0264741Y0156131D01*
X0263674Y0156131D01*
X0263140Y0155598D01*
X0261592Y0155598D02*
X0259457Y0153463D01*
X0259991Y0152929D01*
X0261058Y0152929D01*
X0261592Y0153463D01*
X0261592Y0155598D01*
X0261058Y0156131D01*
X0259991Y0156131D01*
X0259457Y0155598D01*
X0259457Y0153463D01*
X0257909Y0152929D02*
X0255774Y0152929D01*
X0257909Y0155064D01*
X0257909Y0155598D01*
X0257375Y0156131D01*
X0256308Y0156131D01*
X0255774Y0155598D01*
X0254226Y0155598D02*
X0253692Y0156131D01*
X0252091Y0156131D01*
X0252091Y0152929D01*
X0253692Y0152929D01*
X0254226Y0153463D01*
X0254226Y0155598D01*
X0250543Y0156131D02*
X0248408Y0156131D01*
X0248408Y0152929D01*
X0250543Y0152929D01*
X0249475Y0154530D02*
X0248408Y0154530D01*
X0246860Y0152929D02*
X0244724Y0152929D01*
X0244724Y0156131D01*
X0242185Y0155635D02*
X0242185Y0155102D01*
X0241651Y0154568D01*
X0242185Y0154034D01*
X0242185Y0153500D01*
X0241651Y0152967D01*
X0240584Y0152967D01*
X0240050Y0153500D01*
X0241117Y0154568D02*
X0241651Y0154568D01*
X0242185Y0155635D02*
X0241651Y0156169D01*
X0240584Y0156169D01*
X0240050Y0155635D01*
X0238502Y0155635D02*
X0236367Y0153500D01*
X0236901Y0152967D01*
X0237968Y0152967D01*
X0238502Y0153500D01*
X0238502Y0155635D01*
X0237968Y0156169D01*
X0236901Y0156169D01*
X0236367Y0155635D01*
X0236367Y0153500D01*
X0234819Y0152967D02*
X0232684Y0152967D01*
X0234819Y0155102D01*
X0234819Y0155635D01*
X0234285Y0156169D01*
X0233217Y0156169D01*
X0232684Y0155635D01*
X0231136Y0155635D02*
X0231136Y0154568D01*
X0230602Y0154034D01*
X0229000Y0154034D01*
X0229000Y0152967D02*
X0229000Y0156169D01*
X0230602Y0156169D01*
X0231136Y0155635D01*
X0230068Y0154034D02*
X0231136Y0152967D01*
X0240695Y0151527D02*
X0243451Y0151527D01*
X0243451Y0148771D01*
X0240695Y0148771D01*
X0243451Y0148771D02*
X0246207Y0148771D01*
X0246207Y0151527D02*
X0243451Y0151527D01*
X0267504Y0167629D02*
X0268038Y0167095D01*
X0270173Y0167095D01*
X0270707Y0167629D01*
X0270707Y0168696D01*
X0270173Y0169230D01*
X0270173Y0170778D02*
X0270707Y0171312D01*
X0270707Y0172379D01*
X0270173Y0172913D01*
X0269640Y0172913D01*
X0269106Y0172379D01*
X0269106Y0171846D01*
X0269106Y0172379D02*
X0268572Y0172913D01*
X0268038Y0172913D01*
X0267504Y0172379D01*
X0267504Y0171312D01*
X0268038Y0170778D01*
X0268038Y0169230D02*
X0267504Y0168696D01*
X0267504Y0167629D01*
X0268572Y0174461D02*
X0267504Y0175529D01*
X0270707Y0175529D01*
X0270707Y0176596D02*
X0270707Y0174461D01*
X0270173Y0178144D02*
X0270707Y0178678D01*
X0270707Y0179746D01*
X0270173Y0180279D01*
X0269106Y0180279D01*
X0268572Y0179746D01*
X0268572Y0179212D01*
X0269106Y0178144D01*
X0267504Y0178144D01*
X0267504Y0180279D01*
X0272831Y0219672D02*
X0273583Y0219606D01*
X0273992Y0219949D01*
X0274058Y0220701D01*
X0272342Y0222746D01*
X0271933Y0222403D02*
X0272751Y0223089D01*
X0274623Y0223266D02*
X0274755Y0224770D01*
X0276814Y0222317D01*
X0277631Y0223003D02*
X0275996Y0221631D01*
X0278474Y0224407D02*
X0277102Y0226043D01*
X0277167Y0226795D01*
X0277985Y0227481D01*
X0278737Y0227415D01*
X0278474Y0224407D01*
X0279226Y0224341D01*
X0280044Y0225027D01*
X0280110Y0225779D01*
X0278737Y0227415D01*
X0280609Y0227592D02*
X0282245Y0228965D01*
X0280807Y0229848D02*
X0280609Y0227592D01*
X0282865Y0227395D02*
X0280807Y0229848D01*
X0311503Y0233541D02*
X0312037Y0233007D01*
X0313105Y0233007D01*
X0313638Y0233541D01*
X0315186Y0233007D02*
X0317321Y0235143D01*
X0317321Y0235676D01*
X0316788Y0236210D01*
X0315720Y0236210D01*
X0315186Y0235676D01*
X0313638Y0235676D02*
X0313105Y0236210D01*
X0312037Y0236210D01*
X0311503Y0235676D01*
X0311503Y0233541D01*
X0315186Y0233007D02*
X0317321Y0233007D01*
X0318869Y0233541D02*
X0319403Y0233007D01*
X0320471Y0233007D01*
X0321005Y0233541D01*
X0321005Y0235676D01*
X0318869Y0233541D01*
X0318869Y0235676D01*
X0319403Y0236210D01*
X0320471Y0236210D01*
X0321005Y0235676D01*
X0322553Y0234609D02*
X0324154Y0234609D01*
X0324688Y0234075D01*
X0324688Y0233541D01*
X0324154Y0233007D01*
X0323086Y0233007D01*
X0322553Y0233541D01*
X0322553Y0234609D01*
X0323620Y0235676D01*
X0324688Y0236210D01*
X0353409Y0228117D02*
X0356612Y0228117D01*
X0356612Y0227050D02*
X0356612Y0229185D01*
X0354477Y0227050D02*
X0353409Y0228117D01*
X0353943Y0225502D02*
X0356078Y0223367D01*
X0356612Y0223900D01*
X0356612Y0224968D01*
X0356078Y0225502D01*
X0353943Y0225502D01*
X0353409Y0224968D01*
X0353409Y0223900D01*
X0353943Y0223367D01*
X0356078Y0223367D01*
X0355010Y0221819D02*
X0355010Y0219684D01*
X0353409Y0221285D01*
X0356612Y0221285D01*
X0356078Y0217602D02*
X0353409Y0217602D01*
X0353409Y0217068D02*
X0353409Y0218136D01*
X0356078Y0217602D02*
X0356612Y0217068D01*
X0356612Y0216534D01*
X0356078Y0216000D01*
X0375877Y0193850D02*
X0375877Y0191094D01*
X0378633Y0191094D02*
X0378633Y0193850D01*
X0379452Y0185665D02*
X0379452Y0182996D01*
X0379986Y0182462D01*
X0381053Y0182462D01*
X0381587Y0182996D01*
X0381587Y0185665D01*
X0383135Y0184063D02*
X0385270Y0184063D01*
X0384736Y0182462D02*
X0384736Y0185665D01*
X0383135Y0184063D01*
X0386818Y0182996D02*
X0388953Y0185131D01*
X0388953Y0182996D01*
X0388420Y0182462D01*
X0387352Y0182462D01*
X0386818Y0182996D01*
X0386818Y0185131D01*
X0387352Y0185665D01*
X0388420Y0185665D01*
X0388953Y0185131D01*
X0390501Y0184063D02*
X0392637Y0184063D01*
X0392103Y0182462D02*
X0392103Y0185665D01*
X0390501Y0184063D01*
X0395392Y0178148D02*
X0395392Y0175393D01*
X0398148Y0175393D01*
X0398148Y0178148D01*
X0398792Y0178183D02*
X0398792Y0175427D01*
X0401548Y0175427D01*
X0401548Y0178183D01*
X0402576Y0178148D02*
X0402576Y0175393D01*
X0405332Y0175393D01*
X0405332Y0178148D01*
X0406192Y0178118D02*
X0406192Y0175362D01*
X0408948Y0175362D01*
X0408948Y0178118D01*
X0408948Y0175362D02*
X0408948Y0172606D01*
X0406192Y0172606D02*
X0406192Y0175362D01*
X0405332Y0175393D02*
X0405332Y0172637D01*
X0402576Y0172637D02*
X0402576Y0175393D01*
X0401548Y0175427D02*
X0401548Y0172671D01*
X0398792Y0172671D02*
X0398792Y0175427D01*
X0398148Y0175393D02*
X0398148Y0172637D01*
X0395392Y0172637D02*
X0395392Y0175393D01*
X0383870Y0174937D02*
X0383870Y0177072D01*
X0383870Y0176005D02*
X0380667Y0176005D01*
X0381735Y0174937D01*
X0383870Y0173389D02*
X0383870Y0171254D01*
X0383870Y0172322D02*
X0380667Y0172322D01*
X0381735Y0171254D01*
X0381735Y0169706D02*
X0382269Y0169172D01*
X0382803Y0169706D01*
X0383336Y0169706D01*
X0383870Y0169172D01*
X0383870Y0168105D01*
X0383336Y0167571D01*
X0382269Y0168639D02*
X0382269Y0169172D01*
X0381735Y0169706D02*
X0381201Y0169706D01*
X0380667Y0169172D01*
X0380667Y0168105D01*
X0381201Y0167571D01*
X0381201Y0166023D02*
X0380667Y0165489D01*
X0380667Y0164422D01*
X0381201Y0163888D01*
X0383336Y0163888D01*
X0383870Y0164422D01*
X0383870Y0165489D01*
X0383336Y0166023D01*
X0384006Y0162319D02*
X0384006Y0159563D01*
X0381250Y0159563D01*
X0381250Y0156807D01*
X0384006Y0156807D02*
X0384006Y0159563D01*
X0381250Y0159563D02*
X0381250Y0162319D01*
X0381643Y0151774D02*
X0381643Y0149019D01*
X0378887Y0149019D01*
X0376833Y0149417D02*
X0376299Y0148883D01*
X0375232Y0148883D01*
X0374698Y0149417D01*
X0374698Y0149951D01*
X0375232Y0150484D01*
X0376299Y0150484D01*
X0376833Y0149951D01*
X0376833Y0149417D01*
X0376299Y0150484D02*
X0376833Y0151018D01*
X0376833Y0151552D01*
X0376299Y0152086D01*
X0375232Y0152086D01*
X0374698Y0151552D01*
X0374698Y0151018D01*
X0375232Y0150484D01*
X0373150Y0149417D02*
X0372616Y0148883D01*
X0371549Y0148883D01*
X0371015Y0149417D01*
X0373150Y0151552D01*
X0373150Y0149417D01*
X0373150Y0151552D02*
X0372616Y0152086D01*
X0371549Y0152086D01*
X0371015Y0151552D01*
X0371015Y0149417D01*
X0369467Y0149417D02*
X0368933Y0148883D01*
X0367865Y0148883D01*
X0367332Y0149417D01*
X0368399Y0150484D02*
X0368933Y0150484D01*
X0369467Y0149951D01*
X0369467Y0149417D01*
X0368933Y0150484D02*
X0369467Y0151018D01*
X0369467Y0151552D01*
X0368933Y0152086D01*
X0367865Y0152086D01*
X0367332Y0151552D01*
X0365784Y0151552D02*
X0365250Y0152086D01*
X0364182Y0152086D01*
X0363649Y0151552D01*
X0363649Y0149417D01*
X0364182Y0148883D01*
X0365250Y0148883D01*
X0365784Y0149417D01*
X0378887Y0151774D02*
X0381643Y0151774D01*
X0384398Y0151774D01*
X0384398Y0149019D02*
X0381643Y0149019D01*
X0412854Y0152129D02*
X0413388Y0151595D01*
X0413922Y0151595D01*
X0414456Y0152129D01*
X0414456Y0154798D01*
X0414989Y0154798D02*
X0413922Y0154798D01*
X0416537Y0154264D02*
X0417071Y0154798D01*
X0418139Y0154798D01*
X0418673Y0154264D01*
X0418673Y0153730D01*
X0418139Y0153196D01*
X0418673Y0152662D01*
X0418673Y0152129D01*
X0418139Y0151595D01*
X0417071Y0151595D01*
X0416537Y0152129D01*
X0417605Y0153196D02*
X0418139Y0153196D01*
X0420221Y0152129D02*
X0422356Y0154264D01*
X0422356Y0152129D01*
X0421822Y0151595D01*
X0420754Y0151595D01*
X0420221Y0152129D01*
X0420221Y0154264D01*
X0420754Y0154798D01*
X0421822Y0154798D01*
X0422356Y0154264D01*
X0423904Y0154264D02*
X0424438Y0154798D01*
X0425505Y0154798D01*
X0426039Y0154264D01*
X0426039Y0153730D01*
X0423904Y0151595D01*
X0426039Y0151595D01*
X0425345Y0168793D02*
X0425345Y0170395D01*
X0425879Y0170928D01*
X0426947Y0170928D01*
X0427480Y0170395D01*
X0427480Y0168793D01*
X0427480Y0169861D02*
X0428548Y0170928D01*
X0428014Y0172476D02*
X0428548Y0173010D01*
X0428548Y0174078D01*
X0428014Y0174612D01*
X0427480Y0174612D01*
X0426947Y0174078D01*
X0426947Y0173544D01*
X0426947Y0174078D02*
X0426413Y0174612D01*
X0425879Y0174612D01*
X0425345Y0174078D01*
X0425345Y0173010D01*
X0425879Y0172476D01*
X0424145Y0173041D02*
X0423611Y0172507D01*
X0424145Y0173041D02*
X0424145Y0174109D01*
X0423611Y0174642D01*
X0423077Y0174642D01*
X0422544Y0174109D01*
X0422544Y0173575D01*
X0422544Y0174109D02*
X0422010Y0174642D01*
X0421476Y0174642D01*
X0420942Y0174109D01*
X0420942Y0173041D01*
X0421476Y0172507D01*
X0421476Y0170959D02*
X0422544Y0170959D01*
X0423077Y0170425D01*
X0423077Y0168824D01*
X0423077Y0169892D02*
X0424145Y0170959D01*
X0424145Y0168824D02*
X0420942Y0168824D01*
X0420942Y0170425D01*
X0421476Y0170959D01*
X0419573Y0170994D02*
X0418506Y0169926D01*
X0418506Y0170460D02*
X0418506Y0168859D01*
X0419573Y0168859D02*
X0416370Y0168859D01*
X0416370Y0170460D01*
X0416904Y0170994D01*
X0417972Y0170994D01*
X0418506Y0170460D01*
X0419039Y0172542D02*
X0419573Y0173076D01*
X0419573Y0174143D01*
X0419039Y0174677D01*
X0418506Y0174677D01*
X0417972Y0174143D01*
X0417972Y0173609D01*
X0417972Y0174143D02*
X0417438Y0174677D01*
X0416904Y0174677D01*
X0416370Y0174143D01*
X0416370Y0173076D01*
X0416904Y0172542D01*
X0414992Y0173041D02*
X0414458Y0172507D01*
X0414992Y0173041D02*
X0414992Y0174109D01*
X0414458Y0174642D01*
X0413925Y0174642D01*
X0413391Y0174109D01*
X0413391Y0173575D01*
X0413391Y0174109D02*
X0412857Y0174642D01*
X0412323Y0174642D01*
X0411789Y0174109D01*
X0411789Y0173041D01*
X0412323Y0172507D01*
X0412323Y0170959D02*
X0413391Y0170959D01*
X0413925Y0170425D01*
X0413925Y0168824D01*
X0414992Y0168824D02*
X0411789Y0168824D01*
X0411789Y0170425D01*
X0412323Y0170959D01*
X0413925Y0169892D02*
X0414992Y0170959D01*
X0414992Y0176190D02*
X0414992Y0178325D01*
X0414992Y0177258D02*
X0411789Y0177258D01*
X0412857Y0176190D01*
X0416370Y0177293D02*
X0419573Y0177293D01*
X0419573Y0178360D02*
X0419573Y0176225D01*
X0420942Y0177258D02*
X0424145Y0177258D01*
X0424145Y0178325D02*
X0424145Y0176190D01*
X0425345Y0177227D02*
X0428548Y0177227D01*
X0428548Y0176160D02*
X0428548Y0178295D01*
X0428548Y0179843D02*
X0428014Y0179843D01*
X0425879Y0181978D01*
X0425345Y0181978D01*
X0425345Y0179843D01*
X0424145Y0180407D02*
X0424145Y0181475D01*
X0423611Y0182009D01*
X0421476Y0182009D01*
X0420942Y0181475D01*
X0420942Y0180407D01*
X0421476Y0179873D01*
X0422010Y0179873D01*
X0422544Y0180407D01*
X0422544Y0182009D01*
X0423027Y0184134D02*
X0425162Y0184134D01*
X0424095Y0184134D02*
X0424095Y0187337D01*
X0423027Y0186269D01*
X0421479Y0186803D02*
X0420945Y0187337D01*
X0419878Y0187337D01*
X0419344Y0186803D01*
X0419344Y0184668D01*
X0419878Y0184134D01*
X0420945Y0184134D01*
X0421479Y0184668D01*
X0419039Y0182043D02*
X0419573Y0181509D01*
X0419573Y0180442D01*
X0419039Y0179908D01*
X0417972Y0179908D02*
X0417438Y0180976D01*
X0417438Y0181509D01*
X0417972Y0182043D01*
X0419039Y0182043D01*
X0417972Y0179908D02*
X0416370Y0179908D01*
X0416370Y0182043D01*
X0414992Y0181475D02*
X0411789Y0181475D01*
X0413391Y0179873D01*
X0413391Y0182009D01*
X0412801Y0184900D02*
X0411734Y0184900D01*
X0411200Y0185434D01*
X0411200Y0185968D01*
X0411734Y0186502D01*
X0412801Y0186502D01*
X0413335Y0185968D01*
X0413335Y0185434D01*
X0412801Y0184900D01*
X0412801Y0186502D02*
X0413335Y0187036D01*
X0413335Y0187569D01*
X0412801Y0188103D01*
X0411734Y0188103D01*
X0411200Y0187569D01*
X0411200Y0187036D01*
X0411734Y0186502D01*
X0409652Y0187036D02*
X0409118Y0186502D01*
X0409652Y0185968D01*
X0409652Y0185434D01*
X0409118Y0184900D01*
X0408050Y0184900D01*
X0407517Y0185434D01*
X0408584Y0186502D02*
X0409118Y0186502D01*
X0409652Y0187036D02*
X0409652Y0187569D01*
X0409118Y0188103D01*
X0408050Y0188103D01*
X0407517Y0187569D01*
X0404901Y0188103D02*
X0404901Y0184900D01*
X0403834Y0184900D02*
X0405969Y0184900D01*
X0403834Y0187036D02*
X0404901Y0188103D01*
X0404155Y0189299D02*
X0401399Y0189299D01*
X0401399Y0192055D01*
X0398643Y0192055D01*
X0398643Y0189299D02*
X0401399Y0189299D01*
X0401752Y0188103D02*
X0402286Y0187569D01*
X0402286Y0186502D01*
X0401752Y0185968D01*
X0400150Y0185968D01*
X0400150Y0184900D02*
X0400150Y0188103D01*
X0401752Y0188103D01*
X0401218Y0185968D02*
X0402286Y0184900D01*
X0401399Y0192055D02*
X0404155Y0192055D01*
X0423611Y0179873D02*
X0424145Y0180407D01*
X0425345Y0177227D02*
X0426413Y0176160D01*
X0422010Y0176190D02*
X0420942Y0177258D01*
X0417438Y0176225D02*
X0416370Y0177293D01*
X0425345Y0168793D02*
X0428548Y0168793D01*
X0428311Y0184134D02*
X0427244Y0184134D01*
X0426710Y0184668D01*
X0428845Y0186803D01*
X0428845Y0184668D01*
X0428311Y0184134D01*
X0426710Y0184668D02*
X0426710Y0186803D01*
X0427244Y0187337D01*
X0428311Y0187337D01*
X0428845Y0186803D01*
X0430393Y0185736D02*
X0432528Y0185736D01*
X0431995Y0187337D02*
X0430393Y0185736D01*
X0431995Y0187337D02*
X0431995Y0184134D01*
X0432613Y0188600D02*
X0435369Y0188600D01*
X0435369Y0191356D01*
X0432613Y0191356D01*
X0435369Y0191356D02*
X0438125Y0191356D01*
X0438125Y0188600D02*
X0435369Y0188600D01*
X0447112Y0195638D02*
X0447112Y0197773D01*
X0447646Y0198307D01*
X0448713Y0198307D01*
X0449247Y0197773D01*
X0450795Y0197239D02*
X0451863Y0198307D01*
X0451863Y0195104D01*
X0452930Y0195104D02*
X0450795Y0195104D01*
X0449247Y0195638D02*
X0448713Y0195104D01*
X0447646Y0195104D01*
X0447112Y0195638D01*
X0451318Y0199744D02*
X0454074Y0199744D01*
X0454074Y0202500D01*
X0456830Y0202500D01*
X0454074Y0202500D02*
X0451318Y0202500D01*
X0454074Y0199744D02*
X0456830Y0199744D01*
X0456079Y0198307D02*
X0456613Y0197773D01*
X0454478Y0195638D01*
X0455012Y0195104D01*
X0456079Y0195104D01*
X0456613Y0195638D01*
X0456613Y0197773D01*
X0456079Y0198307D02*
X0455012Y0198307D01*
X0454478Y0197773D01*
X0454478Y0195638D01*
X0458161Y0195638D02*
X0458695Y0195104D01*
X0459763Y0195104D01*
X0460296Y0195638D01*
X0460296Y0196172D01*
X0459763Y0196706D01*
X0459229Y0196706D01*
X0459763Y0196706D02*
X0460296Y0197239D01*
X0460296Y0197773D01*
X0459763Y0198307D01*
X0458695Y0198307D01*
X0458161Y0197773D01*
X0463188Y0197534D02*
X0463188Y0196467D01*
X0463722Y0195933D01*
X0463722Y0194385D02*
X0465857Y0192250D01*
X0466391Y0192784D01*
X0466391Y0193851D01*
X0465857Y0194385D01*
X0463722Y0194385D01*
X0463188Y0193851D01*
X0463188Y0192784D01*
X0463722Y0192250D01*
X0465857Y0192250D01*
X0466391Y0190702D02*
X0466391Y0188567D01*
X0466391Y0189634D02*
X0463188Y0189634D01*
X0464255Y0188567D01*
X0463188Y0187019D02*
X0466391Y0187019D01*
X0465323Y0185951D01*
X0466391Y0184884D01*
X0463188Y0184884D01*
X0463722Y0183336D02*
X0463188Y0182802D01*
X0463188Y0181734D01*
X0463722Y0181200D01*
X0464255Y0181200D01*
X0464789Y0181734D01*
X0464789Y0182802D01*
X0465323Y0183336D01*
X0465857Y0183336D01*
X0466391Y0182802D01*
X0466391Y0181734D01*
X0465857Y0181200D01*
X0472770Y0173685D02*
X0475034Y0171420D01*
X0474279Y0170665D02*
X0475789Y0172175D01*
X0472770Y0172175D02*
X0472770Y0173685D01*
X0471298Y0171458D02*
X0471298Y0168438D01*
X0472052Y0168438D01*
X0472807Y0169193D01*
X0472807Y0169948D01*
X0471298Y0171458D01*
X0470543Y0171458D01*
X0469788Y0170703D01*
X0469788Y0169948D01*
X0471298Y0168438D01*
X0470580Y0166966D02*
X0469071Y0165457D01*
X0469826Y0166211D02*
X0467561Y0168476D01*
X0467561Y0166966D01*
X0465711Y0166627D02*
X0467976Y0164362D01*
X0466466Y0164362D01*
X0466466Y0162852D01*
X0464202Y0165117D01*
X0463484Y0163645D02*
X0462730Y0163645D01*
X0461975Y0162890D01*
X0461975Y0162135D01*
X0462352Y0161758D01*
X0463107Y0161758D01*
X0463862Y0162513D01*
X0464617Y0162513D01*
X0464994Y0162135D01*
X0464994Y0161380D01*
X0464239Y0160625D01*
X0463484Y0160625D01*
X0466391Y0195933D02*
X0464255Y0198068D01*
X0463722Y0198068D01*
X0463188Y0197534D01*
X0466391Y0198068D02*
X0466391Y0195933D01*
X0463766Y0201871D02*
X0464300Y0202405D01*
X0464300Y0203472D01*
X0463766Y0204006D01*
X0464300Y0205554D02*
X0464300Y0207689D01*
X0464300Y0206622D02*
X0461097Y0206622D01*
X0462165Y0205554D01*
X0461631Y0204006D02*
X0461097Y0203472D01*
X0461097Y0202405D01*
X0461631Y0201871D01*
X0463766Y0201871D01*
X0463766Y0209237D02*
X0461631Y0211372D01*
X0463766Y0211372D01*
X0464300Y0210839D01*
X0464300Y0209771D01*
X0463766Y0209237D01*
X0461631Y0209237D01*
X0461097Y0209771D01*
X0461097Y0210839D01*
X0461631Y0211372D01*
X0461631Y0212920D02*
X0462165Y0212920D01*
X0462699Y0213454D01*
X0462699Y0214522D01*
X0463232Y0215056D01*
X0463766Y0215056D01*
X0464300Y0214522D01*
X0464300Y0213454D01*
X0463766Y0212920D01*
X0463232Y0212920D01*
X0462699Y0213454D01*
X0462699Y0214522D02*
X0462165Y0215056D01*
X0461631Y0215056D01*
X0461097Y0214522D01*
X0461097Y0213454D01*
X0461631Y0212920D01*
X0460095Y0212123D02*
X0460095Y0214879D01*
X0457339Y0214879D01*
X0457339Y0217635D01*
X0457339Y0214879D02*
X0457339Y0212123D01*
X0460095Y0214879D02*
X0460095Y0217635D01*
X0462389Y0218767D02*
X0463899Y0217257D01*
X0463144Y0218012D02*
X0465408Y0220277D01*
X0463899Y0220277D01*
X0463182Y0221749D02*
X0463182Y0222504D01*
X0462427Y0223259D01*
X0461672Y0223259D01*
X0460162Y0221749D01*
X0460162Y0220994D01*
X0460917Y0220239D01*
X0461672Y0220239D01*
X0464170Y0222755D02*
X0466119Y0220806D01*
X0468067Y0222755D01*
X0470016Y0220806D01*
X0468067Y0218858D02*
X0466119Y0220806D01*
X0468067Y0222755D02*
X0466119Y0224704D01*
X0466503Y0217672D02*
X0468013Y0217672D01*
X0465748Y0215408D01*
X0464993Y0216163D02*
X0466503Y0214653D01*
X0467598Y0213558D02*
X0470617Y0213558D01*
X0470995Y0213936D01*
X0470995Y0214691D01*
X0470240Y0215446D01*
X0469485Y0215446D01*
X0467598Y0213558D02*
X0469107Y0212049D01*
X0474657Y0210820D02*
X0474657Y0208685D01*
X0475190Y0208151D01*
X0476258Y0208151D01*
X0476792Y0208685D01*
X0478340Y0209752D02*
X0480475Y0209752D01*
X0479941Y0208151D02*
X0479941Y0211354D01*
X0478340Y0209752D01*
X0476792Y0210820D02*
X0476258Y0211354D01*
X0475190Y0211354D01*
X0474657Y0210820D01*
X0482023Y0210820D02*
X0482557Y0211354D01*
X0483624Y0211354D01*
X0484158Y0210820D01*
X0482023Y0208685D01*
X0482557Y0208151D01*
X0483624Y0208151D01*
X0484158Y0208685D01*
X0484158Y0210820D01*
X0485706Y0209752D02*
X0487841Y0209752D01*
X0489099Y0210428D02*
X0491855Y0210428D01*
X0491855Y0207672D01*
X0494611Y0207672D01*
X0491855Y0207672D02*
X0489099Y0207672D01*
X0487307Y0208151D02*
X0487307Y0211354D01*
X0485706Y0209752D01*
X0482023Y0208685D02*
X0482023Y0210820D01*
X0491855Y0210428D02*
X0494611Y0210428D01*
X0500575Y0212660D02*
X0500575Y0215416D01*
X0503331Y0215416D01*
X0503331Y0212660D01*
X0505043Y0211073D02*
X0505043Y0215404D01*
X0508980Y0215404D01*
X0508980Y0219734D01*
X0510555Y0220406D02*
X0511089Y0219872D01*
X0510555Y0220406D02*
X0510555Y0221473D01*
X0511089Y0222007D01*
X0511622Y0222007D01*
X0513757Y0219872D01*
X0513757Y0222007D01*
X0515338Y0221486D02*
X0515338Y0220418D01*
X0515872Y0219884D01*
X0516940Y0220952D02*
X0516940Y0221486D01*
X0517473Y0222020D01*
X0518007Y0222020D01*
X0518541Y0221486D01*
X0518541Y0220418D01*
X0518007Y0219884D01*
X0518007Y0218336D02*
X0518541Y0217803D01*
X0518541Y0216735D01*
X0518007Y0216201D01*
X0515872Y0218336D01*
X0518007Y0218336D01*
X0518007Y0216201D02*
X0515872Y0216201D01*
X0515338Y0216735D01*
X0515338Y0217803D01*
X0515872Y0218336D01*
X0513757Y0217790D02*
X0513757Y0216723D01*
X0513224Y0216189D01*
X0511089Y0218324D01*
X0513224Y0218324D01*
X0513757Y0217790D01*
X0513224Y0216189D02*
X0511089Y0216189D01*
X0510555Y0216723D01*
X0510555Y0217790D01*
X0511089Y0218324D01*
X0508980Y0215404D02*
X0508980Y0211073D01*
X0510555Y0210424D02*
X0510555Y0209356D01*
X0511089Y0208822D01*
X0513224Y0208822D01*
X0513757Y0209356D01*
X0513757Y0210424D01*
X0513224Y0210958D01*
X0512156Y0212506D02*
X0512156Y0214641D01*
X0510555Y0214107D02*
X0512156Y0212506D01*
X0511089Y0210958D02*
X0510555Y0210424D01*
X0510555Y0214107D02*
X0513757Y0214107D01*
X0515338Y0214120D02*
X0516940Y0212518D01*
X0516940Y0214653D01*
X0518541Y0214120D02*
X0515338Y0214120D01*
X0515872Y0210970D02*
X0516940Y0210970D01*
X0517473Y0210436D01*
X0517473Y0208835D01*
X0517473Y0209903D02*
X0518541Y0210970D01*
X0518541Y0208835D02*
X0515338Y0208835D01*
X0515338Y0210436D01*
X0515872Y0210970D01*
X0515338Y0221486D02*
X0515872Y0222020D01*
X0516406Y0222020D01*
X0516940Y0221486D01*
X0505043Y0219734D02*
X0505043Y0215404D01*
X0503331Y0215416D02*
X0503331Y0218172D01*
X0500575Y0218172D02*
X0500575Y0215416D01*
X0496142Y0224601D02*
X0495075Y0224601D01*
X0494541Y0225135D01*
X0495608Y0226203D02*
X0496142Y0226203D01*
X0496676Y0225669D01*
X0496676Y0225135D01*
X0496142Y0224601D01*
X0496142Y0226203D02*
X0496676Y0226736D01*
X0496676Y0227270D01*
X0496142Y0227804D01*
X0495075Y0227804D01*
X0494541Y0227270D01*
X0492993Y0227270D02*
X0490858Y0225135D01*
X0491391Y0224601D01*
X0492459Y0224601D01*
X0492993Y0225135D01*
X0492993Y0227270D01*
X0492459Y0227804D01*
X0491391Y0227804D01*
X0490858Y0227270D01*
X0490858Y0225135D01*
X0489310Y0226203D02*
X0487174Y0226203D01*
X0488776Y0227804D01*
X0488776Y0224601D01*
X0485626Y0225135D02*
X0485626Y0227804D01*
X0483491Y0227804D02*
X0483491Y0225135D01*
X0484025Y0224601D01*
X0485093Y0224601D01*
X0485626Y0225135D01*
X0481657Y0229438D02*
X0479392Y0231702D01*
X0479392Y0230193D01*
X0477543Y0229853D02*
X0478298Y0226078D01*
X0479807Y0227588D02*
X0476033Y0228343D01*
X0480902Y0228683D02*
X0482412Y0230193D01*
X0483129Y0231665D02*
X0483129Y0234684D01*
X0484639Y0233174D01*
X0484639Y0232419D01*
X0483884Y0231665D01*
X0483129Y0231665D01*
X0481619Y0233174D01*
X0481619Y0233929D01*
X0482374Y0234684D01*
X0483129Y0234684D01*
X0484601Y0235401D02*
X0484601Y0236911D01*
X0486866Y0234646D01*
X0486111Y0233892D02*
X0487620Y0235401D01*
X0468581Y0241562D02*
X0466632Y0239613D01*
X0464683Y0241562D01*
X0466632Y0243511D01*
X0465456Y0244087D02*
X0463947Y0242577D01*
X0464702Y0243332D02*
X0462437Y0245596D01*
X0462437Y0244087D01*
X0460965Y0243369D02*
X0460210Y0243369D01*
X0459455Y0242614D01*
X0459455Y0241860D01*
X0460965Y0240350D01*
X0461720Y0240350D01*
X0462475Y0241105D01*
X0462475Y0241860D01*
X0464683Y0241562D02*
X0462734Y0239613D01*
X0464683Y0237665D02*
X0466632Y0239613D01*
X0466551Y0245181D02*
X0468061Y0246691D01*
X0467306Y0245936D02*
X0465041Y0248201D01*
X0465041Y0246691D01*
X0467268Y0249673D02*
X0467268Y0250428D01*
X0468023Y0251182D01*
X0468778Y0251182D01*
X0469155Y0250805D01*
X0469155Y0250050D01*
X0469910Y0250050D01*
X0470288Y0249673D01*
X0470288Y0248918D01*
X0469533Y0248163D01*
X0468778Y0248163D01*
X0468778Y0249673D02*
X0469155Y0250050D01*
X0391043Y0296965D02*
X0388932Y0298737D01*
X0326830Y0341255D02*
X0315019Y0341255D01*
X0318083Y0339743D02*
X0320839Y0339743D01*
X0320839Y0336987D01*
X0318083Y0336987D01*
X0320839Y0336987D02*
X0323595Y0336987D01*
X0323595Y0339743D02*
X0320839Y0339743D01*
X0320334Y0342042D02*
X0322499Y0344207D01*
X0320334Y0346373D01*
X0320334Y0342042D01*
X0321075Y0348426D02*
X0320541Y0348960D01*
X0322676Y0351095D01*
X0322676Y0348960D01*
X0322142Y0348426D01*
X0321075Y0348426D01*
X0320541Y0348960D02*
X0320541Y0351095D01*
X0321075Y0351629D01*
X0322142Y0351629D01*
X0322676Y0351095D01*
X0324224Y0350562D02*
X0325292Y0351629D01*
X0325292Y0348426D01*
X0326359Y0348426D02*
X0324224Y0348426D01*
X0326830Y0347160D02*
X0315019Y0347160D01*
X0314776Y0348426D02*
X0315310Y0348960D01*
X0315310Y0351095D01*
X0314776Y0351629D01*
X0313175Y0351629D01*
X0313175Y0348426D01*
X0314776Y0348426D01*
X0316858Y0348426D02*
X0318993Y0348426D01*
X0317926Y0348426D02*
X0317926Y0351629D01*
X0316858Y0350562D01*
X0347907Y0387393D02*
X0348975Y0388460D01*
X0348975Y0390595D01*
X0350523Y0390595D02*
X0352124Y0390595D01*
X0352658Y0390061D01*
X0352658Y0388994D01*
X0352124Y0388460D01*
X0350523Y0388460D01*
X0351590Y0388460D02*
X0352658Y0387393D01*
X0354206Y0387393D02*
X0356341Y0387393D01*
X0355273Y0387393D02*
X0355273Y0390595D01*
X0354206Y0389528D01*
X0357889Y0390061D02*
X0358423Y0390595D01*
X0359490Y0390595D01*
X0360024Y0390061D01*
X0357889Y0387926D01*
X0358423Y0387393D01*
X0359490Y0387393D01*
X0360024Y0387926D01*
X0360024Y0390061D01*
X0361572Y0389528D02*
X0362640Y0390595D01*
X0362640Y0387393D01*
X0363707Y0387393D02*
X0361572Y0387393D01*
X0357889Y0387926D02*
X0357889Y0390061D01*
X0350523Y0390595D02*
X0350523Y0387393D01*
X0347907Y0387393D02*
X0346839Y0388460D01*
X0346839Y0390595D01*
X0237018Y0231263D02*
X0235382Y0229891D01*
X0236200Y0230577D02*
X0234141Y0233030D01*
X0234010Y0231526D01*
X0232481Y0230940D02*
X0232218Y0227932D01*
X0232970Y0227866D01*
X0233787Y0228552D01*
X0233853Y0229304D01*
X0232481Y0230940D01*
X0231729Y0231006D01*
X0230911Y0230320D01*
X0230845Y0229568D01*
X0232218Y0227932D01*
X0231375Y0226528D02*
X0229739Y0225156D01*
X0230002Y0228164D01*
X0229659Y0228573D01*
X0228907Y0228638D01*
X0228089Y0227952D01*
X0228024Y0227200D01*
X0226495Y0226614D02*
X0228553Y0224161D01*
X0227049Y0224292D01*
X0226918Y0222788D01*
X0224859Y0225242D01*
X0224016Y0223838D02*
X0223264Y0223903D01*
X0222447Y0223217D01*
X0222381Y0222465D01*
X0222724Y0222056D01*
X0223476Y0221991D01*
X0224294Y0222677D01*
X0225046Y0222611D01*
X0225389Y0222202D01*
X0225323Y0221450D01*
X0224505Y0220764D01*
X0223753Y0220830D01*
X0216857Y0218039D02*
X0216857Y0215904D01*
X0216857Y0216971D02*
X0213654Y0216971D01*
X0214722Y0215904D01*
X0214188Y0214356D02*
X0216323Y0212221D01*
X0216857Y0212754D01*
X0216857Y0213822D01*
X0216323Y0214356D01*
X0214188Y0214356D01*
X0213654Y0213822D01*
X0213654Y0212754D01*
X0214188Y0212221D01*
X0216323Y0212221D01*
X0215255Y0210673D02*
X0215255Y0208538D01*
X0213654Y0210139D01*
X0216857Y0210139D01*
X0216323Y0206990D02*
X0213654Y0206990D01*
X0213654Y0204854D02*
X0216323Y0204854D01*
X0216857Y0205388D01*
X0216857Y0206456D01*
X0216323Y0206990D01*
X0219945Y0200125D02*
X0223147Y0200125D01*
X0223147Y0199058D02*
X0223147Y0201193D01*
X0221012Y0199058D02*
X0219945Y0200125D01*
X0220478Y0197510D02*
X0222613Y0195375D01*
X0223147Y0195908D01*
X0223147Y0196976D01*
X0222613Y0197510D01*
X0220478Y0197510D01*
X0219945Y0196976D01*
X0219945Y0195908D01*
X0220478Y0195375D01*
X0222613Y0195375D01*
X0223147Y0193827D02*
X0223147Y0191691D01*
X0221012Y0193827D01*
X0220478Y0193827D01*
X0219945Y0193293D01*
X0219945Y0192225D01*
X0220478Y0191691D01*
X0219945Y0190143D02*
X0219945Y0189076D01*
X0219945Y0189610D02*
X0222613Y0189610D01*
X0223147Y0189076D01*
X0223147Y0188542D01*
X0222613Y0188008D01*
X0195138Y0212628D02*
X0195138Y0215384D01*
X0192382Y0215384D01*
X0192382Y0218140D01*
X0192033Y0220043D02*
X0192033Y0223246D01*
X0190432Y0221644D01*
X0192567Y0221644D01*
X0194115Y0220577D02*
X0194115Y0222712D01*
X0194649Y0223246D01*
X0195716Y0223246D01*
X0196250Y0222712D01*
X0194115Y0220577D01*
X0194649Y0220043D01*
X0195716Y0220043D01*
X0196250Y0220577D01*
X0196250Y0222712D01*
X0197798Y0222178D02*
X0198866Y0223246D01*
X0198866Y0220043D01*
X0199933Y0220043D02*
X0197798Y0220043D01*
X0195138Y0218140D02*
X0195138Y0215384D01*
X0192382Y0215384D02*
X0192382Y0212628D01*
X0190657Y0210664D02*
X0190657Y0214995D01*
X0186720Y0214995D01*
X0186720Y0210664D01*
X0183635Y0210023D02*
X0183102Y0210557D01*
X0183635Y0210023D02*
X0183635Y0208955D01*
X0183102Y0208422D01*
X0180966Y0208422D01*
X0180433Y0208955D01*
X0180433Y0210023D01*
X0180966Y0210557D01*
X0182034Y0212105D02*
X0182034Y0214240D01*
X0180433Y0213706D02*
X0182034Y0212105D01*
X0183635Y0213706D02*
X0180433Y0213706D01*
X0178990Y0213741D02*
X0175787Y0213741D01*
X0177388Y0212139D01*
X0177388Y0214275D01*
X0176321Y0215823D02*
X0175787Y0216356D01*
X0175787Y0217424D01*
X0176321Y0217958D01*
X0178456Y0215823D01*
X0178990Y0216356D01*
X0178990Y0217424D01*
X0178456Y0217958D01*
X0176321Y0217958D01*
X0176855Y0219506D02*
X0175787Y0220573D01*
X0178990Y0220573D01*
X0178990Y0219506D02*
X0178990Y0221641D01*
X0180433Y0221606D02*
X0180433Y0219471D01*
X0182034Y0219471D01*
X0181500Y0220539D01*
X0181500Y0221072D01*
X0182034Y0221606D01*
X0183102Y0221606D01*
X0183635Y0221072D01*
X0183635Y0220005D01*
X0183102Y0219471D01*
X0183102Y0217923D02*
X0183635Y0217389D01*
X0183635Y0216322D01*
X0183102Y0215788D01*
X0180966Y0217923D01*
X0183102Y0217923D01*
X0183102Y0215788D02*
X0180966Y0215788D01*
X0180433Y0216322D01*
X0180433Y0217389D01*
X0180966Y0217923D01*
X0178456Y0215823D02*
X0176321Y0215823D01*
X0176321Y0210591D02*
X0177388Y0210591D01*
X0177922Y0210058D01*
X0177922Y0208456D01*
X0178990Y0208456D02*
X0175787Y0208456D01*
X0175787Y0210058D01*
X0176321Y0210591D01*
X0177922Y0209524D02*
X0178990Y0210591D01*
X0186720Y0214995D02*
X0186720Y0219326D01*
X0187282Y0220043D02*
X0188350Y0220043D01*
X0188884Y0220577D01*
X0187282Y0220043D02*
X0186749Y0220577D01*
X0186749Y0222712D01*
X0187282Y0223246D01*
X0188350Y0223246D01*
X0188884Y0222712D01*
X0190657Y0219326D02*
X0190657Y0214995D01*
X0201199Y0220572D02*
X0203955Y0220572D01*
X0203955Y0223328D01*
X0201199Y0223328D01*
X0203955Y0223328D02*
X0206711Y0223328D01*
X0206711Y0220572D02*
X0203955Y0220572D01*
D119*
X0429649Y0172757D02*
X0429649Y0167746D01*
X0431598Y0165797D01*
X0429649Y0172757D02*
X0432990Y0176097D01*
X0440785Y0183892D02*
X0444126Y0187233D01*
X0449137Y0187233D01*
X0451085Y0185284D01*
X0462499Y0173870D02*
X0466397Y0169973D01*
X0461107Y0164683D01*
X0452756Y0156332D02*
X0449137Y0152713D01*
X0444682Y0152713D01*
X0442455Y0154940D01*
X0467991Y0181155D02*
X0467991Y0205170D01*
X0479802Y0205170D01*
X0479802Y0181155D01*
X0467991Y0181155D01*
X0471928Y0188241D02*
X0471928Y0198084D01*
X0475865Y0198084D01*
X0475865Y0188241D01*
X0471928Y0188241D01*
D120*
G36*
X0229241Y0235049D02*
X0227217Y0237462D01*
X0228725Y0238727D01*
X0230749Y0236314D01*
X0229241Y0235049D01*
G37*
G36*
X0221702Y0228722D02*
X0219678Y0231135D01*
X0221186Y0232400D01*
X0223210Y0229987D01*
X0221702Y0228722D01*
G37*
G36*
X0214162Y0222396D02*
X0212138Y0224809D01*
X0213646Y0226074D01*
X0215670Y0223661D01*
X0214162Y0222396D01*
G37*
D121*
X0279513Y0290343D02*
X0279563Y0290286D01*
X0279616Y0290232D01*
X0279672Y0290180D01*
X0279731Y0290131D01*
X0279791Y0290086D01*
X0279854Y0290043D01*
X0279919Y0290004D01*
X0279986Y0289968D01*
X0280055Y0289935D01*
X0280125Y0289906D01*
X0280197Y0289881D01*
X0280270Y0289859D01*
X0280344Y0289841D01*
X0280418Y0289827D01*
X0280493Y0289816D01*
X0280569Y0289810D01*
X0280645Y0289807D01*
X0280721Y0289808D01*
X0280797Y0289813D01*
X0280872Y0289822D01*
X0280947Y0289834D01*
X0281022Y0289851D01*
X0281095Y0289871D01*
X0281167Y0289895D01*
X0281238Y0289922D01*
X0281307Y0289953D01*
X0281375Y0289987D01*
X0281441Y0290025D01*
X0281505Y0290066D01*
X0281567Y0290111D01*
X0281626Y0290158D01*
X0281683Y0290208D01*
X0281737Y0290261D01*
X0281789Y0290317D01*
X0281838Y0290376D01*
X0281883Y0290436D01*
X0281926Y0290499D01*
X0281965Y0290564D01*
X0282001Y0290631D01*
X0282034Y0290700D01*
X0282063Y0290770D01*
X0282088Y0290842D01*
X0282110Y0290915D01*
X0282128Y0290989D01*
X0282142Y0291063D01*
X0282153Y0291138D01*
X0282159Y0291214D01*
X0282162Y0291290D01*
X0282161Y0291366D01*
X0282156Y0291442D01*
X0282147Y0291517D01*
X0282135Y0291592D01*
X0282118Y0291667D01*
X0282098Y0291740D01*
X0282074Y0291812D01*
X0282047Y0291883D01*
X0282016Y0291952D01*
X0281982Y0292020D01*
X0281944Y0292086D01*
X0281903Y0292150D01*
X0281858Y0292212D01*
X0281811Y0292271D01*
X0281761Y0292328D01*
X0281708Y0292382D01*
X0281652Y0292434D01*
X0281593Y0292483D01*
X0281533Y0292528D01*
X0281470Y0292571D01*
X0281405Y0292610D01*
X0281338Y0292646D01*
X0281269Y0292679D01*
X0281199Y0292708D01*
X0281127Y0292733D01*
X0281054Y0292755D01*
X0280980Y0292773D01*
X0280906Y0292787D01*
X0280831Y0292798D01*
X0280755Y0292804D01*
X0280679Y0292807D01*
X0280603Y0292806D01*
X0280527Y0292801D01*
X0280452Y0292792D01*
X0280377Y0292780D01*
X0280302Y0292763D01*
X0280229Y0292743D01*
X0280157Y0292719D01*
X0280086Y0292692D01*
X0280017Y0292661D01*
X0279949Y0292627D01*
X0279883Y0292589D01*
X0279819Y0292548D01*
X0279757Y0292503D01*
X0279698Y0292456D01*
X0279641Y0292406D01*
X0279587Y0292353D01*
X0279535Y0292297D01*
X0279486Y0292238D01*
X0279441Y0292178D01*
X0279398Y0292115D01*
X0279359Y0292050D01*
X0279323Y0291983D01*
X0279290Y0291914D01*
X0279261Y0291844D01*
X0279236Y0291772D01*
X0279214Y0291699D01*
X0279196Y0291625D01*
X0279182Y0291551D01*
X0279171Y0291476D01*
X0279165Y0291400D01*
X0279162Y0291324D01*
X0279163Y0291248D01*
X0279168Y0291172D01*
X0279177Y0291097D01*
X0279189Y0291022D01*
X0279206Y0290947D01*
X0279226Y0290874D01*
X0279250Y0290802D01*
X0279277Y0290731D01*
X0279308Y0290662D01*
X0279342Y0290594D01*
X0279380Y0290528D01*
X0279421Y0290464D01*
X0279466Y0290402D01*
X0279513Y0290343D01*
M02*
