%
M48
M72
T01C0.01181
T02C0.02400
T03C0.03150
T04C0.03543
T05C0.03937
T06C0.04331
T07C0.05512
T08C0.08071
T09C0.08268
T10C0.15748
T11C0.19685
%
T01
X216855Y166350
X236755Y172450
X239055Y172450
X241355Y172450
X243655Y172450
X245955Y172450
X248255Y172150
X250555Y172150
X252855Y172150
X255555Y169750
X259755Y175350
X262955Y178550
X259855Y181750
X256755Y186350
X254955Y187550
X254855Y189750
X253755Y191650
X252555Y189750
X256055Y191650
X257155Y189750
X258355Y191650
X254855Y185150
X245555Y184950
X243455Y184950
X243455Y182650
X245555Y182650
X245555Y187250
X245555Y200750
X243055Y200750
X240555Y200750
X240555Y203250
X240555Y205750
X240555Y208250
X243055Y208250
X243055Y205750
X243055Y203250
X245555Y203250
X245555Y205750
X245555Y208250
X248055Y208250
X248055Y205750
X248055Y203250
X248055Y200750
X250555Y201750
X250555Y204250
X250555Y206750
X252154Y209604
X258361Y209480
X268655Y209650
X262955Y219650
X262155Y224850
X265955Y231050
X268655Y233250
X270955Y235250
X273855Y237550
X275655Y240450
X272255Y244650
X281655Y235250
X286355Y234350
X289055Y236650
X291455Y238750
X293955Y232650
X301555Y234250
X299455Y241150
X309655Y251350
X317661Y258139
X322772Y260396
X326303Y258317
X328652Y261227
X340718Y263163
X348354Y255183
X357055Y252250
X358455Y249950
X359555Y255250
X358587Y260285
X355909Y260652
X361390Y260250
X361390Y262750
X365673Y267175
X366657Y269734
X364492Y271309
X359372Y272034
X355343Y272636
X355402Y275211
X352681Y274459
X353075Y279183
X338435Y281589
X333503Y292277
X340502Y299148
X335443Y309874
X326355Y322450
X326455Y328450
X331555Y341050
X340555Y336750
X355755Y336550
X369855Y338450
X369855Y333450
X376055Y341650
X370955Y343650
X376555Y349250
X380499Y347806
X382955Y354450
X381055Y362250
X382955Y365050
X383155Y370150
X375055Y372250
X360155Y364250
X364355Y350250
X372455Y354550
X347955Y352250
X335755Y364250
X347855Y376550
X335155Y380550
X328955Y387650
X313655Y374750
X312855Y355450
X312855Y335450
X310955Y320250
X319330Y316123
X319555Y290478
X322760Y289813
X316736Y287734
X312855Y286650
X320008Y281561
X322760Y281545
X322510Y277996
X316736Y278388
X318017Y271335
X311555Y270750
X309055Y270750
X306555Y270750
X304055Y270750
X304055Y273250
X306555Y273250
X309055Y273250
X311555Y273250
X311555Y268250
X309055Y268250
X306555Y268250
X304055Y268250
X304055Y265750
X306555Y265750
X309055Y265750
X303055Y277250
X294039Y274281
X291264Y270522
X290675Y267840
X283016Y274281
X281255Y279850
X286055Y282550
X297755Y287050
X279355Y293550
X273955Y276850
X259955Y277650
X259655Y265250
X262055Y253250
X273655Y254750
X288655Y252850
X286455Y229150
X298555Y225750
X298555Y222750
X298555Y219750
X298555Y216750
X301555Y216750
X301555Y219750
X301555Y222750
X301555Y225750
X304555Y225750
X304555Y222750
X304555Y219750
X304555Y216750
X306355Y211050
X315455Y207650
X312755Y202750
X316555Y199750
X316555Y197250
X312755Y195050
X318555Y201750
X320055Y203750
X322755Y203950
X327755Y211050
X337355Y213750
X342255Y207650
X343455Y202750
X338255Y202650
X348555Y204550
X350661Y205944
X350516Y208514
X350499Y213350
X352209Y215250
X361306Y207075
X362813Y200525
X367055Y202750
X364856Y213250
X379059Y213435
X383598Y213388
X382649Y208337
X379491Y207052
X377293Y198950
X373555Y193950
X379355Y189650
X379255Y185050
X382555Y181950
X384955Y185050
X390055Y181350
X385455Y178250
X386855Y175050
X385455Y171650
X381555Y173750
X381555Y166750
X374455Y165944
X369055Y160750
X367555Y158750
X366055Y160750
X364555Y158750
X370555Y158750
X366555Y165944
X359055Y165550
X359655Y169550
X355755Y176150
X352261Y176219
X352655Y166350
X352555Y163750
X342055Y163750
X340555Y165750
X340555Y168250
X340055Y170750
X329055Y171750
X323555Y172750
X318155Y176650
X318155Y179850
X313555Y179950
X313455Y176650
X309555Y172750
X306555Y172750
X307555Y178450
X303655Y184150
X310555Y186250
X318055Y186750
X323268Y192656
X329555Y188750
X334555Y188250
X341055Y188750
X352155Y186069
X356255Y191350
X359055Y186650
X362555Y189650
X367055Y189650
X369755Y183750
X369755Y181450
X369755Y179150
X372055Y179150
X372055Y181450
X372055Y183750
X382655Y195050
X387155Y198250
X386055Y200750
X390055Y195250
X392855Y199050
X397555Y203750
X395755Y205650
X397655Y207350
X399055Y209950
X397355Y211750
X400155Y213550
X406055Y216750
X404709Y219489
X409552Y219922
X414555Y215750
X417055Y219750
X421555Y215250
X425055Y213250
X428855Y208450
X431255Y203650
X427055Y201250
X425055Y202850
X419555Y205250
X416555Y205250
X413555Y205250
X409555Y205250
X406055Y205250
X402555Y205250
X395155Y189150
X396055Y187250
X394055Y187350
X394155Y185150
X396855Y185150
X398055Y186950
X401555Y184150
X405555Y183750
X408055Y183750
X410655Y184050
X418555Y191150
X430555Y190050
X438055Y187250
X443955Y185350
X444055Y191250
X438055Y201250
X434255Y215950
X444055Y223750
X448055Y229250
X448055Y231750
X457855Y225850
X458755Y219650
X465155Y217450
X470455Y218350
X475355Y212750
X472055Y210550
X465355Y207850
X470355Y202850
X470555Y200250
X469655Y194350
X473855Y187281
X478155Y195950
X460255Y183350
X454055Y177250
X465755Y170850
X473855Y175419
X478155Y160250
X474755Y149150
X465255Y157250
X455955Y149050
X447655Y156550
X440455Y162250
X438555Y164250
X438555Y167250
X441155Y166250
X437055Y170750
X434055Y173750
X426055Y177250
X427055Y179750
X426955Y182450
X427555Y167250
X425855Y159650
X429755Y153850
X433055Y157250
X436355Y149050
X420755Y154050
X415755Y149050
X412255Y162750
X412555Y175250
X393555Y176250
X394555Y164250
X396555Y160250
X392055Y159250
X388055Y159250
X360155Y195250
X348755Y201950
X328555Y222350
X317155Y214850
X313055Y224550
X308955Y231550
X320455Y250250
X335955Y238050
X349855Y229150
X360949Y233120
X363508Y233120
X365476Y231545
X366067Y234104
X368980Y231325
X371580Y231219
X373754Y228985
X376661Y229250
X384555Y235750
X384555Y239750
X384555Y242250
X382055Y242250
X383555Y254750
X376055Y261750
X374555Y267750
X374555Y270250
X380955Y269650
X387555Y272722
X391843Y272738
X391764Y277014
X388605Y280831
X383455Y283150
X383455Y291250
X391979Y294602
X396717Y300548
X400924Y305735
X406161Y301647
X404453Y293947
X406546Y292134
X408223Y286416
X413575Y286530
X416635Y286991
X417252Y283884
X420201Y281348
X423350Y278986
X426114Y276722
X429059Y279183
X431224Y277608
X432012Y274065
X435111Y271401
X436736Y276427
X441424Y273193
X429417Y264569
X418855Y265841
X413426Y273849
X413508Y276427
X407290Y273546
X405355Y264550
X395055Y261750
X395055Y258750
X398055Y254250
X400055Y252250
X403055Y249250
X406455Y245450
X408355Y243650
X407355Y237550
X404055Y233750
X404555Y231250
X407055Y230350
X409655Y230350
X397155Y236350
X394555Y231750
X397155Y243250
X395555Y245250
X399055Y245250
X417155Y246550
X422055Y254250
X424555Y254750
X431355Y253450
X434555Y254750
X436555Y253250
X438555Y254750
X440555Y253250
X442555Y254750
X446555Y253750
X447555Y256250
X450555Y253750
X455555Y254750
X462555Y253250
X464855Y251750
X469055Y244050
X459455Y237250
X447555Y241250
X447555Y245250
X445055Y245250
X436055Y245750
X435555Y248250
X428355Y246850
X434055Y237750
X434155Y227650
X419455Y226250
X420655Y236650
X388155Y267050
X378500Y276581
X398605Y280850
X416461Y292585
X419413Y290600
X425836Y281554
X391204Y305122
X389098Y306742
X388364Y301778
X380226Y304244
X373941Y313435
X371579Y315797
X369713Y318143
X364135Y318430
X376155Y324150
X384636Y319737
X388599Y316261
X391161Y313985
X360155Y382150
X366155Y389050
X347955Y401250
X244455Y264650
X241755Y250250
X250855Y244150
X252055Y232750
X253655Y228050
X246655Y223950
X240355Y223250
X240555Y218750
X238555Y216750
X231055Y210750
X228855Y214950
X224255Y214950
X226055Y219750
X228955Y219550
X223255Y227150
X220555Y231550
X228555Y231750
X231055Y233250
X237555Y232250
X236855Y228050
X227655Y250550
X205955Y232750
X211055Y223950
X210055Y221250
X213055Y215750
X215555Y214750
X216955Y204050
X193455Y222350
X185292Y214863
X247555Y161950
X239555Y150250
X234555Y148650
X262555Y162250
X270355Y162050
X276055Y156750
X277555Y154750
X276055Y152750
X279055Y152750
X280555Y154750
X279055Y156750
X282055Y156750
X283555Y154750
X282055Y152750
X280555Y167750
X278555Y169750
X276555Y171750
X283055Y171750
X289055Y184050
X289055Y186350
X291355Y186350
X291355Y184050
X293655Y184050
X293655Y186350
X295155Y192850
X294555Y198250
X297055Y198250
X299055Y196750
X301555Y196750
X303755Y195050
X296855Y203050
X291955Y203550
X285555Y197150
X285455Y191650
X275555Y187750
X271555Y188650
X269655Y189750
X271555Y190950
X269655Y192050
X271555Y193250
X271555Y195550
X264255Y185750
X266155Y181750
X266155Y175350
X269355Y171750
X255555Y177250
X255724Y200931
X278555Y219750
X285155Y219950
X284455Y211050
X293855Y214050
X277655Y229150
X326855Y180450
X307255Y166750
X296155Y166150
X444355Y177850
X454955Y194350
X457055Y198250
X458855Y201150
X457755Y208150
X482555Y211750
X492155Y215350
X496855Y210850
X510967Y215544
X481555Y222250
X474455Y226950
X481555Y233850
X583468Y219150
X589155Y213850
X594255Y214650
X595755Y208850
X606955Y214650
X612255Y216150
X611855Y208850
X632055Y211750
X631953Y219599
X112055Y215550
X105555Y212250
X100755Y222150
X93555Y216750
X84055Y221950
X82855Y215550
X64055Y219750
X63676Y211750
T02
X287327Y296900
X291080Y300049
X294834Y303199
X298664Y306413
T03
X441620Y175262
T04
X221159Y240088
X212112Y232496
T05
X369609Y347521
X369609Y380985
T06
X347955Y395650
X452199Y164683
T07
X371555Y242150
X324355Y242150
X324355Y309050
X371555Y309050
T08
X611736Y163435
X80240Y379970
T09
X221955Y155550
X473955Y155550
T10
X60555Y143750
X635358Y403593
T11
X347955Y364253
M30
